<svg xmlns="http://www.w3.org/2000/svg" viewBox="0 0 33 21.99"><defs><style>.cls-1{fill:#c72833}.cls-2{fill:#489f49}.cls-3{fill:#fff}</style></defs><title>Ресурс 1</title><g id="Слой_2" data-name="Слой 2"><g id="Layer_1" data-name="Layer 1"><path class="cls-1" d="M0 0h33v21.99H0z"/><path class="cls-2" d="M0 14.66h33v7.33H0z"/><path class="cls-3" d="M0 0h4.89v21.99H0z"/><g id="h"><path class="cls-1" d="M.85 0h.64v.36h.21v.36h.21v.36h.21v.36h.21v.36h-.21v.36h-.21v.36H1.7v.36h-.21v.36h-.22v.36h-.21v-.36H.85v-.36H.64v-.36H.42v-.36H.21V1.8H0v-.36h.21v-.36h.21V.72h.22V.36h.21zm.21.72h.21v.36h.21v.36h.22v.36h-.21v.36h-.22v.36h-.21v-.36H.85V1.8H.64v-.36h.21v-.36h.21zm0 .72h.21v.36h-.21zM0 .36h.21v.36H0zm0 2.16h.21v.36H0zM2.34 0h.13v.72h-.13zm0 2.52h.13v.72h-.13zm-1.92.72h.22v.36h.21V4h.21v.36H.85v.36H.64V5H.42v-.31H.21v-.36H0V4h.21v-.39h.21zm0 .76h.22v.36H.42zm1.28-.76h.21v.36h.21V4h.21v.36h-.21v.36h-.21V5H1.7v-.31h-.21v-.36h-.22V4h.21v-.39h.22zm0 .76h.21v.36H1.7zM0 5.41h.21v.36H0zM2.34 5h.13v.72h-.13zM0 6.49h.21v-.36h.21v-.36h.22v-.36h.21V5h.21v-.31h.21V5h.21v.36h.22v.36h.21v.36h.21v.36h.21v.36h.13v1.49h-.12v.36h-.22V9h-.21v.36H1.7v.36h-.21v.36h-.22V11H.85v-.22H.64v-.36H.42v-.32H.21v-.37H0V8.65h.21V9h.21v.36h.22v.36h.21v-.35h.21V9h.21v-.35h.21v-.36h.22v-.36h.21v-.36H1.7v-.36h-.21v-.36H.85v.36h.43v.36h-.22v.36H.85v.36H.64v-.36H.42v-.36H.21v-.36H0zm0 1.44h.21v.36H0zM2.34 9h.13v.36h-.13zm-.42.72h.21v.36h.21v.36h.13V11h-.13v-.22h-.22v-.36h-.21zM1.5 10.8h.2v.2h-.21z" id="q"/><path class="cls-1" d="M4 0h-.6v.36h-.21v.36H3v.36h-.24v.36h-.21v.36h.21v.36H3v.36h.21v.36h.19v.36h.21v.36h.21v-.36H4v-.36h.21v-.36h.21v-.36h.21V1.8h.21v-.36h-.17v-.36h-.21V.72h-.21V.36H4zm-.18.72h-.21v.36H3.4v.36h-.21v.36h.21v.36h.21v.36h.21v-.36H4V1.8h.21v-.36H4v-.36h-.18zm0 .72h-.21v.36h.21zM4.89.36h-.22v.36h.21zm0 2.16h-.22v.36h.21zM2.55 0h-.13v.72h.13zm0 2.52h-.13v.72h.13zm1.91.72h-.21v.36H4V4h-.18v.36H4v.36h.21V5h.21v-.31h.21v-.36h.21V4h-.17v-.39h-.21zm0 .72h-.21v.36h.21zm-1.27-.72H3v.36h-.24V4h-.21v.36h.21v.36H3V5h.21v-.31h.19v-.36h.21V4H3.4v-.39h-.21zm0 .72H3v.36h.21zm1.7 1.44h-.22v.36h.21zM2.55 5h-.13v.72h.13zm2.34 1.49h-.22v-.36h-.21v-.36h-.21v-.36H4V5h-.18v-.31h-.21V5H3.4v.36h-.21v.36H3v.36h-.24v.36h-.21v.36h-.13v1.49h.13v.36h.21V9H3v.36h.21v.36h.19v.36h.21V11H4v-.22h.21v-.36h.21v-.32h.21v-.37h.21V8.65h-.17V9h-.21v.36h-.21v.36H4v-.35h-.18V9h-.21v-.35H3.4v-.36h-.21v-.36H3v-.36h.21v-.36h.19v-.36H4v.36h-.39v.36h.21v.36H4v.36h.21v-.36h.21v-.36h.21v-.36h.21zm0 1.44h-.22v.36h.21zM2.55 9h-.13v.36h.13zm.45.73h-.24v.36h-.21v.36h-.13V11h.13v-.22h.21v-.36H3zm.43 1.08h-.24V11h.21z" id="q-2" data-name="q"/></g><g id="h-2" data-name="h"><path class="cls-1" d="M.85 22h.64v-.36h.21v-.36h.21v-.36h.21v-.36h.21v-.36h-.21v-.36h-.21v-.36H1.7v-.36h-.21v-.36h-.22v-.36h-.21v.36H.85v.36H.64v.36H.42v.36H.21v.36H0v.36h.21v.36h.21v.36h.22v.36h.21zm.21-.72h.21v-.36h.21v-.36h.22v-.36h-.21v-.36h-.22v-.36h-.21v.36H.85v.36H.64v.36h.21v.36h.21zm0-.72h.21v-.36h-.21zM0 21.63h.21v-.36H0zm0-2.16h.21v-.36H0zM2.34 22h.13v-.72h-.13zm0-2.52h.13v-.72h-.13zm-1.92-.73h.22v-.36h.21V18h.21v-.36H.85v-.36H.64v-.36H.42v.36H.21v.36H0V18h.21v.36h.21zm0-.72h.22v-.36H.42zm1.27.72h.21v-.36h.21V18h.21v-.36h-.2v-.36h-.21v-.36H1.7v.36h-.21v.36h-.22V18h.21v.36h.22zm0-.72h.21v-.36h-.2zM0 16.58h.21v-.36H0zm2.34.36h.13v-.72h-.13zM0 15.5h.21v.36h.21v.36h.22v.36h.21v.36h.21v.36h.21v-.36h.21v-.36h.22v-.36h.21v-.36h.21v-.36h.21v-.36h.13V13.7h-.12v-.36h-.22V13h-.21v-.36H1.7v-.36h-.21v-.38h-.22V11H.85v.22H.64v.36H.42v.36H.21v.36H0v1.08h.21V13h.21v-.36h.22v-.36h.21v.36h.21V13h.21v.36h.21v.36h.22v.36h.21v.36H1.7v.36h-.21v.36H.85v-.36h.43v-.36h-.22v-.36H.85v-.38H.64v.36H.42v.36H.21v.36H0zm0-1.44h.21v-.36H0zM2.34 13h.13v-.36h-.13zm-.42-.72h.21v-.38h.21v-.36h.13V11h-.13v.22h-.22v.36h-.21zM1.5 11.2h.2V11h-.21z" id="q-3" data-name="q"/><path class="cls-1" d="M4 22h-.6v-.36h-.21v-.36H3v-.36h-.24v-.36h-.21v-.36h.21v-.36H3v-.36h.21v-.36h.19v-.36h.21v-.36h.21v.36H4v.36h.21v.36h.21v.36h.21v.36h.21v.36h-.17v.36h-.21v.36h-.21v.36H4zm-.21-.72h-.18v-.36H3.4v-.36h-.21v-.36h.21v-.36h.21v-.36h.21v.36H4v.36h.21v.36H4v.36h-.18zm0-.72h-.18v-.36h.21zm1.06 1.08h-.18v-.36h.21zm0-2.16h-.18v-.36h.21zM2.55 22h-.13v-.72h.13zm0-2.52h-.13v-.72h.13zm1.91-.72h-.21v-.36H4V18h-.18v-.36H4v-.36h.21v-.36h.21v.36h.21v.36h.21V18h-.17v.36h-.21zm0-.72h-.21v-.36h.21zm-1.27.72H3v-.36h-.24V18h-.21v-.36h.21v-.36H3v-.36h.21v.36h.19v.36h.21V18H3.4v.36h-.21zm0-.72H3v-.36h.21zm1.7-1.44h-.22v-.36h.21zm-2.34.36h-.13v-.72h.13zm2.34-1.46h-.22v.36h-.21v.36h-.21v.36H4v.36h-.18v.36h-.21v-.36H3.4v-.36h-.21v-.36H3v-.36h-.24v-.36h-.21v-.36h-.13V13.7h.13v-.36h.21V13H3v-.36h.21v-.36h.19v-.38h.21V11H4v.22h.21v.36h.21v.36h.21v.36h.21v1.08h-.17V13h-.21v-.36h-.21v-.36H4v.36h-.18V13h-.21v.36H3.4v.36h-.21v.36H3v.36h.21v.36h.19v.36H4v-.36h-.39v-.36h.21v-.36H4v-.38h.21v.36h.21v.36h.21v.36h.21zm0-1.44h-.22v-.36h.21zM2.55 13h-.13v-.36h.13zm.45-.74h-.24v-.36h-.21v-.36h-.13V11h.13v.22h.21v.36H3zm.43-1.08h-.24V11h.21z" id="q-4" data-name="q"/></g></g></g></svg>