<svg id="Слой_1" xmlns="http://www.w3.org/2000/svg" viewBox="0 0 1671 542.4"><style>.st0{fill:none;stroke:#dbc08d;stroke-miterlimit:22.93}.st1{stroke:#fff;stroke-width:.97}.st1,.st2,.st3{fill:none;stroke-miterlimit:22.93}.st2{stroke-dasharray:8.17,8.17;stroke:#dbc08d;stroke-width:.97}.st3{stroke:#a58242;stroke-width:2}.st4{opacity:.8;fill:#debd7a;enable-background:new}.st5{fill:url(#SVGID_1_)}.st6{fill:none;stroke:#fff;stroke-width:2;stroke-miterlimit:22.93}.st7{enable-background:new}.st8{fill:#dbc08d}.st9{fill:#a58242}.st10{fill:none;stroke:#fff;stroke-width:7;stroke-miterlimit:22.93}.st11{fill:#282828}.st12{fill:#171717}.st13{fill:#ff7272}.st14{stroke:#000}.st14,.st15,.st16{fill:none;stroke-width:.98}.st15{stroke-miterlimit:22.93;stroke:#000}.st16{stroke:#171717}.st17,.st18{fill:none;stroke-miterlimit:22.93}.st17{stroke:#171717;stroke-width:.98}.st18{stroke-width:1.94;stroke-linecap:square}.st18,.st19,.st20{stroke:#28dd8e}.st19{fill:none;stroke-width:1.94;stroke-linecap:square;stroke-miterlimit:22.93;stroke-dasharray:8.85,8.85}.st20{stroke-dasharray:5.01,5.01}.st20,.st21,.st22{fill:none;stroke-width:1.94;stroke-linecap:square;stroke-miterlimit:22.93}.st21{stroke:#28dd8e;stroke-dasharray:8.71,8.71}.st22{stroke-dasharray:7.77,7.77}.st22,.st23,.st24{stroke:#28dd8e}.st23{fill:none;stroke-width:1.94;stroke-linecap:square;stroke-miterlimit:22.93;stroke-dasharray:8.65,8.65}.st24{stroke-dasharray:8.53,8.53}.st24,.st25,.st26,.st27,.st28{fill:none;stroke-width:1.94;stroke-linecap:square;stroke-miterlimit:22.93}.st25{stroke-dasharray:7.89,7.89;stroke:#28dd8e}.st26,.st27,.st28{stroke:#e94e1b}.st27{stroke-dasharray:8.85,8.85}.st28{stroke-dasharray:8.71,8.71}.st29,.st30{stroke:#a58242}.st29{fill:none;stroke-miterlimit:22.93}.st30{stroke-dasharray:8.77,8.77}.st30,.st31,.st32{fill:none;stroke-miterlimit:22.93}.st31{stroke-dasharray:8.58,8.58;stroke:#a58242}.st32{stroke:#2fac66;stroke-width:2.21}.st33{fill:#2fac66}.st34{fill:#fff}</style><title>Ресурс 1</title><g id="Слой_2"><g id="Layer_1"><path class="st0" d="M1584.9 162.3v314.3M301.1 162.3v314.3m142.3-314.3v314.3m142.9-314.3v314.3"/><path class="st1" d="M729 162.3v314.3"/><path class="st0" d="M871.7 162.3v314.3m142.6-314.3v314.3m142.8-314.3v314.3m142.7-314.3v314.3m142.6-314.3v314.3"/><path class="st2" d="M158.4 161.1h1511.2"/><path class="st3" d="M692.2 94.7v381.6m601.1-322v322m0-381.6v31.1m282.6 28.5v322m0-381.6v31.1m-1170.3-31v344.3"/><path class="st4" d="M264.6 214.1h270.3v115.8H264.6z"/><path class="st3" d="M729 152.8v323.5m0-381.6v29.5"/><path class="st4" d="M546.5 214.1h1105.7v115.8H546.5z"/><path class="st0" d="M157.4 161.8v316.6"/><linearGradient id="SVGID_1_" gradientUnits="userSpaceOnUse" x1="912.865" y1="385.54" x2="912.865" y2="55.5" gradientTransform="matrix(1 0 0 -1 0 544)"><stop offset="0" stop-color="#4d4d4d"/><stop offset="1" stop-color="#0f0f0f"/></linearGradient><path class="st5" d="M1668.8 476.1V166.5l-8.3 21.9-28.3 48.7-17.4-4.3-25 16.8-149.2.2-141.8 64.9h-149.1l-14.4 20.7-51.7 25.1-59.5-17.5-70.6 18-82.1-36-65.5 56.6-61.2-15.3-53.4 35.4h-145l-.1 39.7v-.7H156.9v35.4z"/><g class="st7"><path class="st8" d="M710.7 143.4l1.1-1.9c.5.4 1.1.9 1.9.9 1.1 0 1.8-.7 1.8-1.9v-7.9h2.5v7.9c0 2.8-1.7 4.1-4.2 4.1-1.1 0-2.3-.4-3.1-1.2zm18.5 1l-.7-2h-5.1l-.7 2h-2.9l4.6-11.8h3.2l4.6 11.8h-3zm-3.3-9.4l-1.8 5.1h3.7l-1.9-5.1zm16.1 9.4l-5.6-7.7v7.7h-2.5v-11.8h2.6l5.5 7.4v-7.4h2.5v11.8H742z"/></g><circle class="st8" cx="729" cy="161.1" r="5.6"/><g class="st7"><path class="st9" d="M1140.1 526.5l3-3.9c1.9 2 4.8 3.1 7.5 3.1 3.3 0 5.1-1.4 5.1-3.5 0-2.2-1.7-3.1-5.4-3.1-1.1 0-3 0-3.4.1V514h3.4c3 0 5-.9 5-2.9 0-2.2-2.2-3.2-5-3.2-2.6 0-5 1-6.9 2.8l-2.9-3.6c2.2-2.5 5.6-4.3 10.4-4.3 6.3 0 10.2 2.8 10.2 7.4 0 3.4-2.9 5.6-5.9 6.2 2.8.3 6.3 2.4 6.3 6.5 0 4.7-4.2 8-10.7 8-5 0-8.7-1.9-10.7-4.4z"/></g><g class="st7"><path class="st9" d="M1437.4 530.4v-5.6h-13v-4.6l10.8-16.9h8v16.4h3.5v5.1h-3.5v5.6h-5.8zm0-22l-7.3 11.3h7.3v-11.3z"/></g><path class="st10" d="M156.9 478.4h1512.8"/><g class="st7"><path class="st11" d="M265.5 18.4V3.9h6.8c3.1 0 4.9 2.1 4.9 4.7 0 2.5-1.7 4.7-4.9 4.7h-3.7v5.1h-3.1zm8.5-9.8c0-1.2-.9-2-2.1-2h-3.3v3.9h3.3c1.2 0 2.1-.8 2.1-1.9zm14.1 9.8l-2.8-5.1H283v5.1h-3.1V3.9h6.8c3 0 4.9 2 4.9 4.7 0 2.6-1.6 3.9-3.2 4.3l3.3 5.5h-3.6zm.3-9.8c0-1.2-.9-2-2.2-2H283v3.9h3.2c1.2 0 2.2-.7 2.2-1.9zm6.3 9.8V3.9h10.2v2.7h-7.2v3.1h7v2.7h-7v3.3h7.2v2.7h-10.2zm12.5-2.1l1.7-2.3c1 1.1 2.6 2 4.6 2 1.7 0 2.5-.8 2.5-1.6 0-2.6-8.3-.8-8.3-6.2 0-2.4 2.1-4.4 5.5-4.4 2.3 0 4.2.7 5.6 2l-1.7 2.3c-1.2-1.1-2.7-1.6-4.2-1.6-1.3 0-2.1.6-2.1 1.5 0 2.3 8.3.8 8.3 6.2 0 2.6-1.9 4.6-5.8 4.6-2.7-.2-4.7-1.1-6.1-2.5zm24.8 2.1l-.9-2.4h-6.2l-.9 2.4h-3.5l5.6-14.5h3.9l5.6 14.5H332zM328 7l-2.3 6.2h4.5L328 7zm9.7 11.4V3.9h3.1v11.7h6.1v2.7h-9.2zm12.2 0V3.9h10.2v2.7H353v3.1h7v2.7h-7v3.3h7.2v2.7h-10.3z"/></g><g class="st7"><path class="st11" d="M274.9 43l-3.6-5.3-3.6 5.3H264l5.2-7.4-4.9-7h3.7l3.3 4.9 3.3-4.9h3.7l-4.9 7 5.2 7.4h-3.7zm14.1 0l-2.8-5.1h-2.3V43h-3.1V28.5h6.8c3 0 4.9 2 4.9 4.7 0 2.6-1.6 3.9-3.2 4.3l3.3 5.5H289zm.3-9.8c0-1.2-.9-2-2.2-2h-3.2v3.9h3.2c1.3 0 2.2-.7 2.2-1.9zm5.7 2.5c0-4.4 3.2-7.5 7.5-7.5 4.4 0 7.6 3.1 7.6 7.5s-3.2 7.5-7.6 7.5c-4.4 0-7.5-3.1-7.5-7.5zm11.9 0c0-2.7-1.7-4.7-4.4-4.7s-4.4 2-4.4 4.7 1.7 4.7 4.4 4.7 4.4-2 4.4-4.7zm16.2 7.3l-6.9-9.4V43h-3.1V28.5h3.2l6.7 9.1v-9.1h3.1V43h-3zm5.9-7.3c0-4.4 3.2-7.5 7.5-7.5 4.4 0 7.6 3.1 7.6 7.5s-3.2 7.5-7.6 7.5c-4.3 0-7.5-3.1-7.5-7.5zm12 0c0-2.7-1.7-4.7-4.4-4.7s-4.4 2-4.4 4.7 1.7 4.7 4.4 4.7 4.4-2 4.4-4.7zm5.2 5.2l1.7-2.3c1 1.1 2.6 2 4.6 2 1.7 0 2.5-.8 2.5-1.6 0-2.6-8.3-.8-8.3-6.2 0-2.4 2.1-4.4 5.5-4.4 2.3 0 4.2.7 5.6 2l-1.7 2.3c-1.2-1.1-2.7-1.6-4.2-1.6-1.3 0-2.1.6-2.1 1.5 0 2.3 8.3.8 8.3 6.2 0 2.6-1.9 4.6-5.8 4.6-2.8-.2-4.8-1.1-6.1-2.5z"/></g><g class="st7"><path class="st9" d="M265.4 70.8v-2c4.8-3.6 6.3-4.8 6.3-6.3 0-1-.9-1.5-1.9-1.5-1.3 0-2.4.5-3.2 1.4l-1.4-1.7c1.2-1.3 2.9-1.9 4.6-1.9 2.5 0 4.5 1.4 4.5 3.8 0 2-1.7 3.8-4.7 6h4.8v2.2h-9zm14.1 0v-8.6l-2 2-1.4-1.5 3.7-3.7h2.2v11.8h-2.5zm5.3-1.2c0-.8.7-1.4 1.4-1.4s1.4.7 1.4 1.4-.6 1.4-1.4 1.4-1.4-.6-1.4-1.4zm5-4.7c0-3 1.5-6.1 4.9-6.1 3.4 0 4.9 3 4.9 6.1s-1.5 6.1-4.9 6.1c-3.4.1-4.9-3-4.9-6.1zm7.2 0c0-2.2-.6-3.9-2.3-3.9-1.7 0-2.3 1.7-2.3 3.9s.6 3.9 2.3 3.9c1.7 0 2.3-1.7 2.3-3.9zm5.1 4.9l1.1-1.9c.6.6 1.3.9 2.4.9 1.9 0 3-1.6 3-3.3v-.3c-.6.8-1.8 1.5-3 1.5-2.1 0-4-1.3-4-3.8 0-2.3 1.8-4.1 4.5-4.1 3.6 0 5.1 2.8 5.1 6.1 0 3.6-2 6.1-5.5 6.1-1.6 0-2.8-.4-3.6-1.2zm6.4-6.3c-.1-1.1-.7-2.4-2.4-2.4-1.3 0-2.1.9-2.1 1.7 0 1.2 1.1 1.8 2.2 1.8.8 0 1.7-.4 2.3-1.1zm9.6 4v-1.9h4.3v1.9h-4.3zm11.6 3.3v-2c4.8-3.6 6.3-4.8 6.3-6.3 0-1-.9-1.5-1.9-1.5-1.3 0-2.4.5-3.2 1.4l-1.4-1.7c1.2-1.3 2.9-1.9 4.6-1.9 2.5 0 4.5 1.4 4.5 3.8 0 2-1.7 3.8-4.7 6h4.8v2.2h-9zm14.1 0v-8.6l-2 2-1.4-1.5 3.7-3.7h2.2v11.8h-2.5zm5.2-1.2c0-.8.7-1.4 1.4-1.4s1.4.7 1.4 1.4-.7 1.4-1.4 1.4-1.4-.6-1.4-1.4zm8.1 1.2v-8.6l-2 2-1.4-1.5 3.7-3.7h2.2v11.8h-2.5zm5-5.9c0-3 1.5-6.1 4.9-6.1 3.4 0 4.9 3 4.9 6.1S370.4 71 367 71c-3.4.1-4.9-3-4.9-6.1zm7.2 0c0-2.2-.6-3.9-2.3-3.9-1.7 0-2.3 1.7-2.3 3.9s.6 3.9 2.3 3.9c1.6 0 2.3-1.7 2.3-3.9z"/></g><g class="st7"><path class="st8" d="M139 142.7l1.4-1.9c.8.9 2.1 1.6 3.8 1.6 1.4 0 2.1-.6 2.1-1.3 0-2.1-6.8-.7-6.8-5.1 0-2 1.7-3.6 4.5-3.6 1.9 0 3.4.6 4.6 1.6l-1.4 1.8c-1-.9-2.2-1.3-3.4-1.3-1.1 0-1.7.5-1.7 1.2 0 1.9 6.8.6 6.8 5 0 2.2-1.5 3.8-4.7 3.8-2.4.1-4.1-.7-5.2-1.8zm12.2 1.7v-11.8h8.4v2.2h-5.8v2.5h5.7v2.2h-5.7v2.7h5.8v2.2h-8.4zm11 0v-11.8h5.5c2.6 0 4 1.7 4 3.8 0 2.1-1.4 3.8-4 3.8h-3v4.2h-2.5zm6.9-8.1c0-1-.7-1.6-1.7-1.6h-2.7v3.2h2.7c1 0 1.7-.6 1.7-1.6z"/></g><g class="st7"><path class="st8" d="M281.3 138.5c0-3.6 2.6-6.1 6.2-6.1s6.2 2.6 6.2 6.1-2.6 6.1-6.2 6.1-6.2-2.6-6.2-6.1zm9.8 0c0-2.2-1.4-3.9-3.6-3.9s-3.6 1.7-3.6 3.9 1.4 3.9 3.6 3.9c2.2-.1 3.6-1.8 3.6-3.9zm4.5 0c0-3.6 2.7-6.1 6.3-6.1 2.6 0 4.1 1.4 4.9 2.9l-2.2 1.1c-.5-1-1.6-1.7-2.8-1.7-2.1 0-3.7 1.6-3.7 3.9s1.6 3.9 3.7 3.9c1.2 0 2.3-.7 2.8-1.7l2.2 1c-.9 1.5-2.3 2.9-4.9 2.9-3.6-.1-6.3-2.6-6.3-6.2zm16.2 5.9v-9.6h-3.5v-2.2h9.4v2.2h-3.4v9.6h-2.5z"/></g><g class="st7"><path class="st8" d="M432.9 144.4l-5.6-7.7v7.7h-2.5v-11.8h2.6l5.5 7.4v-7.4h2.5v11.8h-2.5zm4.9-5.9c0-3.6 2.6-6.1 6.2-6.1s6.2 2.6 6.2 6.1-2.6 6.1-6.2 6.1-6.2-2.6-6.2-6.1zm9.8 0c0-2.2-1.4-3.9-3.6-3.9s-3.6 1.7-3.6 3.9 1.4 3.9 3.6 3.9c2.2-.1 3.6-1.8 3.6-3.9zm8.4 5.9l-4.6-11.8h2.9l3.3 9.1 3.3-9.1h2.9l-4.6 11.8H456z"/></g><g class="st7"><path class="st8" d="M569 144.4v-11.8h4.7c3.7 0 6.3 2.4 6.3 5.9s-2.6 5.9-6.3 5.9H569zm8.4-5.9c0-2.1-1.3-3.7-3.7-3.7h-2.1v7.4h2.1c2.3-.1 3.7-1.7 3.7-3.7zm5 5.9v-11.8h8.4v2.2H585v2.5h5.7v2.2H585v2.7h5.8v2.2h-8.4zm10.5-5.9c0-3.6 2.7-6.1 6.3-6.1 2.6 0 4.1 1.4 4.9 2.9l-2.2 1.1c-.5-1-1.6-1.7-2.8-1.7-2.1 0-3.7 1.6-3.7 3.9s1.6 3.9 3.7 3.9c1.2 0 2.3-.7 2.8-1.7l2.2 1c-.9 1.5-2.3 2.9-4.9 2.9-3.5-.1-6.3-2.6-6.3-6.2z"/></g><g class="st7"><path class="st8" d="M855.5 144.4v-11.8h8.4v2.2H858v2.5h5.7v2.2H858v4.9h-2.5zm10.8 0v-11.8h8.4v2.2h-5.8v2.5h5.7v2.2h-5.7v2.7h5.8v2.2h-8.4zm11 0v-11.8h6.2c2.3 0 3.4 1.4 3.4 3 0 1.5-.9 2.5-2 2.7 1.3.2 2.3 1.4 2.3 2.9 0 1.8-1.2 3.2-3.4 3.2h-6.5zm7.1-8.4c0-.7-.5-1.3-1.4-1.3h-3.2v2.6h3.2c.8 0 1.4-.6 1.4-1.3zm.2 4.8c0-.7-.5-1.4-1.5-1.4h-3.2v2.7h3.2c.9.1 1.5-.4 1.5-1.3z"/></g><g class="st7"><path class="st8" d="M1010.1 144.4v-8.3l-3.3 8.3h-1.1l-3.3-8.3v8.3h-2.5v-11.8h3.5l2.9 7.1 2.9-7.1h3.5v11.8h-2.6zm13.7 0l-.7-2h-5.1l-.7 2h-2.9l4.6-11.8h3.2l4.6 11.8h-3zm-3.2-9.4l-1.8 5.1h3.7l-1.9-5.1zm14.6 9.4l-2.3-4.2h-1.8v4.2h-2.5v-11.8h5.5c2.5 0 4 1.6 4 3.8 0 2.1-1.3 3.2-2.6 3.5l2.7 4.5h-3zm.2-8.1c0-1-.8-1.6-1.8-1.6h-2.6v3.2h2.6c1.1 0 1.8-.6 1.8-1.6z"/></g><g class="st7"><path class="st11" d="M548 18.4V3.9h3.1v14.5H548zm6.1-7.3c0-4.4 3.4-7.5 7.7-7.5 3.2 0 5 1.7 6 3.5l-2.6 1.3c-.6-1.2-1.9-2.1-3.4-2.1-2.6 0-4.5 2-4.5 4.7s1.9 4.7 4.5 4.7c1.5 0 2.8-.9 3.4-2.1l2.6 1.3c-1 1.8-2.9 3.6-6 3.6-4.4.1-7.7-2.9-7.7-7.4zm15.7 0c0-4.4 3.2-7.5 7.5-7.5 4.4 0 7.6 3.1 7.6 7.5s-3.2 7.5-7.6 7.5c-4.3 0-7.5-3.1-7.5-7.5zm11.9 0c0-2.7-1.7-4.7-4.4-4.7s-4.4 2-4.4 4.7 1.7 4.7 4.4 4.7 4.4-2 4.4-4.7z"/></g><g class="st7"><path class="st11" d="M557.4 43l-3.6-5.3-3.6 5.3h-3.7l5.2-7.4-4.9-7h3.7l3.3 4.9 3.3-4.9h3.7l-4.9 7 5.2 7.4h-3.7zm14.1 0l-2.8-5.1h-2.3V43h-3.1V28.5h6.8c3 0 4.9 2 4.9 4.7 0 2.6-1.6 3.9-3.2 4.3L575 43h-3.5zm.3-9.8c0-1.2-.9-2-2.2-2h-3.2v3.9h3.2c1.2 0 2.2-.7 2.2-1.9zm5.6 2.5c0-4.4 3.2-7.5 7.5-7.5 4.4 0 7.6 3.1 7.6 7.5s-3.2 7.5-7.6 7.5c-4.3 0-7.5-3.1-7.5-7.5zm11.9 0c0-2.7-1.7-4.7-4.4-4.7s-4.4 2-4.4 4.7 1.7 4.7 4.4 4.7 4.4-2 4.4-4.7zm16.2 7.3l-6.9-9.4V43h-3.1V28.5h3.2l6.7 9.1v-9.1h3.1V43h-3zm6-7.3c0-4.4 3.2-7.5 7.5-7.5 4.4 0 7.6 3.1 7.6 7.5s-3.2 7.5-7.6 7.5c-4.3 0-7.5-3.1-7.5-7.5zm11.9 0c0-2.7-1.7-4.7-4.4-4.7s-4.4 2-4.4 4.7 1.7 4.7 4.4 4.7 4.4-2 4.4-4.7zm5.2 5.2l1.7-2.3c1 1.1 2.6 2 4.6 2 1.7 0 2.5-.8 2.5-1.6 0-2.6-8.3-.8-8.3-6.2 0-2.4 2.1-4.4 5.5-4.4 2.3 0 4.2.7 5.6 2l-1.7 2.3c-1.2-1.1-2.7-1.6-4.2-1.6-1.3 0-2.1.6-2.1 1.5 0 2.3 8.3.8 8.3 6.2 0 2.6-1.9 4.6-5.8 4.6-2.7-.2-4.7-1.1-6.1-2.5z"/></g><g class="st7"><path class="st9" d="M547.9 70.8v-2c4.8-3.6 6.3-4.8 6.3-6.3 0-1-.9-1.5-1.9-1.5-1.3 0-2.4.5-3.2 1.4l-1.4-1.7c1.2-1.3 2.9-1.9 4.6-1.9 2.5 0 4.5 1.4 4.5 3.8 0 2-1.7 3.8-4.7 6h4.8v2.2h-9zm14.1 0v-8.6l-2 2-1.4-1.5 3.7-3.7h2.2v11.8H562zm5.2-1.2c0-.8.7-1.4 1.4-1.4s1.4.7 1.4 1.4-.7 1.4-1.4 1.4-1.4-.6-1.4-1.4zm8 1.2v-8.6l-2 2-1.4-1.5 3.7-3.7h2.2v11.8h-2.5zm8 0v-8.6l-2 2-1.4-1.5 3.7-3.7h2.2v11.8h-2.5zm10.2-3.3v-1.9h4.3v1.9h-4.3zm11.5 3.3v-2c4.8-3.6 6.3-4.8 6.3-6.3 0-1-.9-1.5-1.9-1.5-1.3 0-2.4.5-3.2 1.4l-1.4-1.7c1.2-1.3 2.9-1.9 4.6-1.9 2.5 0 4.5 1.4 4.5 3.8 0 2-1.7 3.8-4.7 6h4.8v2.2h-9zm14.2 0v-8.6l-2 2-1.4-1.5 3.7-3.7h2.2v11.8h-2.5zm5.2-1.2c0-.8.7-1.4 1.4-1.4s1.4.7 1.4 1.4-.7 1.4-1.4 1.4-1.4-.6-1.4-1.4zm8 1.2v-8.6l-2 2-1.4-1.5 3.7-3.7h2.2v11.8h-2.5zm5.2 0v-2c4.8-3.6 6.3-4.8 6.3-6.3 0-1-.9-1.5-1.9-1.5-1.3 0-2.4.5-3.2 1.4l-1.4-1.7c1.2-1.3 2.9-1.9 4.6-1.9 2.5 0 4.5 1.4 4.5 3.8 0 2-1.7 3.8-4.7 6h4.8v2.2h-9z"/></g><g class="st7"><path class="st11" d="M1152 18.4V3.9h6.8c3.1 0 4.9 2.1 4.9 4.7 0 2.5-1.7 4.7-4.9 4.7h-3.7v5.1h-3.1zm8.5-9.8c0-1.2-.9-2-2.1-2h-3.3v3.9h3.3c1.2 0 2.1-.8 2.1-1.9zm14.1 9.8l-2.8-5.1h-2.3v5.1h-3.1V3.9h6.8c3 0 4.9 2 4.9 4.7 0 2.6-1.6 3.9-3.2 4.3l3.3 5.5h-3.6zm.3-9.8c0-1.2-.9-2-2.2-2h-3.2v3.9h3.2c1.3 0 2.2-.7 2.2-1.9zm6.3 9.8V3.9h10.2v2.7h-7.2v3.1h7v2.7h-7v3.3h7.2v2.7h-10.2zm12.5-2.1l1.7-2.3c1 1.1 2.6 2 4.6 2 1.7 0 2.5-.8 2.5-1.6 0-2.6-8.3-.8-8.3-6.2 0-2.4 2.1-4.4 5.5-4.4 2.3 0 4.2.7 5.6 2l-1.7 2.3c-1.2-1.1-2.7-1.6-4.2-1.6-1.3 0-2.1.6-2.1 1.5 0 2.3 8.3.8 8.3 6.2 0 2.6-1.9 4.6-5.8 4.6-2.7-.2-4.7-1.1-6.1-2.5zm24.8 2.1l-.9-2.4h-6.2l-.9 2.4h-3.5l5.6-14.5h3.9l5.6 14.5h-3.6zM1214.6 7l-2.3 6.2h4.5l-2.2-6.2zm9.7 11.4V3.9h3.1v11.7h6.1v2.7h-9.2zm12.2 0V3.9h10.2v2.7h-7.2v3.1h7v2.7h-7v3.3h7.2v2.7h-10.2z"/></g><g class="st7"><path class="st11" d="M1151.4 35.7c0-4.6 3.5-7.5 7.7-7.5 3 0 4.9 1.5 6 3.2l-2.6 1.4c-.6-1-1.9-1.9-3.4-1.9-2.6 0-4.5 2-4.5 4.7s1.9 4.7 4.5 4.7c1.3 0 2.5-.6 3.1-1.1v-1.7h-3.8V35h6.9v5.5c-1.5 1.6-3.5 2.7-6.2 2.7-4.3 0-7.7-2.9-7.7-7.5zm17.1 7.3V28.5h3.1v11.7h6.1V43h-9.2zm11.5-7.3c0-4.4 3.2-7.5 7.5-7.5 4.4 0 7.6 3.1 7.6 7.5s-3.2 7.5-7.6 7.5c-4.3 0-7.5-3.1-7.5-7.5zm12 0c0-2.7-1.7-4.7-4.4-4.7s-4.4 2-4.4 4.7 1.7 4.7 4.4 4.7 4.4-2 4.4-4.7zm6.1 7.3V28.5h7.6c2.8 0 4.2 1.8 4.2 3.7 0 1.8-1.1 3-2.5 3.3 1.5.2 2.8 1.7 2.8 3.6 0 2.2-1.5 3.9-4.2 3.9h-7.9zm8.7-10.3c0-.9-.7-1.6-1.7-1.6h-3.9v3.1h3.9c1 .1 1.7-.6 1.7-1.5zm.2 5.9c0-.9-.6-1.7-1.9-1.7h-4v3.4h4c1.3 0 1.9-.6 1.9-1.7zm6.4-1.4v-8.7h3.1v8.6c0 2 1.2 3.4 3.4 3.4s3.4-1.4 3.4-3.4v-8.6h3.1v8.7c0 3.6-2.1 6-6.5 6s-6.5-2.4-6.5-6zm16.7 5.8V28.5h3.1v11.7h6.1V43h-9.2zm22.2 0l-.9-2.4h-6.2l-.9 2.4h-3.5l5.6-14.5h3.9l5.6 14.5h-3.6zm-4-11.4l-2.3 6.2h4.5l-2.2-6.2z"/></g><g class="st7"><path class="st9" d="M1149.9 69.2l1.3-1.7c.8.9 2.1 1.3 3.3 1.3 1.4 0 2.2-.6 2.2-1.5s-.7-1.4-2.4-1.4h-1.5v-2.3h1.5c1.3 0 2.2-.4 2.2-1.3s-1-1.4-2.2-1.4c-1.1 0-2.2.4-3 1.2l-1.3-1.6c1-1.1 2.4-1.9 4.5-1.9 2.8 0 4.5 1.2 4.5 3.2 0 1.5-1.3 2.5-2.6 2.7 1.2.1 2.8 1.1 2.8 2.8 0 2-1.8 3.5-4.7 3.5-2.2.3-3.8-.6-4.6-1.6zm11.3-4.3c0-3 1.5-6.1 4.9-6.1 3.4 0 4.9 3 4.9 6.1s-1.5 6.1-4.9 6.1c-3.4.1-4.9-3-4.9-6.1zm7.2 0c0-2.2-.6-3.9-2.3-3.9-1.7 0-2.3 1.7-2.3 3.9s.6 3.9 2.3 3.9c1.7 0 2.3-1.7 2.3-3.9zm4.7 4.7c0-.8.7-1.4 1.4-1.4s1.4.7 1.4 1.4-.7 1.4-1.4 1.4-1.4-.6-1.4-1.4zm5.1-4.7c0-3 1.5-6.1 4.9-6.1 3.4 0 4.9 3 4.9 6.1s-1.5 6.1-4.9 6.1c-3.4.1-4.9-3-4.9-6.1zm7.2 0c0-2.2-.6-3.9-2.3-3.9-1.7 0-2.3 1.7-2.3 3.9s.6 3.9 2.3 3.9c1.6 0 2.3-1.7 2.3-3.9zm4.2 4.3l1.3-1.7c.8.9 2.1 1.3 3.3 1.3 1.4 0 2.2-.6 2.2-1.5s-.7-1.4-2.4-1.4h-1.5v-2.3h1.5c1.3 0 2.2-.4 2.2-1.3s-1-1.4-2.2-1.4c-1.1 0-2.2.4-3 1.2l-1.3-1.6c1-1.1 2.4-1.9 4.5-1.9 2.8 0 4.5 1.2 4.5 3.2 0 1.5-1.3 2.5-2.6 2.7 1.2.1 2.8 1.1 2.8 2.8 0 2-1.8 3.5-4.7 3.5-2.1.3-3.7-.6-4.6-1.6zm16.5-1.7v-1.9h4.3v1.9h-4.3zm11.1 1.7l1.3-1.7c.8.9 2.1 1.3 3.3 1.3 1.4 0 2.2-.6 2.2-1.5s-.7-1.4-2.4-1.4h-1.5v-2.3h1.5c1.3 0 2.2-.4 2.2-1.3s-1-1.4-2.2-1.4c-1.1 0-2.2.4-3 1.2l-1.3-1.6c1-1.1 2.4-1.9 4.5-1.9 2.8 0 4.5 1.2 4.5 3.2 0 1.5-1.3 2.5-2.6 2.7 1.2.1 2.8 1.1 2.8 2.8 0 2-1.8 3.5-4.7 3.5-2.1.3-3.7-.6-4.6-1.6zm11.4-4.3c0-3 1.5-6.1 4.9-6.1 3.4 0 4.9 3 4.9 6.1s-1.5 6.1-4.9 6.1c-3.4.1-4.9-3-4.9-6.1zm7.2 0c0-2.2-.6-3.9-2.3-3.9-1.7 0-2.3 1.7-2.3 3.9s.6 3.9 2.3 3.9c1.7 0 2.3-1.7 2.3-3.9zm4.7 4.7c0-.8.7-1.4 1.4-1.4s1.4.7 1.4 1.4-.7 1.4-1.4 1.4-1.4-.6-1.4-1.4zm5-4.7c0-3 1.5-6.1 4.9-6.1 3.4 0 4.9 3 4.9 6.1s-1.5 6.1-4.9 6.1c-3.4.1-4.9-3-4.9-6.1zm7.2 0c0-2.2-.6-3.9-2.3-3.9-1.7 0-2.3 1.7-2.3 3.9s.6 3.9 2.3 3.9c1.7 0 2.3-1.7 2.3-3.9zm10 5.9v-2.4h-5.7v-2l4.7-7.4h3.5v7.2h1.5v2.2h-1.5v2.4h-2.5zm0-9.5l-3.2 4.9h3.2v-4.9z"/></g><g class="st7"><path class="st11" d="M1437.6 18.4V3.9h3.1v14.5h-3.1zm6.1-7.3c0-4.4 3.4-7.5 7.7-7.5 3.2 0 5 1.7 6 3.5l-2.6 1.3c-.6-1.2-1.9-2.1-3.4-2.1-2.6 0-4.5 2-4.5 4.7s1.9 4.7 4.5 4.7c1.5 0 2.8-.9 3.4-2.1l2.6 1.3c-1 1.8-2.9 3.6-6 3.6-4.4.1-7.7-2.9-7.7-7.4zm15.7 0c0-4.4 3.2-7.5 7.5-7.5 4.4 0 7.6 3.1 7.6 7.5s-3.2 7.5-7.6 7.5c-4.3 0-7.5-3.1-7.5-7.5zm12 0c0-2.7-1.7-4.7-4.4-4.7s-4.4 2-4.4 4.7 1.7 4.7 4.4 4.7 4.4-2 4.4-4.7z"/></g><g class="st7"><path class="st11" d="M1436.9 35.7c0-4.6 3.5-7.5 7.7-7.5 3 0 4.9 1.5 6 3.2l-2.6 1.4c-.6-1-1.9-1.9-3.4-1.9-2.6 0-4.5 2-4.5 4.7s1.9 4.7 4.5 4.7c1.3 0 2.5-.6 3.1-1.1v-1.7h-3.8V35h6.9v5.5c-1.5 1.6-3.5 2.7-6.2 2.7-4.2 0-7.7-2.9-7.7-7.5zM1454 43V28.5h3.1v11.7h6.1V43h-9.2zm11.5-7.3c0-4.4 3.2-7.5 7.5-7.5 4.4 0 7.6 3.1 7.6 7.5s-3.2 7.5-7.6 7.5c-4.3 0-7.5-3.1-7.5-7.5zm12 0c0-2.7-1.7-4.7-4.4-4.7s-4.4 2-4.4 4.7 1.7 4.7 4.4 4.7 4.4-2 4.4-4.7zm6.2 7.3V28.5h7.6c2.8 0 4.2 1.8 4.2 3.7 0 1.8-1.1 3-2.5 3.3 1.5.2 2.8 1.7 2.8 3.6 0 2.2-1.5 3.9-4.2 3.9h-7.9zm8.6-10.3c0-.9-.7-1.6-1.7-1.6h-3.9v3.1h3.9c1 .1 1.7-.6 1.7-1.5zm.3 5.9c0-.9-.6-1.7-1.9-1.7h-4v3.4h4c1.2 0 1.9-.6 1.9-1.7zm6.3-1.4v-8.7h3.1v8.6c0 2 1.2 3.4 3.4 3.4s3.4-1.4 3.4-3.4v-8.6h3.1v8.7c0 3.6-2.1 6-6.5 6s-6.5-2.4-6.5-6zm16.7 5.8V28.5h3.1v11.7h6.1V43h-9.2zm22.2 0l-.9-2.4h-6.2l-.9 2.4h-3.5l5.6-14.5h3.9l5.6 14.5h-3.6zm-4-11.4l-2.3 6.2h4.5l-2.2-6.2z"/></g><g class="st7"><path class="st9" d="M1436.2 69.2l1.3-1.7c.8.9 2.1 1.3 3.3 1.3 1.4 0 2.2-.6 2.2-1.5s-.7-1.4-2.4-1.4h-1.5v-2.3h1.5c1.3 0 2.2-.4 2.2-1.3s-1-1.4-2.2-1.4c-1.1 0-2.2.4-3 1.2l-1.3-1.6c1-1.1 2.4-1.9 4.5-1.9 2.8 0 4.5 1.2 4.5 3.2 0 1.5-1.3 2.5-2.6 2.7 1.2.1 2.8 1.1 2.8 2.8 0 2-1.8 3.5-4.7 3.5-2.1.3-3.7-.6-4.6-1.6zm11.4-4.3c0-3 1.5-6.1 4.9-6.1 3.4 0 4.9 3 4.9 6.1s-1.5 6.1-4.9 6.1c-3.4.1-4.9-3-4.9-6.1zm7.2 0c0-2.2-.6-3.9-2.3-3.9-1.7 0-2.3 1.7-2.3 3.9s.6 3.9 2.3 3.9c1.7 0 2.3-1.7 2.3-3.9zm4.7 4.7c0-.8.7-1.4 1.4-1.4s1.4.7 1.4 1.4-.7 1.4-1.4 1.4-1.4-.6-1.4-1.4zm5-4.7c0-3 1.5-6.1 4.9-6.1 3.4 0 4.9 3 4.9 6.1s-1.5 6.1-4.9 6.1c-3.4.1-4.9-3-4.9-6.1zm7.2 0c0-2.2-.6-3.9-2.3-3.9-1.7 0-2.3 1.7-2.3 3.9s.6 3.9 2.3 3.9c1.7 0 2.3-1.7 2.3-3.9zm4.8 4.4l1.4-1.8c.8.8 1.9 1.3 3.1 1.3 1.4 0 2.2-.8 2.2-1.8s-.8-1.8-2.1-1.8c-1 0-1.8.3-2.5 1l-1.8-.5V59h8.1v2.2h-5.6v2.9c.6-.6 1.5-1 2.6-1 2 0 3.8 1.4 3.8 3.8 0 2.5-1.9 4.1-4.7 4.1-2 .1-3.5-.6-4.5-1.7zm16.4-1.8v-1.9h4.3v1.9h-4.3zm11.1 1.7l1.3-1.7c.8.9 2.1 1.3 3.3 1.3 1.4 0 2.2-.6 2.2-1.5s-.7-1.4-2.4-1.4h-1.5v-2.3h1.5c1.3 0 2.2-.4 2.2-1.3s-1-1.4-2.2-1.4c-1.1 0-2.2.4-3 1.2l-1.3-1.6c1-1.1 2.4-1.9 4.5-1.9 2.8 0 4.5 1.2 4.5 3.2 0 1.5-1.3 2.5-2.6 2.7 1.2.1 2.8 1.1 2.8 2.8 0 2-1.8 3.5-4.7 3.5-2.1.3-3.8-.6-4.6-1.6zm11.3-4.3c0-3 1.5-6.1 4.9-6.1 3.4 0 4.9 3 4.9 6.1s-1.5 6.1-4.9 6.1c-3.4.1-4.9-3-4.9-6.1zm7.2 0c0-2.2-.6-3.9-2.3-3.9-1.7 0-2.3 1.7-2.3 3.9s.6 3.9 2.3 3.9c1.7 0 2.3-1.7 2.3-3.9zm4.8 4.7c0-.8.7-1.4 1.4-1.4s1.4.7 1.4 1.4-.7 1.4-1.4 1.4-1.4-.6-1.4-1.4zm5-4.7c0-3 1.5-6.1 4.9-6.1 3.4 0 4.9 3 4.9 6.1s-1.5 6.1-4.9 6.1c-3.4.1-4.9-3-4.9-6.1zm7.2 0c0-2.2-.6-3.9-2.3-3.9-1.7 0-2.3 1.7-2.3 3.9s.6 3.9 2.3 3.9c1.6 0 2.3-1.7 2.3-3.9zm4.5.1c0-3.6 2-6.1 5.5-6.1 1.4 0 2.6.5 3.5 1.2l-1.1 1.9c-.6-.6-1.3-.9-2.4-.9-1.7 0-3 1.5-3 3.3v.2c.5-.8 1.7-1.5 3-1.5 2.1 0 4 1.3 4 3.8 0 2.3-1.8 4.1-4.5 4.1-3.5.1-5-2.7-5-6zm7 2.1c0-1.2-1.1-1.8-2.2-1.8-.9 0-1.7.4-2.3 1.1.1 1.1.7 2.4 2.4 2.4 1.4 0 2.1-.9 2.1-1.7z"/></g><circle class="st8" cx="1442.4" cy="161.1" r="5.6"/><path class="st3" d="M1437.1 154.2v322.4m0-381.9v31.1"/><g class="st7"><path class="st11" d="M308 267.5v-14.3h-5.2v-3.3h14.1v3.3h-5.1v14.3H308zm12.3 0v-17.6h12.5v3.3h-8.7v3.7h8.5v3.3h-8.5v4h8.7v3.3h-12.5zm15.3-2.5l2-2.9c1.2 1.3 3.2 2.4 5.6 2.4 2.1 0 3.1-1 3.1-2 0-3.1-10.2-1-10.2-7.6 0-2.9 2.5-5.4 6.7-5.4 2.8 0 5.1.8 6.9 2.5l-2.1 2.8c-1.4-1.3-3.3-1.9-5.1-1.9-1.6 0-2.5.7-2.5 1.8 0 2.8 10.1.9 10.1 7.5 0 3.2-2.3 5.7-7.1 5.7-3.3-.1-5.8-1.3-7.4-2.9zm22.2 2.5v-14.3h-5.2v-3.3h14.1v3.3h-5.1v14.3h-3.8zm12.3 0v-17.6h3.8v17.6h-3.8zm20.5 0l-8.4-11.5v11.5h-3.8v-17.6h3.9l8.2 11.1v-11.1h3.8v17.6h-3.7zm7.3-8.9c0-5.6 4.2-9.1 9.4-9.1 3.7 0 6 1.9 7.3 3.9l-3.1 1.7c-.8-1.2-2.3-2.3-4.2-2.3-3.2 0-5.5 2.5-5.5 5.8s2.3 5.8 5.5 5.8c1.6 0 3-.7 3.8-1.3V261h-4.7v-3.3h8.4v6.8c-1.8 2-4.3 3.3-7.5 3.3-5.2 0-9.4-3.6-9.4-9.2zm40.2 8.9l-4.4-6.5-4.4 6.5h-4.5l6.4-9-6-8.6h4.5l4 6 4-6h4.5l-6 8.6 6.4 9.1h-4.5zm17.2 0l-3.5-6.3H449v6.3h-3.8v-17.6h8.3c3.7 0 5.9 2.4 5.9 5.7 0 3.1-2 4.8-3.9 5.2l4 6.7h-4.2zm.4-12c0-1.5-1.1-2.4-2.6-2.4h-3.9v4.8h3.9c1.4 0 2.6-.9 2.6-2.4zm6.5 9.5l2-2.9c1.2 1.3 3.2 2.4 5.6 2.4 2.1 0 3.1-1 3.1-2 0-3.1-10.2-1-10.2-7.6 0-2.9 2.5-5.4 6.7-5.4 2.8 0 5.1.8 6.9 2.5l-2.1 2.8c-1.4-1.3-3.3-1.9-5.1-1.9-1.6 0-2.5.7-2.5 1.8 0 2.8 10.1.9 10.1 7.5 0 3.2-2.3 5.7-7.1 5.7-3.3-.1-5.8-1.3-7.4-2.9zm16.9 0l2-2.9c1.2 1.3 3.2 2.4 5.6 2.4 2.1 0 3.1-1 3.1-2 0-3.1-10.2-1-10.2-7.6 0-2.9 2.5-5.4 6.7-5.4 2.8 0 5.1.8 6.9 2.5l-2.1 2.8c-1.4-1.3-3.3-1.9-5.1-1.9-1.6 0-2.5.7-2.5 1.8 0 2.8 10.1.9 10.1 7.5 0 3.2-2.3 5.7-7.1 5.7-3.3-.1-5.8-1.3-7.4-2.9z"/></g><g class="st7"><path class="st12" d="M25.5 420.7c0-3.7 2.8-6.1 6.3-6.1 2.5 0 4 1.2 4.9 2.6l-2.1 1.1c-.5-.8-1.5-1.5-2.8-1.5-2.1 0-3.7 1.6-3.7 3.9s1.6 3.9 3.7 3.9c1 0 2-.5 2.5-.9v-1.4h-3.1V420h5.6v4.5c-1.2 1.3-2.9 2.2-5 2.2-3.4.1-6.3-2.3-6.3-6zm22.2 5.9l-.7-2h-5.1l-.7 2h-2.9l4.6-11.8H46l4.6 11.8h-2.9zm-3.3-9.3l-1.8 5.1h3.7l-1.9-5.1zm17 9.3l-2.1-8.1-2.1 8.1h-2.7l-3.4-11.8h2.8l2.1 8.5 2.3-8.5h2l2.2 8.5 2.1-8.5h2.8L64 426.6h-2.6z"/></g><g class="st7"><path class="st12" d="M77 430.1c-1.7-1.9-2.8-5-2.8-7.8 0-2.9 1.1-5.9 2.8-7.8l1.4 1.1c-1.2 2.2-1.8 4.1-1.8 6.8s.6 4.6 1.8 6.7l-1.4 1zm6.4-3.4c-1.9-.2-3.2-.9-4.2-1.8l1.4-1.9c.7.7 1.6 1.3 2.8 1.5v-2.8c-1.8-.5-3.8-1.1-3.8-3.5 0-1.8 1.4-3.3 3.8-3.6V413h1.7v1.7c1.4.2 2.6.7 3.6 1.6l-1.4 1.8c-.6-.6-1.4-1-2.2-1.2v2.5c1.8.5 3.9 1.2 3.9 3.6 0 2-1.3 3.5-3.9 3.7v1.6h-1.7v-1.6zm0-7.7v-2.2c-.8.1-1.2.5-1.2 1.2 0 .5.5.7 1.2 1zm1.7 3.1v2.4c.9-.2 1.3-.7 1.3-1.2 0-.6-.5-.9-1.3-1.2zm5.3 4.5v-2c4.8-3.6 6.3-4.8 6.3-6.3 0-1-.9-1.5-1.9-1.5-1.3 0-2.4.5-3.2 1.4l-1.4-1.7c1.2-1.3 2.9-1.9 4.6-1.9 2.5 0 4.5 1.4 4.5 3.8 0 2-1.7 3.8-4.7 6h4.8v2.2h-9zm11.8 2.4l-1-.8c.6-.3 1.2-1 1.4-1.7-.1 0-.2.1-.3.1-.7 0-1.2-.5-1.2-1.3s.6-1.4 1.4-1.4c.8 0 1.6.7 1.6 1.8-.1 1.3-.8 2.5-1.9 3.3zm6.1-2.4V418l-2 2-1.4-1.5 3.7-3.7h2.2v11.8h-2.5zm4.6-1.6l1.4-1.8c.8.8 1.9 1.3 3.1 1.3 1.4 0 2.2-.8 2.2-1.8s-.8-1.8-2.1-1.8c-1 0-1.8.3-2.5 1l-1.8-.5v-6.8h8.1v2.2h-5.6v2.9c.6-.6 1.5-1 2.6-1 2 0 3.8 1.4 3.8 3.8 0 2.5-1.9 4.1-4.7 4.1-2 .2-3.5-.5-4.5-1.6zm10.2 4c1.2-2.1 1.8-4.1 1.8-6.7s-.6-4.6-1.8-6.8l1.4-1.1c1.7 1.9 2.8 5 2.8 7.8 0 2.9-1.1 5.9-2.8 7.8l-1.4-1z"/></g><g class="st7"><path class="st12" d="M19 164.5c0-3.5 2.7-5.8 5.9-5.8 2.3 0 3.8 1.2 4.6 2.5l-2 1.1c-.5-.8-1.5-1.5-2.6-1.5-2 0-3.5 1.6-3.5 3.7s1.5 3.7 3.5 3.7c1 0 1.9-.4 2.4-.9V166h-2.9v-2.1h5.3v4.3c-1.1 1.3-2.7 2.1-4.7 2.1-3.3 0-6-2.3-6-5.8zm21 5.6l-.7-1.9h-4.8l-.7 1.9h-2.7l4.3-11.2h3l4.3 11.2H40zm-3.1-8.8l-1.7 4.8h3.5l-1.8-4.8zm16 8.8l-2-7.7-1.9 7.7h-2.5l-3.2-11.2H46l2 8.1 2.1-8.1H52l2 8.1 1.9-8.1h2.7l-3.2 11.2h-2.5z"/></g><g class="st7"><path class="st12" d="M72.6 173.4c-1.6-1.8-2.6-4.7-2.6-7.4s1-5.6 2.6-7.4l1.3 1c-1.1 2-1.7 3.9-1.7 6.4 0 2.5.6 4.3 1.7 6.4l-1.3 1zm6-3.2c-1.8-.2-3-.8-3.9-1.7l1.3-1.8c.6.7 1.5 1.2 2.7 1.4v-2.6c-1.7-.4-3.6-1.1-3.6-3.3 0-1.7 1.3-3.1 3.6-3.4v-1.6h1.6v1.6c1.4.2 2.5.7 3.4 1.5l-1.3 1.7c-.6-.6-1.3-.9-2.1-1.1v2.4c1.7.4 3.6 1.1 3.6 3.4 0 1.9-1.2 3.3-3.6 3.5v1.5h-1.6v-1.5zm0-7.3v-2c-.8.1-1.2.5-1.2 1.1.1.4.5.7 1.2.9zm1.6 3v2.2c.8-.2 1.2-.7 1.2-1.2.1-.5-.4-.8-1.2-1zm5.1 4.2v-1.9c4.6-3.4 5.9-4.5 5.9-5.9 0-1-.9-1.5-1.8-1.5-1.3 0-2.2.5-3 1.3l-1.4-1.6c1.1-1.3 2.7-1.8 4.3-1.8 2.4 0 4.3 1.3 4.3 3.6 0 1.9-1.6 3.6-4.5 5.7h4.5v2.1h-8.3zm12.6 0V162l-1.9 1.9-1.4-1.4 3.5-3.5h2.1v11.2h-2.3zm5.4 2.3l-.9-.8c.5-.3 1.2-1 1.3-1.6h-.3c-.6 0-1.1-.5-1.1-1.2s.6-1.3 1.3-1.3c.8 0 1.5.6 1.5 1.7-.1 1.3-.8 2.4-1.8 3.2zm3.2-3.8l1.3-1.7c.8.8 1.8 1.2 3 1.2 1.3 0 2.1-.8 2.1-1.7 0-1-.7-1.7-2-1.7-.9 0-1.7.3-2.3.9l-1.7-.4v-6.4h7.7v2.1h-5.3v2.7c.5-.5 1.4-.9 2.5-.9 1.9 0 3.6 1.4 3.6 3.6 0 2.4-1.8 3.9-4.5 3.9-2.1.1-3.5-.6-4.4-1.6zm9.7-.1l1.2-1.6c.8.8 2 1.3 3.1 1.3 1.4 0 2.1-.6 2.1-1.4 0-.9-.7-1.3-2.2-1.3H119v-2.1h1.4c1.2 0 2.1-.4 2.1-1.2 0-.9-.9-1.3-2.1-1.3-1.1 0-2 .4-2.8 1.2l-1.2-1.5c.9-1 2.3-1.8 4.3-1.8 2.6 0 4.2 1.2 4.2 3 0 1.4-1.2 2.3-2.4 2.5 1.1.1 2.6 1 2.6 2.7 0 1.9-1.7 3.3-4.4 3.3-2.2 0-3.7-.8-4.5-1.8zm9.7 3.9c1.2-2 1.7-3.8 1.7-6.4 0-2.5-.6-4.3-1.7-6.4l1.3-1c1.6 1.8 2.7 4.7 2.7 7.4s-1 5.6-2.7 7.4l-1.3-1z"/></g><path d="M283.8 513.5l1.4-1.9c.8.9 2.1 1.6 3.8 1.6 1.4 0 2.1-.6 2.1-1.3 0-2.1-6.8-.7-6.8-5.1 0-2 1.7-3.6 4.5-3.6 1.9 0 3.4.6 4.6 1.6l-1.4 1.8c-1-.9-2.2-1.3-3.4-1.3-1.1 0-1.7.5-1.7 1.2 0 1.9 6.8.6 6.8 5 0 2.2-1.5 3.8-4.7 3.8-2.5.1-4.1-.7-5.2-1.8zm14.9 1.7v-9.6h-3.5v-2.2h9.4v2.2h-3.4v9.6h-2.5zm16.4 0l-.7-2h-5.1l-.7 2h-2.9l4.6-11.8h3.2l4.6 11.8h-3zm-3.3-9.3L310 511h3.7l-1.9-5.1zm8 9.3v-11.8h6.2c2.3 0 3.4 1.4 3.4 3 0 1.5-.9 2.5-2 2.7 1.3.2 2.3 1.4 2.3 2.9 0 1.8-1.2 3.2-3.4 3.2h-6.5zm7-8.4c0-.7-.5-1.3-1.4-1.3h-3.2v2.6h3.2c.9 0 1.4-.5 1.4-1.3zm.3 4.8c0-.7-.5-1.4-1.5-1.4h-3.2v2.7h3.2c.9.1 1.5-.4 1.5-1.3zm5.1 3.6v-11.8h2.5v11.8h-2.5zm5.6 0v-11.8h2.5v9.6h5v2.2h-7.5zm10 0v-11.8h2.5v11.8h-2.5zm5.1 0v-2l5.6-7.6h-5.6v-2.2h8.9v2l-5.6 7.6h5.7v2.2h-9zm19.8 0l-.7-2h-5.1l-.7 2h-2.9l4.6-11.8h3.2l4.6 11.8h-3zm-3.3-9.3l-1.8 5.1h3.7l-1.9-5.1zm10.7 9.3v-9.6h-3.5v-2.2h9.4v2.2h-3.4v9.6h-2.5zm8.3 0v-11.8h2.5v11.8h-2.5zm5-5.9c0-3.6 2.6-6.1 6.2-6.1s6.2 2.6 6.2 6.1-2.6 6.1-6.2 6.1-6.2-2.6-6.2-6.1zm9.7 0c0-2.2-1.4-3.9-3.6-3.9s-3.6 1.7-3.6 3.9 1.4 3.9 3.6 3.9 3.6-1.7 3.6-3.9zm13.3 5.9l-5.6-7.7v7.7h-2.5v-11.8h2.6l5.5 7.4v-7.4h2.5v11.8h-2.5zm-132.6 17l1.4-1.9c.8.9 2.1 1.6 3.8 1.6 1.4 0 2.1-.6 2.1-1.3 0-2.1-6.8-.7-6.8-5.1 0-2 1.7-3.6 4.5-3.6 1.9 0 3.4.6 4.6 1.6l-1.4 1.8c-1-.9-2.2-1.3-3.4-1.3-1.1 0-1.7.5-1.7 1.2 0 1.9 6.8.6 6.8 5 0 2.2-1.5 3.8-4.7 3.8-2.5.1-4.1-.7-5.2-1.8zm14.9 1.7v-9.6h-3.5v-2.2h9.4v2.2h-3.4v9.6h-2.5zm8.3 0v-11.8h8.4v2.2h-5.8v2.5h5.7v2.2h-5.7v2.7h5.8v2.2H307zm11 0v-11.8h5.5c2.6 0 4 1.7 4 3.8 0 2.1-1.4 3.8-4 3.8h-3v4.2H318zm6.9-8c0-1-.7-1.6-1.7-1.6h-2.7v3.2h2.7c1 0 1.7-.7 1.7-1.6z" class="st7"/><g class="st7"><path class="st9" d="M261.2 530v-19.7l-4.5 4.6-3.3-3.5 8.5-8.6h5V530h-5.7z"/></g><path d="M576.6 513.5l1.4-1.9c.8.9 2.1 1.6 3.8 1.6 1.4 0 2.1-.6 2.1-1.3 0-2.1-6.8-.7-6.8-5.1 0-2 1.7-3.6 4.5-3.6 1.9 0 3.4.6 4.6 1.6l-1.4 1.8c-1-.9-2.2-1.3-3.4-1.3-1.1 0-1.7.5-1.7 1.2 0 1.9 6.8.6 6.8 5 0 2.2-1.5 3.8-4.7 3.8-2.5.1-4.1-.7-5.2-1.8zm14.8 1.7v-9.6H588v-2.2h9.4v2.2H594v9.6h-2.6zm16.5 0l-.7-2h-5.1l-.7 2h-2.9l4.6-11.8h3.2l4.6 11.8h-3zm-3.3-9.3l-1.8 5.1h3.7l-1.9-5.1zm8 9.3v-11.8h6.2c2.3 0 3.4 1.4 3.4 3 0 1.5-.9 2.5-2 2.7 1.3.2 2.3 1.4 2.3 2.9 0 1.8-1.2 3.2-3.4 3.2h-6.5zm7-8.4c0-.7-.5-1.3-1.4-1.3H615v2.6h3.2c.9 0 1.4-.5 1.4-1.3zm.3 4.8c0-.7-.5-1.4-1.5-1.4h-3.2v2.7h3.2c.9.1 1.5-.4 1.5-1.3zm5.1 3.6v-11.8h2.5v11.8H625zm5.6 0v-11.8h2.5v9.6h5v2.2h-7.5zm10 0v-11.8h2.5v11.8h-2.5zm5.1 0v-2l5.6-7.6h-5.6v-2.2h8.9v2L649 513h5.7v2.2h-9zm19.8 0l-.7-2h-5.1l-.7 2h-2.9l4.6-11.8h3.2l4.6 11.8h-3zm-3.3-9.3l-1.8 5.1h3.7l-1.9-5.1zm10.7 9.3v-9.6h-3.5v-2.2h9.4v2.2h-3.4v9.6h-2.5zm8.3 0v-11.8h2.5v11.8h-2.5zm5-5.9c0-3.6 2.6-6.1 6.2-6.1s6.2 2.6 6.2 6.1-2.6 6.1-6.2 6.1-6.2-2.6-6.2-6.1zm9.7 0c0-2.2-1.4-3.9-3.6-3.9s-3.6 1.7-3.6 3.9 1.4 3.9 3.6 3.9 3.6-1.7 3.6-3.9zm13.3 5.9l-5.6-7.7v7.7H701v-11.8h2.6l5.5 7.4v-7.4h2.5v11.8h-2.4zm-132.6 17l1.4-1.9c.8.9 2.1 1.6 3.8 1.6 1.4 0 2.1-.6 2.1-1.3 0-2.1-6.8-.7-6.8-5.1 0-2 1.7-3.6 4.5-3.6 1.9 0 3.4.6 4.6 1.6l-1.4 1.8c-1-.9-2.2-1.3-3.4-1.3-1.1 0-1.7.5-1.7 1.2 0 1.9 6.8.6 6.8 5 0 2.2-1.5 3.8-4.7 3.8-2.5.1-4.1-.7-5.2-1.8zm14.8 1.7v-9.6H588v-2.2h9.4v2.2H594v9.6h-2.6zm8.3 0v-11.8h8.4v2.2h-5.8v2.5h5.7v2.2h-5.7v2.7h5.8v2.2h-8.4zm11.1 0v-11.8h5.5c2.6 0 4 1.7 4 3.8 0 2.1-1.4 3.8-4 3.8h-3v4.2h-2.5zm6.9-8c0-1-.7-1.6-1.7-1.6h-2.7v3.2h2.7c1 0 1.7-.7 1.7-1.6zm564-12.4l1.4-1.9c.8.9 2.1 1.6 3.8 1.6 1.4 0 2.1-.6 2.1-1.3 0-2.1-6.8-.7-6.8-5.1 0-2 1.7-3.6 4.5-3.6 1.9 0 3.4.6 4.6 1.6l-1.4 1.8c-1-.9-2.2-1.3-3.4-1.3-1.1 0-1.7.5-1.7 1.2 0 1.9 6.8.6 6.8 5 0 2.2-1.5 3.8-4.7 3.8-2.4.1-4.1-.7-5.2-1.8zm14.9 1.7v-9.6h-3.5v-2.2h9.4v2.2h-3.4v9.6h-2.5zm16.4 0l-.7-2h-5.1l-.7 2h-2.9l4.6-11.8h3.2l4.6 11.8h-3zm-3.2-9.3l-1.8 5.1h3.7l-1.9-5.1zm7.9 9.3v-11.8h6.2c2.3 0 3.4 1.4 3.4 3 0 1.5-.9 2.5-2 2.7 1.3.2 2.3 1.4 2.3 2.9 0 1.8-1.2 3.2-3.4 3.2h-6.5zm7.1-8.4c0-.7-.5-1.3-1.4-1.3h-3.2v2.6h3.2c.8 0 1.4-.5 1.4-1.3zm.2 4.8c0-.7-.5-1.4-1.5-1.4h-3.2v2.7h3.2c.9.1 1.5-.4 1.5-1.3zm5.2 3.6v-11.8h2.5v11.8h-2.5zm5.5 0v-11.8h2.5v9.6h5v2.2h-7.5zm10 0v-11.8h2.5v11.8h-2.5zm5.1 0v-2l5.6-7.6h-5.6v-2.2h8.9v2l-5.6 7.6h5.7v2.2h-9zm19.8 0l-.7-2h-5.1l-.7 2h-2.9l4.6-11.8h3.2l4.6 11.8h-3zm-3.2-9.3l-1.8 5.1h3.7l-1.9-5.1zm10.6 9.3v-9.6h-3.5v-2.2h9.4v2.2h-3.4v9.6h-2.5zm8.3 0v-11.8h2.5v11.8h-2.5zm5-5.9c0-3.6 2.6-6.1 6.2-6.1s6.2 2.6 6.2 6.1-2.6 6.1-6.2 6.1-6.2-2.6-6.2-6.1zm9.8 0c0-2.2-1.4-3.9-3.6-3.9s-3.6 1.7-3.6 3.9 1.4 3.9 3.6 3.9 3.6-1.7 3.6-3.9zm13.2 5.9l-5.6-7.7v7.7h-2.5v-11.8h2.6l5.5 7.4v-7.4h2.5v11.8h-2.5zm-132.6 17l1.4-1.9c.8.9 2.1 1.6 3.8 1.6 1.4 0 2.1-.6 2.1-1.3 0-2.1-6.8-.7-6.8-5.1 0-2 1.7-3.6 4.5-3.6 1.9 0 3.4.6 4.6 1.6l-1.4 1.8c-1-.9-2.2-1.3-3.4-1.3-1.1 0-1.7.5-1.7 1.2 0 1.9 6.8.6 6.8 5 0 2.2-1.5 3.8-4.7 3.8-2.4.1-4.1-.7-5.2-1.8zm14.9 1.7v-9.6h-3.5v-2.2h9.4v2.2h-3.4v9.6h-2.5zm8.3 0v-11.8h8.4v2.2h-5.8v2.5h5.7v2.2h-5.7v2.7h5.8v2.2h-8.4zm11 0v-11.8h5.5c2.6 0 4 1.7 4 3.8 0 2.1-1.4 3.8-4 3.8h-3v4.2h-2.5zm6.9-8c0-1-.7-1.6-1.7-1.6h-2.7v3.2h2.7c1 0 1.7-.7 1.7-1.6zm246.3-12.4l1.4-1.9c.8.9 2.1 1.6 3.8 1.6 1.4 0 2.1-.6 2.1-1.3 0-2.1-6.8-.7-6.8-5.1 0-2 1.7-3.6 4.5-3.6 1.9 0 3.4.6 4.6 1.6l-1.4 1.8c-1-.9-2.2-1.3-3.4-1.3-1.1 0-1.7.5-1.7 1.2 0 1.9 6.8.6 6.8 5 0 2.2-1.5 3.8-4.7 3.8-2.5.1-4.1-.7-5.2-1.8zm14.9 1.7v-9.6h-3.5v-2.2h9.4v2.2h-3.4v9.6h-2.5zm16.4 0l-.7-2h-5.1l-.7 2h-2.9l4.6-11.8h3.2l4.6 11.8h-3zm-3.2-9.3l-1.8 5.1h3.7l-1.9-5.1zm7.9 9.3v-11.8h6.2c2.3 0 3.4 1.4 3.4 3 0 1.5-.9 2.5-2 2.7 1.3.2 2.3 1.4 2.3 2.9 0 1.8-1.2 3.2-3.4 3.2h-6.5zm7-8.4c0-.7-.5-1.3-1.4-1.3h-3.2v2.6h3.2c.9 0 1.4-.5 1.4-1.3zm.3 4.8c0-.7-.5-1.4-1.5-1.4h-3.2v2.7h3.2c.9.1 1.5-.4 1.5-1.3zm5.1 3.6v-11.8h2.5v11.8h-2.5zm5.6 0v-11.8h2.5v9.6h5v2.2h-7.5zm10 0v-11.8h2.5v11.8h-2.5zm5.1 0v-2l5.6-7.6h-5.6v-2.2h8.9v2l-5.6 7.6h5.7v2.2h-9zm19.8 0l-.7-2h-5.1l-.7 2h-2.9l4.6-11.8h3.2l4.6 11.8h-3zm-3.3-9.3l-1.8 5.1h3.7l-1.9-5.1zm10.7 9.3v-9.6h-3.5v-2.2h9.4v2.2h-3.4v9.6h-2.5zm8.3 0v-11.8h2.5v11.8h-2.5zm5-5.9c0-3.6 2.6-6.1 6.2-6.1s6.2 2.6 6.2 6.1-2.6 6.1-6.2 6.1-6.2-2.6-6.2-6.1zm9.8 0c0-2.2-1.4-3.9-3.6-3.9s-3.6 1.7-3.6 3.9 1.4 3.9 3.6 3.9c2.1 0 3.6-1.7 3.6-3.9zm13.2 5.9l-5.6-7.7v7.7h-2.5v-11.8h2.6l5.5 7.4v-7.4h2.5v11.8h-2.5zm-132.6 17l1.4-1.9c.8.9 2.1 1.6 3.8 1.6 1.4 0 2.1-.6 2.1-1.3 0-2.1-6.8-.7-6.8-5.1 0-2 1.7-3.6 4.5-3.6 1.9 0 3.4.6 4.6 1.6l-1.4 1.8c-1-.9-2.2-1.3-3.4-1.3-1.1 0-1.7.5-1.7 1.2 0 1.9 6.8.6 6.8 5 0 2.2-1.5 3.8-4.7 3.8-2.5.1-4.1-.7-5.2-1.8zm14.9 1.7v-9.6h-3.5v-2.2h9.4v2.2h-3.4v9.6h-2.5zm8.3 0v-11.8h8.4v2.2h-5.8v2.5h5.7v2.2h-5.7v2.7h5.8v2.2h-8.4zm11 0v-11.8h5.5c2.6 0 4 1.7 4 3.8 0 2.1-1.4 3.8-4 3.8h-3v4.2h-2.5zm6.9-8c0-1-.7-1.6-1.7-1.6h-2.7v3.2h2.7c1 0 1.7-.7 1.7-1.6z" class="st7"/><g class="st7"><path class="st11" d="M603.3 268.9l-3.1-12.1-3.1 12.1h-4l-5.1-17.6h4.2l3.1 12.8 3.4-12.8h2.9L605 264l3.1-12.8h4.2l-5 17.6h-4zm11-8.8c0-5.3 3.9-9.1 9.2-9.1 5.3 0 9.2 3.8 9.2 9.1s-3.9 9.1-9.2 9.1c-5.4 0-9.2-3.8-9.2-9.1zm14.5 0c0-3.3-2.1-5.8-5.4-5.8-3.3 0-5.3 2.5-5.3 5.8s2.1 5.8 5.3 5.8c3.3 0 5.4-2.6 5.4-5.8zm17.5 8.8l-3.5-6.3H640v6.3h-3.8v-17.6h8.3c3.7 0 5.9 2.4 5.9 5.7 0 3.1-2 4.8-3.9 5.2l4 6.7h-4.2zm.4-12c0-1.5-1.1-2.4-2.6-2.4h-3.9v4.8h3.9c1.5 0 2.6-.9 2.6-2.4zm18.2 12l-5.3-7.1-1.4 1.6v5.4h-3.8v-17.6h3.8v7.9l6.2-7.9h4.6l-7 8.3 7.5 9.4h-4.6zm7.4 0v-17.6h3.8v17.6h-3.8zm20.4 0l-8.4-11.5v11.5h-3.8v-17.6h3.9l8.2 11.1v-11.1h3.8v17.6h-3.7zm7.3-8.8c0-5.6 4.2-9.1 9.4-9.1 3.7 0 6 1.9 7.3 3.9l-3.1 1.7c-.8-1.2-2.3-2.3-4.2-2.3-3.2 0-5.5 2.5-5.5 5.8s2.3 5.8 5.5 5.8c1.6 0 3-.7 3.8-1.3v-2.1h-4.7v-3.3h8.4v6.8c-1.8 2-4.3 3.3-7.5 3.3-5.1-.1-9.4-3.7-9.4-9.2zm40.3 8.8l-4.4-6.5-4.4 6.5H727l6.4-9-6-8.6h4.5l4 6 4-6h4.5l-6 8.6 6.4 9.1h-4.5zm17.2 0l-3.5-6.3h-2.8v6.3h-3.8v-17.6h8.3c3.7 0 5.9 2.4 5.9 5.7 0 3.1-2 4.8-3.9 5.2l4 6.7h-4.2zm.3-12c0-1.5-1.1-2.4-2.6-2.4h-3.9v4.8h3.9c1.5 0 2.6-.9 2.6-2.4zm6.5 9.5l2-2.9c1.2 1.3 3.2 2.4 5.6 2.4 2.1 0 3.1-1 3.1-2 0-3.1-10.2-1-10.2-7.6 0-2.9 2.5-5.4 6.7-5.4 2.8 0 5.1.8 6.9 2.5l-2.1 2.8c-1.4-1.3-3.3-1.9-5.1-1.9-1.6 0-2.5.7-2.5 1.8 0 2.8 10.1.9 10.1 7.5 0 3.2-2.3 5.7-7.1 5.7-3.3-.1-5.7-1.3-7.4-2.9zm16.9 0l2-2.9c1.2 1.3 3.2 2.4 5.6 2.4 2.1 0 3.1-1 3.1-2 0-3.1-10.2-1-10.2-7.6 0-2.9 2.5-5.4 6.7-5.4 2.8 0 5.1.8 6.9 2.5l-2.1 2.8c-1.4-1.3-3.3-1.9-5.1-1.9-1.6 0-2.5.7-2.5 1.8 0 2.8 10.1.9 10.1 7.5 0 3.2-2.3 5.7-7.1 5.7-3.3-.1-5.7-1.3-7.4-2.9z"/></g><g class="st7"><path class="st11" d="M1219.5 254.9c0-3.5 2.6-5.8 5.7-5.8 2 0 3.3.9 4.3 2.1l-1.1.7c-.7-.9-1.9-1.5-3.2-1.5-2.4 0-4.3 1.9-4.3 4.5s1.9 4.5 4.3 4.5c1.3 0 2.4-.7 3-1.2v-2.3h-3.8v-1.2h5.2v4c-1 1.2-2.6 1.9-4.4 1.9-3.2 0-5.7-2.3-5.7-5.7zm21 5.5l-1-2.5h-5.6l-1 2.5h-1.6l4.5-11.2h1.7l4.5 11.2h-1.5zm-3.8-9.7l-2.4 6h4.7l-2.3-6zm16 9.7l-2.5-9-2.5 9h-1.5l-3.2-11.2h1.5l2.5 9.3 2.6-9.3h1.2l2.6 9.3 2.5-9.3h1.5l-3.2 11.2h-1.5z"/></g><g class="st7"><path class="st13" d="M1199.4 251.5v-8.7l-1.6 1.7-.5-.5 2.2-2.3h.8v9.9h-.9z"/></g><g class="st7"><path class="st14" d="M1199.4 251.5v-8.7l-1.6 1.7-.5-.5 2.2-2.3h.8v9.9h-.9z"/></g><g class="st7"><path class="st13" d="M1196.6 268.9v-.7c3.4-2.7 5.6-4.6 5.6-6.5 0-1.4-1.2-2-2.2-2-1.2 0-2.2.5-2.7 1.3l-.6-.5c.7-.9 1.9-1.5 3.3-1.5s3.1.8 3.1 2.8c0 2.2-2.3 4.2-5.1 6.5h5.2v.8h-6.6z"/></g><g class="st7"><path class="st14" d="M1196.6 268.9v-.7c3.4-2.7 5.6-4.6 5.6-6.5 0-1.4-1.2-2-2.2-2-1.2 0-2.2.5-2.7 1.3l-.6-.5c.7-.9 1.9-1.5 3.3-1.5s3.1.8 3.1 2.8c0 2.2-2.3 4.2-5.1 6.5h5.2v.8h-6.6z"/></g><path class="st15" d="M1192.4 255h15.2"/><g class="st7"><path class="st12" d="M6.9 418.8v-8.7l-1.6 1.7-.5-.5L7 409h.8v9.9h-.9z"/></g><g class="st7"><path class="st16" d="M6.9 418.8v-8.7l-1.6 1.7-.5-.5L7 409h.8v9.9h-.9z"/></g><g class="st7"><path class="st12" d="M3.1 436.2v-8.7l-1.6 1.7-.5-.6 2.2-2.3H4v9.9h-.9zm3.5-4.9c0-2.3 1-5.1 3.6-5.1s3.6 2.7 3.6 5.1c0 2.3-1 5.1-3.6 5.1s-3.6-2.8-3.6-5.1zm6.4 0c0-2-.7-4.3-2.7-4.3-2.1 0-2.8 2.3-2.8 4.3s.7 4.3 2.8 4.3c2 0 2.7-2.3 2.7-4.3z"/></g><g class="st7"><path class="st16" d="M3.1 436.2v-8.7l-1.6 1.7-.5-.6 2.2-2.3H4v9.9h-.9zm3.5-4.9c0-2.3 1-5.1 3.6-5.1s3.6 2.7 3.6 5.1c0 2.3-1 5.1-3.6 5.1s-3.6-2.8-3.6-5.1zm6.4 0c0-2-.7-4.3-2.7-4.3-2.1 0-2.8 2.3-2.8 4.3s.7 4.3 2.8 4.3c2 0 2.7-2.3 2.7-4.3z"/></g><path class="st17" d="M0 422.3h15.1"/><g class="st7"><path class="st11" d="M1492.9 214c0-3.5 2.6-5.8 5.7-5.8 2 0 3.3.9 4.3 2.1l-1.1.7c-.7-.9-1.9-1.5-3.2-1.5-2.4 0-4.3 1.9-4.3 4.5s1.9 4.5 4.3 4.5c1.3 0 2.4-.7 3-1.2V215h-3.8v-1.2h5.2v4c-1 1.2-2.6 1.9-4.4 1.9-3.2.1-5.7-2.2-5.7-5.7zm21 5.6l-1-2.5h-5.6l-1 2.5h-1.6l4.5-11.2h1.7l4.5 11.2h-1.5zm-3.8-9.7l-2.4 6h4.7l-2.3-6zm16 9.7l-2.5-9-2.5 9h-1.5l-3.2-11.2h1.5l2.5 9.3 2.6-9.3h1.2l2.6 9.3 2.5-9.3h1.5l-3.2 11.2h-1.5z"/></g><g class="st7"><path class="st13" d="M1469 209.2l.6-.5c.5.8 1.5 1.4 2.8 1.4 1.5 0 2.5-.8 2.5-2.1 0-1.4-1.2-2-2.6-2h-.9v-.8h.9c1.3 0 2.5-.6 2.5-1.9 0-1.2-1.1-1.9-2.4-1.9-1.1 0-1.9.4-2.6 1.3l-.5-.5c.7-.8 1.8-1.5 3.2-1.5 1.7 0 3.2.9 3.2 2.6 0 1.5-1.3 2.2-2.1 2.3.9.1 2.3.8 2.3 2.5 0 1.6-1.2 2.8-3.3 2.8-1.8-.1-3-.9-3.6-1.7z"/></g><g class="st7"><path class="st14" d="M1469 209.2l.6-.5c.5.8 1.5 1.4 2.8 1.4 1.5 0 2.5-.8 2.5-2.1 0-1.4-1.2-2-2.6-2h-.9v-.8h.9c1.3 0 2.5-.6 2.5-1.9 0-1.2-1.1-1.9-2.4-1.9-1.1 0-1.9.4-2.6 1.3l-.5-.5c.7-.8 1.8-1.5 3.2-1.5 1.7 0 3.2.9 3.2 2.6 0 1.5-1.3 2.2-2.1 2.3.9.1 2.3.8 2.3 2.5 0 1.6-1.2 2.8-3.3 2.8-1.8-.1-3-.9-3.6-1.7z"/></g><g class="st7"><path class="st13" d="M1474.7 228v-2.7h-4.7v-.8l4.4-6.4h1.1v6.4h1.4v.8h-1.4v2.7h-.8zm0-9l-3.8 5.6h3.8V219z"/></g><g class="st7"><path class="st14" d="M1474.7 228v-2.7h-4.7v-.8l4.4-6.4h1.1v6.4h1.4v.8h-1.4v2.7h-.8zm0-9l-3.8 5.6h3.8V219z"/></g><path class="st15" d="M1465.8 214.1h15.2"/><circle class="st8" cx="1299.8" cy="161.1" r="5.6"/><circle class="st8" cx="1157.1" cy="161.1" r="5.6"/><circle class="st8" cx="1014.3" cy="161.1" r="5.6"/><circle class="st8" cx="871.7" cy="161.1" r="5.6"/><circle class="st8" cx="586.3" cy="161.1" r="5.6"/><circle class="st8" cx="443.4" cy="161.1" r="5.6"/><circle class="st8" cx="301.1" cy="161.1" r="5.6"/><circle class="st8" cx="157.8" cy="161.1" r="5.6"/><circle class="st9" cx="264.1" cy="94.7" r="5.6"/><circle class="st9" cx="405.3" cy="94.7" r="5.6"/><circle class="st9" cx="547.3" cy="94.7" r="5.6"/><circle class="st9" cx="692.2" cy="94.7" r="5.6"/><circle class="st9" cx="1293.3" cy="94.7" r="5.6"/><circle class="st9" cx="1575.6" cy="94.7" r="5.6"/><g class="st7"><path class="st11" d="M739.2 18v-6h-6.8v6h-3.1V3.6h3.1v5.7h6.8V3.6h3.1V18h-3.1zm16.8 0l-.9-2.4h-6.2L748 18h-3.5L750 3.6h3.9l5.6 14.5H756zm-4-11.3l-2.3 6.2h4.5L752 6.7zm9.7 11.3V3.6h6.8c3.1 0 4.9 2.1 4.9 4.7 0 2.5-1.7 4.7-4.9 4.7h-3.7v5h-3.1zm8.4-9.7c0-1.2-.9-2-2.1-2h-3.3v3.9h3.3c1.2 0 2.1-.8 2.1-1.9zm6 9.7V3.6h6.8c3.1 0 4.9 2.1 4.9 4.7 0 2.5-1.7 4.7-4.9 4.7h-3.7v5h-3.1zm8.4-9.7c0-1.2-.9-2-2.1-2h-3.3v3.9h3.3c1.2 0 2.1-.8 2.1-1.9zm10 9.7v-5.9l-5.6-8.5h3.5l3.6 5.8 3.6-5.8h3.5l-5.5 8.5V18h-3.1z"/></g><g class="st7"><path class="st11" d="M739.3 42.7l-6.9-9.4v9.4h-3.1V28.2h3.2l6.7 9.1v-9.1h3.1v14.5h-3zm6.6 0V28.2h10.2v2.7H749V34h7v2.7h-7V40h7.2v2.7h-10.3zm24.6 0l-2.5-9.9-2.5 9.9h-3.3L758 28.2h3.4l2.5 10.4 2.8-10.4h2.4l2.7 10.4 2.5-10.4h3.5l-4.1 14.5h-3.2zm20.1 0v-5.9l-5.6-8.5h3.5l3.6 5.8 3.6-5.8h3.5l-5.5 8.5v5.9h-3.1zm10.8 0V28.2h10.2v2.7h-7.2V34h7v2.7h-7V40h7.2v2.7h-10.2zm23.5 0l-.9-2.4h-6.2l-.9 2.4h-3.5l5.6-14.5h3.9l5.6 14.5h-3.6zm-4-11.4l-2.3 6.2h4.5l-2.2-6.2zm17.9 11.4l-2.8-5.1h-2.3v5.1h-3.1V28.2h6.8c3 0 4.9 2 4.9 4.7 0 2.6-1.6 3.9-3.2 4.3l3.3 5.5h-3.6zm.3-9.8c0-1.2-.9-2-2.2-2h-3.2v3.9h3.2c1.3 0 2.2-.7 2.2-1.9z"/></g><g class="st7"><path class="st9" d="M729 64.9c0-3 1.5-6.1 4.9-6.1 3.4 0 4.9 3 4.9 6.1s-1.5 6.1-4.9 6.1c-3.4.1-4.9-3-4.9-6.1zm7.2 0c0-2.2-.6-3.9-2.3-3.9-1.7 0-2.3 1.7-2.3 3.9s.6 3.9 2.3 3.9c1.6 0 2.3-1.7 2.3-3.9zm7.5 5.9v-8.6l-2 2-1.4-1.5L744 59h2.2v11.8h-2.5zm5.2-1.2c0-.8.7-1.4 1.4-1.4s1.4.7 1.4 1.4-.7 1.4-1.4 1.4-1.4-.6-1.4-1.4zm5-4.7c0-3 1.5-6.1 4.9-6.1 3.4 0 4.9 3 4.9 6.1s-1.5 6.1-4.9 6.1c-3.4.1-4.9-3-4.9-6.1zm7.2 0c0-2.2-.6-3.9-2.3-3.9-1.7 0-2.3 1.7-2.3 3.9s.6 3.9 2.3 3.9c1.7 0 2.3-1.7 2.3-3.9zm7.5 5.9v-8.6l-2 2-1.4-1.5 3.7-3.7h2.2v11.8h-2.5zm5.2-1.2c0-.8.7-1.4 1.4-1.4s1.4.7 1.4 1.4-.6 1.4-1.3 1.4-1.5-.6-1.5-1.4zm5.3 1.2v-2c4.8-3.6 6.3-4.8 6.3-6.3 0-1-.9-1.5-1.9-1.5-1.3 0-2.4.5-3.2 1.4l-1.4-1.7c1.2-1.3 2.9-1.9 4.6-1.9 2.5 0 4.5 1.4 4.5 3.8 0 2-1.7 3.8-4.7 6h4.8v2.2h-9zm11.1-5.9c0-3 1.5-6.1 4.9-6.1 3.4 0 4.9 3 4.9 6.1s-1.5 6.1-4.9 6.1c-3.4.1-4.9-3-4.9-6.1zm7.2 0c0-2.2-.6-3.9-2.3-3.9-1.7 0-2.3 1.7-2.3 3.9s.6 3.9 2.3 3.9c1.6 0 2.3-1.7 2.3-3.9zm7.5 5.9v-8.6l-2 2-1.4-1.5 3.7-3.7h2.2v11.8h-2.5zm5-3c0-1.4 1.1-2.5 2.5-3-1.3-.5-2.3-1.3-2.3-2.8 0-2.2 2.4-3.1 4.6-3.1 2.2 0 4.6.9 4.6 3.1 0 1.5-1 2.3-2.4 2.8 1.4.5 2.6 1.6 2.6 3 0 2.2-2.3 3.3-4.7 3.3-2.7 0-4.9-1.1-4.9-3.3zm6.9-.3c0-1-1.5-1.5-2.2-1.6-.7.1-2.2.6-2.2 1.6 0 .9 1 1.4 2.2 1.4 1.2 0 2.2-.6 2.2-1.4zm-.2-5.1c0-.9-.8-1.3-2-1.3s-2 .5-2 1.3c0 .9 1.3 1.3 2 1.4.8-.2 2-.6 2-1.4z"/></g><circle class="st9" cx="729" cy="94.7" r="5.6"/><circle class="st9" cx="1151.5" cy="94.7" r="5.6"/><circle class="st9" cx="1437.1" cy="94.7" r="5.6"/><circle class="st8" cx="1584.9" cy="161.1" r="5.6"/><path class="st9" d="M264.6 244.9l25.4 14.7-25.4 14.6zm283.2 0l25.4 14.7-25.4 14.6z"/><path class="st18" d="M157.8 425.5h4.4"/><path class="st19" d="M171.1 425.5h367.4"/><path class="st18" d="M542.9 425.5h4.4v-4.4"/><path class="st20" d="M547.3 416.1v-7.5"/><path class="st18" d="M547.3 406.1v-4.4h4.3"/><path class="st21" d="M560.3 401.7h131.9l46.1-30.6"/><path class="st18" d="M742 368.7l3.6-2.4 4.2 1.1"/><path class="st22" d="M757.4 369.3l41.4 10.3"/><path class="st18" d="M802.6 380.5l4.2 1.1 3.3-2.9"/><path class="st23" d="M816.7 373.1l49.1-42.5"/><path class="st18" d="M869 327.8l3.3-2.8 4 1.7"/><path class="st24" d="M884.2 330.1l70.3 30.9 70.5-18 59.6 17.5 51.7-25.1 9.4-13.6"/><path class="st18" d="M1148.1 318.3l2.5-3.6h4.4"/><path class="st23" d="M1163.6 314.7h136.1l141.8-64.9 149.2-.2 17.8-11.9"/><path class="st18" d="M1612.1 235.3l3.6-2.5 4.2 1.1m9 2.1l4.3 1.1 2.1-3.8"/><path class="st25" d="M1639.3 226.5l22.1-38.1 5.4-14.1"/><path class="st18" d="M1668.2 170.6l1.5-4.1"/><path class="st3" d="M1151 154.3v322.3m0-381.9v31.1"/><g class="st7"><path class="st8" d="M1150.1 145.4l-.7-2h-5.1l-.7 2h-2.9l4.6-11.8h3.2l4.6 11.8h-3zm-3.2-9.3l-1.8 5.1h3.7l-1.9-5.1zm7.9 9.3v-11.8h5.5c2.6 0 4 1.7 4 3.8 0 2.1-1.4 3.8-4 3.8h-3v4.2h-2.5zm6.9-8c0-1-.7-1.6-1.7-1.6h-2.7v3.2h2.7c1 0 1.7-.6 1.7-1.6zm11.6 8l-2.3-4.2h-1.8v4.2h-2.5v-11.8h5.5c2.5 0 4 1.6 4 3.8 0 2.1-1.3 3.2-2.6 3.5l2.7 4.5h-3zm.2-8c0-1-.8-1.6-1.8-1.6h-2.6v3.2h2.6c1 0 1.8-.6 1.8-1.6z"/></g><g class="st7"><path class="st8" d="M1425.1 144.5l1.1-1.9c.5.4 1.1.9 1.9.9 1.1 0 1.8-.7 1.8-1.9v-7.9h2.5v7.9c0 2.8-1.7 4.1-4.2 4.1-1.1 0-2.3-.4-3.1-1.2zm10.4-3.8v-7.1h2.6v7c0 1.6 1 2.8 2.8 2.8 1.8 0 2.8-1.1 2.8-2.8v-7h2.6v7.1c0 2.9-1.7 4.9-5.3 4.9-3.8.1-5.5-2-5.5-4.9zm21.8 4.7l-5.6-7.7v7.7h-2.5v-11.8h2.6l5.5 7.4v-7.4h2.5v11.8h-2.5z"/></g><g class="st7"><path class="st8" d="M1567.9 144.5l1.1-1.9c.5.4 1.1.9 1.9.9 1.1 0 1.8-.7 1.8-1.9v-7.9h2.5v7.9c0 2.8-1.7 4.1-4.2 4.1-1.1 0-2.2-.4-3.1-1.2zm10.4-3.8v-7.1h2.6v7c0 1.6 1 2.8 2.8 2.8 1.8 0 2.8-1.1 2.8-2.8v-7h2.6v7.1c0 2.9-1.7 4.9-5.3 4.9-3.8.1-5.5-2-5.5-4.9zm13.7 4.7v-11.8h2.5v9.6h5v2.2h-7.5z"/></g><g class="st7"><path class="st8" d="M1293.8 145.4v-8.3l-3.3 8.3h-1.1l-3.3-8.3v8.3h-2.5v-11.8h3.5l2.9 7.1 2.9-7.1h3.5v11.8h-2.6zm13.7 0l-.7-2h-5.1l-.7 2h-2.9l4.6-11.8h3.2l4.6 11.8h-3zm-3.2-9.3l-1.8 5.1h3.7l-1.9-5.1zm11.2 9.3v-4.8l-4.6-7h2.9l2.9 4.7 2.9-4.7h2.9l-4.5 7v4.8h-2.5z"/></g><path class="st26" d="M157.8 439.3h4.4"/><path class="st27" d="M171.1 439.3l367.4.4"/><path class="st26" d="M542.9 439.7h4.4v-4.4m0-12.2v-4.3h4.3"/><path class="st28" d="M560.3 418.8h131.9l38.5-15.9 80 7.3 47.1-29.4 92.7 17.6 63.2-21 59.1 13.2 77.8-43.7h149.1l141.8-68.2h219.4"/><path class="st26" d="M1665.3 278.7h4.3"/><path class="st3" d="M264.4 94.8v381.8M547.3 94.7v380.9"/><path class="st29" d="M264.1 94.7h4.4"/><path class="st30" d="M277.2 94.7h100.9"/><path class="st29" d="M382.5 94.7h4.3"/><path class="st9" d="M385.7 98.7l6.9-4-6.9-4z"/><path class="st29" d="M546.5 94.7h4.4"/><path class="st30" d="M559.7 94.7h100.8"/><path class="st29" d="M664.9 94.7h4.4"/><path class="st9" d="M668.1 98.7l6.9-4-6.9-4z"/><path class="st29" d="M1152 94.7h4.4"/><path class="st30" d="M1165.1 94.7H1266"/><path class="st29" d="M1270.4 94.7h4.4"/><path class="st9" d="M1273.6 98.7l6.9-4-6.9-4z"/><path class="st29" d="M1437.1 94.7h4.4"/><path class="st31" d="M1450.1 94.7h98.6"/><path class="st29" d="M1553 94.7h4.4"/><path class="st9" d="M1556.2 98.7l6.9-4-6.9-4z"/><g class="st7"><path class="st9" d="M538.1 530v-4.5c11.1-8.2 14.3-11 14.3-14.3 0-2.4-2.2-3.5-4.4-3.5-3.1 0-5.4 1.2-7.3 3.1l-3.3-3.8c2.6-3 6.7-4.4 10.4-4.4 5.8 0 10.4 3.3 10.4 8.7 0 4.6-3.8 8.7-10.8 13.8h11.1v5.1h-20.4z"/></g><circle class="st9" cx="264.4" cy="478.4" r="8.8"/><circle class="st9" cx="547.3" cy="478.4" r="8.8"/><circle class="st9" cx="1151.3" cy="478.4" r="8.8"/><circle class="st9" cx="1437.3" cy="478.4" r="8.8"/><path class="st32" d="M301.1 425.3v-72.1"/><path class="st33" d="M300.1 328.3h101v64.3h-101z"/><g class="st7"><path class="st34" d="M311.3 341.7c0-2.1 1.6-3.4 3.5-3.4 1.4 0 2.3.7 2.8 1.5l-1.2.6c-.3-.5-.9-.9-1.6-.9-1.2 0-2.1.9-2.1 2.2 0 1.3.9 2.2 2.1 2.2.6 0 1.1-.3 1.4-.5v-.8h-1.8v-1.2h3.2v2.6c-.7.8-1.6 1.3-2.8 1.3-1.9-.2-3.5-1.5-3.5-3.6zm7.7.7v-4h1.4v4c0 .9.5 1.6 1.6 1.6s1.6-.6 1.6-1.6v-4h1.4v4c0 1.7-1 2.8-3 2.8s-3-1.2-3-2.8zm12.1 2.6l-.4-1.1h-2.9l-.4 1.1h-1.6l2.6-6.7h1.8l2.6 6.7h-1.7zm-1.8-5.2l-1 2.9h2.1l-1.1-2.9zm8 5.2l-1.3-2.4h-1v2.4h-1.4v-6.7h3.1c1.4 0 2.2.9 2.2 2.1 0 1.2-.7 1.8-1.5 2l1.5 2.5h-1.6zm.2-4.5c0-.6-.4-.9-1-.9H335v1.8h1.5c.5 0 1-.3 1-.9zm7.3 4.5l-.4-1.1h-2.9l-.4 1.1h-1.6l2.6-6.7h1.8l2.6 6.7h-1.7zm-1.9-5.2l-1 2.9h2.1l-1.1-2.9zm8.9 5.2l-3.2-4.3v4.3h-1.4v-6.7h1.5l3.1 4.2v-4.2h1.4v6.7h-1.4zm4.4 0v-5.4h-1.9v-1.2h5.3v1.2h-1.9v5.4h-1.5zm4.5 0v-6.7h4.7v1.2h-3.3v1.4h3.2v1.2h-3.2v1.5h3.3v1.2h-4.7zm6 0v-6.7h4.7v1.2h-3.3v1.4h3.2v1.2h-3.2v1.5h3.3v1.2h-4.7zm6 0v-6.7h2.6c2.1 0 3.5 1.3 3.5 3.3s-1.4 3.3-3.5 3.3h-2.6zm4.7-3.3c0-1.2-.7-2.1-2.1-2.1h-1.2v4.2h1.2c1.4 0 2.1-1 2.1-2.1z"/></g><g class="st7"><path class="st34" d="M317.4 357v-4.7l-1.9 4.7h-.6l-1.9-4.7v4.7h-1.4v-6.7h2l1.6 4 1.6-4h2v6.7h-1.4zm2.9 0v-6.7h1.4v6.7h-1.4zm7.6 0l-3.2-4.3v4.3h-1.4v-6.7h1.5l3.1 4.2v-4.2h1.4v6.7h-1.4zm2.9 0v-6.7h1.4v6.7h-1.4zm8.7 0v-4.7l-1.9 4.7h-.6l-1.9-4.7v4.7h-1.4v-6.7h2l1.6 4 1.6-4h2v6.7h-1.4zm2.9-2.6v-4h1.4v4c0 .9.5 1.6 1.6 1.6s1.6-.6 1.6-1.6v-4h1.4v4c0 1.7-1 2.8-3 2.8s-3-1.2-3-2.8zm13.3 2.6v-4.7l-1.9 4.7h-.6l-1.9-4.7v4.7h-1.4v-6.7h2l1.6 4 1.6-4h2v6.7h-1.4zm5.7 0v-6.7h3.1c1.4 0 2.2 1 2.2 2.1 0 1.2-.8 2.1-2.2 2.1h-1.7v2.4h-1.4zm3.9-4.5c0-.6-.4-.9-1-.9h-1.5v1.8h1.5c.6 0 1-.4 1-.9zm6.3 4.5l-1.3-2.4h-1v2.4h-1.4v-6.7h3.1c1.4 0 2.2.9 2.2 2.1 0 1.2-.7 1.8-1.5 2l1.5 2.5h-1.6zm.2-4.5c0-.6-.4-.9-1-.9h-1.5v1.8h1.5c.5 0 1-.3 1-.9zm2.7 4.5v-6.7h1.4v6.7h-1.4zm2.6-3.3c0-2 1.5-3.4 3.5-3.4 1.5 0 2.3.8 2.8 1.6l-1.2.6c-.3-.5-.9-1-1.6-1-1.2 0-2.1.9-2.1 2.2 0 1.3.9 2.2 2.1 2.2.7 0 1.3-.4 1.6-1l1.2.6c-.5.8-1.3 1.6-2.8 1.6-2 0-3.5-1.4-3.5-3.4zm7.4 3.3v-6.7h4.7v1.2h-3.3v1.4h3.2v1.2h-3.2v1.5h3.3v1.2h-4.7z"/></g><g class="st7"><path class="st34" d="M314.9 379.5c-1.9-.2-3.3-.9-4.2-1.9l1.4-1.9c.7.7 1.6 1.3 2.9 1.5v-2.8c-1.9-.5-3.9-1.2-3.9-3.6 0-1.8 1.4-3.4 3.9-3.6v-1.7h1.7v1.7c1.5.2 2.7.7 3.7 1.6l-1.4 1.9c-.6-.6-1.4-1-2.2-1.2v2.5c1.9.5 3.9 1.2 3.9 3.6 0 2-1.3 3.5-3.9 3.8v1.6h-1.7v-1.5zm0-7.9v-2.2c-.8.1-1.3.6-1.3 1.2 0 .5.5.8 1.3 1zm1.7 3.2v2.4c.9-.2 1.3-.7 1.3-1.3 0-.5-.5-.8-1.3-1.1zm6.1 4.5v-2c4.9-3.6 6.4-4.9 6.4-6.4 0-1-1-1.6-1.9-1.6-1.4 0-2.4.5-3.2 1.4l-1.5-1.7c1.2-1.4 3-2 4.6-2 2.6 0 4.6 1.4 4.6 3.8 0 2.1-1.7 3.8-4.8 6.1h4.9v2.3h-9.1zm12.7 2.5l-1-.8c.6-.3 1.2-1.1 1.4-1.7-.1 0-.2.1-.3.1-.7 0-1.2-.5-1.2-1.3s.6-1.4 1.4-1.4c.8 0 1.6.7 1.6 1.8-.1 1.3-.8 2.5-1.9 3.3zm6.9-2.5v-8.7l-2 2-1.5-1.5 3.8-3.8h2.2v12h-2.5zm5.3-1.6l1.4-1.8c.8.8 1.9 1.3 3.2 1.3 1.4 0 2.2-.8 2.2-1.8 0-1.1-.8-1.8-2.2-1.8-1 0-1.8.3-2.5 1l-1.8-.5v-6.9h8.2v2.3h-5.7v2.9c.6-.6 1.5-1 2.6-1 2 0 3.9 1.5 3.9 3.9 0 2.6-1.9 4.2-4.8 4.2-1.9 0-3.4-.6-4.5-1.8z"/></g><path class="st32" d="M586.8 401.7v-72.1"/><path class="st33" d="M585.7 304.7h101V369h-101z"/><g class="st7"><path class="st34" d="M597 318.1c0-2.1 1.6-3.4 3.5-3.4 1.4 0 2.3.7 2.8 1.5l-1.2.6c-.3-.5-.9-.9-1.6-.9-1.2 0-2.1.9-2.1 2.2 0 1.3.9 2.2 2.1 2.2.6 0 1.1-.3 1.4-.5v-.8h-1.8v-1.2h3.2v2.6c-.7.8-1.6 1.3-2.8 1.3-1.9-.1-3.5-1.5-3.5-3.6zm7.7.7v-4h1.4v4c0 .9.5 1.6 1.6 1.6s1.6-.6 1.6-1.6v-4h1.4v4c0 1.7-1 2.8-3 2.8s-3-1.2-3-2.8zm12.1 2.7l-.4-1.1h-2.9l-.4 1.1h-1.6l2.6-6.7h1.8l2.6 6.7h-1.7zm-1.9-5.3l-1 2.9h2.1l-1.1-2.9zm8.1 5.3l-1.3-2.4h-1v2.4h-1.4v-6.7h3.1c1.4 0 2.2.9 2.2 2.1 0 1.2-.7 1.8-1.5 2l1.5 2.5H623zm.1-4.6c0-.6-.4-.9-1-.9h-1.5v1.8h1.5c.6 0 1-.3 1-.9zm7.3 4.6l-.4-1.1h-2.9l-.4 1.1h-1.6l2.6-6.7h1.8l2.6 6.7h-1.7zm-1.8-5.3l-1 2.9h2.1l-1.1-2.9zm8.9 5.3l-3.2-4.3v4.3h-1.4v-6.7h1.5l3.1 4.2v-4.2h1.4v6.7h-1.4zm4.4 0V316H640v-1.2h5.3v1.2h-1.9v5.4h-1.5zm4.5 0v-6.7h4.7v1.2h-3.3v1.4h3.2v1.2h-3.2v1.5h3.3v1.2h-4.7zm6 0v-6.7h4.7v1.2h-3.3v1.4h3.2v1.2h-3.2v1.5h3.3v1.2h-4.7zm6 0v-6.7h2.6c2.1 0 3.5 1.3 3.5 3.3s-1.4 3.3-3.5 3.3h-2.6zm4.7-3.4c0-1.2-.7-2.1-2.1-2.1h-1.2v4.2h1.2c1.3 0 2.1-.9 2.1-2.1z"/></g><g class="st7"><path class="st34" d="M603.1 333.5v-4.7l-1.9 4.7h-.6l-1.9-4.7v4.7h-1.4v-6.7h2l1.6 4 1.6-4h2v6.7h-1.4zm2.9 0v-6.7h1.4v6.7H606zm7.5 0l-3.2-4.3v4.3h-1.4v-6.7h1.5l3.1 4.2v-4.2h1.4v6.7h-1.4zm2.9 0v-6.7h1.4v6.7h-1.4zm8.8 0v-4.7l-1.9 4.7h-.6l-1.9-4.7v4.7h-1.4v-6.7h2l1.6 4 1.6-4h2v6.7h-1.4zm2.9-2.7v-4h1.4v4c0 .9.5 1.6 1.6 1.6s1.6-.6 1.6-1.6v-4h1.4v4c0 1.7-1 2.8-3 2.8s-3-1.2-3-2.8zm13.3 2.7v-4.7l-1.9 4.7h-.6l-1.9-4.7v4.7h-1.4v-6.7h2l1.6 4 1.6-4h2v6.7h-1.4zm5.7 0v-6.7h3.1c1.4 0 2.2 1 2.2 2.1 0 1.2-.8 2.1-2.2 2.1h-1.7v2.4h-1.4zm3.9-4.6c0-.6-.4-.9-1-.9h-1.5v1.8h1.5c.6 0 1-.3 1-.9zm6.3 4.6l-1.3-2.4h-1v2.4h-1.4v-6.7h3.1c1.4 0 2.2.9 2.2 2.1 0 1.2-.7 1.8-1.5 2l1.5 2.5h-1.6zm.1-4.6c0-.6-.4-.9-1-.9H655v1.8h1.5c.5 0 .9-.3.9-.9zm2.8 4.6v-6.7h1.4v6.7h-1.4zm2.6-3.4c0-2 1.5-3.4 3.5-3.4 1.5 0 2.3.8 2.8 1.6l-1.2.6c-.3-.5-.9-1-1.6-1-1.2 0-2.1.9-2.1 2.2 0 1.3.9 2.2 2.1 2.2.7 0 1.3-.4 1.6-1l1.2.6c-.5.8-1.3 1.6-2.8 1.6-2 .1-3.5-1.3-3.5-3.4zm7.3 3.4v-6.7h4.7v1.2h-3.3v1.4h3.2v1.2h-3.2v1.5h3.3v1.2h-4.7z"/></g><g class="st7"><path class="st34" d="M600.6 355.9c-1.9-.2-3.3-.9-4.2-1.9l1.4-1.9c.7.7 1.6 1.3 2.9 1.5v-2.8c-1.9-.5-3.9-1.2-3.9-3.6 0-1.8 1.4-3.4 3.9-3.6v-1.7h1.7v1.7c1.5.2 2.7.7 3.7 1.6l-1.4 1.9c-.6-.6-1.4-1-2.2-1.2v2.5c1.9.5 3.9 1.2 3.9 3.6 0 2-1.3 3.5-3.9 3.8v1.6h-1.7v-1.5zm0-7.9v-2.2c-.8.1-1.3.6-1.3 1.2 0 .5.5.8 1.3 1zm1.7 3.3v2.4c.9-.2 1.3-.7 1.3-1.3 0-.6-.6-.9-1.3-1.1zm5.6 2.7l1.3-1.7c.8.9 2.1 1.4 3.3 1.4 1.5 0 2.3-.6 2.3-1.5 0-1-.7-1.4-2.4-1.4h-1.5v-2.3h1.5c1.3 0 2.2-.4 2.2-1.3 0-1-1-1.4-2.2-1.4-1.2 0-2.2.4-3 1.2l-1.3-1.6c1-1.1 2.5-1.9 4.6-1.9 2.8 0 4.5 1.3 4.5 3.3 0 1.5-1.3 2.5-2.6 2.7 1.2.1 2.8 1.1 2.8 2.9 0 2.1-1.9 3.5-4.7 3.5-2.3.1-3.9-.8-4.8-1.9zm12.9 4.2l-1-.8c.6-.3 1.2-1.1 1.4-1.7-.1 0-.2.1-.3.1-.7 0-1.2-.5-1.2-1.3s.6-1.4 1.4-1.4c.8 0 1.6.7 1.6 1.8 0 1.3-.8 2.5-1.9 3.3zm4.2-4l1.4-1.8c.8.8 1.9 1.3 3.2 1.3 1.4 0 2.2-.8 2.2-1.8 0-1.1-.8-1.8-2.2-1.8-1 0-1.8.3-2.5 1l-1.8-.5v-6.9h8.2v2.3h-5.7v2.9c.6-.6 1.5-1 2.6-1 2 0 3.9 1.5 3.9 3.9 0 2.6-1.9 4.2-4.8 4.2-2 0-3.5-.7-4.5-1.8zm11.4-4.4c0-3.1 1.5-6.2 5-6.2 3.4 0 5 3.1 5 6.2s-1.5 6.2-5 6.2-5-3.1-5-6.2zm7.3 0c0-2.2-.6-3.9-2.4-3.9-1.7 0-2.4 1.7-2.4 3.9s.6 3.9 2.4 3.9c1.7 0 2.4-1.7 2.4-3.9z"/></g><path class="st32" d="M1266.8 314.8v-72"/><path class="st33" d="M1265.8 217.8h101v64.3h-101z"/><g class="st7"><path class="st34" d="M1277 231.2c0-2.1 1.6-3.4 3.5-3.4 1.4 0 2.3.7 2.8 1.5l-1.2.6c-.3-.5-.9-.9-1.6-.9-1.2 0-2.1.9-2.1 2.2 0 1.3.9 2.2 2.1 2.2.6 0 1.1-.3 1.4-.5v-.8h-1.8v-1.2h3.2v2.6c-.7.8-1.6 1.3-2.8 1.3-1.9-.1-3.5-1.5-3.5-3.6zm7.7.7v-4h1.4v4c0 .9.5 1.6 1.6 1.6s1.6-.6 1.6-1.6v-4h1.4v4c0 1.7-1 2.8-3 2.8s-3-1.2-3-2.8zm12.1 2.7l-.4-1.1h-2.9l-.4 1.1h-1.6l2.6-6.7h1.8l2.6 6.7h-1.7zm-1.8-5.3l-1 2.9h2.1l-1.1-2.9zm8 5.3l-1.3-2.4h-1v2.4h-1.4v-6.7h3.1c1.4 0 2.2.9 2.2 2.1 0 1.2-.7 1.8-1.5 2l1.5 2.5h-1.6zm.1-4.6c0-.6-.4-.9-1-.9h-1.5v1.8h1.5c.6 0 1-.3 1-.9zm7.3 4.6l-.4-1.1h-2.9l-.4 1.1h-1.6l2.6-6.7h1.8l2.6 6.7h-1.7zm-1.8-5.3l-1 2.9h2.1l-1.1-2.9zm8.9 5.3l-3.2-4.3v4.3h-1.4v-6.7h1.5l3.1 4.2v-4.2h1.4v6.7h-1.4zm4.4 0v-5.4h-1.9V228h5.3v1.2h-1.9v5.4h-1.5zm4.5 0v-6.7h4.7v1.2h-3.3v1.4h3.2v1.2h-3.2v1.5h3.3v1.2h-4.7zm6 0v-6.7h4.7v1.2h-3.3v1.4h3.2v1.2h-3.2v1.5h3.3v1.2h-4.7zm6 0v-6.7h2.6c2.1 0 3.5 1.3 3.5 3.3s-1.4 3.3-3.5 3.3h-2.6zm4.7-3.4c0-1.2-.7-2.1-2.1-2.1h-1.2v4.2h1.2c1.4 0 2.1-.9 2.1-2.1z"/></g><g class="st7"><path class="st34" d="M1283.1 246.6v-4.7l-1.9 4.7h-.6l-1.9-4.7v4.7h-1.4v-6.7h2l1.6 4 1.6-4h2v6.7h-1.4zm2.9 0v-6.7h1.4v6.7h-1.4zm7.6 0l-3.2-4.3v4.3h-1.4v-6.7h1.5l3.1 4.2v-4.2h1.4v6.7h-1.4zm2.8 0v-6.7h1.4v6.7h-1.4zm8.8 0v-4.7l-1.9 4.7h-.6l-1.9-4.7v4.7h-1.4v-6.7h2l1.6 4 1.6-4h2v6.7h-1.4zm2.9-2.7v-4h1.4v4c0 .9.5 1.6 1.6 1.6s1.6-.6 1.6-1.6v-4h1.4v4c0 1.7-1 2.8-3 2.8s-3-1.2-3-2.8zm13.3 2.7v-4.7l-1.9 4.7h-.6l-1.9-4.7v4.7h-1.4v-6.7h2l1.6 4 1.6-4h2v6.7h-1.4zm5.7 0v-6.7h3.1c1.4 0 2.2 1 2.2 2.1 0 1.2-.8 2.1-2.2 2.1h-1.7v2.4h-1.4zm3.9-4.6c0-.6-.4-.9-1-.9h-1.5v1.8h1.5c.6 0 1-.3 1-.9zm6.3 4.6l-1.3-2.4h-1v2.4h-1.4v-6.7h3.1c1.4 0 2.2.9 2.2 2.1 0 1.2-.7 1.8-1.5 2l1.5 2.5h-1.6zm.2-4.6c0-.6-.4-.9-1-.9h-1.5v1.8h1.5c.5 0 1-.3 1-.9zm2.7 4.6v-6.7h1.4v6.7h-1.4zm2.6-3.4c0-2 1.5-3.4 3.5-3.4 1.5 0 2.3.8 2.8 1.6l-1.2.6c-.3-.5-.9-1-1.6-1-1.2 0-2.1.9-2.1 2.2 0 1.3.9 2.2 2.1 2.2.7 0 1.3-.4 1.6-1l1.2.6c-.5.8-1.3 1.6-2.8 1.6-2 .1-3.5-1.3-3.5-3.4zm7.4 3.4v-6.7h4.7v1.2h-3.3v1.4h3.2v1.2h-3.2v1.5h3.3v1.2h-4.7z"/></g><g class="st7"><path class="st34" d="M1280.6 269c-1.9-.2-3.3-.9-4.2-1.9l1.4-1.9c.7.7 1.6 1.3 2.9 1.5v-2.8c-1.9-.5-3.9-1.2-3.9-3.6 0-1.8 1.4-3.4 3.9-3.6V255h1.7v1.7c1.5.2 2.7.7 3.7 1.6l-1.4 1.9c-.6-.6-1.4-1-2.2-1.2v2.5c1.9.5 3.9 1.2 3.9 3.6 0 2-1.3 3.5-3.9 3.8v1.6h-1.7V269zm0-7.9v-2.2c-.8.1-1.3.6-1.3 1.2 0 .5.5.8 1.3 1zm1.7 3.3v2.4c.9-.2 1.3-.7 1.3-1.3 0-.6-.5-.9-1.3-1.1zm8.9 4.5v-8.7l-2 2-1.5-1.5 3.8-3.8h2.2v12h-2.5zm5-6c0-3.1 1.5-6.2 5-6.2 3.4 0 5 3.1 5 6.2s-1.5 6.2-5 6.2c-3.4 0-5-3.1-5-6.2zm7.4 0c0-2.2-.6-3.9-2.4-3.9-1.7 0-2.4 1.7-2.4 3.9s.6 3.9 2.4 3.9c1.7 0 2.4-1.7 2.4-3.9zm5.9 8.4l-1-.8c.6-.3 1.2-1.1 1.4-1.7-.1 0-.2.1-.3.1-.7 0-1.2-.5-1.2-1.3s.6-1.4 1.4-1.4c.8 0 1.6.7 1.6 1.8 0 1.3-.8 2.5-1.9 3.3zm5.5-2.4l4.3-9.8h-6v-2.3h9v1.8l-4.5 10.2h-2.8zm10.5 0l4.3-9.8h-6v-2.3h9v1.8l-4.5 10.2h-2.8z"/></g><path class="st32" d="M1547.2 251.2v-72.1"/><path class="st33" d="M1546.1 154.2h101v64.3h-101z"/><g class="st7"><path class="st34" d="M1557.3 167.6c0-2.1 1.6-3.4 3.5-3.4 1.4 0 2.3.7 2.8 1.5l-1.2.6c-.3-.5-.9-.9-1.6-.9-1.2 0-2.1.9-2.1 2.2 0 1.3.9 2.2 2.1 2.2.6 0 1.1-.3 1.4-.5v-.8h-1.8v-1.2h3.2v2.6c-.7.8-1.6 1.3-2.8 1.3-1.9-.1-3.5-1.5-3.5-3.6zm7.8.7v-4h1.4v4c0 .9.5 1.6 1.6 1.6s1.6-.6 1.6-1.6v-4h1.4v4c0 1.7-1 2.8-3 2.8-2.1 0-3-1.2-3-2.8zm12.1 2.6l-.4-1.1h-2.9l-.4 1.1h-1.6l2.6-6.7h1.8l2.6 6.7h-1.7zm-1.9-5.2l-1 2.9h2.1l-1.1-2.9zm8.1 5.2l-1.3-2.4h-1v2.4h-1.4v-6.7h3.1c1.4 0 2.2.9 2.2 2.1 0 1.2-.7 1.8-1.5 2l1.5 2.5h-1.6zm.1-4.5c0-.6-.4-.9-1-.9h-1.5v1.8h1.5c.6 0 1-.3 1-.9zm7.3 4.5l-.4-1.1h-2.9l-.4 1.1h-1.6l2.6-6.7h1.8l2.6 6.7h-1.7zm-1.8-5.2l-1 2.9h2.1l-1.1-2.9zm8.9 5.2l-3.2-4.3v4.3h-1.4v-6.7h1.5l3.1 4.2v-4.2h1.4v6.7h-1.4zm4.4 0v-5.4h-1.9v-1.2h5.3v1.2h-1.9v5.4h-1.5zm4.4 0v-6.7h4.7v1.2h-3.3v1.4h3.2v1.2h-3.2v1.5h3.3v1.2h-4.7zm6.1 0v-6.7h4.7v1.2h-3.3v1.4h3.2v1.2h-3.2v1.5h3.3v1.2h-4.7zm6 0v-6.7h2.6c2.1 0 3.5 1.3 3.5 3.3s-1.4 3.3-3.5 3.3h-2.6zm4.7-3.3c0-1.2-.7-2.1-2.1-2.1h-1.2v4.2h1.2c1.3 0 2.1-1 2.1-2.1z"/></g><g class="st7"><path class="st34" d="M1563.5 182.9v-4.7l-1.9 4.7h-.6l-1.9-4.7v4.7h-1.4v-6.7h2l1.6 4 1.6-4h2v6.7h-1.4zm2.9 0v-6.7h1.4v6.7h-1.4zm7.5 0l-3.2-4.3v4.3h-1.4v-6.7h1.5l3.1 4.2v-4.2h1.4v6.7h-1.4zm2.9 0v-6.7h1.4v6.7h-1.4zm8.7 0v-4.7l-1.9 4.7h-.6l-1.9-4.7v4.7h-1.4v-6.7h2l1.6 4 1.6-4h2v6.7h-1.4zm3-2.6v-4h1.4v4c0 .9.5 1.6 1.6 1.6s1.6-.6 1.6-1.6v-4h1.4v4c0 1.7-1 2.8-3 2.8s-3-1.2-3-2.8zm13.3 2.6v-4.7l-1.9 4.7h-.6l-1.9-4.7v4.7h-1.4v-6.7h2l1.6 4 1.6-4h2v6.7h-1.4zm5.7 0v-6.7h3.1c1.4 0 2.2 1 2.2 2.1 0 1.2-.8 2.1-2.2 2.1h-1.7v2.4h-1.4zm3.9-4.5c0-.6-.4-.9-1-.9h-1.5v1.8h1.5c.6 0 1-.3 1-.9zm6.3 4.5l-1.3-2.4h-1v2.4h-1.4v-6.7h3.1c1.4 0 2.2.9 2.2 2.1 0 1.2-.7 1.8-1.5 2l1.5 2.5h-1.6zm.1-4.5c0-.6-.4-.9-1-.9h-1.5v1.8h1.5c.6 0 1-.3 1-.9zm2.7 4.5v-6.7h1.4v6.7h-1.4zm2.7-3.3c0-2 1.5-3.4 3.5-3.4 1.5 0 2.3.8 2.8 1.6l-1.2.6c-.3-.5-.9-1-1.6-1-1.2 0-2.1.9-2.1 2.2 0 1.3.9 2.2 2.1 2.2.7 0 1.3-.4 1.6-1l1.2.6c-.5.8-1.3 1.6-2.8 1.6-2 .1-3.5-1.3-3.5-3.4zm7.3 3.3v-6.7h4.7v1.2h-3.3v1.4h3.2v1.2h-3.2v1.5h3.3v1.2h-4.7z"/></g><g class="st7"><path class="st34" d="M1560.9 205.4c-1.9-.2-3.3-.9-4.2-1.9l1.4-1.9c.7.7 1.6 1.3 2.9 1.5v-2.8c-1.9-.5-3.9-1.2-3.9-3.6 0-1.8 1.4-3.4 3.9-3.6v-1.7h1.7v1.7c1.5.2 2.7.7 3.7 1.6l-1.4 1.9c-.6-.6-1.4-1-2.2-1.2v2.5c1.9.5 3.9 1.2 3.9 3.6 0 2-1.3 3.5-3.9 3.8v1.6h-1.7v-1.5zm0-7.9v-2.2c-.8.1-1.3.6-1.3 1.2.1.5.6.8 1.3 1zm1.8 3.2v2.4c.9-.2 1.3-.7 1.3-1.3 0-.5-.6-.8-1.3-1.1zm8.9 4.5v-8.7l-2 2-1.5-1.5 3.8-3.8h2.2v12h-2.5zm5-5.9c0-3.6 2.1-6.2 5.6-6.2 1.5 0 2.7.5 3.5 1.2l-1.2 2c-.6-.6-1.3-.9-2.4-.9-1.8 0-3 1.5-3 3.4v.3c.6-.8 1.8-1.5 3.1-1.5 2.2 0 4.1 1.4 4.1 3.9 0 2.3-1.9 4.1-4.6 4.1-3.5-.1-5.1-3-5.1-6.3zm7.2 2.1c0-1.3-1.1-1.8-2.2-1.8-.9 0-1.8.4-2.3 1.1.1 1.2.8 2.4 2.4 2.4 1.4.1 2.1-.8 2.1-1.7zm5.9 6.3l-1-.8c.6-.3 1.2-1.1 1.4-1.7-.1 0-.2.1-.3.1-.7 0-1.2-.5-1.2-1.3s.6-1.4 1.4-1.4c.8 0 1.6.7 1.6 1.8-.1 1.3-.8 2.5-1.9 3.3zm6.9-2.5v-8.7l-2 2-1.5-1.5 3.8-3.8h2.2v12h-2.5zm5.4-1.5l1.4-1.8c.8.8 1.9 1.3 3.2 1.3 1.4 0 2.2-.8 2.2-1.8 0-1.1-.8-1.8-2.2-1.8-1 0-1.8.3-2.5 1l-1.8-.5v-6.9h8.2v2.3h-5.7v2.9c.6-.6 1.5-1 2.6-1 2 0 3.9 1.5 3.9 3.9 0 2.6-1.9 4.2-4.8 4.2-2 0-3.5-.7-4.5-1.8z"/></g></g></g></svg>