<svg xmlns="http://www.w3.org/2000/svg" viewBox="0 0 22.51 31.02"><defs><style>.cls-1{fill:#fff}</style></defs><title>icon-btc</title><g id="Слой_2" data-name="Слой 2"><path class="cls-1" d="M21.77 17.74a5.12 5.12 0 0 0-2-2 10.19 10.19 0 0 0-2.51-.92 7.37 7.37 0 0 0 2.46-1.31 5.42 5.42 0 0 0 1.42-1.83 5 5 0 0 0-.43-5.12 5.86 5.86 0 0 0-2.68-2 8.59 8.59 0 0 0-1.57-.44V0h-3.93v3.84H10V0H6v3.84H0v3.23h.91a3.15 3.15 0 0 1 1.25.17 1 1 0 0 1 .46.46A3.81 3.81 0 0 1 2.76 9v13a3.75 3.75 0 0 1-.13 1.3 1 1 0 0 1-.46.46A3.35 3.35 0 0 1 .91 24H0v3.23h6V31h4v-3.82h2.54V31h4v-4.15a9.37 9.37 0 0 0 1.74-.49 6.91 6.91 0 0 0 3.1-2.36 5.72 5.72 0 0 0 1.13-3.42 5.47 5.47 0 0 0-.74-2.82zM8.54 7.61h2.56a11.7 11.7 0 0 1 3.12.28 2.49 2.49 0 0 1 1.32.92 2.68 2.68 0 0 1 .46 1.58 2.66 2.66 0 0 1-.48 1.56 2.86 2.86 0 0 1-1.45 1 9.46 9.46 0 0 1-3 .34H8.54zM15.77 22a3.2 3.2 0 0 1-1.67 1.14 9.23 9.23 0 0 1-2.46.28h-1.7a3.34 3.34 0 0 1-1-.09.53.53 0 0 1-.33-.33 7.49 7.49 0 0 1-.08-1.27v-5.01h3a8.7 8.7 0 0 1 3 .38A2.89 2.89 0 0 1 16 18.19a3 3 0 0 1 .49 1.76 3.3 3.3 0 0 1-.72 2.05zm0 0" id="Layer_2" data-name="Layer 2"/></g></svg>