<svg xmlns="http://www.w3.org/2000/svg" viewBox="0 0 170.17 99.67"><defs><style>.cls-1{fill:#fff}</style></defs><title>icon-social-01</title><g id="Слой_2" data-name="Слой 2"><g id="Layer_2" data-name="Layer 2"><path class="cls-1" d="M95.5 1.67h74.67v20.67H95.5z"/><path class="cls-1" d="M120.67 21.17h24.17v75.5h-24.17zM41.33 43h41.38v20.17H41.33z"/><path class="cls-1" d="M62.02 95.67l20.69-1.84V60.17H62.02v35.5z"/><path class="cls-1" d="M63.67 75.67a40.73 40.73 0 0 1-14.17 2.25c-8.67 0-22.33-5.42-22.33-28.08s12.33-27.5 24.67-27.5a54 54 0 0 1 22.33 5.16l8.54-21.33S69.67 0 49.67 0 0 13.83 0 44.83s12.17 54.84 45.33 54.84 37.38-5.83 37.38-5.83z"/></g></g></svg>