<svg xmlns="http://www.w3.org/2000/svg" xmlns:xlink="http://www.w3.org/1999/xlink" width="156" height="156" viewBox="0 0 156 156"><circle cx="78" cy="78" r="76.3"/><defs><path id="a" d="M107.6 148c9-3.8 17.2-9.3 24.1-16.3 7-7 12.4-15.1 16.3-24.1 4-9.4 6-19.3 6-29.6 0-10.2-2-20.2-6-29.6-3.8-9-9.3-17.2-16.3-24.1-7-7-15.1-12.4-24.1-16.3C98.2 4 88.3 2 78 2S57.8 4 48.4 8c-9 3.8-17.2 9.3-24.1 16.3-7 7-12.4 15.1-16.3 24.1C4 57.8 2 67.7 2 78c0 10.2 2 20.2 6 29.6 3.8 9 9.3 17.2 16.3 24.1 7 7 15.1 12.4 24.1 16.3 9.4 4 19.3 6 29.6 6s20.2-2.1 29.6-6z"/></defs><clipPath id="b"><use xlink:href="#a" overflow="visible"/></clipPath><g fill-rule="evenodd" clip-rule="evenodd" fill="none" stroke="#59451C" stroke-width=".926" stroke-miterlimit="10" clip-path="url(#b)"><path d="M-70.9-75.5v321.9m-66.3-321.9v321.9m-33.1-269.3c0 5.1 1.4 8.8 4.1 11 2.7 2.2 5.2 3.3 9.2 3.3h19.8m66.3-15.8L-104 26.7m66.3 150.2l-33.2 43.4v.3h33.2m-33.2-44l33.2-.1M-4.2 35.8l33-98.6v-3.5m-99.7 224l33.2-27.6m-99.5-11.9l32.8 27.6m-32.8-202.1l32.8 27.5m33.5 115.4L-104 59.1m99.8 36.2l16.7 14.3V40l16.2 16.3M-104-75.5v321.9m66.3-321.9v321.9M28.8-75.5v321.9m-33-321.9v321.9M95.1-75.5v324.9M62-75.5v321.9m66.3-321.9v321.9m33-321.9v321.9M-137.2 31.8h-33.1m33.1 17l-22.4 78.6c-1.4 4.8-5.7 8.1-10.7 8.1h-.1m231.9 22.2H28.8m33.2 0s-22.2 40.9-24.6 45.4c-1.9 3.5-4.7 6.4-8.6 6.4m99.6 14.6l32.9-26.2v-.9l-33.1-27.4M-170.3 181l33.1 27.3m0-53.7l-33.1 26.3m138-216.3l28.1 23M-104 178.1l-27.7 21.2 27.6 22.7m-33.1-67.4l33.2 23.3M95.1 78.3L117.4-.1c1.4-4.8 5.8-8.2 10.8-8.2h.1m0 89.4H95.1m33.2-44.3H95.1m0 79l-25.8 27.5h-7.4m.1-82.2c0-2.7.4-4.9 1.3-6.9.9-1.9 2.1-3.5 3.6-4.8 1.5-1.3 3.3-2.2 5.3-2.8 2-.6 4.1-.9 6.3-.9s4.4.3 6.3.9c2 .6 3.7 1.6 5.3 2.8 1.5 1.3 2.7 2.9 3.6 4.8.9 1.9 1.3 4.2 1.3 6.9m.1 41.3H77.8c-2.6 0-4.2-.3-6.1-.9-1.9-.6-3.6-1.5-5.1-2.8-1.5-1.2-2.6-2.8-3.4-4.7-.8-1.9-1.2-4.1-1.2-6.6m-132.9 70.3l-12-17m-21.1-19c0-2.7.5-5 1.4-6.9.9-1.9 2.1-3.5 3.6-4.8 1.5-1.3 3.3-2.2 5.2-2.8 2-.6 4.1-.9 6.3-.9s4.3.3 6.3.9c2 .6 3.7 1.6 5.2 2.8 1.5 1.3 2.7 2.8 3.6 4.8.9 1.9 1.4 4.2 1.4 6.9m-33-168.2c0-2.7.5-5 1.4-6.9.9-1.9 2.1-3.5 3.6-4.8 1.5-1.3 3.3-2.2 5.2-2.8 2-.6 4.1-.9 6.3-.9s4.3.3 6.3.9c2 .6 3.7 1.6 5.2 2.8 1.5 1.3 2.7 2.8 3.6 4.8.9 1.9 1.4 4.2 1.4 6.9M95.1 194.9L62 167.4m0 56.7c0-2.7.4-5 1.3-6.9.9-1.9 2.1-3.5 3.6-4.8 1.5-1.3 3.3-2.2 5.2-2.8 2-.6 4.1-.9 6.3-.9s4.3.3 6.3.9c2 .6 3.7 1.6 5.2 2.8 1.5 1.3 2.7 2.8 3.6 4.8.9 1.9 1.3 4.2 1.3 6.9m-165.7-37.4c0 2.6-.5 4.8-1.4 6.8-.9 1.9-2.1 3.5-3.6 4.8-1.5 1.3-3.3 2.2-5.2 2.8-2 .6-4.1.9-6.3.9s-4.3-.3-6.3-.9c-2-.6-3.7-1.6-5.2-2.8-1.5-1.3-2.7-2.8-3.6-4.8-.9-1.9-1.4-4.2-1.4-6.8m66.2-172.2h33.5l-14.4 14.4m14.4 50.2c0-5.2-1.4-8.9-4.1-11.1-2.7-2.2-5.2-3.3-9.2-3.3h-20.2m0 42.5c0 5 1.1 9 3.2 11.9 2.1 3 8.3 4.5 13.4 4.5 4.2 0 10.3-1.2 12.9-3.5 2.6-2.3 4-6.1 4-11.4m99.3-93.3l-13.2 8.9h-3.4v-70.2m-16.5 0h33.1M-4.2 209.8l-13.6 9.1h-3.4v-70.2m-16.6.1h33.1m166-127.1c0 2.7-.5 5-1.3 6.9-.9 1.9-2.1 3.5-3.6 4.8-1.5 1.3-3.3 2.2-5.3 2.8-2 .6-4.1.9-6.3.9s-4.4-.3-6.3-.9c-2-.6-3.7-1.6-5.3-2.8-1.5-1.3-2.7-2.9-3.6-4.8-.9-1.9-1.3-4.2-1.3-6.9"/><path d="M128.2-4.6c0-2.4.1-4.5.5-6.3.6-2.6 2.8-5.4 4.6-7.2 2-2 4.8-3.8 6.4-4.3 2-.6 3.7-1.2 5.5-1.2 2.2 0 4.2.3 6.2.9 2 .6 3.7 1.6 5.2 2.8 1.5 1.3 2.6 2.8 3.5 4.8.9 1.9 1.3 4.2 1.3 6.8m-33.1-15.5l33-51.7M-4.2 201.2c0-2.4 0-4.5.4-6.3.6-2.6 2.8-5.4 4.6-7.2 2-2 4.8-3.8 6.4-4.3 2-.6 3.7-1.2 5.5-1.2 2.2 0 4.2.3 6.2.9 2 .6 3.7 1.6 5.2 2.8 1.5 1.3 2.6 2.8 3.5 4.8.9 1.9 1.4 4.2 1.4 6.8M-4.2 182l33-51.7M62-51.1c0-2.6-.5-4.9-1.3-6.8-.9-1.9-2.1-3.5-3.6-4.8-1.5-1.3-3.3-2.2-5.3-2.8-2-.6-4.1-.9-6.3-.9s-4.4.3-6.3.9c-2 .6-3.7 1.6-5.3 2.8-1.5 1.3-2.7 2.9-3.6 4.8-.9 1.9-1.3 4.2-1.3 6.8m-.2 45.8c0-3.5.8-6.4 2.3-8.7 1.6-2.3 4.1-4 6.1-4.6 2-.5 5.1-.5 8.1-.5s6 .1 8-.5c1.8-.5 4.6-2.3 6.2-4.6 1.6-2.3 2.4-4.4 2.4-8.1m.1 46.2c0 2.7-.5 5-1.3 6.9-.9 1.9-2.1 3.5-3.6 4.8-1.5 1.3-3.3 2.2-5.3 2.8-2 .6-4.1.9-6.3.9s-4.4-.3-6.3-.9c-2-.6-3.7-1.6-5.3-2.8-1.5-1.3-2.7-2.9-3.6-4.8-.9-1.9-1.3-4.2-1.3-6.9m16.4 15.5V13m0-63.1v-16.4M-104 12.6c-.5-2.5-1.4-4.7-2.6-6.6-1.2-1.9-3-3.4-5.1-4.5-2.2-1.1-5-1.7-8.5-1.7-2 0-4 .3-6 .9-2 .6-3.8 1.7-5.4 3.2-1.6 1.5-3 3.5-4 5.9-1 2.5-1.5 14.7-1.5 18.3m33.1 55.7h-33.2S-104 41-104 37.8m232.2 100.5c-.5-2.5-1.4-4.7-2.6-6.6-1.2-1.9-3-3.4-5.1-4.5-2.2-1.1-5-1.7-8.5-1.7-2 0-4 .3-6 .9-2 .6-3.8 1.7-5.4 3.2-1.6 1.5-3 3.5-4 5.9-1 2.5-1.5 14.7-1.5 18.3m33.1 55.7H95.1s33.2-42.8 33.2-46M-70.9 72.9h17.1V56.7h16m.1-87.1l-33.2 99.7M28.8 102L62 129.5m0-54.4l-33.2 26.2m99.4-137.7L95.1-63.9m33.1 214.1l33.1-85.9m-33.1 0l33.1 85.9m33.2-225.7v321.9M161.3-22.9c0 5.1 1.4 8.8 4.1 11 2.7 2.2 5.2 3.3 9.2 3.3h19.8m.1-43.6c0-4.9-1-8.9-3.1-11.8-2.1-2.9-8.2-4.4-13.3-4.4-4.2 0-10.2 1.1-12.8 3.4-2.6 2.3-4 6.1-4 11.3m99.5 29.3l-33.1 51.1m33.1-95L227.7-25v.3h33.1m-33.1-44.1h33.1m-66.3 187l32.7 27.6m33.6-59.2l-33.1-27.5m0-134.6v321.9M194.5 31.8h-33.2m33.2 17l-22.4 78.6c-1.4 4.8-5.7 8.1-10.7 8.1h-.1m33.2-156.4l33.2-26.3v-.9l-33.2-27.4M161.3 181l33.2 27.3m0-53.7l-33.2 26.3m66.4-2.8l-27.8 21.2 27.7 22.7m-33.1-67.4l33.2 23.3m33.1-20.2l-12.1-17m-21-19c0-2.7.5-5 1.4-6.9.9-1.9 2.1-3.5 3.6-4.8 1.5-1.3 3.3-2.2 5.2-2.8 2-.6 4.1-.9 6.3-.9s4.3.3 6.3.9c2 .6 3.7 1.6 5.2 2.8 1.5 1.3 2.7 2.8 3.6 4.8.9 1.9 1.4 4.2 1.4 6.9m.1 65c0 2.6-.5 4.8-1.4 6.8-.9 1.9-2.1 3.5-3.6 4.8-1.5 1.3-3.3 2.2-5.2 2.8-2 .6-4.1.9-6.3.9s-4.3-.3-6.3-.9c-2-.6-3.7-1.6-5.2-2.8-1.5-1.3-2.7-2.8-3.6-4.8-.9-1.9-1.4-4.2-1.4-6.8m-.1-174.1c-.5-2.5-1.4-4.7-2.6-6.6-1.2-1.9-3-3.4-5.1-4.5-2.2-1.1-5-1.7-8.5-1.7-2 0-4 .3-6 .9-2 .6-3.8 1.7-5.4 3.2-1.6 1.5-3 3.5-4 5.9-1 2.5-1.5 14.7-1.5 18.3m33.1 55.7h-33.2s33.2-42.8 33.2-46"/></g><path fill="none" stroke="#EDD4A6" stroke-width="2.779" stroke-miterlimit="1" d="M107.6 148.1c9.1-3.8 17.2-9.3 24.2-16.3s12.5-15.1 16.3-24.2c4-9.4 6-19.3 6-29.6s-2-20.2-6-29.6c-3.8-9.1-9.3-17.2-16.3-24.2s-15.1-12.5-24.2-16.3C98.2 4 88.3 2 78 2S57.8 4 48.4 8c-9.1 3.8-17.2 9.3-24.2 16.3S11.7 39.4 7.9 48.5C4 57.8 2 67.7 2 78s2 20.2 6 29.6c3.8 9.1 9.3 17.2 16.3 24.2s15.1 12.5 24.2 16.3c9.4 4 19.3 6 29.6 6s20.1-2.1 29.5-6z"/><path fill="#B7975B" d="M54.4 108.1H101v8.2H54.4v-8.2zm41.7-49l5-8.2v-8.2H54.4V51l12.4 20.4-12.4 20.3v8.2H101v-8.2l-5-8.2H85.1l5 8.2H65.3l12.4-20.4L65.3 51h24.8l-5 8.1h11z"/></svg>