<svg xmlns="http://www.w3.org/2000/svg" width="156" height="156" viewBox="0 0 156 156"><path d="M78 1.7C35.9 1.7 1.7 35.9 1.7 78s34.2 76.3 76.3 76.3c42.1 0 76.3-34.2 76.3-76.3S120.1 1.7 78 1.7z"/><path fill="#4D4D4D" d="M88.9 92.9c.2 0 .4-.2.4-.4v-3.7c0-.2-.2-.4-.4-.4h-3.1c-.2 0-.4.2-.4.4v3.7c0 .2.2.4.4.4h3.1zM77.5 72.7c.2 0 .4-.2.4-.4v-1.5c0-.2-.2-.4-.4-.4h-2.4c-.2 0-.4.2-.4.4v1.5c0 .2.2.4.4.4h2.4zm-.1 28c.2 0 .4-.2.4-.4v-2.1c0-.2-.2-.4-.4-.4h-1.9c-.2 0-.4.2-.4.4v2.1c0 .2.2.4.4.4h1.9zM75 63.6c.2 0 .4-.2.4-.4v-2.6c0-.2-.2-.4-.4-.4h-.7c-.2 0-.4.2-.4.4v2.6c0 .2.2.4.4.4h.7zm8.3.2c.2 0 .4-.2.4-.4v-3c0-.2-.2-.4-.4-.4h-2.7c-.2 0-.4.2-.4.4v3c0 .2.2.4.4.4h2.7z"/><circle fill="#4D4D4D" cx="74" cy="59.1" r=".5"/><circle fill="#4D4D4D" cx="74" cy="65" r=".5"/><circle fill="#4D4D4D" cx="74" cy="67" r=".5"/><circle fill="#4D4D4D" cx="74" cy="69.3" r=".5"/><circle fill="#4D4D4D" cx="74" cy="71.2" r=".5"/><circle fill="#4D4D4D" cx="74" cy="72.8" r=".5"/><circle fill="#4D4D4D" cx="74" cy="85.5" r=".5"/><circle fill="#4D4D4D" cx="74" cy="87.4" r=".5"/><circle fill="#4D4D4D" cx="74" cy="93.6" r=".5"/><circle fill="#4D4D4D" cx="74" cy="95.8" r=".5"/><circle fill="#4D4D4D" cx="74" cy="97.9" r=".5"/><path fill="#4D4D4D" d="M81.9 71.8c4.1-1 5.1-3.4 5.1-3.5v-6.5c-1-2.5-5.1-3.7-5.3-3.8H75v.4h6.6c.4.1 4.1 1.4 5 3.5v6.2c-.1.3-1.2 2.3-4.8 3.2h-6.6v.4l6.7.1zm5.7 28.5c3.9-1.8 4.8-3.5 4.8-3.6v-.1l.1-7.4v-.1c-1-2.2-5.3-3.6-5.4-3.7H87l-11.6-.1v.4l11.6.1c.4.1 4.2 1.5 5.1 3.4l-.1 7.3c-.2.3-1.2 1.8-4.6 3.3H76.7v.4l10.9.1c-.1 0 0 0 0 0z"/><path fill="#4D4D4D" d="M87.3 97.9v-.1c0-.1-.1-7.3-.1-8.9 0-.5-.2-.9-.5-1.2-.5-.5-1.3-.5-1.3-.5h-10v.4h10s.6 0 1 .4c.2.2.3.5.3.9 0 1.5.1 8.1.1 8.8-.2.3-1.4 1.8-2.4 2.1l.1.4c1.4-.4 2.7-2.3 2.8-2.3zM74.9 64.7h7.3v.4h-7.3zm0 2.1h11.5v.5H74.9zm0 2.3h7.4v.4h-7.4zm3.1-1.8h.4v1.6H78zm-13.8 58.8c-8.1-2.3-15.5-6.7-21.5-12.6-6-5.9-10.4-13.3-12.7-21.4 0-.1 0-.2.1-.2l3.3-3.2.1-.1h23.3v.4H33.6l-3.2 3.1c4.8 16.1 17.7 29 33.9 33.6l-.1.4z"/><path fill="#4D4D4D" d="M114.2 132.3c10.5-7 18.6-16.8 23.6-28.2l-.4-.2c-10.3 23.7-33.6 38.9-59.4 38.9-35.7 0-64.8-29.1-64.8-64.8S42.3 13.2 78 13.2c31.7 0 59.2 23.6 64 54.8l-3.2-.1c-2.3-14.2-9.7-27.2-20.7-36.7-5.5-4.7-11.6-8.4-18.4-10.9-7-2.6-14.3-4-21.8-4-8.3 0-16.4 1.6-24 4.8-7.3 3.1-13.9 7.5-19.6 13.2-5.5 5.8-10 12.4-13.1 19.7-3.2 7.6-4.8 15.7-4.8 24s1.6 16.4 4.8 24c3.1 7.3 7.5 13.9 13.2 19.6 5.7 5.7 12.2 10.1 19.6 13.2 7.6 3.2 15.7 4.8 24 4.8 12.2 0 24-3.5 34.1-10.3 9.9-6.5 17.6-15.7 22.3-26.5l-.4-.2c-9.8 22.2-31.8 36.5-56 36.5-33.7 0-61.2-27.4-61.2-61.2S44.3 16.8 78 16.8c30.2 0 55.6 21.6 60.4 51.4 0 .1.1.2.2.2l3.7.1c.1 0 .1 0 .2-.1 0 0 .1-.1.1-.2-2.3-15.3-10-29.3-21.8-39.5-5.8-5-12.4-9-19.5-11.7-7.5-2.8-15.3-4.2-23.3-4.2-8.8 0-17.3 1.7-25.4 5.1-7.8 3.3-14.7 8-20.7 14s-10.7 13-14 20.7c-3.4 8-5.1 16.6-5.1 25.4s1.7 17.3 5.1 25.4c3.3 7.8 8 14.7 14 20.7s13 10.7 20.7 14c8 3.4 16.6 5.1 25.4 5.1 12.9 0 25.5-3.8 36.2-10.9z"/><path fill="#4D4D4D" d="M83.1 133.6c16-1.4 30.6-9.7 40.1-22.7.1-.1 0-.2 0-.3-.1-.1-.2 0-.3 0-9.4 12.9-23.9 21.1-39.7 22.6-.1 0-.2.1-.2.2-.1.1-.1.2.1.2z"/><path fill="#4D4D4D" d="M85.3 131.4c12.7-1.7 24.4-8 32.9-17.6.1-.1.1-.2 0-.3-.1-.1-.2-.1-.3 0-8.5 9.5-20.1 15.7-32.7 17.4-.1 0-.2.1-.2.2.1.2.2.3.3.3zm-19-1c0-.1 0-.2-.2-.3-24.5-5.6-41.6-27-41.6-52.1 0-24.8 17.5-46.7 41.7-52.2.1 0 .2-.1.2-.3 0-.1-.1-.2-.3-.2-5.9 1.3-11.5 3.7-16.7 6.9-5.1 3.2-9.5 7.1-13.3 11.8-3.8 4.7-6.8 9.9-8.8 15.6-2.1 5.9-3.2 12-3.2 18.3 0 6.3 1.1 12.4 3.2 18.3 2 5.7 5 10.9 8.8 15.6 3.8 4.7 8.2 8.6 13.3 11.8 5.1 3.2 10.8 5.6 16.7 6.9.1.1.1 0 .2-.1zm87.8-55.8c.1-.1 0-.2-.1-.3l-3.9-2.2H135l-4.1-4c-1.1-5.8-3.1-11.4-6-16.5S118.4 42 114 38.1c-4.4-3.9-9.3-7.1-14.6-9.4-5.5-2.4-11.4-3.8-17.4-4.3-.1 0-.2.1-.2.2s.1.2.2.2c24.2 1.8 44.1 19.7 48.6 43.5 0 0 0 .1.1.1l4.2 4.1.1.1h15l3.8 2.2h.1l.2-.2z"/><path fill="#4D4D4D" d="M153.9 82.5l-3.5-2h-23.5l-2.7-2.6c0-5.4-.9-10.6-2.7-15.6-1.7-4.8-4.3-9.3-7.5-13.4-6.5-8.1-15.7-13.8-25.7-16l-.1.4c20.7 4.7 35.7 23.4 35.7 44.7 0 .1 0 .1.1.2l2.8 2.8.1.1h23.4l3.5 1.9.1-.5zM78 32.2h1.2v-.4H78c-2 0-4 .1-5.9.4l.1.4c1.9-.2 3.8-.4 5.8-.4zm-31.8 78.7c-4.3-4.2-7.8-9.1-10.2-14.6l3.2-3.3h17.5v-.4H39.2c-.1 0-.1 0-.2.1l-3.4 3.5c-.1.1-.1.2 0 .2 2.4 5.6 5.9 10.6 10.3 14.9l.3-.4zm13.2 8.9c-2.3-1-4.4-2.2-6.5-3.6l-.2.4c2.1 1.4 4.3 2.6 6.6 3.6l.1-.4zm19.8 4.4v-.4H78c-1.6 0-3.2-.1-4.8-.3v.4c1.6.2 3.2.3 4.9.3h1.1zm39.3-23.9l6.3-6.4h24l3.4 1.9.1-.4-3.3-1.8h-24.2c-.1 0-.1 0-.2.1l-6.3 6.5c-6.4 11.5-17.3 19.8-30.1 22.6l.1.4c12.7-3 23.8-11.3 30.2-22.9zm-39.4 22v-.4c-1.9 0-3.9 0-5.8-.2v.4c1.6.2 3.2.3 4.8.3.3-.1.6-.1 1-.1zM78 34.1h1.2v-.4h-1.3c-2 0-4 .1-5.9.4l.1.4c2-.2 3.9-.4 5.9-.4zm-14.7 2.6l-.1-.4c-5.8 2.1-11.1 5.3-15.6 9.6l.3.3c4.4-4.3 9.6-7.5 15.4-9.5zm-6.5 43.7H39.7l-5.5-5.1c.6-9.9 4.6-19.4 11.3-26.8l-.3-.3c-3.3 3.7-6 7.8-8 12.4-2 4.7-3.2 9.6-3.5 14.8 0 .1 0 .1.1.2l5.6 5.3.1.1h17.2v-.6zm22.3 39.9v-.4c-2 .1-3.9 0-5.9-.3v.4c1.6.2 3.2.3 4.8.3h1.1z"/><path fill="#4D4D4D" d="M46.5 105.7c-1.9-2.1-3.7-4.4-5.1-6.8l2.7-2.7h12v-.4H44c-.1 0-.1 0-.2.1L41 98.8c-.1.1-.1.2 0 .3 1.5 2.5 3.3 4.9 5.3 7l.2-.4zm107.2-18.8l-3.7-2.1h-27.1l-2.7-2.8c.1-1.3.2-2.6.2-3.9 0-4.9-.8-9.6-2.4-14.2-1.6-4.4-3.8-8.5-6.7-12.1-2.9-3.6-6.3-6.7-10.2-9.3-3.9-2.6-8.3-4.4-12.8-5.6l-.1.4C106.9 41.9 120 58.7 120 78c0 1.3-.1 2.7-.2 4 0 .1 0 .1.1.2l2.9 3s.1.1.2.1h27l3.8 2.1-.1-.5zM79.2 36.1v-.4h-1.3c-2 0-4 .1-5.9.4l.1.4c2.4-.3 4.8-.5 7.1-.4zm-15.9 4.6l-.2-.4c-3.5 1.4-6.8 3.2-9.7 5.5l.3.3c2.9-2.2 6.1-4 9.6-5.4zm-6.5 35.6H44l-5.5-5.1c1-6 3.5-11.8 7.1-16.8l-.3-.3c-3.7 5-6.2 10.9-7.2 17.1 0 .1 0 .1.1.2l5.6 5.2.1.1h12.9v-.4zM78 37.9h1v-.4h-1c-1.9 0-3.9.1-5.8.4l.1.4c1.8-.2 3.8-.4 5.7-.4z"/><path fill="#4D4D4D" d="M55.2 73.8h-7.5l-5.4-5.2c1.3-4.2 3.4-8 6.2-11.5l-.3-.3c-2.8 3.5-4.9 7.5-6.3 11.7 0 .1 0 .2.1.2l5.6 5.3.1.1h7.6v-.3z"/><path fill="#4D4D4D" d="M55.2 71.7H51l-5.2-4.9c1.4-3.5 3.5-6.6 6-9.4l-.3-.3c-2.6 2.9-4.7 6.1-6.1 9.7v.2l5.3 5.1.1.1h4.3v-.5zm84.9-4.9c0 .2.3.4.5.3l2.7-.5c.2 0 .4-.3.3-.5l-1.9-7.8c-.1-.2-.3-.4-.5-.3l-2.7.8c-.2.1-.4.3-.3.5l1.9 7.5zm-2.9-10.4c.1.2.3.3.6.2l2.6-.9c.2-.1.3-.3.2-.5l-3.2-7.3c-.1-.2-.3-.3-.6-.2l-2.5 1.2c-.2.1-.3.4-.2.6l3.1 6.9zm-4.6-9.9c.1.2.4.3.6.1l2.4-1.4c.2-.1.3-.4.1-.6l-4.4-6.7c-.1-.2-.4-.2-.6-.1l-2.2 1.6c-.2.1-.2.4-.1.6l4.2 6.5zm-6.4-9.1c.2.2.4.2.6 0l2.1-1.8c.2-.2.2-.4 0-.6l-5.5-5.8c-.2-.2-.4-.2-.6 0l-1.9 2c-.2.2-.2.4 0 .6l5.3 5.6zm-7.7-7.8c.2.1.5.1.6-.1l1.8-2.1c.2-.2.1-.4-.1-.6l-6.5-4.8c-.2-.1-.5-.1-.6.1l-1.6 2.3c-.1.2-.1.5.1.6l6.3 4.6zm-9-6.3c.2.1.5 0 .6-.2l1.4-2.4c.1-.2 0-.5-.2-.6l-7.2-3.6c-.2-.1-.5 0-.6.2l-1.1 2.5c-.1.2 0 .5.2.6l6.9 3.5zm-9.9-4.6c.2.1.5 0 .5-.3l.9-2.6c.1-.2 0-.5-.3-.5L93.2 13c-.2-.1-.5.1-.5.3L92 16c-.1.2.1.5.3.5l7.3 2.2zm-11-2.9c.2 0 .5-.1.5-.4l.5-2.7c0-.2-.1-.4-.3-.5l-8-.9c-.2 0-.4.1-.5.4l-.2 2.8c0 .2.2.4.4.5l7.6.8zm-10.7-.9c.2 0 .4-.2.4-.4v-2.8c0-.2-.2-.4-.4-.4l-8 .5c-.2 0-.4.2-.4.4l.3 2.7c0 .2.2.4.5.4l7.6-.4zm41.5 33.8c.1.1.2.1.3.1l1.3-.9c.1-.1.1-.2.1-.3l-2.8-3.5c-.1-.1-.2-.1-.3 0l-1.2 1c-.1.1-.1.2 0 .3l2.6 3.3zm-.3-6.6c.1.1.2.1.3 0l1.2-1c.1-.1.1-.2 0-.3l-3.1-3.2c-.1-.1-.2-.1-.3 0l-1.1 1.1c-.1.1-.1.2 0 .3l3 3.1zm-67.2-3.2c.1-.1.1-.2.1-.3l-.8-1.3c-.1-.1-.2-.1-.3-.1l-3.6 2.6c-.1.1-.1.2 0 .3l1 1.2c.1.1.2.1.3 0l3.3-2.4zM119 55.1c.1.1.2.2.3.1l1.3-.7c.1-.1.2-.2.1-.3l-2.4-3.8c-.1-.1-.2-.1-.3-.1l-1.3.9c-.1.1-.1.2-.1.3l2.4 3.6zM58.7 39.4c.1-.1.2-.2.1-.3l-.7-1.4c-.1-.1-.2-.2-.3-.1l-3.9 2.2c-.1.1-.2.2-.1.3l.8 1.3c.1.1.2.2.3.1l3.8-2.1zm59.4 22.7c.1.1.2.2.3.1l1.4-.5c.1 0 .2-.2.1-.3l-1.9-4.1c-.1-.1-.2-.2-.3-.1l-1.4.7c-.1.1-.2.2-.1.3l1.9 3.9zm-10 57.1c-.1.1-.1.2-.1.3l.9 1.2c.1.1.2.1.3 0l3.5-2.8c.1-.1.1-.2 0-.3l-1-1.2c-.1-.1-.2-.1-.3 0l-3.3 2.8zm6.2-.1c-.1.1-.1.2 0 .3l1 1.2c.1.1.2.1.3 0l3.2-3.1c.1-.1.1-.2 0-.3l-1.1-1.1c-.1-.1-.2-.1-.3 0l-3.1 3zm-12.6-.2c-.1.1-.1.2-.1.3l.8 1.3c.1.1.2.1.3.1l3.7-2.5c.1-.1.1-.2.1-.3l-.9-1.3c-.1-.1-.2-.1-.3-.1l-3.6 2.5zm-5.8-1.3c-.1.1-.2.2-.1.3l.6 1.4c.1.1.2.2.3.1l4-2.1c.1-.1.2-.2.1-.3l-.8-1.3c-.1-.1-.2-.2-.3-.1l-3.8 2zm-57-7.1c-.1-.1-.2-.1-.3 0l-1.2 1c-.1.1-.1.2 0 .3l3 3.3c.1.1.2.1.3 0l1.1-1.1c.1-.1.1-.2 0-.3l-2.9-3.2zm.5 6.2c-.1-.1-.2-.1-.3 0l-1.1 1.1c-.1.1-.1.2 0 .3l3.3 3c.1.1.2.1.3 0l1-1.2c.1-.1.1-.3 0-.3l-3.2-2.9zm-.5-12.6c-.1-.1-.2-.1-.3-.1l-1.3.8c-.1.1-.1.2-.1.3l2.7 3.6c.1.1.2.1.3 0l1.2-1c.1-.1.1-.2 0-.3l-2.5-3.3zM67 15.8c.2 0 .4-.3.3-.5l-.5-2.7c0-.2-.3-.4-.5-.3l-7.8 1.9c-.2.1-.4.3-.3.5l.7 2.7c.1.2.3.4.5.3l7.6-1.9zm-10.7 2.8c.2-.1.3-.3.2-.6l-.9-2.6c-.1-.2-.3-.3-.5-.2l-7.3 3.2c-.2.1-.3.3-.2.6l1.2 2.5c.1.2.4.3.6.2l6.9-3.1zm-10 4.6c.2-.1.3-.4.1-.6L45 20.2c0-.2-.3-.2-.5-.1l-6.7 4.4c-.2.1-.2.4-.1.6l1.6 2.3c.1.2.4.2.6.1l6.4-4.3zm-9 6.3c.2-.2.2-.4 0-.6l-1.8-2.1c-.1-.2-.4-.2-.6 0l-5.8 5.5c-.2.2-.2.4 0 .6l2 1.9c.2.2.4.2.6 0l5.6-5.3zm-7.8 7.6c.1-.2.1-.5-.1-.6l-2.1-1.8c-.2-.2-.4-.1-.6.1L22 41.2c-.1.2-.1.4.1.6l2.3 1.6c.2.1.5.1.6-.1l4.5-6.2zm-6.6 9.5c.1-.2 0-.5-.2-.6l-2.4-1.4c-.2-.1-.5 0-.6.2L16.2 52c-.1.2 0 .5.2.6l2.5 1.1c.2.1.5 0 .6-.2l3.4-6.9zm-4.6 10c.1-.2 0-.5-.3-.5l-2.6-.9c-.2-.1-.5 0-.5.3l-2.2 7.7c-.1.2.1.5.3.5l2.7.7c.2.1.5-.1.5-.3l2.1-7.5zm-2.9 10.7c0-.2-.1-.5-.4-.5l-2.7-.5c-.2 0-.4.1-.5.3l-.9 8c0 .2.1.4.4.5l2.8.2c.2 0 .4-.2.5-.4l.8-7.6zm-.9 11c0-.2-.2-.4-.4-.4h-2.8c-.2 0-.4.2-.4.4l.5 8c0 .2.2.4.5.4l2.7-.3c.2 0 .4-.2.4-.5l-.5-7.6zm1 11c0-.2-.3-.4-.5-.3l-2.7.5c-.2 0-.4.3-.3.5l1.9 7.8c.1.2.3.4.5.3l2.7-.7c.2-.1.4-.3.3-.5l-1.9-7.6zm2.9 10.7c-.1-.2-.3-.3-.6-.2l-2.6 1c-.2.1-.3.3-.2.5l3.2 7.3c.1.2.3.3.6.2l2.5-1.2c.2-.1.3-.4.2-.6l-3.1-7zm4.7 10c-.1-.2-.4-.3-.6-.1l-2.4 1.4c-.2.1-.3.4-.1.6l4.5 6.7c.1.2.4.2.6.1l2.2-1.6c.2-.1.2-.4.1-.6l-4.3-6.5zm6.4 9c-.2-.2-.4-.2-.6 0l-2.1 1.8c-.2.2-.2.4 0 .6l5.6 5.8c.2.2.4.2.6 0l1.9-2c.2-.2.2-.4 0-.6l-5.4-5.6zm7.9 7.8c-.2-.1-.5-.1-.6.1L35 129c-.1.2-.1.4.1.6l6.5 4.7c.2.1.5.1.6-.1l1.6-2.3c.1-.2.1-.5-.1-.6l-6.3-4.5zm9.1 6.3c-.2-.1-.5 0-.6.2l-1.4 2.4c-.1.2 0 .5.2.6l7.2 3.5c.2.1.5 0 .6-.2l1.1-2.5c.1-.2 0-.5-.2-.6l-6.9-3.4zm10 4.6c-.2-.1-.5.1-.5.3l-.9 2.6c-.1.2 0 .5.3.5l7.7 2.2c.2.1.5-.1.5-.3l.7-2.7c.1-.2-.1-.5-.3-.5l-7.5-2.1zm10.7 2.8c-.2 0-.5.1-.5.4l-.5 2.7c0 .2.1.4.4.5l8 .8c.2 0 .4-.1.5-.4l.2-2.8c0-.2-.2-.4-.4-.5l-7.7-.7zm11.1.9c-.2 0-.4.2-.4.4v2.8c0 .2.2.4.4.4l8-.6c.2 0 .4-.2.4-.5l-.3-2.7c0-.2-.2-.4-.5-.4l-7.6.6zm11-1c-.2 0-.4.3-.3.5l.5 2.7c0 .2.3.4.5.3l7.8-1.9c.2-.1.4-.3.3-.5l-.8-2.7c-.1-.2-.3-.4-.5-.3l-7.5 1.9zm10.6-3c-.2.1-.3.3-.2.6l1 2.6c.1.2.3.3.5.2l7.3-3.3c.2-.1.3-.3.2-.6l-1.2-2.5c-.1-.2-.4-.3-.6-.2l-7 3.2zm10-4.8c-.2.1-.3.4-.1.6l1.4 2.4c.1.2.4.3.6.1l6.6-4.5c.2-.1.2-.4.1-.6l-1.6-2.2c-.1-.2-.4-.2-.6-.1l-6.4 4.3zm9-6.4c-.2.2-.2.4 0 .6l1.8 2.1c.2.2.4.2.6 0l5.8-5.6c.2-.2.2-.4 0-.6l-2-1.9c-.2-.2-.4-.2-.6 0l-5.6 5.4zm7.8-7.9c-.1.2-.1.5.1.6l2.1 1.7c.2.1.4.1.6-.1l4.7-6.5c.1-.2.1-.5-.1-.6l-2.3-1.5c-.2-.1-.5-.1-.6.1l-4.5 6.3zm6.2-9.1c-.1.2 0 .5.2.6l2.4 1.3c.2.1.5 0 .6-.2l3.5-7.2c.1-.2 0-.5-.2-.6l-2.5-1.1c-.2-.1-.5 0-.6.2l-3.4 7zM93.3 41.7c0-.2-.2-.4-.4-.4h-2.6c-.2 0-.4.2-.4.4v2c0 .2.2.4.4.4h2.6c.2 0 .4-.2.4-.4v-2zm22.9 24.6c0-.3-.2-.5-.5-.5h-2.8c-.3 0-.5.2-.5.5v2.2c0 .3.2.5.5.5h2.8c.3 0 .5-.2.5-.5v-2.2zm-1-4c0-.2-.2-.4-.4-.4h-2.2c-.2 0-.4.2-.4.4V64c0 .2.2.4.4.4h2.2c.2 0 .4-.2.4-.4v-1.7zm1.6 8.5c0-.2-.2-.4-.4-.4h-4.3c-.2 0-.4.2-.4.4V72c0 .2.2.4.4.4h4.3c.2 0 .4-.2.4-.4v-1.2zm0 3.2c0-.2-.2-.4-.4-.4h-4.3c-.2 0-.4.2-.4.4v1.2c0 .2.2.4.4.4h4.3c.2 0 .4-.2.4-.4V74zm-64.6 9.5c0-.2-.2-.4-.4-.4h-6.4c-.2 0-.4.2-.4.4v1.9c0 .2.2.4.4.4h6.4c.2 0 .4-.2.4-.4v-1.9zm0 8.3c0-.2-.2-.4-.4-.4h-6.4c-.2 0-.4.2-.4.4v1.9c0 .2.2.4.4.4h6.4c.2 0 .4-.2.4-.4v-1.9zm95.7-16c0-.2-.2-.4-.4-.4h-5.1c-.2 0-.4.2-.4.4v1.3c0 .2.2.4.4.4h5.1c.2 0 .4-.2.4-.4v-1.3zm0 4.3c0-.2-.2-.4-.4-.4h-5.1c-.2 0-.4.2-.4.4v1.3c0 .2.2.4.4.4h5.1c.2 0 .4-.2.4-.4v-1.3zm0 4.3c0-.2-.2-.4-.4-.4h-5.1c-.2 0-.4.2-.4.4v1.3c0 .2.2.4.4.4h5.1c.2 0 .4-.2.4-.4v-1.3z"/><path fill="#4D4D4D" d="M54.6 65.9c0-.2-.2-.4-.4-.4h-2.6c-.2 0-.4.2-.4.4v2c0 .2.2.4.4.4h2.6c.2 0 .4-.2.4-.4v-2zm8.2 50.2c0-.2-.2-.4-.4-.4H60c-.2 0-.4.2-.4.4v1.8c0 .2.2.4.4.4h2.4c.2 0 .4-.2.4-.4v-1.8zm30.1-.2c0-.2-.2-.4-.4-.4h-2.4c-.2 0-.4.2-.4.4v1.8c0 .2.2.4.4.4h2.4c.2 0 .4-.2.4-.4v-1.8zm-13.3-23c.2 0 .4-.2.4-.4v-3.7c0-.2-.2-.4-.4-.4h-3.1c-.2 0-.4.2-.4.4v3.7c0 .2.2.4.4.4h3.1zm-16.8 26.7c0-.2-.2-.4-.4-.4H60c-.2 0-.4.2-.4.4v1.8c0 .2.2.4.4.4h2.4c.2 0 .4-.2.4-.4v-1.8zm91.4-41.1l-3.7-2.1H131l-3.2-3.2c-.6-5.7-2.1-11.2-4.5-16.4-2.4-5-5.5-9.6-9.5-13.6-3.9-4-8.4-7.3-13.4-9.8-5.1-2.6-10.6-4.2-16.2-4.9l-.1.4c22.8 2.8 41 21.5 43.2 44.5 0 0 0 .1.1.1l3.4 3.3.1.1h19.3l3.7 2.1.3-.5zm-47.9 40.8c5.4-3.7 10-8.4 13.5-13.8l7.2-7.3h20.6l3.3 1.8.1-.4-3.3-1.8h-20.9c-.1 0-.1 0-.2.1l-7.2 7.4c-7.2 11-18.6 18.8-31.4 21.4l.1.4c6.6-1.5 12.7-4.1 18.2-7.8z"/><path fill="#4D4D4D" d="M153.3 88.8l-3.6-1.9h-.1l-28.5.1-7.5-7.3V68.1l1.6-1.7c.1-.1.1-.1 0-.2l-1-2.6-.4.1.9 2.4-1.6 1.7-.1.1v11.8c0 .1 0 .1.1.1l7.7 7.4.1.1 28.7-.1 3.7 1.9v-.3zM153 91l-3.3-1.8H124v.4h25.5l3.3 1.9.2-.5zm-73.7 35.1v-.4c-2 .1-4 0-6-.2v.4c1.6.2 3.2.2 4.8.2h1.2zM56.8 84.4H35l-4.7-4.5V78c0-20.8 13.3-39 33-45.4h.1l-.1-.4h-.1c-4.8 1.5-9.3 3.8-13.4 6.8-4 2.9-7.6 6.4-10.6 10.4-6.2 8.3-9.4 18.2-9.4 28.6v2c0 .1 0 .1.1.1l4.9 4.6.1.1h21.8v-.4zM70.1 23h.4v7.6h-.4zm4.3 7.8v-7.6c0-.1-.1-.2-.2-.2s-.2.1-.2.2v7.6c0 .1.1.2.2.2s.2-.1.2-.2zm1.9 0v-7.6c0-.1-.1-.2-.2-.2s-.2.1-.2.2v7.6c0 .1.1.2.2.2s.2-.1.2-.2zm3.3-8.3h.4v7.8h-.4zm-11.6.6h.4v7.4H68zm13.8 1.4h.4v5.8h-.4zm-15.8 1h.4v5.1H66zm26.4 13h.3v7.4h-.3zm-1.6-.5h.3v7.7h-.3z"/><path fill="#4D4D4D" d="M47.4 98.4V77c0-.1-.1-.2-.2-.2s-.2.1-.2.2v21.3c0 .1.1.2.2.2.1.1.2 0 .2-.1zm3 0V77c0-.1-.1-.2-.2-.2s-.2.1-.2.2v21.3c0 .1.1.2.2.2.1.1.2 0 .2-.1zm8.6 16.3h.4v7.2H59z"/><path fill="#4D4D4D" d="M59.4 116.4c0-.1-.1-.2-.2-.2h-6.5c-.1 0-.2.1-.2.2s.1.2.2.2h6.5c.1 0 .2-.1.2-.2zm38.2 0c0-.1-.1-.2-.2-.2h-7.3c-.1 0-.2.1-.2.2s.1.2.2.2h7.3c.1 0 .2-.1.2-.2zm-6.7-74.6c0-.1-.1-.2-.2-.2H88c-.1 0-.2.1-.2.2s.1.2.2.2h2.7c.1 0 .2-.1.2-.2zm0 1.8c0-.1-.1-.2-.2-.2H88c-.1 0-.2.1-.2.2s.1.2.2.2h2.7c.1 0 .2-.1.2-.2z"/><path fill="#4D4D4D" d="M92.3 118.7v-4.4c0-.1-.1-.2-.2-.2s-.2.1-.2.2v4.4c0 .1.1.2.2.2s.2-.1.2-.2zm-1.5 0v-4.1c0-.1-.1-.2-.2-.2s-.2.1-.2.2v4.1c0 .1.1.2.2.2s.2-.1.2-.2zm-43.1-4h11.6v.5H47.7zm13 6.6v-6.2c0-.1-.1-.2-.2-.2s-.2.1-.2.2v6.2c0 .1.1.2.2.2s.2 0 .2-.2zm1.4.1v-6.2c0-.1-.1-.2-.2-.2s-.2.1-.2.2v6.2c0 .1.1.2.2.2.1.1.2 0 .2-.2zM70.3 23h6.4v.4h-6.4zm0 2.3h6.4v.4h-6.4zm0 1.9h6.4v.4h-6.4zm0 2.3h6.4v.4h-6.4z"/><path fill="#4D4D4D" d="M77 23.5c0-.2-.2-.4-.4-.4h-3.1c-.2 0-.4.2-.4.4v1.8c0 .2.2.4.4.4h3.1c.2 0 .4-.2.4-.4v-1.8zm0 4.2c0-.2-.2-.4-.4-.4h-3.1c-.2 0-.4.2-.4.4v1.8c0 .2.2.4.4.4h3.1c.2 0 .4-.2.4-.4v-1.8zm-5.3 100.1h.4v7.4h-.4zm3.8.5h.4v7.1h-.4zm1.8 0h.4v7.1h-.4zm3-.6h.4v7.8h-.4zm-10.4 0h.4v7.1h-.4zm12.8 0h.4v5.8h-.4zm2.3-.3h.4v3.9H85zm-17.1.3h.4v5.1h-.4zm-2 0h.4v2.5h-.4z"/><path fill="#4D4D4D" d="M71.9 135h6.4v.3h-6.4zm0-2.3h6.4v.4h-6.4zm0-1.4h6.4v.4h-6.4zm0-1.8h6.4v.4h-6.4z"/><path fill="#4D4D4D" d="M78.6 133.1c0-.2-.2-.4-.4-.4h-3.1c-.2 0-.4.2-.4.4v1.8c0 .2.2.4.4.4h3.1c.2 0 .4-.2.4-.4v-1.8zm0-3.4c0-.2-.2-.4-.4-.4h-3.1c-.2 0-.4.2-.4.4v1.8c0 .2.2.4.4.4h3.1c.2 0 .4-.2.4-.4v-1.8z"/><path fill="none" stroke="#EDD4A6" stroke-width="2.784" stroke-miterlimit="1" d="M107.7 148.3c9.1-3.8 17.2-9.3 24.2-16.3s12.5-15.2 16.3-24.2c4-9.4 6-19.4 6-29.7s-2-20.3-6-29.7c-3.8-9.1-9.3-17.2-16.3-24.2s-15.2-12.5-24.2-16.3c-9.4-4-19.4-6-29.7-6s-20.3 2-29.7 6c-9.1 3.8-17.2 9.3-24.2 16.3S11.6 39.4 7.8 48.4c-4 9.4-6 19.4-6 29.7s2 20.3 6 29.7c3.8 9.1 9.3 17.2 16.3 24.2s15.2 12.5 24.2 16.3c9.4 4 19.4 6 29.7 6s20.3-2.1 29.7-6z"/><path fill="#FFF" d="M104.7 65.3c-.8-8.2-7.9-11-16.8-11.8V42.1H81v11.1c-1.8 0-3.7 0-5.5.1V42.1h-6.9v11.4c-1.5 0-3 .1-4.4.1h-9.6V61s5.1-.1 5 0c2.8 0 3.7 1.6 4 3v13h.7-.7v18.2c-.1.9-.6 2.3-2.6 2.3.1.1-5 0-5 0l-1.4 8.3h14v11.5h6.9v-11.4c1.9 0 3.7.1 5.5.1v11.4h6.9v-11.5c11.7-.7 19.8-3.6 20.9-14.6.8-8.8-3.3-12.8-9.9-14.4 3.9-2 6.4-5.6 5.8-11.6zM95 90c0 8.6-14.8 7.6-19.5 7.6V82.3C80.2 82.3 95 81 95 90zm-3.2-21.6c0 7.8-12.3 6.9-16.2 6.9V61.4c3.8.1 16.2-1.2 16.2 7z"/></svg>