<svg xmlns="http://www.w3.org/2000/svg" viewBox="0 0 122.81 90.53"><defs><style>.cls-1{fill:none;stroke:#fff;stroke-linecap:round;stroke-linejoin:round;stroke-width:2.81px}</style></defs><title>Ресурс 1</title><g id="Слой_2" data-name="Слой 2"><path class="cls-1" d="M65.22 57.42A114.18 114.18 0 0 0 83 75.39a63.14 63.14 0 0 0 38.18 13.74l.21-7.51a55.85 55.85 0 0 1-33.77-12.16C81 64.31 75.21 57.84 69.75 51.08M55.23 32.56c-5.44-6.71-11.06-12.92-17.7-18.11a59.28 59.28 0 0 0-35.89-13l-.23 7.47A52 52 0 0 1 32.9 20.36c6.56 5.13 12.2 11.54 17.76 18.5m70.75-29.94a55.87 55.87 0 0 0-33.79 12.15c-9.5 7.39-17.31 17.5-24.85 27.28-8 10.35-15.53 20.13-25.24 27.73a59.27 59.27 0 0 1-35.89 13l-.23-7.51a52 52 0 0 0 31.49-11.4c9-7 16.24-16.44 23.92-26.4C64.66 33.61 72.75 23.11 83 15.14a63.12 63.12 0 0 1 38.19-13.73zM10.16 24.17V9.86m0 62.96V32.55m16.88 12.72V16.32m0 48.74V54.98m16.87-6.46V31.01M78.8 61.24V39.51m16.88-3.44v-11.9m0 50.23V45.27m16.87 35.45V18.04" id="Слой_1-2" data-name="Слой 1"/></g></svg>