<svg xmlns="http://www.w3.org/2000/svg" viewBox="0 0 111.81 109.61"><defs><style>.cls-1{fill:none;stroke:#fff;stroke-linecap:round;stroke-linejoin:round;stroke-width:2.81px}</style></defs><title>Ресурс 3</title><g id="Слой_2" data-name="Слой 2"><g id="Слой_1-2" data-name="Слой 1"><path class="cls-1" d="M90.39 10.42v14.25M86.64 8.26v16.41M83 10.42v14.25m-3.75-10.95v16.71a7.56 7.56 0 0 0 15.12 0v-12"/><path class="cls-1" d="M79.25 30.43a7.56 7.56 0 0 0 15.12 0v-2h-4v-3.76H79.25zM21.59 10.42v14.25m3.75-16.41v16.41m3.64-14.25v14.25m3.75-10.95v16.71a7.56 7.56 0 0 1-15.12 0v-12"/><path class="cls-1" d="M32.73 30.43a7.56 7.56 0 0 1-15.12 0v-2h4v-3.76h11.12zM56 9.52a13.08 13.08 0 1 0-14 22.04"/><circle class="cls-1" cx="46.52" cy="20.81" r="3.11"/><circle class="cls-1" cx="53.79" cy="29.14" r=".53"/><path class="cls-1" d="M56 9.52a13.08 13.08 0 1 1 13.94 22"/><circle class="cls-1" cx="65.46" cy="20.81" r="3.11"/><circle class="cls-1" cx="58.19" cy="29.14" r=".53"/><path class="cls-1" d="M42 31.56v1.77a13.93 13.93 0 0 0 27.86 0v-1.77m-20.24 4.63h12.73m-27.28-1.34a23.27 23.27 0 0 0 41.84 0m2.34-10.19a23.26 23.26 0 0 0-46.53 0m9.69 58.4l-7.12-12.34m11.45 12.33l-8.2-14.2m10.27 10.51l-7.12-12.33m8.72 7.6l-8.35-14.47A7.56 7.56 0 0 0 29 67.72l6 10.44"/><path class="cls-1" d="M42.06 60.16A7.56 7.56 0 0 0 29 67.72l1 1.71 3.45-2 1.89 3.28 9.65-5.57zm-14.35-4.52a23.26 23.26 0 1 0 18.76 31.21m-16.36 14.48a6.9 6.9 0 1 0 11.43-6.6M7.81 62.7a6.9 6.9 0 1 1 11.43-6.6m-7.69 30.18a13.08 13.08 0 1 0 26.06 1.05"/><circle class="cls-1" cx="26.06" cy="88.84" r="3.11" transform="rotate(-30 26.074 88.846)"/><circle class="cls-1" cx="29.65" cy="78.37" r=".53" transform="rotate(-30.01 29.64 78.363)"/><path class="cls-1" d="M11.55 86.28a13.08 13.08 0 1 1 12.12-23.1"/><circle class="cls-1" cx="16.59" cy="72.44" r="3.11" transform="rotate(-30.01 16.595 72.428)"/><circle class="cls-1" cx="27.45" cy="74.57" r=".53" transform="rotate(-30.01 27.437 74.574)"/><path class="cls-1" d="M37.61 87.34a7.5 7.5 0 0 0 8.85-.48M23.67 63.19a8.91 8.91 0 0 1 4-7.55m62.37 38.55l-14.24.49m16.27-4.32l-16.4.57m14.11-4.13l-14.24.5m10.82-4.13l-16.7.58a7.56 7.56 0 0 0 .53 15.11l12-.42"/><path class="cls-1" d="M69.66 83.75a7.56 7.56 0 0 0 .53 15.11l2-.07-.14-4 3.79-.13-.39-11.13zm32.25-10.13l-6.68-12.58m4.39 16.25L91.91 62.8m3.48 14.29L88.7 64.51m1.83 11.43l-7.84-14.76A7.56 7.56 0 0 1 96 54.09l5.66 10.64"/><path class="cls-1" d="M82.69 61.18A7.56 7.56 0 0 1 96 54.09l1 1.74-3.51 1.87 1.74 3.3-9.84 5.23z"/><circle class="cls-1" cx="84.36" cy="74.67" r=".53" transform="rotate(-60.01 84.367 74.674)"/><path class="cls-1" d="M100.09 86.29A14.08 14.08 0 0 1 84.87 102m15.22-15.71a14.08 14.08 0 0 0 6-21"/><circle class="cls-1" cx="82.17" cy="78.48" r=".53" transform="rotate(-59.98 82.16 78.472)"/><path class="cls-1" d="M80.34 67.54l-6.36 11.02M104 62.79a6.9 6.9 0 0 0-5.39-11.9m-16.9 50.53a6.9 6.9 0 0 1-13 1.28M104 62.79a23.26 23.26 0 0 1-22.3 38.63m0 .01A23.27 23.27 0 0 0 104 62.79m-25.51-5.58a23.27 23.27 0 0 0-14.38 24.9M79 60.67a13.94 13.94 0 0 0-11.63 20.15m34.38-32.89a47.29 47.29 0 0 0-5.54-12.53m-51.28 71.53a48 48 0 0 0 22 0M15.66 35.41A47.27 47.27 0 0 0 10.3 47.3"/></g></g></svg>