<svg xmlns="http://www.w3.org/2000/svg" viewBox="0 0 104.79 107.02"><defs><style>.cls-1{fill:none;stroke:#fff;stroke-linecap:round;stroke-linejoin:round;stroke-width:2.81px}</style></defs><title>Ресурс 6</title><g id="Слой_2" data-name="Слой 2"><path class="cls-1" d="M82 60.27V36.73L61.64 25 41.23 36.72 48 40.64l13.6-7.84 13.59 7.85v15.7L48 72 20.84 56.35V25l34-19.63L48 1.41 14 21v39.27L48 79.9l34-19.63zM1.41 105.61h101.97M9.09 99.68V96.1m7.49 3.58v-7.91m7.49 7.91v-12.2m7.49 12.2V83.15m7.49 16.53v-12.2m7.49 12.2v-7.73m7.49 7.73V87.74m7.49 11.94V83.42M69 99.68V79.09m7.49 20.59V74.77m7.49 24.91V70.45m7.49 29.23v-39.8m7.49 39.8V47.64" id="Слой_1-2" data-name="Слой 1"/></g></svg>