<svg xmlns="http://www.w3.org/2000/svg" viewBox="0 0 22 15"><defs><style>.cls-1{fill:none}.cls-2{clip-path:url(#clip-path)}.cls-3{fill:#fff}.cls-4{fill:#bd0034}.cls-5{fill:#1a237b}</style><clipPath id="clip-path"><path class="cls-1" d="M0 0h22v15H0z"/></clipPath></defs><title>lang-en</title><g id="Слой_2" data-name="Слой 2"><g id="Layer_1" data-name="Layer 1"><g class="cls-2" id="UNITED_KINGDOM" data-name="UNITED KINGDOM"><path class="cls-3" d="M0 0h22v15H0z"/><path class="cls-4" d="M14.73 5.42L22 .67V0h-.5l-8.29 5.42h1.52zm-.34 4.46L22 14.86v-1l-6.09-3.98h-1.52zM0 1.14l6.51 4.28h1.52L0 .15v.99zm7.69 8.74L0 14.91V15h1.39l7.82-5.12H7.69z"/><path class="cls-5" d="M20.49 0h-7.7v5.04L20.49 0zM9.39 0H1.72l7.67 5.04V0zM22 5.42V1.98l-5.23 3.44H22zm0 7.86v-3.4h-5.23l5.23 3.4zM2.15 15h7.24v-4.74L2.15 15zm10.64 0h7.26l-7.26-4.74V15zM0 9.88v3.56l5.41-3.56H0zm0-4.46h5.41L0 1.86v3.56z"/><path class="cls-4" d="M10.07 0v6.31H0v2.68h10.07V15h2.04V8.99H22V6.31h-9.89V0h-2.04z"/></g></g></g></svg>