<svg xmlns="http://www.w3.org/2000/svg" xmlns:xlink="http://www.w3.org/1999/xlink" viewBox="0 0 1587.38 818.3"><defs><style>.cls-1,.cls-12,.cls-2,.cls-22,.cls-25,.cls-3,.cls-6{fill-rule:evenodd}.cls-1{fill:url(#linear-gradient)}.cls-2{fill:#c49a5c}.cls-3{fill:#dbc08d}.cls-22,.cls-4{fill:#fff}.cls-5{fill:#82683b}.cls-6{fill:#a58242}.cls-7{fill:url(#linear-gradient-2)}.cls-8{fill:url(#linear-gradient-3)}.cls-9{fill:#d0cfcf}.cls-10{fill:#7e7d7c}.cls-11{fill:#cbcaca}.cls-12,.cls-17{fill:#b38d46}.cls-13{fill:url(#linear-gradient-4)}.cls-14{fill:url(#linear-gradient-6)}.cls-15{fill:#603813}.cls-16,.cls-24,.cls-28{fill:none;stroke-miterlimit:22.93}.cls-16{stroke:#82683b;stroke-width:1.16px}.cls-18{fill:#42210b}.cls-19{fill:#4a4a4a}.cls-20{fill:#f2f2f2}.cls-21{fill:url(#linear-gradient-7)}.cls-23{fill:#b79963}.cls-24,.cls-28{stroke:#fff}.cls-24{stroke-width:6px}.cls-25{fill:url(#linear-gradient-8)}.cls-26{fill:#666}.cls-27{fill:#c9ad81}.cls-28{stroke-width:.68px}</style><linearGradient id="linear-gradient" x1="1396.63" y1="658.93" x2="1396.63" y2="-39.25" gradientUnits="userSpaceOnUse"><stop offset="0" stop-color="#4a4a4a"/><stop offset="1"/></linearGradient><linearGradient id="linear-gradient-2" x1="796.1" y1="197.56" x2="796.1" y2="334.76" gradientUnits="userSpaceOnUse"><stop offset="0" stop-color="#212121"/><stop offset="1"/></linearGradient><linearGradient id="linear-gradient-3" x1="492.28" y1="344.51" x2="492.28" y2="462.62" xlink:href="#linear-gradient-2"/><linearGradient id="linear-gradient-4" x1="1988.03" y1="7036.7" x2="1988.03" y2="7128.67" gradientTransform="translate(-1798.69 -6557.78)" xlink:href="#linear-gradient-2"/><linearGradient id="linear-gradient-6" x1="189.34" y1="470.24" x2="189.34" y2="576.34" xlink:href="#linear-gradient-2"/><linearGradient id="linear-gradient-7" x1="1094.65" y1="275.11" x2="1094.65" y2="115.5" xlink:href="#linear-gradient"/><linearGradient id="linear-gradient-8" x1="1095.18" y1="693.4" x2="1095.18" y2="203.75" xlink:href="#linear-gradient"/></defs><title>Ресурс 1</title><g id="Слой_2" data-name="Слой 2"><path class="cls-1" d="M1510.93 79.58h-265v690.87h301.45V116a36.43 36.43 0 0 0-36.45-36.42z" id="Layer_1" data-name="Layer 1"/><path class="cls-2" d="M1245.91 79.58H983.76c-21.71 0-39.3 19.66-39.3 40v650.9h301.45z" id="Layer_7" data-name="Layer 7"/><g id="Layer_6" data-name="Layer 6"><path class="cls-3" d="M601.13 0L715.8 87.64l-114.67 87.64V0z"/><path class="cls-3" d="M173.11 33.79a82.34 82.34 0 0 0-82.35 82.34v371.22l175.83-175a30.18 30.18 0 0 0 10.17-22.62v-32.32A20.25 20.25 0 0 1 297 237.17h132.5a30.26 30.26 0 0 0 30.26-30.26v-45.06a20.38 20.38 0 0 1 20.38-20.39h145V33.79z"/><path class="cls-4" d="M189.39 187.13l-14.17 19.2c-5.51-2.84-12.64-6.5-19.16-9.79l-.38-.19L172 174.29a10.71 10.71 0 0 1 15-2.29l.17.13a10.72 10.72 0 0 1 2.22 15zm23.92 8.69L192.56 224a12.07 12.07 0 0 0-1.88-7.25 18.13 18.13 0 0 0-7-6c-1.16-.62-3.26-1.71-5.95-3.1L195.9 183c3.86-5.23 10.85-6.63 15.61-3.11l.17.13c4.76 3.48 5.49 10.57 1.63 15.8z"/><rect class="cls-4" x="181.17" y="213.61" width="58.35" height="21.64" rx="10.71" ry="10.71" transform="rotate(-53.01 210.336 224.43)"/><path class="cls-4" d="M122.87 440.24l37.91-73.94v-.06l-44.78.06 39.24-82.65s-18.69-25.42-23.54-33.27-7.22-17.16-3.17-26.72c2.71-6.4 7-15.16 9.09-19.79 1.48-3.27 4-7.14 9.18-7.14a17.16 17.16 0 0 1 7.24 1.91c.27.12.53.25.8.39 6.34 3.21 13.29 6.76 18.74 9.58l2.42 1.29 6.33 3.29c3.44 1.83 9.83 6 6.5 14.71-.12.32-.26.65-.41 1a10.27 10.27 0 0 1-9.53 6.23 11.49 11.49 0 0 1-5-1.18c-5.46-2.67-20-10-20-10l-2.18 4s17.1 7.36 23 11.57 12.34 8.2 15.07 19.83a50.93 50.93 0 0 1 18.71-8.35c.56 3.22 3.09 10.72 9.53 12.12a21.06 21.06 0 0 0 4.61.55c4.61 0 8.81-1.9 12.34-7.41 2 8.2-5.6 22.91-10.23 28.88s-28.24 35.59-28.24 35.59l-10.37 13h46z"/><rect class="cls-4" x="207.24" y="230.17" width="42.39" height="21.64" rx="10.71" ry="10.71" transform="rotate(-53.01 228.421 240.987)"/><path class="cls-4" d="M163.44 138.51c-.24 3.19-.92 6.8-4.29 6.8-3.64 0-2.86-4.37-4-4.37-.84 0-1 2.7-1.13 4.37l-3.22-.31c.24-3.19 1-6.83 4.32-6.83 3.64 0 2.86 4.4 4 4.4.84 0 1.05-2.67 1.16-4.4zm9.37 9.85a10.88 10.88 0 0 1-6.59-2.75l2.83-4a8.39 8.39 0 0 0 5.8 2.32c1 0 2-.27 2-1 0-1.73-10 0-10-7.07 0-2.73 2-5.34 6-5.86v-2.56h3.46V130a11.25 11.25 0 0 1 5.67 2.38l-2.98 3.86a9.1 9.1 0 0 0-5.29-1.78c-1.08 0-1.38.35-1.38.81 0 1.7 10 .24 10 6.94 0 3.48-2.27 5.67-6.1 6.15v2.48h-3.46zm17.82-.22v-11.07l-3 3-3.08-3.21 6.88-6.75h4.7v18zm9.37-2.21l2.92-3.83a7.41 7.41 0 0 0 4.56 1.57c1.81 0 2.54-.73 2.54-1.48s-.7-1.48-2.37-1.48a4.56 4.56 0 0 0-3.35 1.24l-3.75-.86v-10.95h13.77v4.75H206v2.54a5.45 5.45 0 0 1 3.75-1.38 5.71 5.71 0 0 1 5.8 5.88c0 4-3 6.53-8 6.53a11 11 0 0 1-7.55-2.53zm18.17-6.78c0-4.89 2.62-9.29 8-9.29s8 4.4 8 9.29-2.62 9.31-8 9.31-8-4.46-8-9.31zm10.5 0c0-3-.78-4.48-2.51-4.48s-2.51 1.43-2.51 4.48.78 4.51 2.51 4.51 2.51-1.46 2.51-4.51zm8.51 6.42a2.89 2.89 0 1 1 2.89 2.89 2.93 2.93 0 0 1-2.89-2.89zm8.82-6.42c0-4.89 2.62-9.29 8-9.29s8 4.4 8 9.29-2.62 9.31-8 9.31-8-4.46-8-9.31zm10.5 0c0-3-.78-4.48-2.51-4.48s-2.51 1.43-2.51 4.48.78 4.51 2.51 4.51 2.51-1.46 2.51-4.51zm8.08 0c0-4.89 2.62-9.29 8-9.29s8 4.4 8 9.29-2.62 9.31-8 9.31-8-4.46-8-9.31zm10.5 0c0-3-.78-4.48-2.51-4.48s-2.51 1.43-2.51 4.48.78 4.51 2.51 4.51 2.51-1.46 2.51-4.51zm8.08 0c0-4.89 2.62-9.29 8-9.29s8 4.4 8 9.29-2.62 9.31-8 9.31-8-4.46-8-9.31zm10.5 0c0-3-.78-4.48-2.51-4.48s-2.51 1.43-2.51 4.48.78 4.51 2.51 4.51 2.51-1.46 2.51-4.51zm8.5 6.42a2.89 2.89 0 1 1 2.89 2.89 2.93 2.93 0 0 1-2.89-2.89zm8.84-6.42c0-4.89 2.62-9.29 8-9.29s8 4.4 8 9.29-2.62 9.31-8 9.31-8-4.46-8-9.31zm10.5 0c0-3-.78-4.48-2.51-4.48s-2.51 1.43-2.51 4.48.78 4.51 2.51 4.51 2.5-1.46 2.5-4.51zm8.07 0c0-4.89 2.62-9.29 8-9.29s8 4.4 8 9.29-2.62 9.31-8 9.31-8-4.46-8-9.31zm10.5 0c0-3-.78-4.48-2.51-4.48s-2.56 1.43-2.56 4.48.78 4.51 2.51 4.51 2.56-1.46 2.56-4.51zm8.08 0c0-4.89 2.62-9.29 8-9.29s8 4.4 8 9.29-2.62 9.31-8 9.31-8-4.46-8-9.31zm10.5 0c0-3-.78-4.48-2.51-4.48s-2.51 1.43-2.51 4.48.78 4.51 2.51 4.51 2.51-1.46 2.51-4.51zm8.5 6.42a2.89 2.89 0 1 1 2.89 2.89 2.93 2.93 0 0 1-2.89-2.89zm8.85-6.42c0-4.89 2.62-9.29 8-9.29s8 4.4 8 9.29-2.62 9.31-8 9.31-8-4.46-8-9.31zm10.5 0c0-3-.78-4.48-2.51-4.48s-2.51 1.43-2.51 4.48.78 4.51 2.51 4.51 2.49-1.46 2.49-4.51zm8.06 0c0-4.89 2.62-9.29 8-9.29s8 4.4 8 9.29-2.62 9.31-8 9.31-8-4.46-8-9.31zm10.5 0c0-3-.78-4.48-2.51-4.48s-2.55 1.43-2.55 4.48.78 4.51 2.51 4.51 2.55-1.46 2.55-4.51zm8.07 0c0-4.89 2.62-9.29 8-9.29s8 4.4 8 9.29-2.62 9.31-8 9.31-8-4.46-8-9.31zm10.5 0c0-3-.78-4.48-2.51-4.48s-2.51 1.43-2.51 4.48.78 4.51 2.51 4.51 2.51-1.46 2.51-4.51zm-81.52 31.55v-12h1.49v12zm13.34 0l-7-9.58v9.58h-1.49v-12h1.53l6.91 9.38v-9.38h1.5v12zm9.48-5.99c0-2.94 1.3-6.19 4.59-6.19s4.59 3.26 4.59 6.19-1.31 6.21-4.59 6.21-4.59-3.3-4.59-6.21zm7.65 0c0-2.4-.77-4.86-3.06-4.86s-3.06 2.47-3.06 4.86.77 4.88 3.06 4.88 3.06-2.49 3.06-4.88zm4.5 4.75l.76-1.12a3.1 3.1 0 0 0 2.58 1.22c2.43 0 3.38-2.43 3.38-4.7a4.49 4.49 0 0 0 0-.49 4.31 4.31 0 0 1-3.39 1.87 3.64 3.64 0 0 1-3.94-3.83 4 4 0 0 1 4.2-3.93c3.37 0 4.65 2.93 4.65 6.21s-1.51 6.19-4.88 6.19a4.17 4.17 0 0 1-3.36-1.42zm6.64-6.28c-.13-1.49-.92-3.35-3-3.35a2.62 2.62 0 0 0-2.75 2.54 2.49 2.49 0 0 0 2.77 2.59 3.59 3.59 0 0 0 2.98-1.78zm4.11 6.71a1 1 0 1 1 1 1 1 1 0 0 1-1-1zm4.57.81v-1.19c4.32-3.4 6.66-5.4 6.66-7.47a2.25 2.25 0 0 0-2.5-2.2 4 4 0 0 0-3.26 1.51l-.92-1a5.2 5.2 0 0 1 4.18-1.89c2 0 4 1.13 4 3.53s-2.49 4.68-5.83 7.33h5.89v1.33zm11.07-5.99c0-2.94 1.3-6.19 4.59-6.19s4.59 3.26 4.59 6.19-1.31 6.21-4.59 6.21-4.59-3.3-4.59-6.21zm7.65 0c0-2.4-.77-4.86-3.06-4.86s-3.06 2.47-3.06 4.86.77 4.88 3.06 4.88 3.06-2.49 3.06-4.88zm6.19 5.99v-10l-1.93 2-.9-.92 3-3.1h1.31v12zm5.62 0l4.84-10.7h-6.46v-1.33h8.19v1l-4.92 11z"/><path class="cls-5" d="M164.75 82.8l-4.17-6.1-4.2 6.1h-4.22l6-8.55-5.67-8.12h4.22l3.82 5.7 3.77-5.7h4.27l-5.57 8.1 6 8.57zm16.6 0l-3.27-5.92h-2.6v5.92h-3.55V66.13h7.8c3.47 0 5.6 2.27 5.6 5.37a4.78 4.78 0 0 1-3.65 4.95l3.75 6.35zm.35-11.3a2.26 2.26 0 0 0-2.5-2.25h-3.72v4.5h3.72a2.26 2.26 0 0 0 2.5-2.24zm6.85 2.98a8.71 8.71 0 1 1 8.7 8.62 8.37 8.37 0 0 1-8.7-8.62zm13.77 0c0-3.12-2-5.47-5.07-5.47s-5 2.35-5 5.47 2 5.47 5 5.47 5.08-2.37 5.08-5.47zm19.01 8.32l-7.95-10.87V82.8h-3.55V66.13h3.65l7.72 10.47V66.13h3.55V82.8zm7.27-8.32a8.71 8.71 0 1 1 8.7 8.62 8.37 8.37 0 0 1-8.7-8.62zm13.77 0c0-3.12-2-5.47-5.07-5.47s-5 2.35-5 5.47 2 5.47 5 5.47 5.08-2.37 5.08-5.47zm6.38 5.97l1.92-2.7A7.31 7.31 0 0 0 256 80c1.95 0 2.9-.9 2.9-1.85 0-2.95-9.6-.92-9.6-7.2 0-2.77 2.4-5.07 6.32-5.07a9.28 9.28 0 0 1 6.5 2.32l-2 2.6a7.16 7.16 0 0 0-4.84-1.8c-1.52 0-2.37.67-2.37 1.67 0 2.65 9.57.87 9.57 7.1 0 3-2.17 5.35-6.67 5.35a9.5 9.5 0 0 1-7.06-2.67zM274 76.16v-10h3.6V76a3.91 3.91 0 1 0 7.82 0v-9.9H289v10c0 4.15-2.45 7-7.52 7S274 80.25 274 76.16zm18.53 4.29l1.92-2.7a7.31 7.31 0 0 0 5.3 2.25c1.95 0 2.9-.9 2.9-1.85 0-2.95-9.6-.92-9.6-7.2 0-2.77 2.4-5.07 6.32-5.07a9.28 9.28 0 0 1 6.5 2.32l-2 2.6a7.16 7.16 0 0 0-4.82-1.8c-1.52 0-2.37.67-2.37 1.67 0 2.65 9.57.87 9.57 7.1 0 3-2.17 5.35-6.67 5.35a9.5 9.5 0 0 1-7.05-2.67zM310 82.8V66.13h11.8v3.12h-8.25v3.52h8.07v3.12h-8.07v3.77h8.25v3.14zm22.88-8.32c0-5.12 3.87-8.62 8.87-8.62a7.63 7.63 0 0 1 7 4.07l-3 1.5a4.52 4.52 0 0 0-4-2.43 5.48 5.48 0 0 0 0 10.95 4.47 4.47 0 0 0 3.92-2.42l3 1.48a7.68 7.68 0 0 1-7 4.1c-4.92-.01-8.79-3.51-8.79-8.63zm30.82 8.32l-1-2.82h-7.15l-1 2.82h-4L357 66.13h4.45l6.42 16.67zm-4.6-13.12l-2.6 7.17h5.2zm11.55 13.12V66.13h7.8a5.38 5.38 0 1 1 0 10.75h-4.25v5.92zm9.77-11.3a2.23 2.23 0 0 0-2.42-2.24h-3.8v4.5h3.8a2.25 2.25 0 0 0 2.43-2.25zm7.18 11.3V66.13h3.55V82.8zm12.05 0V69.26h-4.87v-3.13h13.3v3.12h-4.85V82.8zm23.55 0l-1-2.82H415l-1 2.82h-4l6.45-16.67h4.45l6.42 16.67zm-4.6-13.12l-2.6 7.18h5.2zm11.55 13.12V66.13h3.55v13.55h7v3.12zm14.43 0V66.13h3.55V82.8zm7.6 0v-2.87l7.87-10.67h-7.87v-3.13h12.52V69l-7.87 10.7h8v3.1zm28.24 0l-1-2.82h-7.15l-1 2.82h-4l6.45-16.67H478l6.42 16.67zm-4.6-13.12l-2.6 7.17h5.2zm15.41 13.12V69.26h-4.87v-3.13h13.3v3.12h-4.86V82.8zm12.05 0V66.13h3.55V82.8zm7.4-8.32a8.71 8.71 0 1 1 8.7 8.62 8.37 8.37 0 0 1-8.7-8.62zm13.77 0c0-3.12-2-5.47-5.07-5.47s-5 2.35-5 5.47 2 5.47 5 5.47 5.07-2.37 5.07-5.47zm19 8.32l-7.95-10.87V82.8H532V66.13h3.65l7.72 10.47V66.13h3.55V82.8zm-389.57 30V96.13h7.8a5.38 5.38 0 1 1 0 10.75h-4.25v5.92zm9.77-11.3a2.23 2.23 0 0 0-2.45-2.25h-3.77v4.5h3.77a2.25 2.25 0 0 0 2.45-2.24zm6.35 2.98a8.71 8.71 0 1 1 8.7 8.62 8.37 8.37 0 0 1-8.7-8.62zm13.77 0c0-3.12-2-5.47-5.07-5.47s-5 2.35-5 5.47 2 5.47 5 5.47 5.1-2.37 5.1-5.47zm20.28 8.32l-2.92-11.45-2.9 11.45h-3.77l-4.77-16.67h4l2.92 12 3.17-12h2.77l3.15 12 2.9-12h4l-4.75 16.67zm11.55 0V96.13h11.8v3.12h-8.25v3.52h8.07v3.12h-8.07v3.77h8.25v3.12zm25.4 0l-3.27-5.92h-2.6v5.92h-3.55V96.13h7.8c3.47 0 5.6 2.27 5.6 5.37a4.78 4.78 0 0 1-3.65 4.95l3.67 6.35zm.35-11.3a2.26 2.26 0 0 0-2.5-2.25h-3.72v4.5h3.72a2.26 2.26 0 0 0 2.45-2.24zm14.55 2.98a8.71 8.71 0 1 1 8.7 8.62 8.37 8.37 0 0 1-8.7-8.62zm13.77 0c0-3.12-2-5.47-5.07-5.47s-5 2.35-5 5.47 2 5.47 5 5.47 5.08-2.37 5.08-5.47zm7.51 8.32V96.13H289v3.12h-8.25v3.52h8.07v3.12h-8.07v6.9zm34.87 0L311 110h-7.15l-1 2.82h-4l6.45-16.67h4.45l6.42 16.67zm-4.6-13.12l-2.6 7.17h5.2zM319 112.8V96.13h3.55v13.55h7v3.12zm14.43 0V96.13H337v13.55h7v3.12zm21.38-8.32c0-5.12 3.87-8.62 8.87-8.62a7.63 7.63 0 0 1 7 4.07l-3 1.5a4.52 4.52 0 0 0-4-2.43 5.48 5.48 0 0 0 0 10.95 4.47 4.47 0 0 0 3.92-2.42l3 1.48a7.68 7.68 0 0 1-7 4.1c-4.92-.01-8.79-3.51-8.79-8.63zm28.74 8.32l-3.27-5.92h-2.6v5.92h-3.55V96.13h7.8c3.47 0 5.6 2.27 5.6 5.37a4.78 4.78 0 0 1-3.65 4.95l3.75 6.35zm.35-11.3a2.26 2.26 0 0 0-2.5-2.25h-3.72v4.5h3.72a2.26 2.26 0 0 0 2.5-2.24zm12.31 11.3V106l-6.42-9.85h4l4.15 6.7 4.1-6.7h4l-6.29 9.85v6.82zm12.79 0V96.13h7.8a5.38 5.38 0 1 1 0 10.75h-4.25v5.92zm9.77-11.3a2.23 2.23 0 0 0-2.45-2.25h-3.77v4.5h3.77a2.25 2.25 0 0 0 2.48-2.24zm11.06 11.3V99.26H425v-3.13h13.3v3.12h-4.9v13.55zm11.25-8.32a8.71 8.71 0 1 1 8.7 8.62 8.37 8.37 0 0 1-8.7-8.62zm13.77 0c0-3.12-2-5.47-5.07-5.47s-5 2.35-5 5.47 2 5.47 5 5.47 5.07-2.37 5.07-5.47zm6.61 3.63v-2.7h6v2.7zm24.24 4.69v-11.67L481 112.8h-1.55l-4.7-11.67v11.67h-3.55V96.13h5l4 10.07 4-10.07h5v16.67zm19.73 0l-1-2.82h-7.15l-1 2.82h-4l6.45-16.67h4.45l6.42 16.67zm-4.6-13.12l-2.6 7.17h5.2zm20.97 13.12l-3.27-5.92h-2.6v5.92h-3.55V96.13h7.8c3.47 0 5.6 2.27 5.6 5.37a4.78 4.78 0 0 1-3.65 4.95l3.75 6.35zm.35-11.3a2.26 2.26 0 0 0-2.5-2.25h-3.72v4.5h3.72a2.26 2.26 0 0 0 2.5-2.24zm17.55 11.3l-5-6.67-1.3 1.55v5.12h-3.6V96.13h3.55v7.45l5.9-7.45h4.37L537 104l7.07 8.85zm7.35 0V96.13h11.8v3.12h-8.25v3.52h8.07v3.12h-8.07v3.77h8.25v3.12zm19.78 0V99.26H562v-3.13h13.3v3.12h-4.9v13.55z"/></g><g id="Layer_5" data-name="Layer 5"><path class="cls-6" d="M944.46 267.79H682.31c-21.71 0-39.3 17.6-39.3 33.36v469.3h301.45z"/><circle class="cls-7" cx="796.1" cy="262.94" r="67.27"/><path class="cls-4" d="M773.54 287.66h45.13v7.89h-45.13zm40.34-47.4l4.79-7.89v-7.89h-45.13v7.93l12 19.72-12 19.71v7.93h45.13v-7.9l-4.81-7.87h-10.59l4.79 7.89h-23.95l12-19.74-12-19.75h24l-4.81 7.88z"/></g><g id="Layer_4" data-name="Layer 4"><path class="cls-2" d="M643 400.79H372.3a30.75 30.75 0 0 0-30.75 30.75v338.91H643z"/><circle class="cls-8" cx="492.28" cy="400.79" r="57.92"/><path class="cls-9" d="M492.28 419.8v20.44l25.1-35.25-25.1 14.81z"/><path class="cls-4" d="M492.28 388.82v26.24l25.1-14.84-25.1-11.4z"/><path class="cls-9" d="M492.28 358.57v30.25l25.1 11.4-25.1-41.65z"/><path class="cls-10" d="M492.28 419.8v20.44l-25.1-35.25 25.1 14.81z"/><path class="cls-11" d="M492.28 388.82v26.24l-25.1-14.84 25.1-11.4z"/><path class="cls-10" d="M492.28 358.57v30.25l-25.1 11.4 25.1-41.65z"/></g><g id="Layer_3" data-name="Layer 3"><path class="cls-12" d="M341.55 523H77.24a37.14 37.14 0 0 0-37.14 37.12v210.33h301.45z"/><g id="g16"><path id="coin" class="cls-13" d="M234.43 522.79a45.09 45.09 0 1 1-45.06-45.14 45.09 45.09 0 0 1 45.06 45.14z"/><path id="symbol" class="cls-13" d="M207.08 511.72c-.58-6-5.79-8.07-12.37-8.65v-8.38h-5.1v8.16c-1.34 0-2.71 0-4.07.05v-8.21h-5.1v8.38h-10.25v5.45s3.77-.07 3.7 0a2.63 2.63 0 0 1 2.93 2.24v9.55a4.1 4.1 0 0 1 .54 0h-.54v13.39a1.8 1.8 0 0 1-1.92 1.69c.07.06-3.71 0-3.71 0l-1 6.09h10.28V550h5.09v-8.38h4.07V550h5.1v-8.46c8.58-.48 14.58-2.64 15.33-10.69.61-6.48-2.44-9.38-7.31-10.55 3-1.5 4.81-4.15 4.38-8.58zm-7.15 18.11c0 6.33-10.85 5.6-14.3 5.6v-11.22c3.47.01 14.31-.98 14.3 5.63zM197.57 514c0 5.76-9 5.08-11.93 5.08v-10.19c2.89 0 11.94-.89 11.93 5.11z"/><path id="coin-2" data-name="coin" class="cls-14" d="M234.43 522.79a45.09 45.09 0 1 1-45.06-45.14 45.09 45.09 0 0 1 45.06 45.14z"/><path id="symbol-2" data-name="symbol" class="cls-4" d="M207.08 511.72c-.58-6-5.79-8.07-12.37-8.65v-8.38h-5.1v8.16c-1.34 0-2.71 0-4.07.05v-8.21h-5.1v8.38h-10.25v5.45s3.77-.07 3.7 0a2.63 2.63 0 0 1 2.93 2.24v9.55a4.1 4.1 0 0 1 .54 0h-.54v13.39a1.8 1.8 0 0 1-1.92 1.69c.07.06-3.71 0-3.71 0l-1 6.09h10.28V550h5.09v-8.38h4.07V550h5.1v-8.46c8.58-.48 14.58-2.64 15.33-10.69.61-6.48-2.44-9.38-7.31-10.55 3-1.5 4.81-4.15 4.38-8.58zm-7.15 18.11c0 6.33-10.85 5.6-14.3 5.6v-11.22c3.47.01 14.31-.98 14.3 5.63zM197.57 514c0 5.76-9 5.08-11.93 5.08v-10.19c2.89 0 11.94-.89 11.93 5.11z"/></g><path class="cls-4" d="M103.5 598.35l-1.64-6.42-1.62 6.42h-2.12L95.45 589h2.23l1.64 6.75 1.78-6.75h1.55l1.76 6.75L106 589h2.24l-2.66 9.34zm6.27 0V589h2v9.34zm4.4 0V589h3.68c2.93 0 5 1.86 5 4.68s-2 4.66-5 4.66zm6.61-4.66a2.73 2.73 0 0 0-2.93-2.93h-1.7v5.84h1.7a2.8 2.8 0 0 0 2.93-2.92zm4 4.66V589h6.61v1.75h-4.62v2h4.53v1.75h-4.53v2.12h4.62v1.75zm19.31 0l-.57-1.58h-4l-.59 1.58h-2.27l3.61-9.34h2.49l3.6 9.34zm-2.58-7.35l-1.46 4H143zm6.27 7.35V589h4.37a3 3 0 1 1 0 6h-2.38v3.32zm5.48-6.33a1.25 1.25 0 0 0-1.37-1.26h-2.11v2.52h2.11a1.26 1.26 0 0 0 1.37-1.28zm3.82 6.33V589h4.37a3 3 0 1 1 0 6h-2.38v3.32zm5.48-6.33a1.25 1.25 0 0 0-1.37-1.26h-2.12v2.52h2.12a1.26 1.26 0 0 0 1.36-1.28zm3.81 6.33V589h2v7.59h4v1.75zm7.89 0V589h2v9.34zm3.94-4.67a4.75 4.75 0 0 1 5-4.83 4.28 4.28 0 0 1 3.91 2.28l-1.71.84a2.53 2.53 0 0 0-2.2-1.36 3.07 3.07 0 0 0 0 6.14 2.51 2.51 0 0 0 2.2-1.36l1.71.83a4.3 4.3 0 0 1-3.91 2.3 4.75 4.75 0 0 1-5-4.84zm17.07 4.67l-.57-1.58h-4l-.59 1.58h-2.27l3.61-9.34h2.49l3.6 9.34zM192.7 591l-1.46 4h2.91zm8.42 7.35v-7.59h-2.73V589h7.45v1.75h-2.72v7.59zm6.55 0V589h2v9.34zm3.95-4.67a4.88 4.88 0 1 1 4.87 4.83 4.69 4.69 0 0 1-4.87-4.83zm7.72 0a2.85 2.85 0 1 0-2.84 3.07 2.84 2.84 0 0 0 2.84-3.07zm10.44 4.67l-4.45-6.09v6.09h-2V589h2l4.33 5.87V589h2v9.34zm16.59 0v-6.54l-2.63 6.54h-.87l-2.63-6.54v6.54h-2V589H241l2.27 5.65 2.27-5.65h2.8v9.34zm10.85 0l-.57-1.58h-4l-.59 1.58h-2.27l3.61-9.35h2.49l3.6 9.34zm-2.57-7.35l-1.46 4h2.91zm11.55 7.35l-1.84-3.35h-1.46v3.32h-2V589h4.37a2.91 2.91 0 0 1 3.14 3 2.68 2.68 0 0 1-2 2.77l2.1 3.56zm.2-6.33a1.27 1.27 0 0 0-1.4-1.26h-2.1v2.52h2.1a1.27 1.27 0 0 0 1.39-1.28zm9.6 6.33l-2.83-3.74-.73.87v2.87h-2V589h2v4.17l3.31-4.17h2.45l-3.71 4.38 4 5zm3.94 0V589h6.61v1.75h-4.62v2h4.52v1.75h-4.52v2.12h4.62v1.75zm10.88 0v-7.59h-2.73V589h7.45v1.75h-2.72v7.59zm5.92-1.35l1.08-1.51a4.1 4.1 0 0 0 3 1.26c1.09 0 1.62-.5 1.62-1 0-1.65-5.38-.52-5.38-4 0-1.55 1.34-2.84 3.54-2.84a5.2 5.2 0 0 1 3.64 1.3l-1.11 1.46a4 4 0 0 0-2.72-1c-.85 0-1.33.38-1.33.94 0 1.48 5.37.49 5.37 4 0 1.71-1.22 3-3.74 3a5.33 5.33 0 0 1-3.97-1.61zM95.91 618.48a4.75 4.75 0 0 1 5-4.83 4.28 4.28 0 0 1 3.91 2.28l-1.71.84a2.53 2.53 0 0 0-2.2-1.36 3.07 3.07 0 0 0 0 6.14 2.51 2.51 0 0 0 2.2-1.36l1.71.83a4.3 4.3 0 0 1-3.91 2.3 4.75 4.75 0 0 1-5-4.84zm10.63 4.67v-9.35h6.61v1.75h-4.62v2h4.52v1.75h-4.52v2.12h4.62v1.75zm15.16 0l-4.45-6.09v6.09h-2v-9.35h2l4.33 5.87v-5.87h2v9.34zm6.48 0v-7.59h-2.73v-1.76h7.45v1.75h-2.72v7.59zm11.82 0l-1.83-3.32h-1.46v3.32h-2v-9.35h4.37a2.91 2.91 0 0 1 3.14 3 2.68 2.68 0 0 1-2 2.77l2.1 3.56zm.2-6.33a1.27 1.27 0 0 0-1.4-1.26h-2.09v2.52h2.09a1.27 1.27 0 0 0 1.41-1.26zm10.54 6.33l-.57-1.58h-4l-.59 1.58h-2.28l3.61-9.34h2.49l3.6 9.34zm-2.58-7.35l-1.46 4h2.91zm6.27 7.35v-9.35h2v7.59h3.95v1.75zm7.88 0v-9.35h2v9.34zm4.06 0v-1.61l4.41-6h-4.41v-1.74h7v1.6l-4.41 6h4.51v1.75zm9.19 0v-9.35h6.61v1.75h-4.62v2h4.53v1.75h-4.53v2.12h4.62v1.75zm8.72 0v-9.35H188c2.93 0 5 1.86 5 4.68s-2 4.66-5 4.66zm6.61-4.66a2.73 2.73 0 0 0-2.93-2.93h-1.69v5.84H188a2.8 2.8 0 0 0 2.89-2.92zm-94.53 29.46v-9.34h2v7.59h3.95v1.75zm7.43-4.67a4.88 4.88 0 1 1 4.87 4.83 4.69 4.69 0 0 1-4.87-4.83zm7.72 0a2.85 2.85 0 1 0-2.84 3.07 2.84 2.84 0 0 0 2.84-3.07zm11.15 4.67l-1.66-6.42-1.62 6.42h-2.12l-2.68-9.34h2.23l1.64 6.75 1.78-6.75h1.55l1.76 6.75 1.63-6.75h2.24l-2.66 9.34zm9.78-1.32l1.08-1.51a4.1 4.1 0 0 0 3 1.26c1.09 0 1.62-.5 1.62-1 0-1.65-5.38-.52-5.38-4 0-1.55 1.34-2.84 3.54-2.84a5.2 5.2 0 0 1 3.64 1.3l-1.11 1.46a4 4 0 0 0-2.72-1c-.85 0-1.33.38-1.33.94 0 1.48 5.37.49 5.37 4 0 1.71-1.22 3-3.74 3a5.33 5.33 0 0 1-3.97-1.61zm9.56 1.32v-9.34h4.37a3 3 0 1 1 0 6H144v3.32zm5.48-6.33a1.25 1.25 0 0 0-1.37-1.26H144v2.52h2.12a1.26 1.26 0 0 0 1.38-1.26zm3.84 6.33v-9.34h6.61v1.75h-4.62v2h4.53v1.75h-4.53v2.12h4.62v1.75zm8.68 0v-9.34h6.61v1.75H162v2h4.52v1.75H162v2.12h4.62v1.75zm8.77 0v-9.34h3.68c2.93 0 5 1.86 5 4.68s-2 4.66-5 4.66zm6.61-4.66a2.73 2.73 0 0 0-2.93-2.93h-1.69v5.84h1.69a2.8 2.8 0 0 0 2.93-2.92zm13.89 4.66c-.2-.18-.43-.42-.7-.7a4.15 4.15 0 0 1-2.55.87c-1.71 0-3.08-.9-3.08-2.7a3 3 0 0 1 2-2.69 4.52 4.52 0 0 1-.62-2 2.43 2.43 0 0 1 2.68-2.24c1.32 0 2.45.73 2.45 2 0 1.43-1.15 2-2.3 2.56.28.38.57.73.81 1s.53.64.78 1a7.45 7.45 0 0 0 .85-1.81l1.43.66a12.31 12.31 0 0 1-1.3 2.26c.56.6 1.15 1.22 1.81 1.88zm-1.65-1.71c-.42-.46-.81-.91-1-1.19s-.63-.8-.94-1.23a1.68 1.68 0 0 0-.81 1.43 1.41 1.41 0 0 0 1.44 1.47 2.31 2.31 0 0 0 1.3-.48zm-1.11-4.24c.78-.38 1.4-.78 1.4-1.47a.77.77 0 0 0-.83-.78 1 1 0 0 0-1 1 2.87 2.87 0 0 0 .43 1.25zm10.76 5.95v-9.34h6.61v1.75h-4.62v2h4.53v1.75h-4.53v2.12h4.62v1.75zm14.82 0l-2.34-3.42-2.35 3.42H205l3.39-4.79-3.18-4.55h2.37l2.14 3.19 2.12-3.19h2.39l-3.18 4.54 3.39 4.8zm3.81 0v-9.34h4.37a3 3 0 1 1 0 6h-2.38v3.32zm5.48-6.33a1.25 1.25 0 0 0-1.37-1.26h-2.11v2.52h2.1a1.26 1.26 0 0 0 1.38-1.26zm3.82 6.33v-9.34h6.61v1.75h-4.62v2h4.52v1.75h-4.52v2.12h4.62v1.75zm15.17 0l-4.46-6.09v6.09h-2v-9.34h2l4.33 5.87v-5.87h2v9.34zm3.69-1.32l1.08-1.51a4.1 4.1 0 0 0 3 1.26c1.09 0 1.62-.5 1.62-1 0-1.65-5.38-.52-5.38-4 0-1.55 1.34-2.84 3.54-2.84a5.2 5.2 0 0 1 3.64 1.3l-1.11 1.46a4 4 0 0 0-2.72-1c-.85 0-1.33.38-1.33.94 0 1.48 5.37.49 5.37 4 0 1.71-1.22 3-3.74 3a5.33 5.33 0 0 1-3.97-1.61zm9.59 1.32v-9.34h2v9.34zm7.01 0l-3.66-9.34h2.27l2.59 7.19 2.58-7.19h2.27l-3.6 9.34zm7.52 0v-9.34h6.61v1.75h-4.62v2h4.53v1.75h-4.53v2.12h4.62v1.75zm-169.66 24.8v-7.59h-2.73v-1.75h7.45v1.75h-2.72v7.59zm11.83 0l-1.83-3.32h-1.46v3.32h-2v-9.34h4.37a2.91 2.91 0 0 1 3.14 3 2.68 2.68 0 0 1-2 2.77l2.1 3.56zm.2-6.33a1.27 1.27 0 0 0-1.4-1.26h-2.09v2.52h2.09a1.27 1.27 0 0 0 1.39-1.26zm10.52 6.33l-.57-1.58h-4l-.59 1.58h-2.27l3.61-9.34h2.49l3.6 9.34zm-2.58-7.35l-1.46 4H120zm12.72 7.35l-4.46-6.09v6.09h-2v-9.34h2l4.33 5.87v-5.87h2v9.34zm3.69-1.32l1.08-1.51a4.1 4.1 0 0 0 3 1.26c1.09 0 1.62-.5 1.62-1 0-1.65-5.38-.52-5.38-4 0-1.55 1.34-2.84 3.54-2.84a5.2 5.2 0 0 1 3.64 1.3l-1.13 1.36a4 4 0 0 0-2.72-1c-.85 0-1.33.38-1.33.94 0 1.48 5.37.49 5.37 4 0 1.71-1.22 3-3.74 3a5.33 5.33 0 0 1-3.95-1.51zm16.03 1.32l-.57-1.58h-4l-.59 1.58h-2.27l3.61-9.34h2.49l3.6 9.34zm-2.58-7.35l-1.46 4h2.91zm5.83 2.68a4.75 4.75 0 0 1 5-4.83 4.28 4.28 0 0 1 3.91 2.28l-1.71.84a2.53 2.53 0 0 0-2.2-1.36 3.07 3.07 0 0 0 0 6.14 2.51 2.51 0 0 0 2.2-1.36l1.71.83a4.3 4.3 0 0 1-3.91 2.3 4.75 4.75 0 0 1-5-4.84zm12.82 4.67v-7.59h-2.73v-1.75h7.45v1.75H169v7.59zm6.51 0v-9.34h2v9.34zm3.95-4.67a4.88 4.88 0 1 1 4.87 4.83 4.69 4.69 0 0 1-4.87-4.83zm7.72 0a2.85 2.85 0 1 0-2.84 3.07 2.84 2.84 0 0 0 2.84-3.07zm10.44 4.67l-4.45-6.09v6.09h-2v-9.34h2l4.33 5.87v-5.87h2v9.34zm3.69-1.32l1.08-1.51a4.1 4.1 0 0 0 3 1.26c1.09 0 1.62-.5 1.62-1 0-1.65-5.38-.52-5.38-4 0-1.55 1.34-2.84 3.54-2.84a5.2 5.2 0 0 1 3.64 1.3l-1.12 1.36a4 4 0 0 0-2.72-1c-.85 0-1.33.38-1.33.94 0 1.48 5.37.49 5.37 4 0 1.71-1.22 3-3.74 3a5.33 5.33 0 0 1-3.96-1.51zm-96.55 26.12v-3.92h-4.41v3.92h-2v-9.34h2v3.67h4.41v-3.67h2v9.34zm4.39 0v-9.34h2v9.34zm3.95-4.67a4.74 4.74 0 0 1 5-4.83 4.37 4.37 0 0 1 3.87 2.09l-1.65.9a2.65 2.65 0 0 0-2.21-1.22 3.07 3.07 0 0 0 0 6.14 3.15 3.15 0 0 0 2-.71v-1.12h-2.51v-1.74h4.45V696a5.18 5.18 0 0 1-4 1.77 4.76 4.76 0 0 1-4.95-4.89zm17.49 4.67v-3.92h-4.41v3.92h-2v-9.34h2v3.67h4.41v-3.67h2v9.34zm11.16 0l-3.61-9.34h2.27l2.59 7.19 2.58-7.19h2.27l-3.6 9.34zm7.06-4.67a4.88 4.88 0 1 1 4.87 4.83 4.69 4.69 0 0 1-4.87-4.83zm7.72 0a2.85 2.85 0 1 0-2.84 3.07 2.84 2.84 0 0 0 2.84-3.07zm4 4.67v-9.34h2v7.59h4v1.75zm14.33 0l-.57-1.58h-4l-.59 1.58h-2.27l3.61-9.34h2.49l3.6 9.34zm-2.58-7.35l-1.46 4h2.91zm8.43 7.35V690H176v-1.75h7.45V690h-2.72v7.59zm6.55 0v-9.34h2v9.34zm4.39 0v-9.34h2v7.59h3.95v1.75zm7.89 0v-9.34h2v9.34zm6.55 0V690h-2.73v-1.75h7.45V690h-2.72v7.59zm9.16 0v-3.82l-3.6-5.52h2.27l2.33 3.75 2.3-3.75h2.27l-3.57 5.52v3.82zm10.62-2.63v-1.52h10.83v1.51zm16.87-1.1v-5.62h2v5.55a2.19 2.19 0 1 0 4.38 0v-5.55h2v5.6c0 2.33-1.37 3.91-4.22 3.91s-4.16-1.59-4.16-3.89zm17.26 3.73l-4.46-6.09v6.09h-2v-9.34h2l4.33 5.87v-5.87h2v9.34zm3.7-1.32l1.08-1.51a4.1 4.1 0 0 0 3 1.26c1.09 0 1.62-.5 1.62-1 0-1.65-5.38-.52-5.38-4 0-1.55 1.34-2.84 3.54-2.84a5.2 5.2 0 0 1 3.64 1.3l-1.11 1.46a4 4 0 0 0-2.72-1c-.85 0-1.33.38-1.33.94 0 1.48 5.37.49 5.37 4 0 1.71-1.22 3-3.74 3a5.33 5.33 0 0 1-3.97-1.61zm11.74 1.32V690h-2.73v-1.75h7.45V690h-2.72v7.59zm13 0l-.57-1.58h-4l-.59 1.58H279l3.61-9.34h2.49l3.6 9.34zm-2.58-7.35l-1.46 4h2.91zm6.27 7.35v-9.34H295a2.42 2.42 0 0 1 2.69 2.38 2.08 2.08 0 0 1-1.61 2.14 2.26 2.26 0 0 1 1.79 2.3 2.46 2.46 0 0 1-2.72 2.52zm5.58-6.61a1 1 0 0 0-1.09-1h-2.49v2h2.49a1 1 0 0 0 1.09-1zm.18 3.81a1.09 1.09 0 0 0-1.21-1.09h-2.56v2.17h2.56c.76 0 1.21-.41 1.21-1.08zm4.11 2.8v-9.34h2v7.59h4v1.75zm7.86 0v-9.34h6.61V690h-4.62v2h4.52v1.75h-4.52v2.12h4.62v1.75zM95.73 721l1.08-1.51a4.1 4.1 0 0 0 3 1.26c1.09 0 1.62-.5 1.62-1 0-1.65-5.38-.52-5.38-4 0-1.55 1.34-2.84 3.54-2.84a5.2 5.2 0 0 1 3.64 1.3l-1.11 1.46a4 4 0 0 0-2.72-1c-.85 0-1.33.38-1.33.94 0 1.48 5.37.49 5.37 4 0 1.71-1.22 3-3.74 3a5.33 5.33 0 0 1-3.97-1.61zm9.14-3.32a4.75 4.75 0 0 1 5-4.83 4.28 4.28 0 0 1 3.91 2.28L112 716a2.53 2.53 0 0 0-2.2-1.36 3.07 3.07 0 0 0 0 6.14 2.51 2.51 0 0 0 2.2-1.36l1.71.83a4.3 4.3 0 0 1-3.91 2.3 4.75 4.75 0 0 1-4.93-4.87zm17.07 4.67l-.57-1.58h-4l-.59 1.58h-2.28l3.61-9.34h2.49l3.6 9.34zm-2.58-7.35l-1.46 4h2.91zm6.27 7.35V713h2v7.59h3.95v1.75zm14.37 0l-.57-1.58h-4l-.59 1.58h-2.27l3.61-9.34h2.49l3.6 9.34zm-2.62-7.35l-1.46 4h2.91zm6.27 7.35V713h4.92a2.42 2.42 0 0 1 2.69 2.38 2.08 2.08 0 0 1-1.61 2.14 2.26 2.26 0 0 1 1.79 2.3 2.46 2.46 0 0 1-2.72 2.52zm5.57-6.61a1 1 0 0 0-1.09-1h-2.49v2h2.49a1 1 0 0 0 1.1-1zm.18 3.81a1.09 1.09 0 0 0-1.21-1.09h-2.56v2.17h2.56c.81 0 1.22-.41 1.22-1.08zm4.09 2.8V713h2v9.34zm4.4 0V713h2v7.59h4v1.75zm7.88 0V713h2v9.34zm6.56 0v-7.59h-2.73V713h7.4v1.75h-2.72v7.59zm9.15 0v-3.82l-3.6-5.52h2.27l2.33 3.75 2.3-3.75H187l-3.57 5.52v3.82zm-85.12 24.8v-9.34h4.92a2.42 2.42 0 0 1 2.69 2.38 2.08 2.08 0 0 1-1.61 2.14 2.26 2.26 0 0 1 1.79 2.3 2.46 2.46 0 0 1-2.72 2.52zm5.58-6.61a1 1 0 0 0-1.09-1h-2.5v2h2.49a1 1 0 0 0 1.1-1zm.18 3.81a1.09 1.09 0 0 0-1.21-1.09h-2.56v2.17h2.56c.76 0 1.21-.43 1.21-1.08zm10.53 2.8l-.57-1.58h-4l-.59 1.58h-2.27l3.61-9.34h2.49l3.6 9.34zm-2.58-7.35l-1.46 4h2.91zm5.82 2.68a4.75 4.75 0 0 1 5-4.83 4.28 4.28 0 0 1 3.91 2.28l-1.71.84a2.53 2.53 0 0 0-2.2-1.36 3.07 3.07 0 0 0 0 6.14 2.51 2.51 0 0 0 2.2-1.36l1.71.83a4.3 4.3 0 0 1-3.91 2.3 4.75 4.75 0 0 1-5-4.84zm16.17 4.67l-2.83-3.74-.73.87v2.87h-2v-9.34h2V742l3.31-4.17h2.45l-3.71 4.38 4 5zm3.94 0v-9.34h6.61v1.75H138v2h4.52v1.75H138v2.12h4.62v1.75zm8.7 0v-9.34h3.68c2.93 0 5 1.86 5 4.68s-2 4.66-5 4.66zm6.61-4.66a2.73 2.73 0 0 0-2.93-2.93h-1.7v5.84h1.7a2.8 2.8 0 0 0 2.93-2.92zm8.15 4.66v-9.34h4.92a2.42 2.42 0 0 1 2.69 2.38 2.08 2.08 0 0 1-1.61 2.14 2.26 2.26 0 0 1 1.79 2.3 2.46 2.46 0 0 1-2.72 2.52zm5.57-6.61a1 1 0 0 0-1.09-1h-2.49v2h2.49a1 1 0 0 0 1.06-1zm.18 3.81a1.09 1.09 0 0 0-1.21-1.09h-2.56v2.17H164c.77 0 1.22-.43 1.22-1.08zm6.7 2.8v-3.82l-3.6-5.52h2.27l2.33 3.75 2.3-3.75h2.27l-3.57 5.52v3.82zm17.57 0l-4.48-6.1v6.09h-2v-9.34h2l4.33 5.87v-5.87h2v9.34zm3.87-4.67a4.88 4.88 0 1 1 4.87 4.83 4.69 4.69 0 0 1-4.87-4.83zm7.72 0a2.85 2.85 0 1 0-2.84 3.07 2.84 2.84 0 0 0 2.84-3.07zm6.16 4.67v-7.59h-2.73v-1.75h7.45v1.75h-2.72v7.59zm12.95 0v-3.92h-4.41v3.92h-2v-9.34h2v3.67h4.41v-3.67h2v9.34zm4.39 0v-9.34h2v9.34zm10.84 0l-4.41-6.1v6.09h-2v-9.34h2l4.33 5.87v-5.87h2v9.34zm3.88-4.67a4.74 4.74 0 0 1 5-4.83 4.37 4.37 0 0 1 3.87 2.09l-1.65.9a2.65 2.65 0 0 0-2.21-1.22 3.07 3.07 0 0 0 0 6.14 3.15 3.15 0 0 0 2-.71v-1.12h-2.47V742h4.45v3.59a5.18 5.18 0 0 1-4 1.76 4.76 4.76 0 0 1-4.99-4.87z"/><path class="cls-15" d="M76.83 594.63v5.3h-2.27v-5.3h-4.7v-2.06h4.7v-5.09h2.27v5.09h4.67v2.06zm-6.88 24.75v-2.1h11.46v2.1zm0 24.62v-2.1h11.46v2.1zm0 98.35v-2.1h11.46v2.1zm0-48.53v-2.1h11.46v2.1zm0 25.24V717h11.46v2.1z"/></g><g id="Layer_2" data-name="Layer 2"><path class="cls-16" d="M39.97 46.28v724.44"/><path class="cls-5" d="M31.29 48.81l8.68-15.02 8.67 15.02H31.29z"/><path class="cls-17" d="M18.38 417.93H3.44v5.37H0v-14.65h3.44V414h14.94zm0-12.93H0v-3.91h18.38zm0-24.59H5.51l12.87 5.18v1.71l-12.87 5.18h12.87v3.91H0v-5.48l11.11-4.46L0 382v-5.51h18.38zm0-8.68H0v-13h3.44v9.09h3.89v-8.9h3.45v8.9h4.16v-9.09h3.44zm682.94 446.21V803h-5.37v-3.44h14.66V803h-5.35v14.94zm12.89 0v-18.38h13V803h-9.09v3.89H727v3.45h-8.9v4.16h9.09v3.44zm16.28-9.18c0-5.65 4.27-9.51 9.78-9.51a8.41 8.41 0 0 1 7.69 4.49l-3.36 1.65a5 5 0 0 0-4.33-2.67 6 6 0 0 0 0 12.07 4.93 4.93 0 0 0 4.33-2.67l3.36 1.63a8.47 8.47 0 0 1-7.69 4.52c-5.5 0-9.78-3.86-9.78-9.51zm33.51 9.18v-7.72h-8.68v7.72h-3.91v-18.38h3.91v7.22H764v-7.22h3.94v18.38zm21.32 0l-8.76-12v12h-3.91v-18.38h4l8.51 11.55v-11.55h3.91v18.38zm7.68-9.18a9.6 9.6 0 1 1 9.59 9.51 9.23 9.23 0 0 1-9.59-9.51zm15.18 0c0-3.44-2.2-6-5.59-6s-5.57 2.59-5.57 6 2.18 6 5.57 6 5.54-2.58 5.54-6zm7.82 9.18v-18.38h3.91v14.94h7.77v3.44zm14.64-9.18a9.6 9.6 0 1 1 9.59 9.51 9.23 9.23 0 0 1-9.59-9.51zm15.18 0c0-3.44-2.2-6-5.59-6s-5.57 2.59-5.57 6 2.18 6 5.57 6 5.59-2.58 5.59-6zm7 0c0-5.81 4.41-9.51 9.78-9.51a8.59 8.59 0 0 1 7.61 4.11l-3.21 1.77a5.2 5.2 0 0 0-4.35-2.4 6 6 0 0 0 0 12.07 6.2 6.2 0 0 0 3.91-1.41v-2.21h-4.85v-3.42h8.76v7.05a10.2 10.2 0 0 1-7.83 3.47c-5.41.02-9.82-3.73-9.82-9.52zm26.94 9.18v-7.52l-7.08-10.86h4.46l4.57 7.39 4.52-7.39h4.46l-7 10.86v7.52z"/><circle class="cls-5" cx="39.93" cy="770.42" r="9.42"/><path class="cls-16" d="M1574.89 770.42H47.32"/><path class="cls-5" d="M1572.35 761.74l15.03 8.68-15.03 8.67v-17.35z"/></g><g id="Layer_8" data-name="Layer 8"><path class="cls-4" d="M697.15 360.14v-9.34h6.61v1.75h-4.62v2h4.53v1.75h-4.53v3.87zm15 0l-.57-1.58h-4l-.59 1.58h-2.27l3.61-9.34h2.49l3.6 9.34zm-2.58-7.35l-1.46 4H711zm5.64 6.03l1.08-1.51a4.1 4.1 0 0 0 3 1.26c1.09 0 1.62-.5 1.62-1 0-1.65-5.38-.52-5.38-4 0-1.55 1.34-2.84 3.54-2.84a5.2 5.2 0 0 1 3.64 1.3l-1.11 1.46a4 4 0 0 0-2.72-1c-.85 0-1.33.38-1.33.94 0 1.48 5.37.49 5.37 4 0 1.71-1.22 3-3.74 3a5.33 5.33 0 0 1-3.97-1.61zm11.79 1.32v-7.59h-2.73v-1.75h7.45v1.75H729v7.59zm12.25 0c-.2-.18-.43-.42-.7-.7a4.15 4.15 0 0 1-2.55.87c-1.71 0-3.08-.9-3.08-2.7a3 3 0 0 1 2-2.69 4.51 4.51 0 0 1-.62-2 2.43 2.43 0 0 1 2.68-2.24c1.32 0 2.45.73 2.45 2 0 1.43-1.15 2-2.3 2.56.28.38.57.73.81 1s.53.64.78 1a7.45 7.45 0 0 0 .85-1.81l1.43.57a12.31 12.31 0 0 1-1.3 2.26c.56.6 1.15 1.22 1.81 1.88zm-1.65-1.71c-.42-.46-.81-.91-1-1.19s-.63-.8-.94-1.23a1.68 1.68 0 0 0-.81 1.43 1.41 1.41 0 0 0 1.44 1.47 2.31 2.31 0 0 0 1.31-.48zm-1.11-4.23c.78-.38 1.4-.78 1.4-1.47a.77.77 0 0 0-.83-.78 1 1 0 0 0-1 1 2.87 2.87 0 0 0 .43 1.25zm6.62 5.94v-9.34h2v7.59h4v1.75zm7.43-4.66a4.88 4.88 0 1 1 4.87 4.83 4.69 4.69 0 0 1-4.87-4.83zm7.72 0a2.85 2.85 0 1 0-2.84 3.07 2.84 2.84 0 0 0 2.84-3.07zm11.15 4.66l-1.64-6.42-1.62 6.42H764l-2.68-9.34h2.23l1.64 6.75 1.81-6.75h1.55l1.76 6.75 1.63-6.75h2.24l-2.66 9.34zm10.41 0v-9.34h6.61v1.75h-4.62v2h4.52v1.75h-4.52v3.87zm8.55 0v-9.34H795v1.75h-4.62v2h4.53v1.75h-4.53v2.12H795v1.75zm8.72 0v-9.34h6.61v1.75h-4.62v2h4.53v1.75h-4.53v2.12h4.62v1.75zm15.03 0v-7.59h-2.73v-1.75h7.45v1.75h-2.72v7.59zm11.83 0l-1.83-3.32h-1.46v3.32h-2v-9.34H823a2.91 2.91 0 0 1 3.14 3 2.68 2.68 0 0 1-2 2.77l2.1 3.56zm.2-6.33a1.27 1.27 0 0 0-1.4-1.26h-2.09v2.52h2.09a1.27 1.27 0 0 0 1.39-1.26zm10.52 6.33l-.57-1.58h-4l-.59 1.58h-2.27l3.61-9.34h2.49l3.6 9.34zm-2.58-7.35l-1.46 4h2.91zm12.72 7.35l-4.46-6.14v6.09h-2v-9.29h2l4.33 5.87v-5.87h2v9.34zm3.69-1.32l1.08-1.51a4.1 4.1 0 0 0 3 1.26c1.09 0 1.62-.5 1.62-1 0-1.65-5.38-.52-5.38-4 0-1.55 1.34-2.84 3.54-2.84A5.2 5.2 0 0 1 856 352l-1.11 1.46a4 4 0 0 0-2.72-1c-.85 0-1.33.38-1.33.94 0 1.48 5.37.49 5.37 4 0 1.71-1.22 3-3.74 3a5.33 5.33 0 0 1-3.97-1.58zm16.03 1.32l-.57-1.58h-4l-.59 1.58h-2.27l3.61-9.34h2.49l3.6 9.34zm-2.53-7.35l-1.46 4h2.91zm5.78 2.69a4.75 4.75 0 0 1 5-4.83 4.28 4.28 0 0 1 3.91 2.28l-1.71.84a2.53 2.53 0 0 0-2.2-1.36 3.07 3.07 0 0 0 0 6.14 2.51 2.51 0 0 0 2.2-1.36l1.71.83a4.3 4.3 0 0 1-3.91 2.3 4.75 4.75 0 0 1-5-4.84zm12.78 4.66v-7.59h-2.73v-1.75h7.45v1.75h-2.72v7.59zm6.55 0v-9.34h2v9.34zm3.95-4.66a4.88 4.88 0 1 1 4.87 4.83 4.69 4.69 0 0 1-4.87-4.83zm7.72 0a2.85 2.85 0 1 0-2.84 3.07 2.84 2.84 0 0 0 2.84-3.07zm10.44 4.66l-4.45-6.14v6.09h-2v-9.29h2l4.33 5.87v-5.87h2v9.34zm3.69-1.32l1.08-1.51a4.1 4.1 0 0 0 3 1.26c1.09 0 1.62-.5 1.62-1 0-1.65-5.38-.52-5.38-4 0-1.55 1.34-2.84 3.54-2.84a5.2 5.2 0 0 1 3.64 1.3l-1.11 1.46a4 4 0 0 0-2.72-1c-.85 0-1.33.38-1.33.94 0 1.48 5.37.49 5.37 4 0 1.71-1.22 3-3.74 3a5.33 5.33 0 0 1-3.97-1.61zm-216.39 24.8l1.08-1.51a4.1 4.1 0 0 0 3 1.26c1.09 0 1.62-.5 1.62-1 0-1.65-5.38-.52-5.38-4 0-1.55 1.34-2.84 3.54-2.84a5.2 5.2 0 0 1 3.64 1.3l-1.11 1.46a4 4 0 0 0-2.72-1c-.85 0-1.33.38-1.33.94 0 1.48 5.37.49 5.37 4 0 1.71-1.22 3-3.74 3a5.33 5.33 0 0 1-3.97-1.61zm9.14-3.34a4.75 4.75 0 0 1 5-4.83 4.28 4.28 0 0 1 3.91 2.28l-1.71.84a2.53 2.53 0 0 0-2.2-1.36 3.07 3.07 0 0 0 0 6.14 2.51 2.51 0 0 0 2.2-1.36l1.71.83a4.3 4.3 0 0 1-3.91 2.3 4.75 4.75 0 0 1-5-4.84zm17.07 4.66l-.57-1.58h-4l-.59 1.58h-2.27l3.61-9.34h2.49l3.6 9.34zm-2.58-7.35l-1.46 4h2.91zm6.27 7.35v-9.34h2v7.59h4v1.75zm14.33 0l-.57-1.58h-4l-.59 1.58h-2.27l3.61-9.34h2.49l3.6 9.34zm-2.58-7.35l-1.46 4h2.91zm6.27 7.35v-9.34h4.92A2.42 2.42 0 0 1 752 378a2.08 2.08 0 0 1-1.61 2.14 2.26 2.26 0 0 1 1.79 2.3 2.46 2.46 0 0 1-2.72 2.52zm5.58-6.61a1 1 0 0 0-1.09-1h-2.49v2h2.49a1 1 0 0 0 1.07-1zm.18 3.81A1.09 1.09 0 0 0 749 381h-2.56v2.17H749c.75.05 1.2-.36 1.2-1.03zm4.08 2.8v-9.34h2v9.34zm4.4 0v-9.34h2v7.59h3.95v1.75zm7.88 0v-9.34h2v9.34zm6.55 0v-7.59h-2.73v-1.75h7.45v1.75h-2.72v7.59zm9.16 0v-3.82l-3.6-5.52h2.27l2.33 3.75 2.3-3.75h2.27l-3.57 5.52v3.82zm-85.75 23.49l1.08-1.51a4.1 4.1 0 0 0 3 1.26c1.09 0 1.62-.5 1.62-1 0-1.65-5.38-.52-5.38-4 0-1.55 1.34-2.84 3.54-2.84a5.2 5.2 0 0 1 3.64 1.3l-1.13 1.36a4 4 0 0 0-2.72-1c-.85 0-1.33.38-1.33.94 0 1.48 5.37.49 5.37 4 0 1.71-1.22 3-3.74 3a5.33 5.33 0 0 1-3.95-1.51zm17.71 1.31v-6.54l-2.63 6.54h-.87l-2.63-6.54v6.54h-2v-9.34h2.79l2.27 5.65 2.27-5.65h2.8v9.34zm10.85 0l-.57-1.58h-4l-.59 1.58h-2.27l3.61-9.34h2.49l3.6 9.34zm-2.58-7.35l-1.46 4H724zm11.55 7.35l-1.83-3.32h-1.46v3.32h-2v-9.34h4.37a2.91 2.91 0 0 1 3.14 3 2.68 2.68 0 0 1-2 2.77l2.1 3.56zm.2-6.33a1.27 1.27 0 0 0-1.4-1.26h-2.09v2.52h2.09a1.27 1.27 0 0 0 1.4-1.26zm6.24 6.33v-7.59h-2.73v-1.75h7.45v1.75h-2.71v7.59zm10.25-4.66a4.75 4.75 0 0 1 5-4.83 4.28 4.28 0 0 1 3.91 2.28l-1.71.84a2.53 2.53 0 0 0-2.2-1.36 3.07 3.07 0 0 0 0 6.14 2.51 2.51 0 0 0 2.2-1.36l1.71.83a4.3 4.3 0 0 1-3.91 2.3 4.75 4.75 0 0 1-5-4.84zm10.18 0a4.88 4.88 0 1 1 4.87 4.83 4.69 4.69 0 0 1-4.87-4.83zm7.72 0a2.85 2.85 0 1 0-2.84 3.07 2.84 2.84 0 0 0 2.83-3.07zm10.44 4.66l-4.45-6.09v6.09h-2v-9.34h2l4.33 5.87v-5.87h2v9.34zm6.48 0v-7.59h-2.73v-1.75h7.45v1.75h-2.72v7.59zm11.83 0l-1.83-3.32h-1.46v3.32h-2v-9.34h4.37a2.91 2.91 0 0 1 3.14 3 2.68 2.68 0 0 1-2 2.77l2.1 3.56zm.2-6.33a1.27 1.27 0 0 0-1.4-1.26h-2.09v2.52h2.09a1.27 1.27 0 0 0 1.39-1.26zm10.52 6.33l-.57-1.58h-4l-.59 1.58h-2.27l3.61-9.34h2.49l3.6 9.34zm-2.58-7.35l-1.46 4H807zm5.83 2.69a4.75 4.75 0 0 1 5-4.83 4.28 4.28 0 0 1 3.91 2.28l-1.71.84a2.53 2.53 0 0 0-2.2-1.36 3.07 3.07 0 0 0 0 6.14 2.51 2.51 0 0 0 2.2-1.36l1.71.83a4.3 4.3 0 0 1-3.91 2.3 4.75 4.75 0 0 1-5-4.84zm12.78 4.66v-7.59h-2.73v-1.75h7.45v1.75h-2.72v7.59zm5.92-1.31l1.08-1.51a4.1 4.1 0 0 0 3 1.26c1.09 0 1.62-.5 1.62-1 0-1.65-5.38-.52-5.38-4 0-1.55 1.34-2.84 3.54-2.84a5.2 5.2 0 0 1 3.64 1.3l-1.12 1.36a4 4 0 0 0-2.72-1c-.85 0-1.33.38-1.33.94 0 1.48 5.37.49 5.37 4 0 1.71-1.22 3-3.74 3a5.33 5.33 0 0 1-3.96-1.51zm12.81 1.57l3.32-9.9h1.29l-3.32 9.9zm-139.28 16.54L703 425h-4l-.59 1.58h-2.27l3.61-9.34h2.49l3.6 9.34zm-2.59-7.35l-1.46 4h2.91zm11.56 7.35l-1.83-3.32h-1.46v3.32h-2v-9.34h4.37a2.91 2.91 0 0 1 3.14 3 2.68 2.68 0 0 1-2 2.77l2.1 3.56zm.2-6.33a1.27 1.27 0 0 0-1.4-1.26h-2.09v2.52h2.09a1.27 1.27 0 0 0 1.4-1.26zm4.09 6.33v-9.34h4.92a2.42 2.42 0 0 1 2.69 2.38 2.08 2.08 0 0 1-1.61 2.14 2.27 2.27 0 0 1 1.79 2.3 2.46 2.46 0 0 1-2.72 2.52zm5.58-6.61a1 1 0 0 0-1.09-1h-2.49v2h2.49a1 1 0 0 0 1.08-1zm.18 3.81a1.09 1.09 0 0 0-1.21-1.09h-2.56v2.17h2.56c.76 0 1.2-.41 1.2-1.08zm4.08 2.8v-9.34h2v9.34zm6.55 0v-7.59h-2.73v-1.75H738v1.75h-2.72v7.59zm11.83 0l-1.83-3.32h-1.46v3.32h-2v-9.34h4.37a2.91 2.91 0 0 1 3.14 3 2.68 2.68 0 0 1-2 2.77l2.1 3.56zm.2-6.33a1.27 1.27 0 0 0-1.4-1.26h-2.09v2.52h2.09a1.27 1.27 0 0 0 1.4-1.26zm10.53 6.33l-.57-1.58h-4l-.59 1.58h-2.27l3.63-9.34h2.49l3.6 9.34zm-2.58-7.35l-1.46 4h2.91zm5.78 2.69a4.74 4.74 0 0 1 5-4.83 4.37 4.37 0 0 1 3.87 2.09l-1.65.9a2.65 2.65 0 0 0-2.21-1.22 3.07 3.07 0 0 0 0 6.14 3.15 3.15 0 0 0 2-.71v-1.12h-2.47v-1.74H768V425a5.18 5.18 0 0 1-4 1.77 4.76 4.76 0 0 1-5-4.89zm11.13 4.66v-9.34h6.61v1.75h-4.62v2h4.53v1.75h-4.53v2.12h4.62v1.75zM696.52 450l1.08-1.51a4.1 4.1 0 0 0 3 1.26c1.09 0 1.62-.5 1.62-1 0-1.65-5.38-.52-5.38-4 0-1.55 1.34-2.84 3.54-2.84a5.2 5.2 0 0 1 3.64 1.3l-1.11 1.46a4 4 0 0 0-2.72-1c-.85 0-1.33.38-1.33.94 0 1.48 5.37.49 5.37 4 0 1.71-1.22 3-3.74 3a5.33 5.33 0 0 1-3.97-1.61zm17.71 1.34v-6.54l-2.63 6.54h-.87l-2.63-6.54v6.54h-2V442h2.79l2.27 5.65 2.27-5.65h2.8v9.34zm10.85 0l-.57-1.58h-4l-.59 1.58h-2.27l3.61-9.34h2.49l3.6 9.34zM722.5 444l-1.5 4h3zm11.55 7.34l-1.83-3.34h-1.46v3.32h-2V442h4.37a2.91 2.91 0 0 1 3.14 3 2.68 2.68 0 0 1-2 2.77l2.1 3.56zm.2-6.33a1.27 1.27 0 0 0-1.4-1.26h-2.09v2.52h2.09a1.27 1.27 0 0 0 1.4-1.27zm6.24 6.33v-7.59h-2.73V442h7.45v1.75h-2.71v7.59zm17.1 0v-3.92h-4.41v3.92h-2V442h2v3.67h4.41V442h2v9.34zm4.41-3.72V442h2v5.55a2.19 2.19 0 1 0 4.38 0V442h2v5.6c0 2.33-1.37 3.91-4.22 3.91s-4.16-1.6-4.16-3.89zm18.93 3.72v-6.54l-2.63 6.54h-.87l-2.63-6.54v6.54h-2V442h2.79l2.27 5.65 2.27-5.65h2.8v9.34zm10.85 0l-.57-1.58h-4l-.59 1.58h-2.27L788 442h2.49l3.6 9.34zM789.2 444l-1.46 4h2.91zm12.71 7.34l-4.45-6.09v6.09h-2V442h2l4.33 5.87V442h2v9.34zm13.75 0l-1.84-3.34h-1.46v3.32h-2V442h4.37a2.91 2.91 0 0 1 3.14 3 2.68 2.68 0 0 1-2 2.77l2.1 3.56zm.2-6.33a1.27 1.27 0 0 0-1.4-1.26h-2.09v2.52h2.09a1.27 1.27 0 0 0 1.39-1.27zm4.08 6.33V442h6.61v1.75h-4.62v2h4.52v1.75h-4.52v2.12h4.62v1.75zm8.72 0V442h2v7.59h4v1.75zm14.34 0l-.57-1.58h-4l-.59 1.58h-2.27l3.61-9.34h2.49l3.6 9.34zm-2.59-7.34l-1.41 4h2.91zm8.43 7.34v-7.59h-2.73V442h7.45v1.75h-2.72v7.59zm6.55 0V442h2v9.34zm3.95-4.66a4.88 4.88 0 1 1 4.87 4.83 4.69 4.69 0 0 1-4.87-4.83zm7.72 0a2.85 2.85 0 1 0-2.84 3.07 2.84 2.84 0 0 0 2.83-3.07zm10.44 4.66l-4.5-6.09v6.09h-2V442h2l4.33 5.87V442h2v9.34zm3.69-1.34l1.08-1.51a4.1 4.1 0 0 0 3 1.26c1.09 0 1.62-.5 1.62-1 0-1.65-5.38-.52-5.38-4 0-1.55 1.34-2.84 3.54-2.84a5.2 5.2 0 0 1 3.64 1.3l-1.11 1.46a4 4 0 0 0-2.72-1c-.85 0-1.33.38-1.33.94 0 1.48 5.37.49 5.37 4 0 1.71-1.22 3-3.74 3a5.33 5.33 0 0 1-3.97-1.61zm-184.04 18.14v-9.34h2v7.59h4v1.75zm14.32 0l-.57-1.58h-4l-.59 1.58H704l3.61-9.34h2.49l3.6 9.34zm-2.58-7.35l-1.46 4h2.91zm12.72 7.35l-4.45-6.14v6.09h-2v-9.29h2l4.33 5.87v-5.87h2v9.34zm3.87-4.66a4.74 4.74 0 0 1 5-4.83 4.37 4.37 0 0 1 3.87 2.09l-1.65.9a2.65 2.65 0 0 0-2.21-1.22 3.07 3.07 0 0 0 0 6.14 3.15 3.15 0 0 0 2-.71v-1.12H730V463h4.45v3.59a5.18 5.18 0 0 1-4 1.76 4.76 4.76 0 0 1-4.97-4.87zm11.09.94v-5.62h2v5.55a2.19 2.19 0 1 0 4.38 0v-5.55h2v5.6c0 2.33-1.37 3.91-4.22 3.91s-4.16-1.6-4.16-3.89zm17.27 3.72l-.57-1.58h-4l-.59 1.58h-2.28l3.6-9.34h2.49l3.6 9.34zm-2.58-7.35l-1.46 4h2.91zm5.82 2.69a4.74 4.74 0 0 1 5-4.83 4.37 4.37 0 0 1 3.87 2.09l-1.65.9a2.65 2.65 0 0 0-2.21-1.22 3.07 3.07 0 0 0 0 6.14 3.15 3.15 0 0 0 2-.71v-1.12h-2.47V463H766v3.59a5.18 5.18 0 0 1-4 1.76 4.76 4.76 0 0 1-4.92-4.87zm11.09 4.66v-9.34h6.61v1.75h-4.62v2h4.52v1.75h-4.52v2.12h4.62v1.75zm-71.02 24.8v-9.34h4.92a2.42 2.42 0 0 1 2.69 2.38 2.08 2.08 0 0 1-1.61 2.14 2.26 2.26 0 0 1 1.79 2.3 2.46 2.46 0 0 1-2.72 2.52zm5.57-6.61a1 1 0 0 0-1.09-1h-2.49v2h2.49a1 1 0 0 0 1.09-1zm.18 3.81a1.09 1.09 0 0 0-1.2-1.14h-2.56v2.17h2.56c.76.05 1.21-.36 1.21-1.03zm3.64-1.86a4.88 4.88 0 1 1 4.87 4.83 4.69 4.69 0 0 1-4.87-4.83zm7.72 0a2.85 2.85 0 1 0-2.84 3.07 2.84 2.84 0 0 0 2.84-3.07zm10.44 4.66l-4.45-6.09v6.09h-2v-9.34h2l4.33 5.87v-5.87h2v9.34zm4.3 0v-9.34h3.68c2.93 0 5 1.86 5 4.68s-2 4.66-5 4.66zm6.61-4.66a2.73 2.73 0 0 0-2.93-2.93H731v5.84h1.69a2.8 2.8 0 0 0 2.95-2.91zm3.39 3.35l1.08-1.51a4.1 4.1 0 0 0 3 1.26c1.09 0 1.62-.5 1.62-1 0-1.65-5.38-.52-5.38-4 0-1.55 1.34-2.84 3.54-2.84a5.2 5.2 0 0 1 3.64 1.3l-1.11 1.46a4 4 0 0 0-2.72-1c-.85 0-1.33.38-1.33.94 0 1.48 5.37.49 5.37 4 0 1.71-1.22 3-3.74 3a5.33 5.33 0 0 1-3.97-1.61zm13.24-1.32v-1.51h10.83v1.51zm16.42-2.03a4.88 4.88 0 1 1 4.87 4.83 4.69 4.69 0 0 1-4.87-4.83zm7.72 0a2.85 2.85 0 1 0-2.84 3.07 2.84 2.84 0 0 0 2.84-3.07zm4 4.66v-9.34H787v1.75h-4.62v2h4.52v1.75h-4.52v3.87zm8.55 0v-9.34h6.61v1.75h-4.62v2h4.53v1.75h-4.53v3.87zm12.25-4.66a4.75 4.75 0 0 1 5-4.83 4.28 4.28 0 0 1 3.91 2.28l-1.71.84a2.53 2.53 0 0 0-2.2-1.36 3.07 3.07 0 0 0 0 6.14 2.51 2.51 0 0 0 2.2-1.36l1.71.83a4.3 4.3 0 0 1-3.91 2.3 4.75 4.75 0 0 1-5-4.84zm17.03 4.66V489h-4.41v3.92h-2v-9.32h2v3.67h4.41v-3.67h2v9.34zm10.79 0l-.57-1.58h-4l-.59 1.58h-2.27l3.61-9.34h2.49l3.6 9.34zm-2.58-7.35l-1.46 4h2.91zm6.32 7.35v-9.34h2v9.34zm10.84 0l-4.45-6.09v6.09h-2v-9.34h2l4.33 5.87v-5.87h2v9.34zm-144.27 16.8v-7.59h-2.73v-1.75H704v1.75h-2.72v7.59zm11.83 0l-1.83-3.32h-1.46v3.32h-2v-9.34h4.37a2.91 2.91 0 0 1 3.14 3 2.68 2.68 0 0 1-2 2.77l2.1 3.56zm.2-6.33a1.27 1.27 0 0 0-1.4-1.26h-2.09v2.52h2.09a1.27 1.27 0 0 0 1.39-1.26zm10.52 6.33l-.57-1.58h-4l-.59 1.58h-2.27l3.57-9.34h2.49l3.6 9.34zm-2.58-7.35l-1.46 4h2.91zm12.72 7.35l-4.45-6.09v6.09h-2v-9.34h2l4.33 5.87v-5.87h2v9.34zm3.69-1.31l1.08-1.51a4.1 4.1 0 0 0 3 1.26c1.09 0 1.62-.5 1.62-1 0-1.65-5.38-.52-5.38-4 0-1.55 1.34-2.84 3.54-2.84a5.2 5.2 0 0 1 3.64 1.3l-1.13 1.36a4 4 0 0 0-2.72-1c-.85 0-1.33.38-1.33.94 0 1.48 5.37.49 5.37 4 0 1.71-1.22 3-3.74 3a5.33 5.33 0 0 1-3.95-1.51zm16.03 1.31l-.57-1.58h-4l-.59 1.58h-2.27l3.61-9.34h2.49l3.6 9.34zm-2.58-7.35l-1.46 4h2.91zm5.86 2.69a4.75 4.75 0 0 1 5-4.83 4.28 4.28 0 0 1 3.91 2.28l-1.71.84a2.53 2.53 0 0 0-2.2-1.36 3.07 3.07 0 0 0 0 6.14 2.51 2.51 0 0 0 2.2-1.36l1.71.83a4.3 4.3 0 0 1-3.91 2.3 4.75 4.75 0 0 1-5-4.84zm12.75 4.66v-7.59H765v-1.75h7.45v1.75h-2.72v7.59zm6.55 0v-9.34h2v9.34zm3.95-4.66a4.88 4.88 0 1 1 4.87 4.83 4.69 4.69 0 0 1-4.87-4.83zm7.72 0a2.85 2.85 0 1 0-2.84 3.07 2.84 2.84 0 0 0 2.87-3.07zm10.44 4.66l-4.41-6.09v6.09h-2v-9.34h2l4.33 5.87v-5.87h2v9.34zm3.69-1.31l1.08-1.51a4.1 4.1 0 0 0 3 1.26c1.09 0 1.62-.5 1.62-1 0-1.65-5.38-.52-5.38-4 0-1.55 1.34-2.84 3.54-2.84a5.2 5.2 0 0 1 3.64 1.3l-1.12 1.36a4 4 0 0 0-2.72-1c-.85 0-1.33.38-1.33.94 0 1.48 5.37.49 5.37 4 0 1.71-1.22 3-3.74 3a5.33 5.33 0 0 1-3.96-1.51zm-103.58 24.8l1.08-1.51a4.1 4.1 0 0 0 3 1.26c1.09 0 1.62-.5 1.62-1 0-1.65-5.38-.52-5.38-4 0-1.55 1.34-2.84 3.54-2.84a5.2 5.2 0 0 1 3.64 1.3l-1.11 1.46a4 4 0 0 0-2.72-1c-.85 0-1.33.38-1.33.94 0 1.48 5.37.49 5.37 4 0 1.71-1.22 3-3.74 3a5.33 5.33 0 0 1-3.97-1.61zm11.74 1.31V527h-2.73v-1.8H713v1.8h-2.72v7.59zm13 0l-.57-1.58h-4l-.59 1.58h-2.27l3.61-9.34h2.49l3.6 9.34zm-2.58-7.35l-1.46 4h2.91zm6.32 7.35v-9.34h4.92a2.42 2.42 0 0 1 2.69 2.38 2.08 2.08 0 0 1-1.61 2.14 2.26 2.26 0 0 1 1.79 2.3 2.46 2.46 0 0 1-2.72 2.52zm5.57-6.61a1 1 0 0 0-1.09-1h-2.49v2h2.49a1 1 0 0 0 1.05-1zm.18 3.81a1.09 1.09 0 0 0-1.21-1.09h-2.56v2.17h2.56c.72 0 1.17-.41 1.17-1.08zm4.04 2.8v-9.34h2v7.59h3.95v1.75zm7.89 0v-9.34h6.61v1.8h-4.62v2h4.53v1.75h-4.53v2.12h4.62v1.75zm12.41-4.66a4.75 4.75 0 0 1 5-4.83 4.28 4.28 0 0 1 3.91 2.28l-1.71.84a2.53 2.53 0 0 0-2.2-1.36 3.07 3.07 0 0 0 0 6.14 2.51 2.51 0 0 0 2.2-1.36l1.71.83a4.3 4.3 0 0 1-3.91 2.3 4.75 4.75 0 0 1-5-4.84zm10.18 0a4.88 4.88 0 1 1 4.87 4.83 4.69 4.69 0 0 1-4.87-4.83zm7.72 0a2.85 2.85 0 1 0-2.84 3.07 2.84 2.84 0 0 0 2.85-3.07zm4.01 4.66v-9.34h2v9.34zm10.83 0l-4.45-6.09v6.09h-2v-9.34h2l4.33 5.87v-5.87h2v9.34zm7.96-2.63v-1.51h10.83v1.51zm16.87 2.63v-9.34h2v7.59h4v1.75zm7.44-4.66a4.88 4.88 0 1 1 4.87 4.83 4.69 4.69 0 0 1-4.87-4.83zm7.72 0a2.85 2.85 0 1 0-2.84 3.07 2.84 2.84 0 0 0 2.83-3.07zm11.18 4.66l-1.64-6.42-1.62 6.42h-2.12l-2.68-9.34h2.23l1.64 6.75 1.78-6.75h1.55l1.76 6.75 1.63-6.75h2.24l-2.66 9.34zm13 0l-3.61-9.34h2.27l2.59 7.19 2.58-7.19h2.27l-3.6 9.34zm7.06-4.66a4.88 4.88 0 1 1 4.87 4.83 4.69 4.69 0 0 1-4.87-4.83zm7.72 0a2.85 2.85 0 1 0-2.84 3.07 2.84 2.84 0 0 0 2.84-3.07zm4 4.66v-9.34h2v7.59h3.95v1.75zm14.32 0l-.57-1.58h-4l-.59 1.58h-2.27l3.61-9.34h2.49l3.6 9.34zm-2.58-7.35l-1.46 4H884zm8.48 7.35V527h-2.73v-1.8h7.45v1.8H893v7.59zm6.5 0v-9.34h2v9.34zm4.4 0v-9.34h2v7.59h4v1.75zm7.88 0v-9.34h2v9.34zm6.55 0V527h-2.73v-1.8h7.45v1.8h-2.72v7.59zm9.16 0v-3.82l-3.6-5.52h2.27l2.33 3.75 2.3-3.75H931l-3.57 5.52v3.82zM696.52 558l1.08-1.51a4.1 4.1 0 0 0 3 1.26c1.09 0 1.62-.5 1.62-1 0-1.65-5.38-.52-5.38-4 0-1.55 1.34-2.84 3.54-2.84a5.2 5.2 0 0 1 3.64 1.3l-1.11 1.46a4 4 0 0 0-2.72-1c-.85 0-1.33.38-1.33.94 0 1.48 5.37.49 5.37 4 0 1.71-1.22 3-3.74 3a5.33 5.33 0 0 1-3.97-1.61zm9.59 1.34V550h6.61v1.75h-4.62v2h4.53v1.75h-4.53v2.12h4.62v1.75zm8.72 0V550h2v7.59h4v1.75zm7.88 0V550h6.61v1.75h-4.62v2h4.52v1.75h-4.52v3.87zm8.05-2.63v-1.51h3.36v1.51zm4.82-2.03a4.88 4.88 0 1 1 4.87 4.83 4.69 4.69 0 0 1-4.87-4.83zm7.72 0a2.85 2.85 0 1 0-2.84 3.07 2.84 2.84 0 0 0 2.84-3.07zm4 4.66V550h4.37a3 3 0 1 1 0 6h-2.38v3.32zm5.48-6.33a1.25 1.25 0 0 0-1.37-1.26h-2.12v2.52h2.12a1.26 1.26 0 0 0 1.36-1.27zm5.97 6.33v-7.59H756V550h7.45v1.75h-2.72v7.59zm6.55 0V550h2v9.34zm12.52 0v-6.54l-2.63 6.54h-.87l-2.63-6.54v6.54h-2V550h2.79l2.27 5.64L777 550h2.8v9.34zm4.41 0V550h2v9.34zm4.06 0v-1.61l4.41-6h-4.41V550h7v1.6l-4.41 6h4.51v1.75zm9.18 0V550h2v9.34zm10.84 0l-4.45-6.09v6.09h-2V550h2l4.33 5.87V550h2v9.34zm3.87-4.66a4.74 4.74 0 0 1 5-4.83 4.37 4.37 0 0 1 3.87 2.09l-1.65.9a2.65 2.65 0 0 0-2.21-1.22 3.07 3.07 0 0 0 0 6.14 3.15 3.15 0 0 0 2-.71v-1.12h-2.47v-1.74h4.45v3.59a5.18 5.18 0 0 1-4 1.76 4.76 4.76 0 0 1-4.99-4.86zm15.24 4.66V550h4.92a2.42 2.42 0 0 1 2.69 2.38 2.08 2.08 0 0 1-1.61 2.14 2.26 2.26 0 0 1 1.79 2.3 2.46 2.46 0 0 1-2.72 2.52zm5.57-6.61a1 1 0 0 0-1.09-1h-2.5v2h2.49a1 1 0 0 0 1.11-1zm.18 3.81a1.09 1.09 0 0 0-1.21-1.09h-2.56v2.17h2.6c.72 0 1.17-.41 1.17-1.08zm4.09 2.8V550h2v7.59h4v1.75zm7.43-4.66a4.88 4.88 0 1 1 4.87 4.83 4.69 4.69 0 0 1-4.87-4.83zm7.72 0a2.85 2.85 0 1 0-2.84 3.07 2.84 2.84 0 0 0 2.84-3.07zm3.59 0a4.75 4.75 0 0 1 5-4.83 4.28 4.28 0 0 1 3.91 2.28l-1.71.84a2.53 2.53 0 0 0-2.2-1.36 3.07 3.07 0 0 0 0 6.14 2.51 2.51 0 0 0 2.2-1.36l1.71.83a4.3 4.3 0 0 1-3.91 2.3 4.75 4.75 0 0 1-5-4.84zm16.14 4.66l-2.83-3.74-.73.87v2.87h-2V550h2v4.17l3.31-4.17h2.45l-3.71 4.38 4 5zm3.46-4.66a4.75 4.75 0 0 1 5-4.83 4.28 4.28 0 0 1 3.91 2.28l-1.71.84a2.53 2.53 0 0 0-2.2-1.36 3.07 3.07 0 0 0 0 6.14 2.51 2.51 0 0 0 2.2-1.36l1.71.83a4.3 4.3 0 0 1-3.91 2.3 4.75 4.75 0 0 1-5-4.84zm17.03 4.66v-3.92h-4.41v3.92h-2V550h2v3.67h4.41V550h2v9.34zm10.84 0l-.57-1.58h-4l-.59 1.58H894l3.61-9.34h2.49l3.6 9.34zm-2.58-7.34l-1.46 4h2.91zm6.27 7.34V550h2v9.34zm10.84 0l-4.45-6.09v6.09h-2V550h2l4.33 5.87V550h2v9.34zm-213.57 24.8l-1.83-3.32h-1.46v3.32h-2v-9.34h4.37a2.91 2.91 0 0 1 3.14 3 2.68 2.68 0 0 1-2 2.77l2.1 3.56zm.2-6.33a1.27 1.27 0 0 0-1.4-1.26h-2.09v2.52h2.09a1.27 1.27 0 0 0 1.4-1.26zm4.08 6.33v-9.34h6.61v1.75h-4.62v2h4.52v1.75h-4.52v2.12h4.62v1.75zm15.17 0l-.57-1.58h-4l-.59 1.58h-2.27l3.61-9.34h2.49l3.6 9.34zm-2.58-7.35l-1.46 4h2.91zm6.27 7.35v-9.34h2v7.59h4v1.75zm12.02 0v-9.34h3.68c2.93 0 5 1.86 5 4.68s-2 4.66-5 4.66zm6.61-4.66a2.73 2.73 0 0 0-2.93-2.93h-1.69v5.84h1.69a2.8 2.8 0 0 0 2.94-2.91zm4.01 4.66v-9.34h6.61v1.75h-4.62v2h4.53v1.75h-4.53v2.12h4.62v1.75zm8.27-4.66a4.75 4.75 0 0 1 5-4.83 4.28 4.28 0 0 1 3.91 2.28l-1.71.84a2.53 2.53 0 0 0-2.2-1.36 3.07 3.07 0 0 0 0 6.14 2.51 2.51 0 0 0 2.2-1.36l1.71.83a4.3 4.3 0 0 1-3.91 2.3 4.75 4.75 0 0 1-5-4.84zm10.63 4.66v-9.34h6.61v1.75h-4.62v2h4.53v1.75h-4.53v2.12h4.62v1.75zm15.16 0l-4.45-6.14v6.09h-2v-9.29h2l4.33 5.87v-5.87h2v9.34zm6.48 0v-7.59H786v-1.75h7.45v1.75h-2.72v7.59zm11.83 0l-1.83-3.32h-1.46v3.32h-2v-9.34h4.37a2.91 2.91 0 0 1 3.14 3 2.68 2.68 0 0 1-2 2.77l2.1 3.56zm.2-6.33a1.27 1.27 0 0 0-1.4-1.26h-2.09v2.52h2.09a1.27 1.27 0 0 0 1.4-1.26zm10.53 6.33l-.57-1.58h-4l-.59 1.58h-2.27l3.61-9.34H810l3.6 9.34zm-2.58-7.35l-1.46 4h2.91zm6.27 7.35v-9.34h2v7.59h3.95v1.75zm7.88 0v-9.34h2v9.34zm4.06 0v-1.61l4.41-6h-4.41v-1.73h7v1.6l-4.41 6h4.51v1.75zm15.63 0l-.57-1.58h-4l-.59 1.58h-2.27l3.61-9.34h2.49l3.6 9.34zm-2.57-7.35l-1.46 4h2.91zm8.42 7.35v-7.59h-2.73v-1.75h7.45v1.75h-2.72v7.59zm6.58 0v-9.34h2v9.34zm3.92-4.66a4.88 4.88 0 1 1 4.87 4.83 4.69 4.69 0 0 1-4.87-4.83zm7.72 0a2.85 2.85 0 1 0-2.84 3.07 2.84 2.84 0 0 0 2.84-3.07zm10.44 4.66l-4.45-6.14v6.09h-2v-9.29h2l4.33 5.87v-5.87h2v9.34zm-179.93 24.8v-9.34h6.61v1.75h-4.62v2h4.53v1.75h-4.53v2.12h4.62v1.75zm15.16 0l-.57-1.58h-4l-.59 1.58h-2.27l3.61-9.34H711l3.6 9.34zm-2.58-7.35l-1.46 4h2.91zm5.65 6.04l1.08-1.51a4.1 4.1 0 0 0 3 1.26c1.09 0 1.62-.5 1.62-1 0-1.65-5.38-.52-5.38-4 0-1.55 1.34-2.84 3.54-2.84a5.2 5.2 0 0 1 3.64 1.3l-1.11 1.46a4 4 0 0 0-2.72-1c-.85 0-1.33.38-1.33.94 0 1.48 5.37.49 5.37 4 0 1.71-1.22 3-3.74 3a5.33 5.33 0 0 1-3.97-1.61zm12.19 1.31v-3.82L724 599.6h2.27l2.33 3.75 2.3-3.75h2.27l-3.57 5.52v3.82zm13.29 0v-7.59h-2.73v-1.75h7.45v1.75h-2.72v7.59zm6.14-4.66a4.88 4.88 0 1 1 4.87 4.83 4.69 4.69 0 0 1-4.87-4.83zm7.72 0a2.85 2.85 0 1 0-2.84 3.07 2.84 2.84 0 0 0 2.8-3.07zm8.1.94v-5.62h2v5.55a2.19 2.19 0 1 0 4.38 0v-5.55h2v5.6c0 2.33-1.37 3.91-4.22 3.91s-4.16-1.6-4.16-3.89zm10.18 2.41l1.08-1.51a4.1 4.1 0 0 0 3 1.26c1.09 0 1.62-.5 1.62-1 0-1.65-5.38-.52-5.38-4 0-1.55 1.34-2.84 3.54-2.84a5.2 5.2 0 0 1 3.64 1.3l-1.11 1.46a4 4 0 0 0-2.72-1c-.85 0-1.33.38-1.33.94 0 1.48 5.37.49 5.37 4 0 1.71-1.22 3-3.74 3a5.33 5.33 0 0 1-3.97-1.61zm9.6 1.31v-9.34h6.61v1.75h-4.62v2h4.52v1.75h-4.52v2.12h4.62v1.75zm20.99 0v-6.54l-2.59 6.54h-.87l-2.63-6.54v6.54h-2v-9.34h2.79l2.27 5.64 2.27-5.64h2.8v9.34zm4.41-3.72v-5.62h2v5.55a2.19 2.19 0 1 0 4.38 0v-5.55h2v5.6c0 2.33-1.37 3.91-4.22 3.91s-4.16-1.6-4.16-3.89zm10.82 3.72v-9.34h2v7.59h4v1.75zm10.04 0v-7.59h-2.73v-1.75h7.45v1.75h-2.72v7.59zm6.55 0v-9.34h2v9.34zm3.76-1.31l1.08-1.51a4.1 4.1 0 0 0 3 1.26c1.09 0 1.62-.5 1.62-1 0-1.65-5.38-.52-5.38-4 0-1.55 1.34-2.84 3.54-2.84a5.2 5.2 0 0 1 3.64 1.3l-1.11 1.46a4 4 0 0 0-2.72-1c-.85 0-1.33.38-1.33.94 0 1.48 5.37.49 5.37 4 0 1.71-1.22 3-3.74 3a5.33 5.33 0 0 1-3.97-1.61zm9.6 1.31v-9.34h2v9.34zm3.94-4.66a4.74 4.74 0 0 1 5-4.83 4.37 4.37 0 0 1 3.87 2.09l-1.65.9a2.65 2.65 0 0 0-2.21-1.22 3.07 3.07 0 0 0 0 6.14 3.15 3.15 0 0 0 2-.71v-1.12h-2.47v-1.74h4.45v3.59a5.18 5.18 0 0 1-4 1.76 4.76 4.76 0 0 1-4.99-4.86zm-152.94 29.46l-3.61-9.34h2.27l2.59 7.19 2.58-7.19h2.27l-3.6 9.34zm7.51 0v-9.34h2v9.34zm9.72 0l-1.83-3.32h-1.46v3.32h-2v-9.34h4.37a2.91 2.91 0 0 1 3.14 3 2.68 2.68 0 0 1-2 2.77l2.1 3.56zm.2-6.33a1.27 1.27 0 0 0-1.4-1.26h-2.09v2.52h2.09a1.27 1.27 0 0 0 1.36-1.26zm6.2 6.33v-7.59h-2.73v-1.75h7.45v1.75h-2.72v7.59zM730 630v-5.6h2v5.55a2.19 2.19 0 1 0 4.38 0v-5.55h2v5.6c0 2.33-1.37 3.91-4.22 3.91S730 632.31 730 630zm17.21 3.74l-.57-1.58h-4l-.59 1.58h-2.27l3.61-9.34h2.49l3.6 9.34zm-2.58-7.35l-1.46 4h2.91zm6.28 7.35v-9.34h2v7.6h4v1.75zm19.17 0l-1.64-6.42-1.62 6.42h-2.12l-2.7-9.34h2.23l1.64 6.75 1.78-6.75h1.55l1.76 6.75 1.63-6.75h2.24l-2.66 9.34zm5.82-4.66a4.88 4.88 0 1 1 4.87 4.83 4.69 4.69 0 0 1-4.87-4.83zm7.72 0a2.85 2.85 0 1 0-2.84 3.07 2.84 2.84 0 0 0 2.84-3.07zm9.28 4.66l-1.83-3.32h-1.47v3.32h-2v-9.34h4.4a2.91 2.91 0 0 1 3.14 3 2.68 2.68 0 0 1-2 2.77l2.1 3.56zm.2-6.33a1.27 1.27 0 0 0-1.4-1.26h-2.1v2.52h2.09a1.27 1.27 0 0 0 1.4-1.26zm4.08 6.33v-9.34h2v7.6h4v1.75zm7.88 0v-9.34h3.68c2.93 0 5 1.86 5 4.68s-2 4.66-5 4.66zm6.61-4.66a2.73 2.73 0 0 0-2.93-2.93H807V632h1.69a2.8 2.8 0 0 0 2.98-2.92zm10.33 4.66v-7.59h-2.73v-1.75h7.45v1.75H824v7.59zm6.08-4.66a4.88 4.88 0 1 1 4.87 4.83 4.69 4.69 0 0 1-4.87-4.83zm7.72 0a2.85 2.85 0 1 0-2.84 3.07 2.84 2.84 0 0 0 2.83-3.07zm9.54 4.66l-2.83-3.74-.73.87v2.87h-2v-9.34h2v4.17l3.31-4.17h2.45l-3.71 4.38 4 5zm3.92 0v-9.34h6.61v1.75h-4.62v2h4.52v1.75h-4.52v2.1h4.62v1.75zm15.16 0l-4.42-6.09v6.09h-2v-9.34h2l4.33 5.87v-5.87h2v9.34zm4.33 0v-9.34h2v9.34zm4.05 0v-1.61l4.41-6h-4.41v-1.73h7v1.6l-4.41 6h4.51v1.75zm15.63 0l-.57-1.58h-4l-.59 1.58H881l3.61-9.34h2.49l3.6 9.34zm-2.58-7.35l-1.46 4h2.91zm8.43 7.35v-7.59h-2.73v-1.75H899v1.75h-2.72v7.59zm6.55 0v-9.34h2v9.34zm3.95-4.66a4.88 4.88 0 1 1 4.87 4.83 4.69 4.69 0 0 1-4.87-4.83zm7.72 0a2.85 2.85 0 1 0-2.84 3.07 2.84 2.84 0 0 0 2.84-3.07zm10.44 4.66l-4.45-6.09v6.09h-2v-9.34h2l4.33 5.87v-5.87h2v9.34zm-225.79 24.8v-9.34h4.92a2.42 2.42 0 0 1 2.69 2.38 2.08 2.08 0 0 1-1.61 2.14 2.26 2.26 0 0 1 1.79 2.3 2.46 2.46 0 0 1-2.72 2.52zm5.57-6.61a1 1 0 0 0-1.09-1h-2.49v2h2.49a1 1 0 0 0 1.09-1zm.18 3.81a1.09 1.09 0 0 0-1.21-1.09h-2.56v2.17h2.56c.77 0 1.22-.41 1.22-1.08zm10.53 2.8l-.57-1.58h-4l-.59 1.58H706l3.61-9.34h2.49l3.6 9.34zm-2.58-7.35l-1.46 4h2.91zm5.83 2.69a4.75 4.75 0 0 1 5-4.83 4.28 4.28 0 0 1 3.91 2.28l-1.71.84a2.53 2.53 0 0 0-2.2-1.36 3.07 3.07 0 0 0 0 6.14 2.51 2.51 0 0 0 2.2-1.36l1.71.83a4.3 4.3 0 0 1-3.91 2.3 4.75 4.75 0 0 1-5-4.84zm16.17 4.66L730 654.8l-.73.87v2.87h-2v-9.34h2v4.17l3.31-4.17h2.45l-3.71 4.38 4 5zm3.92 0v-9.34h6.61v1.8h-4.62v2h4.52v1.75h-4.52v2.12h4.62v1.75zm8.72 0v-9.34h3.68c2.93 0 5 1.86 5 4.68s-2 4.66-5 4.66zm6.61-4.66a2.73 2.73 0 0 0-2.93-2.93h-1.7v5.84h1.7a2.8 2.8 0 0 0 2.93-2.91zm8.15 4.66v-9.34h4.92a2.42 2.42 0 0 1 2.69 2.38 2.08 2.08 0 0 1-1.61 2.14A2.26 2.26 0 0 1 768 656a2.46 2.46 0 0 1-2.72 2.52zm5.57-6.61a1 1 0 0 0-1.09-1h-2.49v2h2.49a1 1 0 0 0 1.09-1zm.18 3.81a1.09 1.09 0 0 0-1.21-1.09h-2.56v2.17h2.56c.76 0 1.21-.41 1.21-1.08zm6.69 2.8v-3.82l-3.6-5.52h2.27l2.33 3.75 2.3-3.75h2.27l-3.57 5.52v3.82zm17.58 0l-.57-1.58h-4l-.59 1.58h-2.27l3.61-9.34h2.49l3.6 9.34zm-2.58-7.35l-1.46 4h2.91zm6.31 7.35v-9.34h2v7.59h4v1.75zm7.84 0v-9.34h2v7.59h3.95v1.75zm11.58-4.66a4.75 4.75 0 0 1 5-4.83 4.28 4.28 0 0 1 3.91 2.28l-1.71.84a2.53 2.53 0 0 0-2.2-1.36 3.07 3.07 0 0 0 0 6.14 2.51 2.51 0 0 0 2.2-1.36l1.71.83a4.3 4.3 0 0 1-3.91 2.3 4.75 4.75 0 0 1-5-4.84zm15.91 4.66l-1.83-3.32H826v3.32h-2v-9.34h4.37a2.91 2.91 0 0 1 3.14 3 2.68 2.68 0 0 1-2 2.77l2.1 3.56zm.2-6.33a1.27 1.27 0 0 0-1.4-1.26H826v2.52h2.09a1.27 1.27 0 0 0 1.43-1.26zm6.68 6.33v-3.82l-3.6-5.52h2.27l2.33 3.75 2.3-3.75h2.27l-3.57 5.52v3.82zm6.99 0v-9.34h4.37a3 3 0 1 1 0 6h-2.38v3.32zm5.48-6.33a1.25 1.25 0 0 0-1.38-1.21h-2.12v2.52h2.12a1.26 1.26 0 0 0 1.37-1.31zm5.97 6.33V651h-2.73v-1.8h7.45v1.8h-2.72v7.59zm6.1-4.66a4.88 4.88 0 1 1 4.87 4.83 4.69 4.69 0 0 1-4.87-4.83zm7.72 0a2.85 2.85 0 1 0-2.84 3.07 2.84 2.84 0 0 0 2.84-3.07zm-163.2 21.46v-6.54l-2.63 6.54h-.87l-2.63-6.54v6.54h-2V666h2.79l2.27 5.64 2.27-5.64h2.8v9.34zm10.85 0l-.57-1.58h-4l-.59 1.58h-2.27l3.61-9.34h2.49l3.6 9.34zm-2.58-7.34l-1.46 4H715zm11.55 7.34l-1.83-3.34h-1.46v3.32h-2V666h4.37a2.91 2.91 0 0 1 3.14 3 2.68 2.68 0 0 1-2 2.77l2.1 3.56zm.2-6.33a1.27 1.27 0 0 0-1.4-1.26h-2.09v2.52h2.09a1.27 1.27 0 0 0 1.4-1.27zm9.63 6.33l-2.83-3.74-.73.87v2.87h-2V666h2v4.17l3.31-4.17h2.45l-3.71 4.38 4 5zm3.92 0V666h6.61v1.75h-4.62v2h4.52v1.75h-4.52v2.12h4.62v1.75zm10.88 0v-7.59H747V666h7.45v1.75h-2.72v7.59zm12.56 2.79a9.77 9.77 0 0 1 0-12.38l1.12.84a10.32 10.32 0 0 0-1.42 5.35 10.15 10.15 0 0 0 1.42 5.32zm2.4-7.45a4.75 4.75 0 0 1 5-4.83 4.28 4.28 0 0 1 3.91 2.28l-1.71.84a2.53 2.53 0 0 0-2.2-1.36 3.07 3.07 0 0 0 0 6.14 2.51 2.51 0 0 0 2.2-1.36l1.71.83a4.3 4.3 0 0 1-3.91 2.3 4.75 4.75 0 0 1-5-4.84zm10.18 0a4.75 4.75 0 0 1 5-4.83 4.28 4.28 0 0 1 3.91 2.28L782 669a2.53 2.53 0 0 0-2.2-1.36 3.07 3.07 0 0 0 0 6.14 2.51 2.51 0 0 0 2.2-1.36l1.71.83a4.3 4.3 0 0 1-3.91 2.3 4.75 4.75 0 0 1-4.94-4.87zm10.63 4.66V666h4.92a2.42 2.42 0 0 1 2.69 2.38 2.08 2.08 0 0 1-1.61 2.14 2.26 2.26 0 0 1 1.79 2.3 2.46 2.46 0 0 1-2.72 2.52zm5.57-6.61a1 1 0 0 0-1.09-1h-2.49v2H790a1 1 0 0 0 1.06-1zm.18 3.81a1.09 1.09 0 0 0-1.21-1.09h-2.56v2.17H790c.8 0 1.25-.41 1.25-1.08zm3.4 4.72a9.9 9.9 0 0 0 1.43-5.32 10.07 10.07 0 0 0-1.43-5.35l1.12-.84a9.67 9.67 0 0 1 0 12.38zm-91.05 22.88l-4.45-6.14v6.09h-2v-9.29h2l4.33 5.87v-5.87h2v9.34zm3.88-4.66a4.88 4.88 0 1 1 4.87 4.83 4.69 4.69 0 0 1-4.87-4.83zm7.72 0a2.85 2.85 0 1 0-2.84 3.07 2.84 2.84 0 0 0 2.83-3.07zm3.99 4.66v-9.34h4.92a2.42 2.42 0 0 1 2.69 2.38 2.08 2.08 0 0 1-1.61 2.14 2.26 2.26 0 0 1 1.79 2.3 2.46 2.46 0 0 1-2.72 2.52zm5.58-6.61a1 1 0 0 0-1.09-1h-2.49v2h2.49a1 1 0 0 0 1.09-1zm.18 3.81a1.09 1.09 0 0 0-1.21-1.09h-2.56v2.17h2.56c.76 0 1.21-.42 1.21-1.08zm3.64-1.86a4.88 4.88 0 1 1 4.87 4.83 4.69 4.69 0 0 1-4.87-4.83zm7.72 0a2.85 2.85 0 1 0-2.84 3.07 2.84 2.84 0 0 0 2.84-3.07zm4 4.66v-9.34h3.7c2.93 0 5 1.86 5 4.68s-2 4.66-5 4.66zm6.61-4.66a2.73 2.73 0 0 0-2.93-2.93h-1.7v5.84H744a2.8 2.8 0 0 0 2.91-2.91zm6.6 4.66v-3.82l-3.6-5.52h2.27l2.33 3.75 2.3-3.75h2.27l-3.57 5.52v3.82zm16.68 0l-2.83-3.74-.73.87v2.87h-2v-9.34h2v4.2l3.31-4.17h2.45l-3.71 4.38 4 5zm10.36 0L776.1 694v6.09h-2v-9.29h2l4.33 5.87v-5.87h2v9.34zm3.87-4.66a4.88 4.88 0 1 1 4.87 4.83 4.69 4.69 0 0 1-4.87-4.83zm7.72 0a2.85 2.85 0 1 0-2.84 3.07 2.84 2.84 0 0 0 2.84-3.07zm11.15 4.66l-1.64-6.42-1.65 6.42h-2.12l-2.68-9.34h2.23l1.64 6.75 1.78-6.75h1.55l1.76 6.75 1.63-6.75h2.24l-2.66 9.34zm5.63-1.31l1.08-1.51a4.1 4.1 0 0 0 3 1.26c1.09 0 1.62-.5 1.62-1 0-1.65-5.38-.52-5.38-4 0-1.55 1.34-2.84 3.54-2.84a5.2 5.2 0 0 1 3.64 1.3l-1.11 1.46a4 4 0 0 0-2.72-1c-.85 0-1.33.38-1.33.94 0 1.48 5.37.49 5.37 4 0 1.71-1.22 3-3.74 3a5.33 5.33 0 0 1-3.97-1.61zm20.18 1.31l-.57-1.58h-4l-.59 1.58h-2.27l3.61-9.34h2.49l3.6 9.34zm-2.58-7.35l-1.46 4H828zm6.27 7.35v-9.34h4.92a2.42 2.42 0 0 1 2.69 2.38 2.08 2.08 0 0 1-1.61 2.14 2.26 2.26 0 0 1 1.79 2.3 2.46 2.46 0 0 1-2.72 2.52zm5.57-6.61a1 1 0 0 0-1.09-1h-2.49v2h2.49a1 1 0 0 0 1.1-1zm.18 3.81a1.09 1.09 0 0 0-1.21-1.09h-2.56v2.17h2.56c.77 0 1.22-.42 1.22-1.08zm3.65-1.86a4.88 4.88 0 1 1 4.87 4.83 4.69 4.69 0 0 1-4.87-4.83zm7.72 0a2.85 2.85 0 1 0-2.84 3.07 2.84 2.84 0 0 0 2.84-3.07zm4 .94v-5.62h2v5.55a2.19 2.19 0 1 0 4.38 0v-5.55h2v5.6c0 2.33-1.37 3.91-4.22 3.91s-4.16-1.6-4.16-3.89zm12.97 3.72v-7.59h-2.73v-1.75h7.45v1.75h-2.72v7.59zm-163.64 16.8l-2.34-3.42-2.35 3.42h-2.37l3.39-4.79-3.18-4.55h2.37l2.14 3.19 2.1-3.19h2.39l-3.18 4.54 3.39 4.8zm9.1 0l-1.83-3.32H709v3.32h-2v-9.34h4.37a2.91 2.91 0 0 1 3.14 3 2.68 2.68 0 0 1-2 2.77l2.1 3.56zm.2-6.33a1.27 1.27 0 0 0-1.4-1.26H709v2.52h2.09a1.27 1.27 0 0 0 1.45-1.26zm3.63 1.67a4.88 4.88 0 1 1 4.87 4.83 4.69 4.69 0 0 1-4.87-4.83zm7.72 0a2.85 2.85 0 1 0-2.84 3.07 2.84 2.84 0 0 0 2.84-3.07zm10.44 4.66l-4.45-6.09v6.09h-2v-9.34h2l4.33 5.87v-5.87h2v9.34zm3.88-4.66a4.88 4.88 0 1 1 4.87 4.83 4.69 4.69 0 0 1-4.87-4.83zm7.72 0a2.85 2.85 0 1 0-2.84 3.07 2.84 2.84 0 0 0 2.84-3.07zm3.37 3.35l1.08-1.51a4.1 4.1 0 0 0 3 1.26c1.09 0 1.62-.5 1.62-1 0-1.65-5.38-.52-5.38-4 0-1.55 1.34-2.84 3.54-2.84a5.2 5.2 0 0 1 3.64 1.3l-1.11 1.46a4 4 0 0 0-2.72-1c-.85 0-1.33.38-1.33.94 0 1.48 5.37.49 5.37 4 0 1.71-1.22 3-3.74 3a5.33 5.33 0 0 1-3.97-1.61z"/><path class="cls-18" d="M677.8 356.27v5.3h-2.27v-5.3h-4.7v-2.06h4.7v-5.09h2.27v5.09h4.67v2.06zm0 23.52v5.3h-2.27v-5.3h-4.7v-2.06h4.7v-5.09h2.27v5.09h4.67v2.06zm0 66.89V452h-2.27v-5.3h-4.7v-2.06h4.7v-5.09h2.27v5.09h4.67v2.06zm0-41.75v5.3h-2.27v-5.3h-4.7v-2.06h4.7v-5.09h2.27v5.09h4.67v2.06zm0 82.6v5.3h-2.27v-5.3h-4.7v-2.06h4.7v-5.09h2.27v5.09h4.67v2.06zm0 43.14V536h-2.27v-5.3h-4.7v-2.06h4.7v-5.09h2.27v5.09h4.67v2.06zm0 23.85v5.3h-2.27v-5.3h-4.7v-2.06h4.7v-5.09h2.27v5.09h4.67v2.06zm0 25.48v5.3h-2.27V580h-4.7v-2.06h4.7v-5.09h2.27v5.09h4.67V580zm0 24.82v5.3h-2.27v-5.3h-4.7v-2.06h4.7v-5.09h2.27v5.09h4.67v2.06zm0 25.06v5.3h-2.27v-5.3h-4.7v-2.06h4.7v-5.09h2.27v5.09h4.67v2.06zm0 24.22v5.3h-2.27v-5.3h-4.7V652h4.7v-5h2.27v5h4.67v2.06zm-6.88 41.9v-2.1h11.46v2.1z"/><path class="cls-4" d="M393.53 491.37l1.08-1.51a4.1 4.1 0 0 0 3 1.26c1.09 0 1.62-.5 1.62-1 0-1.65-5.38-.52-5.38-4 0-1.55 1.34-2.84 3.54-2.84a5.2 5.2 0 0 1 3.64 1.3l-1.12 1.42a4 4 0 0 0-2.72-1c-.85 0-1.33.38-1.33.94 0 1.48 5.37.49 5.37 4 0 1.71-1.22 3-3.74 3a5.33 5.33 0 0 1-3.96-1.57zm17.72 1.32v-6.54l-2.63 6.54h-.87l-2.63-6.54v6.54h-2v-9.34h2.79l2.27 5.65 2.27-5.65h2.8v9.34zm10.85 0l-.57-1.58h-4l-.59 1.58h-2.27l3.61-9.34h2.49l3.6 9.34zm-2.58-7.35l-1.46 4H421zm11.55 7.35l-1.83-3.32h-1.46v3.32h-2v-9.34h4.37a2.91 2.91 0 0 1 3.14 3 2.68 2.68 0 0 1-2 2.77l2.1 3.56zm.2-6.33a1.27 1.27 0 0 0-1.4-1.26h-2.09v2.52h2.09a1.27 1.27 0 0 0 1.4-1.26zm6.24 6.33v-7.59h-2.73v-1.75h7.45v1.75h-2.72v7.59zm10.24-4.69a4.75 4.75 0 0 1 5-4.83 4.28 4.28 0 0 1 3.91 2.28l-1.71.84a2.53 2.53 0 0 0-2.2-1.36 3.07 3.07 0 0 0 0 6.14 2.51 2.51 0 0 0 2.2-1.36l1.71.83a4.3 4.3 0 0 1-3.91 2.3 4.75 4.75 0 0 1-5-4.84zm10.18 0a4.88 4.88 0 1 1 4.87 4.83 4.69 4.69 0 0 1-4.87-4.83zm7.72 0a2.85 2.85 0 1 0-2.84 3.07 2.84 2.84 0 0 0 2.84-3.07zm10.44 4.69l-4.45-6.09v6.09h-2v-9.34h2l4.33 5.87v-5.87h2v9.34zm6.48 0v-7.59h-2.73v-1.75h7.45v1.75h-2.72v7.59zm11.83 0l-1.83-3.32h-1.46v3.32h-2v-9.34h4.37a2.91 2.91 0 0 1 3.14 3 2.68 2.68 0 0 1-2 2.77l2.1 3.56zm.2-6.33a1.27 1.27 0 0 0-1.4-1.26h-2.09v2.52h2.09a1.27 1.27 0 0 0 1.4-1.26zm10.53 6.33l-.57-1.58h-4l-.59 1.58h-2.27l3.61-9.34h2.49l3.6 9.34zm-2.58-7.35l-1.46 4H504zm5.82 2.66a4.75 4.75 0 0 1 5-4.83 4.28 4.28 0 0 1 3.91 2.28l-1.71.84a2.53 2.53 0 0 0-2.2-1.36 3.07 3.07 0 0 0 0 6.14 2.51 2.51 0 0 0 2.2-1.36l1.71.83a4.3 4.3 0 0 1-3.91 2.3 4.75 4.75 0 0 1-5-4.84zm12.79 4.69v-7.59h-2.73v-1.75h7.45v1.75h-2.72v7.59zm5.92-1.32l1.08-1.51a4.1 4.1 0 0 0 3 1.26c1.09 0 1.62-.5 1.62-1 0-1.65-5.38-.52-5.38-4 0-1.55 1.34-2.84 3.54-2.84a5.2 5.2 0 0 1 3.64 1.3l-1.13 1.42a4 4 0 0 0-2.72-1c-.85 0-1.33.38-1.33.94 0 1.48 5.37.49 5.37 4 0 1.71-1.22 3-3.74 3a5.33 5.33 0 0 1-3.95-1.57zm12.81 1.63l3.32-9.9h1.29l-3.32 9.9zm-139.28 16.49l-.61-1.59h-4l-.59 1.58h-2.27l3.61-9.34h2.49l3.6 9.34zm-2.61-7.36l-1.46 4h2.91zm11.58 7.36l-1.83-3.32h-1.46v3.32h-2v-9.34h4.37a2.91 2.91 0 0 1 3.14 3 2.68 2.68 0 0 1-2 2.77l2.1 3.56zm.2-6.33a1.27 1.27 0 0 0-1.4-1.26h-2.09v2.52h2.09a1.27 1.27 0 0 0 1.4-1.26zm4.08 6.33v-9.34h4.92a2.42 2.42 0 0 1 2.69 2.38 2.08 2.08 0 0 1-1.61 2.14 2.26 2.26 0 0 1 1.79 2.3 2.46 2.46 0 0 1-2.72 2.52zm5.58-6.61a1 1 0 0 0-1.09-1h-2.49v2h2.49a1 1 0 0 0 1.09-1zm.18 3.81a1.09 1.09 0 0 0-1.21-1.09h-2.56v2.17h2.56c.76-.01 1.21-.41 1.21-1.09zm4.08 2.8v-9.34h2v9.34zm6.56 0v-7.59h-2.73v-1.75H435v1.75h-2.72v7.59zm11.83 0l-1.83-3.32h-1.46v3.32h-2v-9.34h4.37a2.91 2.91 0 0 1 3.14 3 2.68 2.68 0 0 1-2 2.77l2.1 3.56zm.2-6.33a1.27 1.27 0 0 0-1.4-1.26h-2.09v2.52h2.09a1.27 1.27 0 0 0 1.39-1.26zm10.52 6.33l-.57-1.58h-4l-.59 1.58h-2.27l3.61-9.34h2.49l3.6 9.34zm-2.58-7.35l-1.46 4h2.91zm5.83 2.68a4.74 4.74 0 0 1 5-4.83 4.37 4.37 0 0 1 3.87 2.09l-1.65.9a2.65 2.65 0 0 0-2.21-1.22 3.07 3.07 0 0 0 0 6.14 3.15 3.15 0 0 0 2-.71v-1.12h-2.47v-1.74h4.4v3.59a5.18 5.18 0 0 1-4 1.77 4.76 4.76 0 0 1-4.94-4.87zm11.09 4.67v-9.34h6.61v1.75h-4.62v2h4.53v1.75h-4.53v2.12h4.62v1.75zm-66.54 24.8l-.61-1.59h-4l-.59 1.58h-2.27l3.61-9.34h2.49l3.6 9.34zm-2.61-7.36l-1.46 4h2.91zm12.74 7.36l-4.45-6.09v6.09h-2v-9.34h2l4.33 5.87v-5.87h2v9.34zm6.93 0v-3.82l-3.6-5.52h2.27l2.33 3.75 2.3-3.75h2.27l-3.57 5.52v3.82zm6.54-4.67a4.88 4.88 0 1 1 4.87 4.83 4.69 4.69 0 0 1-4.87-4.83zm7.72 0a2.85 2.85 0 1 0-2.84 3.07 2.84 2.84 0 0 0 2.84-3.07zm10.44 4.67l-4.45-6.09v6.09h-2v-9.34h2l4.33 5.87v-5.87h2v9.34zm4.32 0v-9.34h6.61v1.75h-4.62v2h4.52v1.75h-4.52v2.12h4.62v1.75zm12.42-4.67a4.75 4.75 0 0 1 5-4.83 4.28 4.28 0 0 1 3.91 2.28l-1.71.84a2.53 2.53 0 0 0-2.2-1.36 3.07 3.07 0 0 0 0 6.14 2.51 2.51 0 0 0 2.2-1.36l1.71.83a4.3 4.3 0 0 1-3.91 2.3 4.75 4.75 0 0 1-5-4.84zm17.07 4.67l-.57-1.58h-4l-.59 1.58h-2.27l3.61-9.34h2.49l3.6 9.34zm-2.58-7.35l-1.46 4h2.91zm12.72 7.35l-4.46-6.09v6.09h-2v-9.34h2l4.33 5.87v-5.87h2v9.34zm8.01-4.67a4.75 4.75 0 0 1 5-4.83 4.28 4.28 0 0 1 3.91 2.28l-1.71.84a2.53 2.53 0 0 0-2.2-1.36 3.07 3.07 0 0 0 0 6.14 2.51 2.51 0 0 0 2.2-1.36l1.71.83a4.3 4.3 0 0 1-3.91 2.3 4.75 4.75 0 0 1-5-4.84zm15.91 4.67l-1.83-3.29h-1.46v3.32h-2v-9.34h4.37a2.91 2.91 0 0 1 3.14 3 2.68 2.68 0 0 1-2 2.77l2.1 3.56zm.2-6.33a1.27 1.27 0 0 0-1.4-1.26h-2.09v2.52H509a1.27 1.27 0 0 0 1.44-1.22zm4.08 6.33v-9.34h6.61v1.75h-4.62v2H521v1.75h-4.53v2.12h4.62v1.75zm15.17 0l-.57-1.58h-4l-.59 1.58h-2.27l3.61-9.34h2.49l3.6 9.34zm-2.58-7.35l-1.46 4h2.91zm8.43 7.35v-7.59h-2.73v-1.75h7.45v1.75h-2.72v7.59zm6.55 0v-9.34h6.61v1.75h-4.62v2h4.52v1.75h-4.52v2.12h4.62v1.75zm12.42-4.67a4.88 4.88 0 1 1 4.87 4.83 4.69 4.69 0 0 1-4.87-4.83zm7.72 0a2.85 2.85 0 1 0-2.84 3.07 2.84 2.84 0 0 0 2.83-3.07zm11.14 4.67l-1.64-6.42-1.62 6.42H568l-2.68-9.34h2.23l1.64 6.75 1.78-6.75h1.55l1.76 6.75 1.63-6.75h2.24l-2.66 9.34zm12.71 0l-4.46-6.09v6.09h-2v-9.34h2l4.33 5.87v-5.87h2v9.34zm-189.76 16.8v-7.59h-2.73v-1.75H401v1.75h-2.72v7.59zm6.1-4.67a4.88 4.88 0 1 1 4.87 4.83 4.69 4.69 0 0 1-4.87-4.83zm7.72 0a2.85 2.85 0 1 0-2.84 3.07 2.84 2.84 0 0 0 2.84-3.07zm9.55 4.67l-2.83-3.74-.73.87v2.87h-2v-9.34h2v4.17l3.31-4.17h2.45l-3.71 4.38 4 5zm3.91 0v-9.34h6.61v1.75h-4.62v2h4.52v1.75h-4.52v2.12h4.62v1.75zm15.17 0l-4.45-6.09v6.09h-2v-9.34h2l4.33 5.87v-5.87h2v9.34zm3.69-1.32l1.08-1.51a4.1 4.1 0 0 0 3 1.26c1.09 0 1.62-.5 1.62-1 0-1.65-5.38-.52-5.38-4 0-1.55 1.34-2.84 3.54-2.84a5.2 5.2 0 0 1 3.64 1.3l-1.11 1.46a4 4 0 0 0-2.72-1c-.85 0-1.33.38-1.33.94 0 1.48 5.37.49 5.37 4 0 1.71-1.22 3-3.74 3a5.33 5.33 0 0 1-3.97-1.61zm-48.3 26.12v-9.34h3.68c2.93 0 5 1.86 5 4.68s-2 4.66-5 4.66zm6.61-4.66a2.73 2.73 0 0 0-2.93-2.93h-1.7v5.84h1.7a2.8 2.8 0 0 0 2.94-2.92zm4.01 4.66v-9.34h6.61v1.75h-4.62v2h4.53v1.7h-4.53v2.12h4.62v1.75zm8.22-4.67a4.75 4.75 0 0 1 5-4.83 4.28 4.28 0 0 1 3.91 2.28l-1.71.84a2.53 2.53 0 0 0-2.2-1.36 3.07 3.07 0 0 0 0 6.14 2.51 2.51 0 0 0 2.2-1.36l1.71.83a4.3 4.3 0 0 1-3.91 2.3 4.75 4.75 0 0 1-5-4.84zm10.68 4.67v-9.34h6.61v1.75h-4.62v2h4.53v1.7h-4.53v2.12h4.62v1.75zm15.16 0l-4.46-6.09v6.09h-2v-9.34h2l4.33 5.87v-5.87h2v9.34zm6.48 0v-7.59h-2.73v-1.75H450v1.75h-2.72v7.59zm11.83 0l-1.83-3.32h-1.46v3.32h-2v-9.34h4.37a2.91 2.91 0 0 1 3.14 3 2.68 2.68 0 0 1-2 2.77l2.1 3.56zm.2-6.33a1.27 1.27 0 0 0-1.4-1.26h-2.09v2.52h2.09a1.27 1.27 0 0 0 1.4-1.26zm10.53 6.33l-.57-1.58h-4l-.59 1.58h-2.27l3.61-9.34h2.49l3.6 9.34zm-2.58-7.35l-1.46 4h2.91zm6.27 7.35v-9.34h2v7.59h4v1.75zm7.88 0v-9.34h2v9.34zm4.06 0v-1.61l4.41-6h-4.41v-1.75h7v1.6l-4.41 6h4.51v1.75zm9.19 0v-9.34h6.61v1.75h-4.62v2h4.52v1.7h-4.52v2.12h4.62v1.75zm8.72 0v-9.34h3.68c2.93 0 5 1.86 5 4.68s-2 4.66-5 4.66zm6.61-4.66a2.73 2.73 0 0 0-2.93-2.93h-1.7v5.84h1.7a2.8 2.8 0 0 0 2.9-2.92zm14.59 4.66l-.62-1.59h-4l-.59 1.58h-2.27l3.61-9.34h2.49l3.6 9.34zm-2.62-7.36l-1.46 4h2.91zm6.31 7.36v-9.34h4.37a3 3 0 1 1 0 6h-2.38v3.32zm5.48-6.33a1.25 1.25 0 0 0-1.37-1.26h-2.12v2.52h2.12a1.26 1.26 0 0 0 1.37-1.26zm3.82 6.33v-9.34H540a3 3 0 1 1 0 6h-2.4v3.32zm5.48-6.33a1.25 1.25 0 0 0-1.37-1.26h-2.12v2.52h2.11a1.26 1.26 0 0 0 1.37-1.26zm3.81 6.33v-9.34h2v7.59h4v1.75zm7.89 0v-9.34h2v9.34zm3.94-4.67a4.75 4.75 0 0 1 5-4.83 4.28 4.28 0 0 1 3.91 2.28l-1.71.84a2.53 2.53 0 0 0-2.2-1.36 3.07 3.07 0 0 0 0 6.14 2.51 2.51 0 0 0 2.2-1.36l1.71.83a4.3 4.3 0 0 1-3.91 2.3 4.75 4.75 0 0 1-5-4.84zm17.07 4.67l-.57-1.58h-4l-.59 1.58h-2.27l3.61-9.34h2.49l3.6 9.34zm-2.58-7.35l-1.46 4h2.91zm8.43 7.35v-7.59h-2.73v-1.75h7.45v1.75h-2.72v7.59zm6.55 0v-9.34h2v9.34zm3.95-4.67a4.88 4.88 0 1 1 4.87 4.83 4.69 4.69 0 0 1-4.87-4.83zm7.72 0a2.85 2.85 0 1 0-2.84 3.07 2.84 2.84 0 0 0 2.84-3.07zm10.44 4.67l-4.46-6.09v6.09h-2v-9.34h2l4.33 5.87v-5.87h2v9.34zm3.69-1.32l1.08-1.51a4.1 4.1 0 0 0 3 1.26c1.09 0 1.62-.5 1.62-1 0-1.65-5.38-.52-5.38-4 0-1.55 1.34-2.84 3.54-2.84a5.2 5.2 0 0 1 3.64 1.3l-1.11 1.46a4 4 0 0 0-2.72-1c-.85 0-1.33.38-1.33.94 0 1.48 5.37.49 5.37 4 0 1.71-1.22 3-3.74 3a5.33 5.33 0 0 1-3.97-1.61zm-209.71 26.12v-6.54l-2.63 6.54h-.87l-2.63-6.54v6.54h-2v-9.34H397l2.27 5.65 2.27-5.65h2.8v9.34zm10.85 0l-.57-1.58h-4l-.59 1.58h-2.28l3.61-9.34h2.49l3.6 9.34zm-2.58-7.35l-1.46 4h2.9zm11.55 7.35l-1.83-3.32h-1.46v3.32h-2v-9.34h4.37a2.91 2.91 0 0 1 3.14 3 2.68 2.68 0 0 1-2 2.77l2.1 3.56zm.2-6.33a1.27 1.27 0 0 0-1.4-1.26h-2.09v2.52h2.09a1.27 1.27 0 0 0 1.4-1.26zm9.63 6.33l-2.83-3.74-.73.87v2.87h-2v-9.34h2v4.17l3.31-4.17h2.45l-3.71 4.38 4 5zm3.92 0v-9.34h6.61v1.75h-4.62v2h4.52v1.75h-4.52v2.12h4.62v1.75zm10.88 0v-7.59H444v-1.75h7.45v1.75h-2.72v7.59zm5.92-1.32l1.08-1.51a4.1 4.1 0 0 0 3 1.26c1.09 0 1.62-.5 1.62-1 0-1.65-5.38-.52-5.38-4 0-1.55 1.34-2.84 3.54-2.84a5.2 5.2 0 0 1 3.64 1.3L459 594a4 4 0 0 0-2.72-1c-.85 0-1.33.38-1.33.94 0 1.48 5.37.49 5.37 4 0 1.71-1.22 3-3.74 3a5.33 5.33 0 0 1-3.92-1.57zm13.28-3.37a4.88 4.88 0 1 1 4.87 4.83 4.69 4.69 0 0 1-4.87-4.83zm7.72 0a2.85 2.85 0 1 0-2.84 3.07 2.84 2.84 0 0 0 2.84-3.07zm4 4.69v-9.34h6.61v1.75h-4.62v2h4.52v1.75h-4.52v3.87zm19.14 0l-.57-1.58h-4l-.59 1.58h-2.27l3.61-9.34h2.49l3.6 9.34zm-2.58-7.35l-1.46 4h2.91zm6.27 7.35v-9.34h4.37a3 3 0 1 1 0 6h-2.38v3.32zm5.48-6.33a1.25 1.25 0 0 0-1.37-1.26h-2.11v2.52h2.11a1.26 1.26 0 0 0 1.4-1.26zm3.82 6.33v-9.34h4.37a3 3 0 1 1 0 6h-2.38v3.32zm5.48-6.33a1.25 1.25 0 0 0-1.37-1.26h-2.11v2.52h2.11a1.26 1.26 0 0 0 1.37-1.26zm3.82 6.33v-9.34h2v7.59h4v1.75zm7.91 0v-9.34h2v9.34zm3.92-4.69a4.75 4.75 0 0 1 5-4.83 4.28 4.28 0 0 1 3.91 2.28l-1.71.84a2.53 2.53 0 0 0-2.2-1.36 3.07 3.07 0 0 0 0 6.14 2.51 2.51 0 0 0 2.2-1.36l1.71.83a4.3 4.3 0 0 1-3.91 2.3 4.75 4.75 0 0 1-5-4.84zm17.08 4.69l-.57-1.58h-4l-.59 1.58h-2.27l3.61-9.34h2.49l3.6 9.34zm-2.58-7.35l-1.46 4h2.91zm8.42 7.35v-7.59h-2.74v-1.75h7.45v1.75h-2.72v7.59zm6.55 0v-9.34h2v9.34zm3.94-4.69a4.88 4.88 0 1 1 4.87 4.83 4.69 4.69 0 0 1-4.87-4.83zm7.72 0a2.85 2.85 0 1 0-2.84 3.07 2.84 2.84 0 0 0 2.84-3.07zm10.45 4.69l-4.5-6.1v6.09h-2v-9.34h2l4.33 5.87v-5.87h2v9.34zm-188.97 23.48l1.08-1.51a4.1 4.1 0 0 0 3 1.26c1.09 0 1.62-.5 1.62-1 0-1.65-5.38-.52-5.38-4 0-1.55 1.34-2.84 3.54-2.84a5.2 5.2 0 0 1 3.64 1.3l-1.11 1.46a4 4 0 0 0-2.72-1c-.85 0-1.33.38-1.33.94 0 1.48 5.37.49 5.37 4 0 1.71-1.22 3-3.74 3a5.33 5.33 0 0 1-3.97-1.61zm9.14-3.35a4.75 4.75 0 0 1 5-4.83 4.28 4.28 0 0 1 3.91 2.28l-1.71.84a2.53 2.53 0 0 0-2.2-1.36 3.07 3.07 0 0 0 0 6.14 2.51 2.51 0 0 0 2.2-1.36l1.71.83a4.3 4.3 0 0 1-3.91 2.3 4.75 4.75 0 0 1-5-4.84zm17.08 4.67l-.57-1.58h-4l-.59 1.58h-2.27l3.61-9.34h2.49l3.6 9.34zm-2.58-7.35l-1.46 4h2.91zm6.27 7.35v-9.34h2v7.59h4v1.75zm14.32 0l-.57-1.58h-4l-.59 1.58h-2.27l3.61-9.34h2.49l3.6 9.34zm-2.58-7.35l-1.46 4h2.91zm6.28 7.35v-9.34h4.92a2.42 2.42 0 0 1 2.69 2.38 2.08 2.08 0 0 1-1.61 2.14 2.26 2.26 0 0 1 1.79 2.3 2.46 2.46 0 0 1-2.72 2.52zm5.58-6.61a1 1 0 0 0-1.09-1h-2.49v2h2.49a1 1 0 0 0 1.05-1zm.18 3.81a1.09 1.09 0 0 0-1.21-1.09h-2.56v2.17H446c.76-.01 1.21-.41 1.21-1.09zm4.08 2.8v-9.34h2v9.34zm4.39 0v-9.34h2v7.59h3.95v1.75zm7.89 0v-9.34h2v9.34zm6.55 0v-7.59h-2.73v-1.75h7.45v1.75h-2.72v7.59zm9.16 0v-3.82l-3.6-5.52H478l2.33 3.75 2.3-3.75h2.27l-3.57 5.52v3.82zm-78.72 24.8v-3.92h-4.41v3.92h-2v-9.34h2v3.67h4.41v-3.67h2v9.34zm4.43 0v-9.34h2v9.34zm3.91-4.67a4.74 4.74 0 0 1 5-4.83 4.37 4.37 0 0 1 3.87 2.09l-1.65.9a2.65 2.65 0 0 0-2.21-1.22 3.07 3.07 0 0 0 0 6.14 3.15 3.15 0 0 0 2-.71v-1.12h-2.52v-1.74h4.45v3.59a5.18 5.18 0 0 1-4 1.76 4.76 4.76 0 0 1-4.94-4.86zm17.48 4.67v-3.92H422v3.92h-2v-9.34h2v3.67h4.41v-3.67h2v9.34zm11.16 0l-3.61-9.34h2.27l2.59 7.19 2.58-7.19h2.27l-3.6 9.34zm7.07-4.67a4.88 4.88 0 1 1 4.87 4.83 4.69 4.69 0 0 1-4.87-4.83zm7.72 0a2.85 2.85 0 1 0-2.84 3.07 2.84 2.84 0 0 0 2.84-3.07zm4 4.67v-9.34h2v7.59h3.95v1.75zm14.32 0l-.57-1.58h-4l-.59 1.58h-2.27l3.61-9.34h2.49l3.6 9.34zm-2.58-7.35l-1.46 4h2.91zm8.43 7.35v-7.59h-2.73v-1.75h7.45v1.75h-2.72v7.59zm6.55 0v-9.34h2v9.34zm4.4 0v-9.34h2v7.59h4v1.75zm7.88 0v-9.34h2v9.34zm6.55 0v-7.59h-2.73v-1.75h7.45v1.75h-2.71v7.59zm9.11 0v-3.82l-3.6-5.52h2.27l2.33 3.75 2.3-3.75h2.27l-3.57 5.51v3.82zm10.67-2.64v-1.51h10.83v1.51zm16.87-1.09v-5.62h2v5.55a2.19 2.19 0 1 0 4.38 0v-5.55h2v5.6c0 2.33-1.37 3.91-4.22 3.91s-4.16-1.59-4.16-3.89zm17.27 3.73l-4.45-6.09v6.09h-2v-9.34h2l4.33 5.87v-5.87h2v9.34zm3.69-1.29l1.08-1.51a4.1 4.1 0 0 0 3 1.26c1.09 0 1.62-.5 1.62-1 0-1.65-5.38-.52-5.38-4 0-1.55 1.34-2.84 3.54-2.84a5.2 5.2 0 0 1 3.64 1.3l-1.11 1.46a4 4 0 0 0-2.72-1c-.85 0-1.33.38-1.33.94 0 1.48 5.37.49 5.37 4 0 1.71-1.22 3-3.74 3a5.33 5.33 0 0 1-3.97-1.61zm11.75 1.29v-7.59h-2.73v-1.75H576v1.75h-2.72v7.59zm12.99 0l-.57-1.58h-4l-.59 1.58h-2.28l3.61-9.34h2.49l3.6 9.34zm-2.58-7.35l-1.46 4h2.91zm6.28 7.35v-9.34h4.92a2.42 2.42 0 0 1 2.69 2.38 2.08 2.08 0 0 1-1.61 2.14 2.26 2.26 0 0 1 1.79 2.3 2.46 2.46 0 0 1-2.72 2.52zm5.57-6.61a1 1 0 0 0-1.09-1h-2.49v2h2.49a1 1 0 0 0 1.09-1zm.18 3.81a1.09 1.09 0 0 0-1.21-1.09h-2.56v2.17h2.56c.76-.01 1.21-.41 1.21-1.09zm4.09 2.8v-9.34h2v7.59h3.95v1.75zm7.88 0v-9.34h6.61v1.75h-4.62v2h4.53v1.75h-4.53v2.12h4.62v1.75zm-211.5 24.8v-9.34h4.92a2.42 2.42 0 0 1 2.69 2.38 2.08 2.08 0 0 1-1.61 2.14 2.26 2.26 0 0 1 1.79 2.3 2.46 2.46 0 0 1-2.72 2.52zm5.57-6.61a1 1 0 0 0-1.09-1h-2.49v2h2.49a1 1 0 0 0 1.1-1zm.18 3.81a1.09 1.09 0 0 0-1.21-1.09h-2.56v2.17h2.56c.77-.01 1.22-.37 1.22-1.08zm10.54 2.8l-.57-1.58h-4l-.59 1.58H403l3.61-9.34h2.49l3.6 9.34zm-2.58-7.35l-1.46 4h2.91zm5.82 2.68a4.75 4.75 0 0 1 5-4.83 4.28 4.28 0 0 1 3.91 2.28l-1.71.84a2.53 2.53 0 0 0-2.2-1.36 3.07 3.07 0 0 0 0 6.14 2.51 2.51 0 0 0 2.2-1.36l1.71.83a4.3 4.3 0 0 1-3.91 2.3 4.75 4.75 0 0 1-5-4.84zm16.18 4.67l-2.87-3.74-.73.87v2.87h-2v-9.34h2v4.17l3.31-4.17h2.45l-3.71 4.38 4 5zm3.91 0v-9.34h6.61v1.75h-4.62v2h4.52v1.75h-4.52v2.12h4.62v1.75zm8.73 0v-9.34h3.68c2.93 0 5 1.86 5 4.68s-2 4.66-5 4.66zm6.61-4.66a2.73 2.73 0 0 0-2.93-2.93h-1.7v5.84h1.7a2.8 2.8 0 0 0 2.93-2.92zm8.14 4.66v-9.34h4.92a2.42 2.42 0 0 1 2.69 2.38 2.08 2.08 0 0 1-1.61 2.14 2.26 2.26 0 0 1 1.79 2.3 2.46 2.46 0 0 1-2.72 2.52zm5.57-6.61a1 1 0 0 0-1.09-1h-2.49v2h2.49a1 1 0 0 0 1.1-1zm.18 3.81a1.09 1.09 0 0 0-1.21-1.09h-2.56v2.17h2.56c.77-.01 1.2-.37 1.2-1.08zm6.7 2.8v-3.82l-3.6-5.52h2.27l2.33 3.75 2.3-3.75h2.27l-3.57 5.52v3.82zm17.57 0l-4.45-6.09v6.09h-2v-9.34h2l4.33 5.87v-5.87h2v9.34zm3.88-4.67a4.88 4.88 0 1 1 4.87 4.83 4.69 4.69 0 0 1-4.87-4.83zm7.72 0a2.85 2.85 0 1 0-2.84 3.07 2.84 2.84 0 0 0 2.83-3.07zm6.12 4.67v-7.59h-2.7v-1.75h7.45v1.75H507v7.59zm13 0v-3.92h-4.41v3.92h-2v-9.34h2v3.67H518v-3.67h2v9.34zm4.38 0v-9.34h2v9.34zm10.83 0l-4.45-6.09v6.09h-2v-9.34h2l4.33 5.87v-5.87h2v9.34zm3.88-4.67a4.74 4.74 0 0 1 5-4.83 4.37 4.37 0 0 1 3.87 2.09l-1.65.9a2.65 2.65 0 0 0-2.21-1.22 3.07 3.07 0 0 0 0 6.14 3.15 3.15 0 0 0 2-.71v-1.12h-2.47v-1.74H546v3.59a5.18 5.18 0 0 1-4 1.76 4.76 4.76 0 0 1-4.91-4.86z"/><path class="cls-18" d="M374.82 488.81v5.3h-2.27v-5.3h-4.7v-2.06h4.7v-5.09h2.27v5.09h4.67v2.06zm0 41.43v5.3h-2.27v-5.3h-4.7v-2.06h4.7v-5.09h2.27v5.09h4.67v2.06zm0 41.68v5.3h-2.27v-5.3h-4.7v-2.06h4.7v-5.09h2.27v5.09h4.67v2.06zm0 24.83V602h-2.27v-5.3h-4.7v-2.06h4.7v-5.04h2.27v5.09h4.67v2.06zm-6.88 24.68v-2.1h11.46v2.1zm0 25.4v-2.1h11.46v2.1zm0 24.55v-2.1h11.46v2.1z"/><path class="cls-4" d="M1335.63 128.71l-2.34-9.16-2.32 9.16h-3l-3.82-13.34h3.18l2.34 9.64 2.54-9.64h2.22l2.52 9.64 2.32-9.64h3.2l-3.8 13.34zm8.96 0v-13.34h9.41v2.5h-6.6v2.82h6.46v2.5h-6.46v3h6.6v2.5zm17.74-6.71a6.78 6.78 0 0 1 7.1-6.9 6.11 6.11 0 0 1 5.58 3.26l-2.44 1.2a3.61 3.61 0 0 0-3.14-1.94 4.39 4.39 0 0 0 0 8.76 3.58 3.58 0 0 0 3.14-1.94l2.44 1.18a6.15 6.15 0 0 1-5.58 3.28 6.78 6.78 0 0 1-7.1-6.9zm24.38 6.71l-.82-2.26h-5.72l-.84 2.26h-3.24l5.16-13.34h3.56l5.14 13.34zm-3.68-10.5l-2.08 5.74h4.16zm18.16 10.5l-6.36-8.7v8.7H1392v-13.34h2.92l6.18 8.38v-8.38h2.84v13.34zm11.46-6.71a7 7 0 1 1 7 6.9 6.7 6.7 0 0 1-7-6.9zm11 0a4 4 0 0 0-4.06-4.38c-2.46 0-4 1.88-4 4.38s1.58 4.38 4 4.38a4.06 4.06 0 0 0 4.08-4.38zm5.74 6.71v-13.34h6.24a4.3 4.3 0 1 1 0 8.6h-3.4v4.74zm7.82-9a1.79 1.79 0 0 0-2-1.8h-3v3.6h3a1.8 1.8 0 0 0 2-1.84zm5.46 9v-13.34h9.44v2.5h-6.6v2.82h6.49v2.5h-6.46v3h6.6v2.5zm21.66 0L1458 120v8.7h-2.84v-13.33h2.92l6.18 8.38v-8.38h2.84v13.34zm-186.15 24v-10.84h-3.9v-2.5h10.64v2.5H1281v10.84zm18.5 0v-5.6h-6.3v5.6h-2.84v-13.34h2.84v5.24h6.3v-5.24h2.86v13.34zm6.32 0v-13.34h9.44v2.5h-6.6v2.82h6.46v2.5h-6.46v3h6.6v2.5zm18.34 0v-13.34h5.26c4.18 0 7.08 2.66 7.08 6.68s-2.9 6.66-7.08 6.66zm9.44-6.66a3.9 3.9 0 0 0-4.18-4.18h-2.42v8.34h2.42a4 4 0 0 0 4.19-4.21zm5.08-.05a7 7 0 1 1 7 6.9 6.7 6.7 0 0 1-7-6.9zm11 0a4 4 0 0 0-4.06-4.38c-2.46 0-4 1.88-4 4.38s1.58 4.38 4 4.38a4.06 4.06 0 0 0 4.08-4.38zm5.14 0a7 7 0 1 1 7 6.9 6.7 6.7 0 0 1-7-6.9zm11 0a4 4 0 0 0-4.06-4.38c-2.46 0-4 1.88-4 4.38s1.58 4.38 4 4.38A4.06 4.06 0 0 0 1363 146zm13.24 6.71l-2.62-4.74h-2.08v4.74h-2.84v-13.34h6.24a4.16 4.16 0 0 1 4.48 4.3 3.83 3.83 0 0 1-2.92 4l3 5.08zm.28-9a1.81 1.81 0 0 0-2-1.8h-3v3.6h3a1.81 1.81 0 0 0 2-1.84zm14.84 9v-10.84h-3.9v-2.5h10.64v2.5h-3.88v10.84zm8.72-6.71a7 7 0 1 1 7 6.9 6.7 6.7 0 0 1-7-6.9zm11 0a4 4 0 0 0-4.06-4.38c-2.46 0-4 1.88-4 4.38s1.58 4.38 4 4.38a4.06 4.06 0 0 0 4.08-4.38zm14.74 6.71v-10.84h-3.9v-2.5h10.64v2.5h-3.88v10.84zm18.5 0v-5.6H1438v5.6h-2.84v-13.34h2.84v5.24h6.3v-5.24h2.86v13.34zm6.28 0v-13.34h9.4v2.5h-6.6v2.82h6.46v2.5h-6.46v3h6.6v2.5zm25.92 0l-2.62-4.71h-2.08v4.74H1469v-13.37h6.24a4.16 4.16 0 0 1 4.48 4.3 3.83 3.83 0 0 1-2.92 4l3 5.08zm.28-9a1.81 1.81 0 0 0-2-1.8h-3v3.6h3a1.81 1.81 0 0 0 2-1.84zm5.84 9v-13.34h9.44v2.5h-6.6v2.82h6.46v2.5h-6.46v3h6.6v2.5zm21.66 0l-.82-2.26h-5.72l-.84 2.26h-3.24l5.16-13.34h3.56l5.14 13.34zm-3.68-10.5l-2.08 5.74h4.16zm8.96 10.5v-13.34h2.84v10.84h5.64v2.5zm-184.27 24l-2.34-9.16-2.32 9.16h-3l-3.82-13.34h3.17l2.34 9.64 2.54-9.64h2.22l2.52 9.64 2.32-9.64h3.2l-3.8 13.34zm8.32-6.71a7 7 0 1 1 7 6.9 6.7 6.7 0 0 1-7-6.9zm11 0a4 4 0 0 0-4.06-4.38c-2.46 0-4 1.88-4 4.38s1.58 4.38 4 4.38a4.06 4.06 0 0 0 4.08-4.38zm13.28 6.71l-2.62-4.74h-2.08v4.74h-2.84v-13.34h6.24a4.16 4.16 0 0 1 4.48 4.3 3.83 3.83 0 0 1-2.92 4l3 5.08zm.28-9a1.81 1.81 0 0 0-2-1.8h-3v3.6h3a1.81 1.81 0 0 0 2-1.84zm5.81 9v-13.34h2.84v10.84h5.64v2.5zm11.29 0v-13.34h5.26c4.18 0 7.08 2.66 7.08 6.68s-2.9 6.66-7.08 6.66zm9.44-6.66a3.9 3.9 0 0 0-4.18-4.18h-2.42v8.34h2.42a4 4 0 0 0 4.18-4.21zm23.27 6.66v-9.34l-3.76 9.34H1403l-3.76-9.34v9.34h-2.84v-13.34h4l3.24 8.06 3.24-8.06h4v13.34zm15.47 0l-.82-2.26h-5.72l-.84 2.26h-3.24l5.16-13.34h3.56l5.14 13.34zm-3.68-10.5l-2.08 5.74h4.16zm16.5 10.5l-2.62-4.74h-2.08v4.74h-2.84v-13.34h6.25a4.16 4.16 0 0 1 4.48 4.3 3.83 3.83 0 0 1-2.92 4l3 5.08zm.28-9a1.81 1.81 0 0 0-2-1.8h-3v3.6h3a1.81 1.81 0 0 0 2-1.84zm13.76 9l-4-5.34-1 1.24v4.1h-2.84v-13.34h2.84v6l4.72-6h3.5l-5.3 6.26 5.66 7.08zm5.6 0v-13.34h9.44v2.5h-6.6v2.82h6.46v2.5h-6.46v3h6.6v2.5zm15.54 0v-10.84h-3.9v-2.5h10.64v2.5h-3.88v10.84z"/><circle class="cls-19" cx="1397.51" cy="304.05" r="96"/><path class="cls-4" d="M1369.12 277.69v-20h10.53c3.81 0 5.76 2.43 5.76 5.1a4.45 4.45 0 0 1-3.45 4.59 4.85 4.85 0 0 1 3.84 4.92c0 3-2 5.4-5.82 5.4zm11.94-14.16a2.15 2.15 0 0 0-2.34-2.19h-5.34v4.35h5.34a2.13 2.13 0 0 0 2.34-2.16zm.39 8.16a2.34 2.34 0 0 0-2.58-2.34h-5.49V274h5.49c1.62 0 2.58-.87 2.58-2.31zm7.55 6v-3.33c8.19-6.06 10.59-8.13 10.59-10.59 0-1.74-1.59-2.61-3.24-2.61a7.15 7.15 0 0 0-5.37 2.31l-2.43-2.82a10.19 10.19 0 0 1 7.71-3.27c4.26 0 7.65 2.4 7.65 6.39 0 3.42-2.82 6.39-8 10.17h8.16v3.75zm19.21 0v-20h10.53c3.81 0 5.76 2.43 5.76 5.1a4.45 4.45 0 0 1-3.45 4.59 4.85 4.85 0 0 1 3.84 4.92c0 3-2 5.4-5.82 5.4zm11.94-14.16a2.15 2.15 0 0 0-2.34-2.19h-5.34v4.35h5.34a2.13 2.13 0 0 0 2.34-2.16zm.39 8.16a2.34 2.34 0 0 0-2.58-2.34h-5.49V274h5.53c1.58 0 2.54-.87 2.54-2.31zm-51.78 43.16v-20h10.53c3.81 0 5.76 2.43 5.76 5.1a4.45 4.45 0 0 1-3.45 4.59 4.85 4.85 0 0 1 3.84 4.92c0 3-2 5.4-5.82 5.4zm11.94-14.16a2.15 2.15 0 0 0-2.34-2.19H1373v4.35h5.34a2.13 2.13 0 0 0 2.36-2.16zm.39 8.16a2.34 2.34 0 0 0-2.58-2.34H1373v4.65h5.49c1.64 0 2.6-.87 2.6-2.31zm7.59 6v-3.33c8.19-6.06 10.59-8.13 10.59-10.59 0-1.74-1.59-2.61-3.24-2.61a7.15 7.15 0 0 0-5.37 2.31l-2.43-2.82a10.19 10.19 0 0 1 7.71-3.27c4.26 0 7.65 2.4 7.65 6.39 0 3.42-2.82 6.39-8 10.17h8.16v3.75zm18.21-9.99c0-6.15 4.65-10.35 10.65-10.35a9.16 9.16 0 0 1 8.37 4.89l-3.66 1.8a5.42 5.42 0 0 0-4.71-2.91 6.58 6.58 0 0 0 0 13.14 5.36 5.36 0 0 0 4.71-2.91l3.66 1.77a9.21 9.21 0 0 1-8.37 4.92c-6 0-10.65-4.21-10.65-10.35zm-38.6 35.51c0-6.15 4.65-10.35 10.65-10.35a9.16 9.16 0 0 1 8.37 4.89l-3.66 1.8a5.42 5.42 0 0 0-4.71-2.91 6.58 6.58 0 0 0 0 13.14 5.36 5.36 0 0 0 4.71-2.91l3.66 1.77a9.21 9.21 0 0 1-8.37 4.92c-6 0-10.65-4.2-10.65-10.35zm21.6 9.99V347c8.19-6.06 10.59-8.13 10.59-10.59 0-1.74-1.59-2.61-3.24-2.61a7.15 7.15 0 0 0-5.37 2.31l-2.43-2.82a10.19 10.19 0 0 1 7.71-3.27c4.26 0 7.65 2.4 7.65 6.39 0 3.42-2.82 6.39-8 10.17h8.16v3.75zm17.36-9.99c0-6.15 4.65-10.35 10.65-10.35a9.16 9.16 0 0 1 8.37 4.89l-3.66 1.8a5.42 5.42 0 0 0-4.71-2.91 6.58 6.58 0 0 0 0 13.14 5.36 5.36 0 0 0 4.71-2.91l3.66 1.77a9.21 9.21 0 0 1-8.37 4.92c-6 0-10.65-4.2-10.65-10.35z"/><path class="cls-20" d="M1328.31 619.89v-8.67h4.06a2.8 2.8 0 1 1 0 5.59h-2.21v3.08zm5.08-5.88a1.16 1.16 0 0 0-1.27-1.17h-2v2.34h2a1.17 1.17 0 0 0 1.27-1.18zm8.45 5.88l-1.7-3.08h-1.35v3.08h-1.85v-8.67h4.06a2.7 2.7 0 0 1 2.91 2.79 2.49 2.49 0 0 1-1.9 2.57l1.95 3.3zm.16-5.89a1.18 1.18 0 0 0-1.3-1.17h-1.94v2.34h1.94a1.18 1.18 0 0 0 1.3-1.17zm3.82 5.89v-8.67h6.18v1.63h-4.29v1.83h4.2v1.63h-4.2v2h4.29v1.63zm7.51-1.23l1-1.4a3.8 3.8 0 0 0 2.76 1.17c1 0 1.51-.47 1.51-1 0-1.53-5-.48-5-3.74 0-1.44 1.25-2.64 3.29-2.64a4.82 4.82 0 0 1 3.38 1.21l-1 1.35a3.72 3.72 0 0 0-2.52-.95c-.79 0-1.24.35-1.24.87 0 1.38 5 .46 5 3.69 0 1.59-1.13 2.78-3.47 2.78a4.94 4.94 0 0 1-3.71-1.34zm14.89 1.23l-.53-1.47H1364l-.55 1.47h-2.11l3.35-8.67h2.31l3.34 8.67zm-2.39-6.83l-1.35 3.73h2.7zm5.82 6.83v-8.67h1.85v7h3.67v1.63zm7.35 0v-8.67h6.14v1.63h-4.29v1.83h4.2v1.63h-4.2v2h4.29v1.63zm17.57 0l-2.17-3.17-2.18 3.17H1390l3.15-4.45-3-4.22h2.2l2 3 2-3h2.22l-3 4.21 3.15 4.46zm8.43 0l-1.7-3.08h-1.3v3.08h-1.85v-8.67h4.06a2.7 2.7 0 0 1 2.91 2.79 2.49 2.49 0 0 1-1.9 2.57l2 3.3zm.18-5.88a1.18 1.18 0 0 0-1.3-1.17H1402v2.34h1.94a1.18 1.18 0 0 0 1.26-1.18zm3.4 1.55a4.53 4.53 0 1 1 4.52 4.49 4.35 4.35 0 0 1-4.52-4.49zm7.16 0a2.64 2.64 0 1 0-2.64 2.85 2.63 2.63 0 0 0 2.64-2.85zm9.7 4.33l-4.13-5.66v5.66h-1.85v-8.67h1.9l4 5.45v-5.45h1.85v8.67zm3.56-4.33a4.53 4.53 0 1 1 4.52 4.49 4.35 4.35 0 0 1-4.52-4.49zm7.16 0a2.64 2.64 0 1 0-2.64 2.85 2.63 2.63 0 0 0 2.69-2.85zm3.18 3.1l1-1.4a3.8 3.8 0 0 0 2.76 1.17c1 0 1.51-.47 1.51-1 0-1.53-5-.48-5-3.74 0-1.44 1.25-2.64 3.29-2.64a4.82 4.82 0 0 1 3.38 1.21l-1 1.35a3.72 3.72 0 0 0-2.52-.95c-.79 0-1.24.35-1.24.87 0 1.38 5 .46 5 3.69 0 1.59-1.13 2.78-3.47 2.78a4.94 4.94 0 0 1-3.71-1.34zM1328.31 567v-8.67h1.85V567zm3.69-4.32a4.41 4.41 0 0 1 4.62-4.49 4 4 0 0 1 3.63 2.12l-1.59.78a2.35 2.35 0 0 0-2-1.26 2.85 2.85 0 0 0 0 5.69 2.33 2.33 0 0 0 2-1.26l1.59.77a4 4 0 0 1-3.63 2.13 4.41 4.41 0 0 1-4.62-4.48zm9.42 0a4.53 4.53 0 1 1 4.52 4.49 4.35 4.35 0 0 1-4.52-4.49zm7.16 0a2.64 2.64 0 1 0-2.64 2.85 2.63 2.63 0 0 0 2.64-2.85zm13.23 4.32l-2.17-3.17-2.18 3.17h-2.2l3.15-4.45-3-4.22h2.2l2 3 2-3h2.22l-3 4.21L1364 567zm8.44 0l-1.7-3.08h-1.35V567h-1.85v-8.67h4.06a2.7 2.7 0 0 1 2.91 2.79 2.49 2.49 0 0 1-1.9 2.57l2 3.3zm.18-5.88a1.18 1.18 0 0 0-1.3-1.17h-1.94v2.34h1.94a1.18 1.18 0 0 0 1.31-1.16zm3.39 1.56a4.53 4.53 0 1 1 4.52 4.49 4.35 4.35 0 0 1-4.52-4.49zm7.16 0a2.64 2.64 0 1 0-2.64 2.85 2.63 2.63 0 0 0 2.66-2.85zm9.7 4.32l-4.13-5.66V567h-1.85v-8.67h1.9l4 5.45v-5.45h1.85V567zm3.6-4.32a4.53 4.53 0 1 1 4.52 4.49 4.35 4.35 0 0 1-4.52-4.49zm7.16 0a2.64 2.64 0 1 0-2.64 2.85 2.63 2.63 0 0 0 2.64-2.85zm3.14 3.11l1-1.4a3.8 3.8 0 0 0 2.76 1.17c1 0 1.51-.47 1.51-1 0-1.53-5-.48-5-3.74 0-1.44 1.25-2.64 3.29-2.64a4.82 4.82 0 0 1 3.38 1.21l-1 1.35a3.72 3.72 0 0 0-2.52-.95c-.79 0-1.24.35-1.24.87 0 1.38 5 .46 5 3.69 0 1.59-1.13 2.78-3.47 2.78a4.94 4.94 0 0 1-3.71-1.34zm-76.27-51.66v-8.67h4.06a2.8 2.8 0 1 1 0 5.59h-2.21v3.08zm5.08-5.88a1.16 1.16 0 0 0-1.27-1.17h-2v2.34h2a1.17 1.17 0 0 0 1.27-1.16zm8.45 5.88l-1.7-3.08h-1.35v3.08h-1.85v-8.67h4.06a2.7 2.7 0 0 1 2.91 2.79 2.49 2.49 0 0 1-1.9 2.57l1.95 3.3zm.18-5.88a1.18 1.18 0 0 0-1.3-1.17h-1.94v2.34h1.94a1.18 1.18 0 0 0 1.28-1.16zm3.8 5.88v-8.67h6.18v1.63h-4.29v1.83h4.2v1.63h-4.2v2h4.29v1.63zm7.51-1.22l1-1.4a3.8 3.8 0 0 0 2.76 1.17c1 0 1.51-.47 1.51-1 0-1.53-5-.48-5-3.74 0-1.44 1.25-2.64 3.29-2.64a4.82 4.82 0 0 1 3.38 1.21l-1 1.35a3.72 3.72 0 0 0-2.52-.95c-.79 0-1.24.35-1.24.87 0 1.38 5 .46 5 3.69 0 1.59-1.13 2.78-3.47 2.78a4.94 4.94 0 0 1-3.71-1.34zm14.88 1.22l-.53-1.47H1364l-.55 1.47h-2.11l3.35-8.67h2.31l3.34 8.67zm-2.39-6.83l-1.35 3.73h2.7zm5.83 6.83v-8.67h1.85v7h3.67v1.63zm7.35 0v-8.67h6.14v1.63h-4.29v1.83h4.2v1.63h-4.2v2h4.29v1.63zm11.5-4.33a4.4 4.4 0 0 1 4.62-4.49 4.05 4.05 0 0 1 3.59 1.94l-1.53.83a2.45 2.45 0 0 0-2.05-1.13 2.85 2.85 0 0 0 0 5.69 2.92 2.92 0 0 0 1.87-.64v-1h-2.29v-1.61h4.13v3.33a4.81 4.81 0 0 1-3.69 1.64 4.41 4.41 0 0 1-4.65-4.56zm10.29 4.33v-8.67h1.85v7h3.67v1.63zm6.91-4.33a4.53 4.53 0 1 1 4.52 4.49 4.35 4.35 0 0 1-4.52-4.49zm7.16 0a2.64 2.64 0 1 0-2.64 2.85 2.63 2.63 0 0 0 2.64-2.85zm3.72 4.33v-8.67h4.56a2.24 2.24 0 0 1 2.5 2.21 1.93 1.93 0 0 1-1.5 2 2.1 2.1 0 0 1 1.66 2.13 2.28 2.28 0 0 1-2.52 2.34zm5.17-6.14a.93.93 0 0 0-1-.95h-2.31v1.88h2.31a.92.92 0 0 0 1-.92zm.17 3.54a1 1 0 0 0-1.12-1h-2.38v2h2.38a1 1 0 0 0 1.12-1zm3.8-.85v-5.21h1.87v5.15a2 2 0 1 0 4.07 0v-5.15h1.89v5.2c0 2.16-1.27 3.63-3.91 3.63s-3.92-1.49-3.92-3.62zm10.04 3.45v-8.67h1.85v7h3.67v1.63zm13.3 0l-.53-1.47h-3.72l-.55 1.47h-2.11l3.35-8.67h2.31l3.34 8.67zm-2.39-6.83l-1.35 3.73h2.7zm-120.36-46.04v-8.67h1.85v8.67zm3.69-4.33a4.41 4.41 0 0 1 4.62-4.49 4 4 0 0 1 3.63 2.12l-1.59.78a2.35 2.35 0 0 0-2-1.26 2.85 2.85 0 0 0 0 5.69 2.33 2.33 0 0 0 2-1.26l1.59.77a4 4 0 0 1-3.63 2.13 4.41 4.41 0 0 1-4.62-4.48zm9.42 0a4.53 4.53 0 1 1 4.52 4.49 4.35 4.35 0 0 1-4.52-4.49zm7.16 0a2.64 2.64 0 1 0-2.64 2.85 2.63 2.63 0 0 0 2.64-2.85zm7.16 0a4.4 4.4 0 0 1 4.62-4.49 4.05 4.05 0 0 1 3.59 1.94l-1.53.83a2.45 2.45 0 0 0-2.05-1.13 2.85 2.85 0 0 0 0 5.69 2.92 2.92 0 0 0 1.85-.66v-1h-2.29v-1.61h4.07v3.33a4.81 4.81 0 0 1-3.69 1.64 4.41 4.41 0 0 1-4.57-4.54zm10.26 4.33v-8.67h1.85v7h3.67v1.63zm6.93-4.33a4.53 4.53 0 1 1 4.52 4.49 4.35 4.35 0 0 1-4.52-4.49zm7.16 0a2.64 2.64 0 1 0-2.64 2.85 2.63 2.63 0 0 0 2.65-2.85zm3.72 4.33v-8.67h4.56a2.24 2.24 0 0 1 2.5 2.21 1.93 1.93 0 0 1-1.5 2 2.1 2.1 0 0 1 1.66 2.13 2.28 2.28 0 0 1-2.52 2.34zm5.17-6.14a.93.93 0 0 0-1-.95h-2.31v1.88h2.33a.92.92 0 0 0 1-.93zm.17 3.54a1 1 0 0 0-1.12-1h-2.38v2h2.35a1 1 0 0 0 1.16-1zm3.85-.86v-5.21h1.87v5.15a2 2 0 1 0 4.07 0v-5.15h1.89v5.2c0 2.16-1.27 3.63-3.91 3.63s-3.92-1.49-3.92-3.62zm10 3.46v-8.67h1.85v7h3.67v1.63zm13.3 0l-.53-1.47h-3.72l-.55 1.47h-2.11l3.35-8.67h2.31l3.34 8.67zm-2.39-6.83l-1.35 3.73h2.7z"/><path class="cls-4" d="M1143.7 142.66V300.6h-98.11V142.66h98.11m5.89-5.89h-109.9v169.72h109.9V136.77z"/><path class="cls-4" d="M1039.96 300.74h224.62v6.3h-224.62z"/><path class="cls-21" d="M1045.59 142.66h98.11V300.6h-98.11z"/><path class="cls-4" d="M1060.58 216.61l1.39-1.94a5.26 5.26 0 0 0 3.82 1.62c1.4 0 2.09-.65 2.09-1.33 0-2.12-6.91-.67-6.91-5.19 0-2 1.73-3.65 4.56-3.65a6.68 6.68 0 0 1 4.68 1.67l-1.42 1.87a5.16 5.16 0 0 0-3.49-1.31c-1.1 0-1.71.49-1.71 1.21 0 1.91 6.9.63 6.9 5.11 0 2.2-1.57 3.85-4.81 3.85a6.85 6.85 0 0 1-5.1-1.91zm15.11 1.69v-9.76h-3.51v-2.25h9.58v2.25h-3.49v9.76zm16.7 0l-.74-2h-5.15l-.76 2h-2.92l4.65-12h3.21l4.63 12zm-3.31-9.45l-1.87 5.17h3.79zm8.06 9.45v-12h6.32c2.29 0 3.46 1.46 3.46 3.06a2.67 2.67 0 0 1-2.07 2.75 2.91 2.91 0 0 1 2.3 3 3.16 3.16 0 0 1-3.49 3.24zm7.17-8.5a1.29 1.29 0 0 0-1.4-1.31h-3.21v2.61h3.21a1.28 1.28 0 0 0 1.4-1.29zm.23 4.9a1.4 1.4 0 0 0-1.55-1.4h-3.29v2.79h3.3c1 0 1.54-.52 1.54-1.39zm5.26 3.6v-12h2.56v9.76h5.08v2.25zm10.13 0v-12h8.5v2.25h-5.94v2.54h5.82v2.25h-5.82v2.72h5.94v2.25zm-47.77 15.61a6.1 6.1 0 0 1 6.39-6.21 5.5 5.5 0 0 1 5 2.93l-2.2 1.08a3.26 3.26 0 0 0-2.83-1.75 3.95 3.95 0 0 0 0 7.89 3.22 3.22 0 0 0 2.83-1.75l2.2 1.06a5.53 5.53 0 0 1-5 3 6.1 6.1 0 0 1-6.39-6.25zm13.09 0a6.28 6.28 0 1 1 6.27 6.21 6 6 0 0 1-6.27-6.21zm9.92 0a3.66 3.66 0 1 0-3.66 3.94 3.65 3.65 0 0 0 3.66-3.94zm5.14 5.99v-12h2.56v12zm13.94 0l-5.73-7.83v7.83H1106v-12h2.63l5.56 7.54v-7.54h2.56v12z"/><path class="cls-22" d="M1191.72 105.74l-42.34 31.04v164.99l42.34 23.46V105.74z"/><circle class="cls-23" cx="1177.73" cy="217.84" r="5.78"/><path class="cls-24" d="M1246.76 770.45V303.82h19.23"/><path class="cls-4" d="M1261.79 318.18l24.86-14.36-24.86-14.36v28.72z"/><path class="cls-25" d="M1182.82 369.19l-87.64-82.11-87.64 82.11h33.79V771.6H1149V369.19z"/><path class="cls-26" d="M1100.52 659.43l-11 14.92c-4.28-2.21-9.82-5-14.88-7.61l-.29-.14 12.65-17.15a8.32 8.32 0 0 1 11.64-1.76l.14.1a8.33 8.33 0 0 1 1.74 11.64zm17.32-5.55l-.14-.1c-3.7-2.73-9.13-1.65-12.13 2.42l-14.13 19.15 4.62 2.41a14.09 14.09 0 0 1 5.45 4.65A9.38 9.38 0 0 1 1103 688l16.13-21.85c2.98-4.04 2.41-9.55-1.29-12.27zm-3 51.05l17.31-22.93a8.32 8.32 0 0 0-1.64-11.66l-.13-.1a8.32 8.32 0 0 0-11.66 1.64l-17.26 22.92a8.32 8.32 0 0 0 1.64 11.66l.13.1a8.32 8.32 0 0 0 11.65-1.63zm-15.47 66.62l6.63-8.29s18.35-23 21.94-27.66 9.53-16.07 7.95-22.44c-2.75 4.27-6 5.75-9.59 5.75a16.36 16.36 0 0 1-3.58-.42c-5-1.08-7-6.91-7.41-9.41a39.57 39.57 0 0 0-14.54 6.43c-2.12-9-7.14-12.14-11.71-15.41s-17.86-9-17.86-9l1.69-3.1s11.27 5.72 15.52 7.79a8.93 8.93 0 0 0 3.92.92 8 8 0 0 0 7.41-4.84c.11-.26.22-.51.32-.76 2.59-6.8-2.38-10-5-11.43l-4.92-2.56-1.93-1c-4.23-2.19-9.63-5-14.56-7.45l-.63-.3a13.33 13.33 0 0 0-5.63-1.49c-4.07 0-6 3-7.14 5.55-1.64 3.59-5 10.4-7.06 15.37-3.14 7.43-1.31 14.66 2.47 20.76s18.34 25.86 18.34 25.86l-17.57 37.18zm33.25-58.7l9.8-13a8.32 8.32 0 0 0-1.64-11.66l-.13-.1a8.32 8.32 0 0 0-11.66 1.64l-9.8 13a8.32 8.32 0 0 0 1.64 11.66l.13.1a8.32 8.32 0 0 0 11.71-1.65z"/><path class="cls-27" d="M1076.77 357v-8.67h3.48a2.62 2.62 0 1 1 0 5.23h-2.41V357zm5.08-6.06a1.61 1.61 0 0 0-1.73-1.65h-2.28v3.3h2.28a1.61 1.61 0 0 0 1.74-1.59zm2.41 2.92a3.11 3.11 0 1 1 3.11 3.3 3.08 3.08 0 0 1-3.11-3.3zm5.19 0a2.11 2.11 0 1 0-2.08 2.43 2.18 2.18 0 0 0 2.08-2.43zm8.3 3.14l-1.64-5-1.64 5h-1l-2-6.28h1l1.53 5 1.65-5h.83l1.65 5 1.53-5h1l-2 6.28zm4.01-3.14a3.14 3.14 0 0 1 3.09-3.29c1.9 0 3 1.48 3 3.37v.25h-5.08a2.21 2.21 0 0 0 2.26 2.17 2.74 2.74 0 0 0 1.94-.79l.47.64a3.41 3.41 0 0 1-2.5 1 3.11 3.11 0 0 1-3.18-3.35zm3.08-2.48a2.1 2.1 0 0 0-2.05 2.09h4.12a2 2 0 0 0-2.07-2.09zm4.86 5.62v-6.28h1v1a2.67 2.67 0 0 1 2.09-1.14v1a1.72 1.72 0 0 0-.39 0 2.3 2.3 0 0 0-1.7 1V357zm-51.89 11.86a3.11 3.11 0 1 1 3.11 3.3 3.08 3.08 0 0 1-3.11-3.3zm5.19 0a2.11 2.11 0 1 0-2.08 2.43 2.18 2.18 0 0 0 2.08-2.43zm3.14 3.14v-5.42h-1v-.86h1v-.48a1.79 1.79 0 0 1 1.82-2 1.83 1.83 0 0 1 1.33.48l-.4.64a1.15 1.15 0 0 0-.78-.31c-.64 0-1 .44-1 1.23v.48h1.27v.86h-1.27V372zm12.86 0l-2.17-3.17-2.18 3.17h-2.2l3.15-4.45-3-4.23h2.2l2 3 2-3h2.2l-3 4.21 3.15 4.46zm8.15 0l-1.7-3.08h-1.35V372h-1.85v-8.67h4.06a2.7 2.7 0 0 1 2.91 2.8 2.49 2.49 0 0 1-1.9 2.57l2 3.3zm.18-5.88A1.18 1.18 0 0 0 1086 365h-1.94v2.34h1.94a1.18 1.18 0 0 0 1.33-1.21zm3.12 1.56a4.53 4.53 0 1 1 4.52 4.49 4.35 4.35 0 0 1-4.52-4.49zm7.16 0a2.64 2.64 0 1 0-2.64 2.85 2.63 2.63 0 0 0 2.65-2.85zm9.45 4.32l-4.13-5.66V372h-1.85v-8.67h1.9l4 5.45v-5.45h1.85V372zm3.34-4.32a4.53 4.53 0 1 1 4.52 4.49 4.35 4.35 0 0 1-4.52-4.49zm7.16 0a2.64 2.64 0 1 0-2.64 2.85 2.63 2.63 0 0 0 2.64-2.85zm2.87 3.11l1-1.4a3.8 3.8 0 0 0 2.76 1.17c1 0 1.51-.47 1.51-1 0-1.53-5-.48-5-3.74 0-1.44 1.25-2.64 3.29-2.64a4.82 4.82 0 0 1 3.38 1.21l-1 1.35a3.73 3.73 0 0 0-2.52-.95c-.79 0-1.24.35-1.24.87 0 1.38 5 .46 5 3.69 0 1.59-1.13 2.78-3.47 2.78a4.94 4.94 0 0 1-3.71-1.34zm-60.82 15.39l.51-.7a2.84 2.84 0 0 0 2.07.9c1 0 1.48-.45 1.48-1.08 0-1.52-3.89-.59-3.89-2.91 0-1 .85-1.81 2.34-1.81a3.18 3.18 0 0 1 2.33.91l-.46.68a2.45 2.45 0 0 0-1.87-.79c-.86 0-1.39.43-1.39 1 0 1.38 3.89.47 3.89 2.91 0 1.05-.85 1.9-2.47 1.9a3.34 3.34 0 0 1-2.54-1.01zm7.04-.48v-4.11h-1v-.86h1V379h1v1.72h1.27v.86h-1.27v3.9c0 .47.21.81.64.81a.94.94 0 0 0 .66-.26l.29.73a1.6 1.6 0 0 1-1.17.4 1.28 1.28 0 0 1-1.42-1.46zm7.82 1.3v-.71a2.72 2.72 0 0 1-2.08.87 2.09 2.09 0 0 1-2.2-2.08 2.06 2.06 0 0 1 2.2-2.07 2.63 2.63 0 0 1 2.08.86v-1.13c0-.85-.68-1.33-1.59-1.33a2.5 2.5 0 0 0-1.92.87l-.45-.68a3.29 3.29 0 0 1 2.51-1c1.33 0 2.43.6 2.43 2.12V387zm0-1.33v-1.17a2.1 2.1 0 0 0-1.73-.78 1.38 1.38 0 1 0 0 2.74 2.1 2.1 0 0 0 1.73-.78zm3.18 1.33v-8.67h1v3.34a2.61 2.61 0 0 1 2.12-1.1c1.64 0 2.79 1.3 2.79 3.3s-1.16 3.29-2.79 3.29a2.64 2.64 0 0 1-2.12-1.09v.93zm2.85-.71c1.27 0 2-1 2-2.42s-.75-2.43-2-2.43a2.33 2.33 0 0 0-1.87 1v2.85a2.31 2.31 0 0 0 1.87 1zm4.72-7.11a.66.66 0 1 1 1.31 0 .66.66 0 0 1-1.31 0zm.17 7.83v-6.28h1V387zm3.18-.01v-8.67h1V387zm3.01-7.82a.66.66 0 1 1 1.31 0 .66.66 0 0 1-1.31 0zm.17 7.83v-6.28h1V387zm2.89-.01v-.75l3.46-4.67h-3.46v-.86h4.73v.74l-3.48 4.69h3.54v.85zm10.62 0v-.71a2.72 2.72 0 0 1-2.08.87 2.09 2.09 0 0 1-2.2-2.08 2.06 2.06 0 0 1 2.2-2.07 2.63 2.63 0 0 1 2.08.86v-1.13c0-.85-.68-1.33-1.59-1.33a2.5 2.5 0 0 0-1.92.87l-.46-.68a3.29 3.29 0 0 1 2.51-1c1.33 0 2.43.6 2.43 2.12V387zm0-1.33v-1.17a2.1 2.1 0 0 0-1.73-.78 1.38 1.38 0 1 0 0 2.74 2.1 2.1 0 0 0 1.73-.78zm3.38.03v-4.11h-1v-.86h1V379h1v1.72h1.27v.86h-1.27v3.9c0 .47.21.81.64.81a.94.94 0 0 0 .66-.26l.29.73a1.6 1.6 0 0 1-1.17.4 1.28 1.28 0 0 1-1.42-1.46zm3.72-6.52a.66.66 0 1 1 1.31 0 .66.66 0 0 1-1.31 0zm.17 7.83v-6.28h1V387zm2.82-3.15a3.11 3.11 0 1 1 3.11 3.3 3.08 3.08 0 0 1-3.11-3.3zm5.19 0a2.11 2.11 0 1 0-2.08 2.43 2.18 2.18 0 0 0 2.08-2.43zm7.11 3.14v-4.1c0-1.1-.56-1.46-1.4-1.46a2.43 2.43 0 0 0-1.86 1V387h-1v-6.28h1v.91a3.11 3.11 0 0 1 2.24-1.07 1.78 1.78 0 0 1 2 2V387zM1079 401.18l.51-.7a2.85 2.85 0 0 0 2.07.9c1 0 1.48-.45 1.48-1.08 0-1.52-3.89-.59-3.89-2.91 0-1 .85-1.81 2.34-1.81a3.18 3.18 0 0 1 2.33.91l-.46.68a2.45 2.45 0 0 0-1.87-.79c-.86 0-1.39.43-1.39 1 0 1.38 3.89.47 3.89 2.91 0 1.05-.85 1.9-2.47 1.9a3.34 3.34 0 0 1-2.54-1.01zm7-.48v-4.11h-1v-.86h1V394h1v1.72h1.27v.86H1087v3.9c0 .47.21.81.64.81a.94.94 0 0 0 .66-.26l.29.73a1.6 1.6 0 0 1-1.17.4 1.28 1.28 0 0 1-1.42-1.46zm3.53-1.84a3.14 3.14 0 0 1 3.09-3.29c1.9 0 3 1.48 3 3.37v.25h-5.08a2.21 2.21 0 0 0 2.26 2.17 2.74 2.74 0 0 0 1.94-.79l.47.64a3.41 3.41 0 0 1-2.5 1 3.11 3.11 0 0 1-3.18-3.35zm3.08-2.48a2.1 2.1 0 0 0-2.05 2.09h4.12a2 2 0 0 0-2.07-2.09zm5.84 4.68v3.34h-1v-8.67h1v.94a2.62 2.62 0 0 1 2.12-1.09c1.65 0 2.79 1.25 2.79 3.29s-1.14 3.3-2.79 3.3a2.57 2.57 0 0 1-2.12-1.11zm3.89-2.2c0-1.39-.75-2.42-2-2.42a2.32 2.32 0 0 0-1.87 1v2.83a2.33 2.33 0 0 0 1.87 1c1.24.02 2-1.02 2-2.41zm2.28 2.32l.51-.7a2.84 2.84 0 0 0 2.07.9c1 0 1.48-.45 1.48-1.08 0-1.52-3.89-.59-3.89-2.91 0-1 .85-1.81 2.34-1.81a3.18 3.18 0 0 1 2.33.91l-.46.68a2.45 2.45 0 0 0-1.87-.79c-.86 0-1.39.43-1.39 1 0 1.38 3.89.47 3.89 2.91 0 1.05-.85 1.9-2.47 1.9a3.34 3.34 0 0 1-2.54-1.01zm-38.09 37.49v-2.95c6.36-4.6 7.55-5.61 7.55-7.06 0-1-.95-1.54-2-1.54a5.48 5.48 0 0 0-3.92 1.61l-2.09-2.51a8.09 8.09 0 0 1 5.94-2.44c3.46 0 5.94 1.94 5.94 4.88 0 2.24-1.61 4.16-5.26 6.71h5.31v3.3zm17.56 0v-9.84l-2.46 2.49-2.16-2.27 5.13-5.06h3.28v14.68zm6.42-1.8a2.07 2.07 0 1 1 2.07 2.07 2.09 2.09 0 0 1-2.07-2.07zm6.38-.07l2.07-2.64a5.68 5.68 0 0 0 3.81 1.43c1.61 0 2.4-.79 2.4-1.69s-.77-1.69-2.29-1.69a4 4 0 0 0-2.9 1.1l-2.62-.64V424H1108v3.3h-6.87v2.84a4.57 4.57 0 0 1 3.15-1.17 4.64 4.64 0 0 1 4.73 4.77c0 3.17-2.4 5.19-6.21 5.19a8.12 8.12 0 0 1-5.91-2.13zm18.94 2.07a8.45 8.45 0 0 1-5.28-2.27l2-2.84a6.63 6.63 0 0 0 4.69 1.94c1.3 0 2.09-.51 2.09-1.21 0-2-8.32-.4-8.32-6.05 0-2.22 1.69-4.22 4.82-4.6v-2.07h2.44v2.09a8.81 8.81 0 0 1 4.55 2l-2.07 2.71a6.91 6.91 0 0 0-4.29-1.52c-1.1 0-1.58.44-1.58 1.06 0 1.87 8.3.51 8.3 6 0 2.64-1.74 4.49-4.91 4.84v2h-2.44z"/><path class="cls-5" d="M1066.18 619.89v-1.44c3.55-2.63 4.59-3.52 4.59-4.59 0-.75-.69-1.13-1.4-1.13a3.1 3.1 0 0 0-2.33 1l-1.04-1.23a4.42 4.42 0 0 1 3.34-1.42c1.85 0 3.32 1 3.32 2.77 0 1.48-1.22 2.77-3.47 4.41h3.54v1.63zm8.32-.89a1.05 1.05 0 1 1 1.05 1.05 1.06 1.06 0 0 1-1.05-1.05zm5.87.89v-6.29l-1.44 1.47-1.05-1.1 2.73-2.74h1.61v8.67zm3.86-1.15l1-1.29a3.13 3.13 0 0 0 2.3.95c1 0 1.61-.58 1.61-1.29s-.57-1.29-1.56-1.29a2.49 2.49 0 0 0-1.82.7l-1.29-.34v-5h6v1.63h-4.11V615a2.75 2.75 0 0 1 1.91-.73A2.71 2.71 0 0 1 1091 617c0 1.85-1.38 3-3.47 3a4.32 4.32 0 0 1-3.3-1.26zm11.25 1.26a4.73 4.73 0 0 1-3.07-1.35l1-1.4a3.77 3.77 0 0 0 2.07 1.12v-2.05c-1.34-.34-2.79-.83-2.79-2.6a2.77 2.77 0 0 1 2.79-2.61v-1.21h1.24v1.24a4.59 4.59 0 0 1 2.64 1.16l-1 1.35a3.65 3.65 0 0 0-1.61-.84v1.83c1.34.34 2.83.86 2.83 2.63 0 1.44-.94 2.55-2.83 2.74v1.18h-1.24zm0-5.71v-1.59c-.58.08-.91.4-.91.84s.36.61.91.77zm1.24 2.33v1.74c.64-.13 1-.51 1-.91s-.45-.63-1.01-.81zm-30.89-46.48l1-1.23a3.46 3.46 0 0 0 2.39 1c1.05 0 1.64-.46 1.64-1.1s-.53-1-1.74-1h-1.08v-1.66h1.08c1 0 1.6-.29 1.6-.92s-.7-1-1.61-1a3.12 3.12 0 0 0-2.2.9l-.92-1.16a4.27 4.27 0 0 1 3.32-1.38c2 0 3.28.91 3.28 2.35a2.13 2.13 0 0 1-1.9 2 2.18 2.18 0 0 1 2 2.08c0 1.5-1.34 2.55-3.42 2.55a4.33 4.33 0 0 1-3.44-1.43zm8.5.33a1.05 1.05 0 1 1 1.05 1.05 1.06 1.06 0 0 1-1.05-1.05zm3.87-.23l1-1.29a3.13 3.13 0 0 0 2.3.95c1 0 1.61-.58 1.61-1.29s-.57-1.29-1.56-1.29a2.49 2.49 0 0 0-1.82.7l-1.29-.34v-5h6v1.63h-4.11v2.12a2.75 2.75 0 0 1 1.91-.73 2.71 2.71 0 0 1 2.78 2.81c0 1.85-1.38 3-3.47 3a4.32 4.32 0 0 1-3.35-1.27zm8.23-3.19c0-2.24 1.1-4.47 3.59-4.47s3.59 2.24 3.59 4.47-1.12 4.49-3.59 4.49-3.59-2.25-3.59-4.49zm5.29 0c0-1.6-.47-2.83-1.7-2.83s-1.72 1.24-1.72 2.83.47 2.85 1.72 2.85 1.7-1.25 1.7-2.85zm6.28 4.46a4.73 4.73 0 0 1-3.07-1.35l1-1.4a3.77 3.77 0 0 0 2.07 1.12v-2.05c-1.34-.34-2.79-.83-2.79-2.6a2.77 2.77 0 0 1 2.79-2.61v-1.22h1.24v1.24a4.59 4.59 0 0 1 2.64 1.16l-1 1.35a3.65 3.65 0 0 0-1.61-.84v1.83c1.34.34 2.83.86 2.83 2.63 0 1.44-.94 2.55-2.83 2.74v1.18H1098zm0-5.71v-1.59c-.58.08-.91.4-.91.84s.39.6.91.75zm1.24 2.33v1.74c.64-.13 1-.51 1-.91s-.42-.65-.98-.83zm-31.04-45.25v-6.29l-1.44 1.47-1.05-1.1 2.73-2.74h1.56v8.67zm3.67-4.33c0-2.24 1.1-4.47 3.59-4.47s3.59 2.24 3.59 4.47-1.12 4.49-3.59 4.49-3.59-2.26-3.59-4.49zm5.29 0c0-1.6-.47-2.83-1.7-2.83s-1.72 1.24-1.72 2.83.47 2.85 1.72 2.85 1.7-1.25 1.7-2.85zm3.46 3.45a1.05 1.05 0 1 1 1.05 1.05 1.06 1.06 0 0 1-1.05-1.05zm4.81.88l3.11-7h-4.37v-1.68h6.51v1.29l-3.22 7.38zm7.57 0l3.11-7h-4.37v-1.68h6.51v1.29l-3.22 7.38zm-24.8-48.51v-6.29l-1.44 1.47-1.05-1.1 2.73-2.74h1.56v8.67zm3.67-4.32c0-2.63 1.48-4.49 4-4.49a3.91 3.91 0 0 1 2.56.9l-.83 1.42a2.3 2.3 0 0 0-1.73-.68 2.27 2.27 0 0 0-2.17 2.46.88.88 0 0 0 0 .18 2.82 2.82 0 0 1 2.22-1.12 2.75 2.75 0 0 1 3 2.82 3 3 0 0 1-3.31 3c-2.61-.01-3.74-2.04-3.74-4.49zm5.19 1.56c0-.91-.78-1.3-1.61-1.3a2.17 2.17 0 0 0-1.69.82 1.74 1.74 0 0 0 1.75 1.75 1.4 1.4 0 0 0 1.55-1.26zm3.4 1.85a1.05 1.05 0 1 1 1.05 1.05 1.06 1.06 0 0 1-1.05-1.05zm5.88.91v-6.29l-1.44 1.47-1.05-1.1 2.73-2.74h1.61v8.67zm3.86-1.14l1-1.29a3.13 3.13 0 0 0 2.3.95c1 0 1.61-.58 1.61-1.29s-.57-1.29-1.56-1.29a2.49 2.49 0 0 0-1.82.7l-1.29-.34v-5h6v1.63h-4.11v2.12a2.75 2.75 0 0 1 1.91-.73 2.71 2.71 0 0 1 2.78 2.81c0 1.85-1.38 3-3.47 3a4.32 4.32 0 0 1-3.35-1.27zm11.24 1.27a4.73 4.73 0 0 1-3.07-1.35l1-1.4a3.77 3.77 0 0 0 2.07 1.12v-2.05c-1.34-.34-2.79-.83-2.79-2.6a2.77 2.77 0 0 1 2.79-2.61v-1.21h1.24v1.24a4.59 4.59 0 0 1 2.64 1.16l-1 1.35a3.65 3.65 0 0 0-1.61-.84v1.83c1.34.34 2.83.86 2.83 2.63 0 1.44-.94 2.55-2.83 2.74v1.18h-1.24zm0-5.71v-1.59c-.58.08-.91.4-.91.84s.37.6.91.75zm1.24 2.33v1.74c.64-.13 1-.51 1-.91s-.44-.65-1-.83z"/><path class="cls-28" d="M1282.4 615.24h-72.53m72.53-52.86h-72.53m72.53-52.85h-72.53m72.53-52.85h-72.53"/></g></g></svg>