<svg xmlns="http://www.w3.org/2000/svg" viewBox="0 0 1307.5 765.57"><defs><style>.cls-1,.cls-11,.cls-14,.cls-15,.cls-2,.cls-22,.cls-23,.cls-26,.cls-5,.cls-7,.cls-9{fill:none}.cls-1,.cls-7{stroke:#dbc08d}.cls-1,.cls-11,.cls-13,.cls-14,.cls-15,.cls-2,.cls-22,.cls-23,.cls-26,.cls-3,.cls-4,.cls-5,.cls-7,.cls-9{stroke-miterlimit:10}.cls-1{stroke-width:2.42px}.cls-2{stroke:#e4d8c4;stroke-width:2.45px}.cls-13,.cls-14,.cls-2,.cls-3,.cls-4{fill-rule:evenodd}.cls-13,.cls-18,.cls-3,.cls-4{fill:#fff}.cls-13,.cls-26,.cls-3,.cls-4{stroke:#b79963}.cls-3{stroke-width:3.1px}.cls-4{stroke-width:3.09px}.cls-5{stroke:#b3ddfb}.cls-11,.cls-5,.cls-7,.cls-9{stroke-width:3px}.cls-6{fill:#b3ddfb}.cls-8{fill:#dbc08d}.cls-9{stroke:#d9d0f0}.cls-10{fill:#d9d0f0}.cls-11{stroke:#eddfc5}.cls-12{fill:#eddfc5}.cls-13{stroke-width:3.36px}.cls-14,.cls-15{stroke:#7dbdc8;stroke-width:4px}.cls-16{fill:#007e93}.cls-17{fill:#40abf4}.cls-19{fill:#1f1f1f}.cls-20{fill:#1b6fa7}.cls-21{fill:#9c7af0}.cls-22{stroke:#edd4a6;stroke-width:16px}.cls-23{stroke:#ffe9bf;stroke-width:26px}.cls-24{fill:#b7975b}.cls-25{fill:#8062cc}.cls-26{stroke-width:4.34px}.cls-27{fill:#55595e}.cls-28{fill:#a58242}.cls-29{fill:#e1c38b}</style></defs><title>Ресурс 2</title><g id="Слой_2" data-name="Слой 2"><g id="Layer_1" data-name="Layer 1"><path class="cls-1" d="M63.61 238.43l224.12 137.63M64.36 519.95l223.37-143.89m-181.08.41h181.08"/><path class="cls-5" d="M725.39 538.44V201.4"/><path class="cls-6" d="M716.28 537.22h18.22l-9.11 9.1-9.11-9.1z"/><path class="cls-7" d="M287.16 538.44v-25.13"/><path class="cls-8" d="M278.05 537.22h18.22l-9.11 9.1-9.11-9.1z"/><path class="cls-9" d="M1162.43 538.44V201.4"/><path class="cls-10" d="M1153.32 537.22h18.22l-9.11 9.1-9.11-9.1z"/><path class="cls-11" d="M725.39 692.1v-87.79"/><path class="cls-12" d="M716.28 690.88h18.22l-9.11 9.11-9.11-9.11z"/><path class="cls-7" d="M287.16 692.1v-51.15"/><path class="cls-8" d="M278.05 690.88h18.22l-9.11 9.11-9.11-9.11z"/><path class="cls-11" d="M1162.43 692.1v-91.45"/><path class="cls-12" d="M1153.32 690.88h18.22l-9.11 9.11-9.11-9.11z"/><path class="cls-14" d="M608.62 90.4H344.11a56.37 56.37 0 0 0-56.37 56.37v203.17m875.47-37.36v-165.8a56.37 56.37 0 0 0-56.37-56.37H843.63"/><path class="cls-15" d="M725.93 160.55v70.48"/><path class="cls-16" d="M727.46 28a2.37 2.37 0 0 0 .75.3 2.48 2.48 0 0 1 2.58 2.33 2.52 2.52 0 0 1-2.17 2.54.67.67 0 0 1-.34 0c-.93-.41-1.26.23-1.65.88-1 1.69-2.07 3.37-3.12 5a.75.75 0 0 0 0 1c.18.25.13.65.21 1a5.94 5.94 0 0 0 .25.66c-.09 0-.22-.1-.25-.07a2.62 2.62 0 0 1-1.93.87s-.1.09-.12.15L720.12 46l.92.86 5.77-2.48c.57-.25.67-.78.25-1.34a1.92 1.92 0 0 0 .57-.25 1.65 1.65 0 0 1 2.39-.1 1.62 1.62 0 1 1-2.34 2.31l-.19-.16-6.2 2.67-.19 1.92 3.42 2.37c1.37-.68 2.42-.37 2.76.8a1.62 1.62 0 0 1-2.16 1.91 1.32 1.32 0 0 1-1-1.36 1.34 1.34 0 0 0-.8-1.41c-.91-.58-1.78-1.22-2.64-1.81l-1.5.83c.08 1.89.17 3.86.24 5.83 0 .8 0 1.61.05 2.41 0 .51.06.95.65 1.21a1.43 1.43 0 0 1 .73 1.7 1.61 1.61 0 0 1-1.37 1.27 1.51 1.51 0 0 1-1.63-.9.85.85 0 0 0-.88-.59l-4.19-.29c-.82-.06-1.65-.09-2.47-.16-.41 0-.6.08-.7.52-.44 1.83-1 3.64-1.39 5.46a1.09 1.09 0 0 0 .28.8 1.69 1.69 0 0 1 .34 1.85 1.55 1.55 0 0 1-1.62.92 1.51 1.51 0 0 1-1.4-1.14 1.55 1.55 0 0 1 1.17-2 .76.76 0 0 0 .64-.66c.4-1.6.82-3.2 1.23-4.8a4.65 4.65 0 0 0 .06-.57l-10.29 6.48a9.4 9.4 0 0 1 0 1.66 2.42 2.42 0 0 1-4.72-.06c-.07-.48-.32-.53-.68-.57L684.52 68c-.08.22-.16.45-.25.68a4.38 4.38 0 0 1-4.85 2.78c-.58-.11-.66.23-.82.58a147.87 147.87 0 0 0-7.44 20.27 121.63 121.63 0 0 0-3.47 16.55c-.53 3.77-1.07 7.54-1.47 11.33-.32 2.94-.43 5.91-.64 8.86 0 .13 0 .27-.05.45h-1.41a2.08 2.08 0 0 1-.06-.44c.17-2.63.31-5.27.55-7.9s.49-5 .85-7.45c.57-3.95 1.12-7.9 1.86-11.82a136.89 136.89 0 0 1 10-30.69.79.79 0 0 0-.06-.7c-1.74-1.87-2-3.36-.89-5.83l-1.84-1.41-6.17-4.66a.72.72 0 0 0-.91-.13 1.55 1.55 0 0 1-1.93-.42 1.72 1.72 0 0 1-.09-1.94 1.52 1.52 0 0 1 1.81-.62.78.78 0 0 0 1-.23 6.28 6.28 0 0 1 .6-.57c.68-.57 1.27-1.06.85-2.19s.27-1.93 1.25-2.57c-.59-1.24-1.16-2.46-1.76-3.66-.06-.12-.31-.18-.49-.21-.55-.12-1.1-.23-1.66-.3a1 1 0 0 0-.69.09c-.78.65-1.54 1.32-2.26 2a1 1 0 0 0-.2.74 1.68 1.68 0 0 1-.86 1.86 1.59 1.59 0 0 1-1.9-.32 1.63 1.63 0 0 1-.21-2 1.57 1.57 0 0 1 1.92-.66.71.71 0 0 0 .89-.19c.83-.76 1.67-1.51 2.52-2.27a2.76 2.76 0 0 1 0-2.73.58.58 0 0 0-.14-.51 239.15 239.15 0 0 0-5-5.09 1 1 0 0 0-.78-.1 1.65 1.65 0 0 1-2-1.18 1.62 1.62 0 0 1 3.15-.76 1 1 0 0 1 0 .67c-.31.56 0 .89.34 1.23l5.15 4.8-.19.26.66-.35-2-9.37c-.34-1.59-.67-3.18-1-4.77a.75.75 0 0 0-.49-.47 2.42 2.42 0 0 1-.21-4.81 2.39 2.39 0 0 1 2.75 1.66c.06.17.1.35.16.59l5.14.31a.4.4 0 0 0 .2 0c.09-.05.21-.12.24-.21.29-.83 1.58-.78 1.53-2a29.38 29.38 0 0 1 .44-4.38c-.57-.55-1.07-1.07-1.6-1.54a.65.65 0 0 0-.5-.06 13.11 13.11 0 0 0-1.72.46 1 1 0 0 0-.47.57 1.62 1.62 0 0 1-3.15 0 1.59 1.59 0 0 1 .76-1.76 1.57 1.57 0 0 1 2 .32c.25.3.46.39.81.23a2.15 2.15 0 0 1 .53-.14c.89-.15 1.56-.37 1.69-1.52a2 2 0 0 1 1.88-1.58.88.88 0 0 0 .87-.83c.24-1.12.54-2.23.83-3.34a.74.74 0 0 0-.25-.89 1.55 1.55 0 0 1-.35-1.95 1.63 1.63 0 0 1 1.74-.77 1.61 1.61 0 0 1 1.23 1.41 1.49 1.49 0 0 1-1.13 1.68 1 1 0 0 0-.78.88c-.31 1.29-.63 2.58-.95 3.87a2.64 2.64 0 0 1 .93 4l3.09 3.6a11 11 0 0 0 1.57-.32 1 1 0 0 0 .48-.62q1.83-5.88 3.63-11.77c.2-.64.36-1.28.59-1.9s.4-1.17-.21-1.75a1.5 1.5 0 0 1 0-1.86 1.63 1.63 0 0 1 2.92 1 5.56 5.56 0 0 1-.08.57c2.27 1.45 4.53 2.9 6.81 4.32.14.09.5 0 .68-.17a.7.7 0 0 0 .27-.58Q695.73 5.5 695 3.6a.78.78 0 0 0-.55-.35 1.66 1.66 0 0 1-1.52-1.36 1.6 1.6 0 0 1 .94-1.74 1.63 1.63 0 0 1 1.93.47 1.65 1.65 0 0 1 0 2 .87.87 0 0 0-.19.63c.46 1.41 1 2.81 1.44 4.19l.17.07c1.11.3 1.52-.39 1.83-1.26a8.62 8.62 0 0 1 .57-1.18c.34-.63.64-1.18.11-1.93a1.41 1.41 0 0 1 .44-1.85A1.62 1.62 0 0 1 702 1.2a1.66 1.66 0 0 1 .72 1.86 1.56 1.56 0 0 1-1.49 1.12.73.73 0 0 0-.76.52c-.41.88-.84 1.74-1.27 2.6a1.12 1.12 0 0 0 1 1.54c-.08.18-.25.38-.22.55a2.91 2.91 0 0 1-.37 2 .72.72 0 0 0 .05.64 18.33 18.33 0 0 0 1.26 1.55.71.71 0 0 0 .51.23c.64-.06 1.28-.18 2-.3l3.5-6.51-1.19-.38c.5-.28.2-.68.14-1a2.44 2.44 0 0 1 4.72-1.16A2.84 2.84 0 0 1 710 7l3.44 4.79c.4.56.83 1.1 1.2 1.68.27.42.52.66 1 .4a2.13 2.13 0 0 1 .71-.07c.15-.7.33-1.39.42-2.09 0-.2-.2-.47-.38-.64a1.62 1.62 0 1 1 2.08 0c-.05 0-.1.11-.17.12-1.46.29-.9 1.63-1.28 2.48 0 .06.18.28.32.36a2.44 2.44 0 0 1 1.25 2.74.58.58 0 0 0 .19.49c1.41.82 2.83 1.6 4.27 2.41a2.58 2.58 0 0 1 2.49-1.08 2.4 2.4 0 0 1 2 1.92 2.48 2.48 0 0 1-1 2.53 2.62 2.62 0 0 0-.42.5c-.27 0-.53-.07-.8-.12-.46-.1-1.07-.06-1.36-.34-.69-.67-1.31-.47-2-.12-.24.12-.51.21-.76.31l-7.29 3c-.12.65.11.93.74 1.07 3.49.77 7 1.58 10.44 2.39.56.13 1 .23 1.34-.47.11-.26.49-.4.7-.64a2.83 2.83 0 0 0 .33-.62zm-38.25-8.3a12.33 12.33 0 0 0 0-1.44.91.91 0 0 0-.38-.53 1.83 1.83 0 0 0-.69-.3.81.81 0 0 0-.6 0c-1.48 1.24-2.93 2.51-4.23 3.63.05.79.08 1.42.14 2a.62.62 0 0 0 .22.44c1 .54 2 1 2.9 1.5a5.11 5.11 0 0 1 1.48-.83 1.26 1.26 0 0 0 1-.79l-.17.61 1.18.38 3.18-3.77c.45-.53 1.06-1 .5-1.82-.07-.11 0-.32 0-.47a.6.6 0 0 0-.2-.37c-.69-.4-1.39-.78-2.06-1.14-.28.22-.48.41-.71.56a2.79 2.79 0 0 0-1.56 2.34zm12 38.88a2.32 2.32 0 0 0 .07.54 1.63 1.63 0 0 1-2.65 1.88 1.71 1.71 0 0 1-.16-2.15.88.88 0 0 0 .07-.71q-.91-1.89-1.91-3.74c-.1-.18-.4-.27-.63-.33s-.42.06-.61 0c-.42-.11-.58.1-.72.43-.56 1.28-1.14 2.55-1.68 3.84a.78.78 0 0 0 .09.65 1.72 1.72 0 0 1 .1 2.05.77.77 0 0 0-.08.6q1.11 2.44 2.29 4.86a.56.56 0 0 0 .45.27 2.7 2.7 0 0 1 2.07.54.87.87 0 0 0 .76 0c2.35-1.45 4.67-2.92 7-4.39l3.47-2.19a34.75 34.75 0 0 1-2-3.87c-.49-1.29-1.57-1.15-2.52-1.44 0-.55 0-1.25-.63-1.41-2-.54-4-1-6-1.44l-1 1.2a30.33 30.33 0 0 1 1.69 3.42c.5 1.25 1.6 1.07 2.49 1.4zm-.58-22.73c-1.31.68-2.6 1.33-3.87 2a.65.65 0 0 0-.27.52 2.53 2.53 0 0 1-1.8 2.9c.09.78.18 1.52.28 2.27.22 1.73.43 3.46.67 5.18a.74.74 0 0 0 .34.49c.48.24 1 .42 1.6.66l11.72-8.43-.17-2.1c-1.82-1.05-3.7-2.15-5.6-3.23a.73.73 0 0 0-.6 0 1.71 1.71 0 0 1-2.34-.26zm-21.8 5.09c.65-.24 1.33-.28 1.31-1.23 0-1.38.07-2.75.13-4.13.13-2.87.28-5.73.39-8.6 0-1 .35-2.11-1.07-2.47-.54-1.09-1.37-.7-2.19-.42-.48.16-1 .33-1.44.45a.89.89 0 0 0-.77.81 1.46 1.46 0 0 1-1.28 1.19 1.28 1.28 0 0 1-1.5-.6c-.38-.95-1.1-.85-1.85-.88a18.32 18.32 0 0 1-2.75-.18c-.91-.18-1.49 0-1.75.92 0 .06 0 .12-.08.2 1.66 1.88 3.31 3.77 5 5.64.11.12.37.25.5.2a2.55 2.55 0 0 1 3.37 1.16l1-.29c.43-.11.75-.24.89-.78a1.16 1.16 0 0 1 1.65-.62 1.27 1.27 0 0 1 .53 1.72 1.24 1.24 0 0 1-1.73.45c-.19-.11-.4-.36-.56-.33a4.22 4.22 0 0 0-1.42.46c-.18.11-.15.57-.22.86a1.14 1.14 0 0 1-.14.46c-.58.68-.25 1.19.28 1.68a3.23 3.23 0 0 1 .26.32zm39.82 9.87a7.08 7.08 0 0 1-1.5-.9.73.73 0 0 0-1-.14c-2.45 1.14-4.91 2.29-7.37 3.41-.63.29-1.29.48-1.24 1.37 0 .16-.18.33-.21.5a1.43 1.43 0 0 0 0 .79c.69 1.35 1.45 2.66 2.12 4a1.23 1.23 0 0 0 1.17.75c1.88.12 3.75.29 5.63.4.76 0 1.62.32 2.06-.67 0-.09.21-.12.27-.21s.39-.46.38-.68c-.15-2.89-.26-5.81-.35-8.62zm7.27-20.33l-11.51-2.63a.72.72 0 0 0-.86.31 4.19 4.19 0 0 1-1.32 1c-.31.17-.44.3-.44.65v7.82a7.4 7.4 0 0 1 1.39.75.65.65 0 0 0 .9 0l7.76-4.38 4.16-2.33zm-16.35 8.42c.14-.19.23-.45.39-.51 1.12-.37 1.18-1.24 1.16-2.21v-6.84a2.51 2.51 0 0 1-2.05-2.62l-5.32-1.06-1.5 1.22v5.82a.84.84 0 0 0 .31.63 1.69 1.69 0 0 1 .94 1.67.73.73 0 0 0 .26.56c1.89 1.08 3.79 2.18 5.81 3.34zm-27 3.09c2.88-.86 5.73-1.7 8.57-2.56.18-.05.43-.25.44-.4a2.66 2.66 0 0 1 2.22-2.63v-1.62a.74.74 0 0 0-.3-.51 1.66 1.66 0 0 1-.83-2.25.68.68 0 0 0-.08-.54c-.79-1-1.6-1.89-2.33-2.75a7.33 7.33 0 0 1-1.7.22.75.75 0 0 0-.9.48c-1.77 3.45-3.54 6.9-5.37 10.31-.43.8-.66 1.46.14 2.11zm8.75-15.39a7.37 7.37 0 0 1-.45 1.22.56.56 0 0 0 .08.77q.9 1 1.75 2c.34.42.64.85 1.29.52a.7.7 0 0 1 .53.06c.47.23.75 0 1.07-.31 1.47-1.45 3-2.89 4.45-4.33.39-.38.86-.71.48-1.38-.09-.16.06-.45 0-.67a1.33 1.33 0 0 0-.21-.75c-1-1-2-1.94-3-2.92-.5-.49-.94-1-1.74-.61a.67.67 0 0 1-.47 0c-.36-.14-.57 0-.8.28-1.08 1.31-2.17 2.62-3.29 3.9a.7.7 0 0 0-.09 1 4.88 4.88 0 0 1 .35 1.22zM694 41.68a16 16 0 0 1-2-1.35.79.79 0 0 0-.92-.27c-2.45.75-4.9 1.51-7.38 2.19-.79.22-1.35.47-1.21 1.4 0 .2.09.5.24.58Q688 47.14 693.25 50a.67.67 0 0 0 .54 0 5.68 5.68 0 0 0 1-.64.58.58 0 0 0 .21-.43c-.34-2.49-.66-4.99-1-7.25zm19.79-2.39a2.76 2.76 0 0 1-.29 2.37.55.55 0 0 0 0 .52q1.73 1.88 3.5 3.71a.76.76 0 0 0 .58.13c.6-.09 1.18-.23 1.93-.37.41-.93.92-2 1.39-3.16a.63.63 0 0 0-.1-.53 1.59 1.59 0 0 1-.24-1.85 1.68 1.68 0 0 1 1.66-.89.86.86 0 0 0 .61-.35c.83-1.29 1.64-2.61 2.44-3.92l1.38-2.26c-.23-.52-.49-.44-.81-.24-.91.54-1.84 1-2.75 1.56zm-30.01 25.26c2.13-1.3 4.22-2.57 6.31-3.86.32-.2.3-1.29 0-1.52l-8.23-6-1.34.5v9a4.8 4.8 0 0 1 3.26 1.88zm20.39-11.18c.68-.36 1.17-.61 1.65-.88.23-.13.53-.27.61-.48 1.22-3 2.41-6.09 3.62-9.13.18-.45.12-.74-.33-.93l-.17.09q-5.7 4.1-11.41 8.19c-.64.46 0 .91 0 1.35 0 .16.31.42.51.47 1.88.47 3.79.95 5.52 1.32zM681.3 25.25c-.11 2.11-.23 4.31-.32 6.51q-.17 4-.29 8.06a3.52 3.52 0 0 0 .16.8 5.49 5.49 0 0 0 .58-.65 10.58 10.58 0 0 0 .52-1q2.57-5 5.13-9.91c.1-.19.16-.56.05-.66a2.72 2.72 0 0 1-.72-2.72c-1-.51-1.95-1-2.92-1.48a.75.75 0 0 0-.58.05c-.52.31-1.01.63-1.61 1zm32.46-9.5a5.82 5.82 0 0 1 .5-1 .55.55 0 0 0 0-.78c-1.53-2.1-3-4.22-4.55-6.33a3.6 3.6 0 0 0-2.47.09v.06l-3.07 5.78a4.74 4.74 0 0 0 1.08 2.13h8.56zm-9.46 1.95l5.58 6.76c.09.11.26.27.37.26.61-.06 1.22-.15 1.82-.26.12 0 .23-.2.29-.33.81-1.8 1.61-3.61 2.4-5.42a.66.66 0 0 0 0-.54c-.34-.53-.72-1-1.26-1.8h-7.24c-.79 0-1.5 0-1.67 1-.07.06-.19.17-.28.32zm6.47 25.05c-1.24 3.13-2.52 6.37-3.78 9.62a.69.69 0 0 0 .13.59.59.59 0 0 0 .53 0q4.2-1.91 8.38-3.87a.77.77 0 0 0 .36-.49c.14-.68.22-1.37.34-2.18-1.13-1.2-2.37-2.52-3.63-3.82a.79.79 0 0 0-.58-.16c-.52.08-1.06.19-1.75.3zm-1.11-17.57l-5-6c-.49-.59-.89-1.34-1.85-.74h-.2a2.65 2.65 0 0 1-2.37-1.26l-2.81 1.06a1.08 1.08 0 0 0-.31 1.66c1.19 1.15 2.38 2.3 3.6 3.42a1 1 0 0 0 .76.16 1.65 1.65 0 0 1 2.12 1.12 1 1 0 0 0 .6.52c1.61.35 3.23.65 4.87 1zM693.09 51.4c.35-.56.06-.74-.33-1q-4.84-2.65-9.65-5.33c-.57-.32-1.09-.7-1.68 0-.12.14-.38.15-.55.26s-.32.24-.32.36v4.5a1.92 1.92 0 0 1 1.75 1.42zm-8.4 16c.19 0 .45.12.72.15 2.37.29 4.74.55 7.1.88.8.11 1.54.28 1.88-.73 0-.12.23-.18.27-.3s.18-.47.1-.63c-.71-1.57-1.45-3.12-2.19-4.67a5.74 5.74 0 0 0-2.32-.72c-1.94 1.18-3.89 2.36-5.82 3.56a.57.57 0 0 0-.21.48c.13.58.3 1.24.47 1.94zm-2.42-15.11l-.11.17a5 5 0 0 0 .53.53l6.67 4.9c.71.52 1.36 1.29 2.39.62h.2c.05 0 .37-.19.44-.34q.92-2 1.79-4a.65.65 0 0 0-.09-.51c-.32-.49-.67-1-1.1-1.54zm-2.44 10.35v-7.35c0-.93.18-1.87-.62-2.69-.31-.32-.5-.48-.92-.44a25 25 0 0 1-2.74.22c-.74 0-1.28.08-1.41.95a.93.93 0 0 1-.35.5c-.34.28-.29.55-.1.9 1 1.87 2 3.75 3.07 5.62l1.48 2.65zm-9.12-30.26c-1.62-1.84-3.22-3.68-4.85-5.49a2.32 2.32 0 0 0-.7-.37 2.2 2.2 0 0 0-.14.78c.7 3.34 1.42 6.67 2.14 10l.92 4.22c.44-.26.9-.37 1-.63.71-1.44 1.35-2.91 2-4.39a.66.66 0 0 0-.08-.58c-1-1.23-1.15-2.06-.29-3.57zm52-10.39a11.09 11.09 0 0 0 0-1.29.87.87 0 0 0-.3-.59c-1.29-.76-2.59-1.49-3.9-2.2a.58.58 0 0 0-.53 0 2.62 2.62 0 0 1-2.5.68c-.76 1.7-1.46 3.4-2.27 5-.38.78-.5 1.38.29 1.91l.16.11zm-35.69-17h-.19l-4.74 15.39c.38.43.67.45 1.08.09 1.26-1.14 2.56-2.23 3.86-3.33a.55.55 0 0 0 .19-.75 2.33 2.33 0 0 1 1-3 .65.65 0 0 0 .34-.83c-.23-1.07-.44-2.15-.66-3.23zM670.2 54.27c-.21.19-.6.54-1 .91s-1.34.9-.85 1.88a.26.26 0 0 1 0 .2c-.23.44 0 .65.36.89 1.37 1 2.72 2 4.08 3.07l3.93 3 1-.85L673 54.7zm17.54-49.2v.18c.46 2.31.94 4.62 1.39 6.93.1.52.22.88.89.84a1.54 1.54 0 0 1 .92.42.58.58 0 0 0 .84 0c1-.68 1.92-1.34 2.91-2 .46-.29.7-.56.48-1.15-.11-.29.07-.67 0-1a.86.86 0 0 0-.24-.6q-3.2-2.09-6.44-4.13c-.35-.25-.76 0-.75.51zm-18.16 36.38l1.23 1.79c2.16-.14 4.38-.27 6.6-.43a.69.69 0 0 0 .43-.33 3.56 3.56 0 0 0 .34-.82.62.62 0 0 0 0-.47c-1.4-1.7-2.81-3.39-4.11-5-.72.06-1.3.09-1.87.17a.66.66 0 0 0-.44.32c-.76 1.64-1.5 3.25-2.18 4.77zm.77 3.58c3 1.85 5.9 3.69 8.84 5.51.5.31.67 0 .67-.46v-4.2c0-.17-.12-.46-.24-.5a2.65 2.65 0 0 1-1.83-1.93l-7.07.4zm25.29-33.44c-1.21.82-2.39 1.61-3.56 2.42-.14.09-.3.26-.31.4-.08 1.69 0 1.89 1.6 2.75.1.06.21.1.3.17a.64.64 0 0 0 .86 0 1.26 1.26 0 0 1 1.66 0c.6.57 1.12.36 1.72.11s1.2-.44 1.79-.7a.7.7 0 0 0 .38-.39c.17-.69.28-1.39.45-2.23l-1.63-2c-1.39.48-1.9.4-3.26-.53zm6 15.41l.2-.06c-.11-.13-.21-.37-.34-.38a1 1 0 0 0-.69.14c-1.7 1.61-3.38 3.24-5.05 4.87a.91.91 0 0 0 .44 1.43c.91.24 1.82.46 2.72.71s1.55.61 2.17-.29a.1.1 0 0 1 .06 0c.48-.09.5-.42.49-.82-.02-1.89-.01-3.74-.01-5.6zm-23.12-3.91l.63-2.25c-.61-.71-1.37-1.49-2-2.36s-1.21-1.37-2.27-.85l-.13.11-.64 5.54c.28.24.53.48.81.67a.63.63 0 0 0 .46.1c1.09-.33 2.18-.67 3.13-.96zm-4.08 28.74l4.7-.37c-.08-.18-.09-.24-.12-.26l-8.88-5.56c-.09-.06-.32-.08-.35 0a.52.52 0 0 0-.07.41c.54 1.17 1.1 2.33 1.67 3.47a.58.58 0 0 0 .44.22 2.58 2.58 0 0 1 2.6 2.09zm20-15.53c.53.36 1 .7 1.51 1a.58.58 0 0 0 .48 0c1.21-.6 2.41-1.22 3.6-1.86a.62.62 0 0 0 .25-.47c0-.12-.2-.3-.34-.34-1.45-.4-2.9-.77-4-1.07-1.79.53-1.69 1.66-1.54 2.74z"/><path class="cls-16" d="M684.13 88h2.3c.22 0 .46.27.62.47q3.11 3.91 6.21 7.84l.33.39V88h2.92v14h-2.33c-.18 0-.38-.23-.51-.39q-3.14-3.93-6.27-7.88c-.08-.1-.17-.19-.37-.41v8.65h-2.9zm9.34 21.17a8.52 8.52 0 0 0-4.19-1.3 6.14 6.14 0 0 0-1.9.22 1.56 1.56 0 0 0-.76.93c-.17.5.23.83.66 1 1 .37 2.11.64 3.13 1a12.44 12.44 0 0 1 2.45 1.23 3.88 3.88 0 0 1 .2 6 6.28 6.28 0 0 1-4.09 1.37 9.77 9.77 0 0 1-5-1.14.89.89 0 0 1-.55-.92V115l.69.44a8.1 8.1 0 0 0 5.3 1.34 3.17 3.17 0 0 0 .54-.11c.67-.19 1.26-.49 1.34-1.29.07-.64-.35-1.11-1.26-1.43-1.3-.45-2.63-.82-3.91-1.3a3.65 3.65 0 0 1-2.55-4.32 3.93 3.93 0 0 1 3.28-3.13 9.45 9.45 0 0 1 6.15.8c.2.1.46.33.47.51.03.81 0 1.65 0 2.66zm45.21 10.16h-2.89v-5.65a1.73 1.73 0 0 0-1.37-1.89 2.7 2.7 0 0 0-2.52 1.11 1.5 1.5 0 0 0-.07.61v5.78h-2.85V105.4h2.86v4.9l.64-.45a4.5 4.5 0 0 1 3.62-.7 3.32 3.32 0 0 1 2.66 3.28c-.02 2.27-.08 4.57-.08 6.9zm-29.26-19.71c-1.25 0-1.25 0-1.25-1.23v-2.76a3.54 3.54 0 0 0-2.43-3.56 7.91 7.91 0 0 0-5.77.2c-.16.06-.38.26-.39.4v2.25l.79-.34a5.53 5.53 0 0 1 3.43-.37c1 .22 1.45.82 1.38 1.58-1.13-.08-2.26-.25-3.39-.23a3.2 3.2 0 0 0-3.33 3.28 3.28 3.28 0 0 0 3.3 3.4 5 5 0 0 0 3.8-1.2c1 1.15 1.67 1.15 3.15 1a1 1 0 0 0 .69-.59 11.24 11.24 0 0 0 .02-1.83zm-4.53-.32a2.56 2.56 0 0 1-2.81.44 1.32 1.32 0 0 1-.66-1 1.44 1.44 0 0 1 .62-1 3.74 3.74 0 0 1 1.25-.31 12.14 12.14 0 0 1 1.34.31.85.85 0 0 1 .26 1.56zm41.84-3.3a1.56 1.56 0 0 0-1.39-1.74 5.52 5.52 0 0 0-3.43.38l-.78.32v-2.2a.63.63 0 0 1 .34-.44 7.7 7.7 0 0 1 6.09-.11 3.45 3.45 0 0 1 2.16 3.39v2.76c0 1.23 0 1.23 1.25 1.3a11.09 11.09 0 0 1 0 1.83 1 1 0 0 1-.7.58c-1.5.15-2.16.16-3.15-1a4.87 4.87 0 0 1-4.35 1.14c-1.92-.33-2.9-1.8-2.73-3.9a3.36 3.36 0 0 1 3.27-2.73 10.37 10.37 0 0 1 1.72 0 16 16 0 0 1 1.7.42zm-1.9 1.5a3.68 3.68 0 0 0-1.24.32 1.43 1.43 0 0 0-.6 1 1.33 1.33 0 0 0 .68 1 2.57 2.57 0 0 0 2.76-.42.86.86 0 0 0-.25-1.58 12 12 0 0 0-1.36-.36zm-49.49 23.06c.35.12.56.2.77.26a2.16 2.16 0 0 0 2.84-1.57 1.27 1.27 0 0 0-.13-.78c-1.23-2.79-2.48-5.58-3.72-8.37-.09-.2-.17-.41-.29-.74h3c.16 0 .35.32.44.53.71 1.72 1.39 3.45 2.09 5.17.06.15.13.29.25.56.25-.62.47-1.14.67-1.66.52-1.37 1-2.74 1.55-4.12a.67.67 0 0 1 .75-.52h2.59c-.26.62-.47 1.15-.69 1.67-1.33 3.18-2.65 6.35-4 9.52a4.13 4.13 0 0 1-2.89 2.82 10.16 10.16 0 0 1-2.71-.07.69.69 0 0 1-.44-.49c-.11-.67-.08-1.38-.08-2.21zm55.11-5.48h-7c0 1.19 1.46 1.94 2.55 2a6.06 6.06 0 0 0 3.27-.6l.38-.17h.21v2.1a.64.64 0 0 1-.3.41c-2.26 1.35-7.32 1.42-8.77-2.44a5.27 5.27 0 0 1 3.62-7.25 5 5 0 0 1 6.04 5.95zm-2.92-1.88a2.05 2.05 0 0 0-4.06 0zm-24.85-21.32v4.81a10 10 0 0 0 .11 1.37 1.69 1.69 0 0 0 2 1.49 2.09 2.09 0 0 0 1.94-2.21v-5.45h2.54a.58.58 0 0 1 .38.42v9.58h-2.91l-.06-.87-.62.46a4.49 4.49 0 0 1-3.69.66c-1.65-.35-2.58-1.68-2.66-3.8s0-4 0-5.93a.69.69 0 0 1 .42-.51c.87-.05 1.65-.02 2.55-.02zm-5.13 27.45h-2.88v-5.66a1.73 1.73 0 0 0-1.38-1.88 2.7 2.7 0 0 0-2.51 1.12 1.76 1.76 0 0 0-.07.68v5.71h-2.89v-9.9h2.84l.1.85a4.94 4.94 0 0 1 3.17-1.19 3.35 3.35 0 0 1 3.66 3.31c.07 2.29-.04 4.63-.04 6.96zm67.75-6.92c-1-.31-1.84-.64-2.72-.84a4.42 4.42 0 0 0-1.64 0c-.3 0-.56.37-.84.57.23.24.42.61.7.71 1 .33 2 .5 3 .86a2.79 2.79 0 0 1 2 3.08 2.19 2.19 0 0 1-.95 1.83 5.87 5.87 0 0 1-2.1.95 9 9 0 0 1-5.2-.51.76.76 0 0 1-.53-.83v-1.9c1.13.31 2.19.65 3.27.89a4.08 4.08 0 0 0 1.63 0c.32-.07.59-.41.88-.63-.27-.24-.51-.59-.82-.7-1-.34-2-.56-3-.88a2.72 2.72 0 0 1-1.85-1.62 2.84 2.84 0 0 1 1.56-3.73 7.56 7.56 0 0 1 6.08.16.88.88 0 0 1 .47.59c.1.59.06 1.28.06 2zM712 94.37h-1.87V92H712v-2.8h2.59c.15 0 .37.34.39.54v2.18h2.75v2.41h-2.7c0 .41 0 .77-.05 1.12v2.83c0 .94.39 1.35 1.42 1.28a13.19 13.19 0 0 0 1.38-.25v2.17c0 .16-.26.37-.45.44a5.12 5.12 0 0 1-3.57.07c-1.41-.51-1.71-1.75-1.75-3.07s0-2.48 0-3.73c-.01-.19-.01-.48-.01-.82zm8.83 17.39H719v-2.36h1.88v-2.75h3v2.7h2.76v2.39h-2.76v4.19c0 .62.36 1.07 1.12 1.07a15.11 15.11 0 0 0 1.71-.21v2.08a.7.7 0 0 1-.4.47 5 5 0 0 1-3.76 0c-1.32-.55-1.58-1.76-1.61-3s0-2.48 0-3.73c-.07-.27-.09-.52-.11-.85zm35.62-2.4h2.75v2.39h-2.75v3.88c0 1.1.38 1.44 1.49 1.34a12.93 12.93 0 0 0 1.31-.25v2.18c0 .16-.26.37-.45.44a5.1 5.1 0 0 1-3.57.07c-1.44-.53-1.72-1.8-1.75-3.14s0-2.44 0-3.66v-.81h-1.91v-2.43h1.91v-2.77h2.59c.15 0 .37.34.39.54.02.72-.01 1.43-.01 2.22zm18.81 7.03v2.18a.65.65 0 0 1-.3.48c-3 1.4-7.54.59-8.38-3.68a5.18 5.18 0 0 1 5.07-6.27 17.83 17.83 0 0 1 2.9.39.62.62 0 0 1 .55.74v1.95a11.43 11.43 0 0 0-2.1-.48 5 5 0 0 0-2.06.32 2.43 2.43 0 0 0-1.45 2.77 2.74 2.74 0 0 0 2.06 2.17 4.83 4.83 0 0 0 3-.27zM752.86 88h2.9v10.19c0 1.42.08 1.5 1.59 1.37v2.16c0 .13-.27.35-.43.36a10.35 10.35 0 0 1-2.38.07 2 2 0 0 1-1.69-2c-.01-4.04.01-8.06.01-12.15zm-13.93 3.72v2.7a11.75 11.75 0 0 0-1.92.23 2.18 2.18 0 0 0-1.79 2.46v4.8h-2.9V92h2.85l.09 1.2a4.19 4.19 0 0 1 3.67-1.48zm22.66 17.57h2.53a.53.53 0 0 1 .35.38v9.63h-2.9zm1.41-5.85a2.53 2.53 0 1 1-2.54 2.49 2.56 2.56 0 0 1 2.54-2.49z"/><circle class="cls-8" cx="287.73" cy="376.06" r="133.13"/><circle cx="287.73" cy="376.06" r="118.86"/><circle class="cls-8" cx="287.73" cy="251.26" r="30.25"/><path d="M272 249.7v-7.15l-1.79 1.81-1.57-1.65 3.73-3.68h2.38v10.67zm4.31-5.33c0-2.82 1.46-5.51 4.58-5.51s4.58 2.69 4.58 5.51-1.46 5.52-4.58 5.52-4.58-2.7-4.58-5.52zm6.37 0c0-1.89-.51-3.07-1.79-3.07s-1.79 1.18-1.79 3.07.51 3.09 1.79 3.09 1.79-1.2 1.79-3.09zm3.77 0c0-2.82 1.46-5.51 4.58-5.51s4.58 2.69 4.58 5.51-1.46 5.52-4.58 5.52-4.58-2.7-4.58-5.52zm6.37 0c0-1.89-.51-3.07-1.79-3.07s-1.79 1.18-1.79 3.07.51 3.09 1.79 3.09 1.8-1.2 1.8-3.09zm3.73-2.81a2.8 2.8 0 1 1 2.77 2.66 2.63 2.63 0 0 1-2.77-2.66zm3.87 0a1.08 1.08 0 0 0-1.1-1.22 1.07 1.07 0 0 0-1.07 1.22 1.06 1.06 0 0 0 1.07 1.18 1.07 1.07 0 0 0 1.11-1.18zm-2.16 8.15l6.83-10.71h1.39l-6.83 10.68zm4.32-2.46a2.79 2.79 0 1 1 2.77 2.66 2.63 2.63 0 0 1-2.76-2.67zm3.87 0a1.08 1.08 0 0 0-1.1-1.22c-.62 0-1.07.42-1.07 1.22a1 1 0 0 0 1.07 1.18 1.07 1.07 0 0 0 1.11-1.19zM272.71 263v-6.4h1v1a2.74 2.74 0 0 1 2.15-1.17v1a1.76 1.76 0 0 0-.4 0 2.36 2.36 0 0 0-1.75 1V263zm4.16-3.19a3.22 3.22 0 0 1 3.17-3.37c1.95 0 3.09 1.52 3.09 3.45v.25h-5.21a2.27 2.27 0 0 0 2.32 2.23 2.82 2.82 0 0 0 2-.81l.48.65a3.5 3.5 0 0 1-2.56 1 3.19 3.19 0 0 1-3.29-3.4zm3.16-2.55a2.15 2.15 0 0 0-2.11 2.15h4.23a2.09 2.09 0 0 0-2.15-2.14zm8.89 5.74v-.73a2.78 2.78 0 0 1-2.13.89 2.15 2.15 0 0 1-2.25-2.13 2.11 2.11 0 0 1 2.25-2.12 2.69 2.69 0 0 1 2.13.88v-1.16c0-.87-.69-1.36-1.63-1.36a2.56 2.56 0 0 0-2 .89l-.47-.69a3.37 3.37 0 0 1 2.57-1.07c1.36 0 2.49.61 2.49 2.17V263zm0-1.36v-1.21a2.16 2.16 0 0 0-1.77-.8 1.42 1.42 0 1 0 0 2.81 2.16 2.16 0 0 0 1.77-.76zm7.8 1.36v-1a2.71 2.71 0 0 1-2.17 1.12c-1.68 0-2.87-1.28-2.87-3.37s1.17-3.39 2.87-3.39a2.69 2.69 0 0 1 2.17 1.13v-3.43h1V263zm0-1.75v-2.92a2.42 2.42 0 0 0-1.93-1c-1.29 0-2.07 1.07-2.07 2.49s.77 2.48 2.07 2.48a2.4 2.4 0 0 0 1.93-1.01zm2.93 3.4a1.54 1.54 0 0 0 .55.11.93.93 0 0 0 1-.68l.43-1-2.69-6.51H300l2.15 5.28 2.13-5.28h1.09l-3.23 7.75a1.91 1.91 0 0 1-1.89 1.31 3.25 3.25 0 0 1-.73-.09z"/><circle class="cls-6" cx="726.78" cy="376.99" r="133.13"/><path class="cls-17" d="M859.9 377c-84.6 0-133.13 3.29-133.13-133.13A133.13 133.13 0 0 1 859.9 377z"/><circle class="cls-18" cx="726.78" cy="376.99" r="118.86"/><circle class="cls-17" cx="726.78" cy="252.19" r="30.25"/><path class="cls-18" d="M715.33 250.63v-7.15l-1.79 1.81-1.54-1.65 3.7-3.64h2.38v10.68zm4.52-1.36l1.5-1.92a4.13 4.13 0 0 0 2.77 1c1.17 0 1.75-.58 1.75-1.23s-.56-1.23-1.67-1.23a2.89 2.89 0 0 0-2.11.8l-1.9-.46V240h7.75v2.4h-5v2.06a3.33 3.33 0 0 1 2.29-.85 3.37 3.37 0 0 1 3.44 3.47c0 2.31-1.75 3.78-4.51 3.78a5.9 5.9 0 0 1-4.31-1.59zm9.76-6.78a2.8 2.8 0 1 1 2.77 2.66 2.63 2.63 0 0 1-2.77-2.66zm3.87 0a1.08 1.08 0 0 0-1.1-1.22 1.07 1.07 0 0 0-1.07 1.22 1.06 1.06 0 0 0 1.07 1.18 1.07 1.07 0 0 0 1.1-1.18zm-2.16 8.15l6.82-10.64h1.39l-6.83 10.68zm4.32-2.46a2.79 2.79 0 1 1 2.77 2.66 2.63 2.63 0 0 1-2.77-2.67zm3.87 0a1.08 1.08 0 0 0-1.1-1.22c-.62 0-1.07.42-1.07 1.22a1 1 0 0 0 1.07 1.18 1.07 1.07 0 0 0 1.11-1.19zM710.9 264v-6.44h1v1a2.74 2.74 0 0 1 2.1-1.16v1a1.76 1.76 0 0 0-.4 0 2.36 2.36 0 0 0-1.75 1v4.6zm4.16-3.26a3.22 3.22 0 0 1 3.17-3.37c1.95 0 3.09 1.52 3.09 3.45v.25h-5.21a2.27 2.27 0 0 0 2.32 2.23 2.82 2.82 0 0 0 2-.81l.48.65a3.5 3.5 0 0 1-2.56 1 3.19 3.19 0 0 1-3.29-3.4zm3.16-2.55a2.15 2.15 0 0 0-2.11 2.15h4.23a2.09 2.09 0 0 0-2.12-2.14zm8.88 5.81v-.73a2.78 2.78 0 0 1-2.13.89 2.15 2.15 0 0 1-2.25-2.13 2.11 2.11 0 0 1 2.25-2.12 2.69 2.69 0 0 1 2.13.88v-1.19c0-.87-.69-1.36-1.63-1.36a2.56 2.56 0 0 0-2 .89l-.47-.69a3.37 3.37 0 0 1 2.57-1.07c1.36 0 2.49.61 2.49 2.17V264zm0-1.36v-1.24a2.16 2.16 0 0 0-1.77-.8 1.42 1.42 0 1 0 0 2.81 2.16 2.16 0 0 0 1.77-.8zm7.81 1.36v-1a2.71 2.71 0 0 1-2.17 1.12c-1.68 0-2.87-1.28-2.87-3.37s1.17-3.39 2.87-3.39a2.69 2.69 0 0 1 2.17 1.13v-3.43h1V264zm0-1.75v-2.95a2.42 2.42 0 0 0-1.93-1c-1.29 0-2.07 1.07-2.07 2.49s.77 2.48 2.07 2.48a2.4 2.4 0 0 0 1.93-1.05zm2.93 3.34a1.54 1.54 0 0 0 .55.11.93.93 0 0 0 1-.68l.43-1-2.69-6.51h1.08l2.15 5.28 2.13-5.28h1.09l-3.23 7.75a1.91 1.91 0 0 1-1.89 1.31 3.25 3.25 0 0 1-.73-.09z"/><path class="cls-19" d="M663 436c0 3.95 1.12 6.74 3.32 8.3a7 7 0 0 0 3.31 1.17h7.83a2.81 2.81 0 0 0 2.8-2.8v-7.81a.79.79 0 0 0-.79-.79h-4.71a2.34 2.34 0 0 0-2.16 1.44l-1.09 2.49h3.08a1.32 1.32 0 0 1 .87.36 1.21 1.21 0 0 1 .36.86v1a1.22 1.22 0 0 1-1.22 1.22h-3.65a3.43 3.43 0 0 1-1.73-.7c-1.11-.92-1.67-2.53-1.67-4.78 0-2 .65-3.49 1.92-4.32a4.17 4.17 0 0 1 1.92-.64h5.47a2.39 2.39 0 0 0 2.21-1.53l1-2.55h-8.87a10.1 10.1 0 0 0-4.12 1.13c-2.73 1.5-4.11 4.18-4.11 8m98.7-9.18h-3.15a.71.71 0 0 0-.71.71v17.13a.71.71 0 0 0 .71.71h9.2a2.38 2.38 0 0 0 2.18-1.44l1-2.6h-7.27a1.24 1.24 0 0 1-1.24-1.24v-12.57a.71.71 0 0 0-.71-.71m-74.33.01h-3.15a.71.71 0 0 0-.71.71v17.13a.71.71 0 0 0 .71.71h9.2a2.38 2.38 0 0 0 2.18-1.44l1-2.6h-7.27a1.24 1.24 0 0 1-1.24-1.24v-12.57a.71.71 0 0 0-.71-.71m19.19 0a8.82 8.82 0 0 0-6.47 2.68 9 9 0 0 0-2.67 6.57 9.22 9.22 0 0 0 2.7 6.66 8.79 8.79 0 0 0 6.48 2.76 9.49 9.49 0 0 0 9.41-10.2 8.67 8.67 0 0 0-2.31-5.29 9.41 9.41 0 0 0-7.11-3.17m3.5 13a4.39 4.39 0 0 1-3.41 1.48 4.13 4.13 0 0 1-3.32-1.5 5.76 5.76 0 0 1-1.24-3.81 5.52 5.52 0 0 1 1.19-3.72 4.14 4.14 0 0 1 3.3-1.4 4.56 4.56 0 0 1 3.45 1.43 5.24 5.24 0 0 1 1.34 3.74 5.49 5.49 0 0 1-1.39 3.81m20.11-13.03h-10.55a.71.71 0 0 0-.71.71v17.16a.71.71 0 0 0 .71.71h11.27a4.66 4.66 0 0 0 2-.82 4.75 4.75 0 0 0 2.12-4.26 4.87 4.87 0 0 0-3.07-4.2l-.57-.26.59-.21a4.51 4.51 0 0 0 1.6-7.44 5.42 5.42 0 0 0-3.43-1.38M728.41 442h-4.15a1.23 1.23 0 0 1-1.22-1.23l.06-9.28a1.23 1.23 0 0 1 1.22-1.22h4.49a2 2 0 0 1 1.9 1.94 2 2 0 0 1-2 2 2.34 2.34 0 0 0-2.2 1.39l-.8 2.1h3.07a2.07 2.07 0 0 1 2.09 2.09 2.17 2.17 0 0 1-2.42 2.22m62.4 2.38a2.33 2.33 0 0 0 .25-2.2l-5.86-14.88a.7.7 0 0 0-.66-.45h-4.93a.71.71 0 0 0-.66.45l-6.76 17.13a.71.71 0 0 0 .65 1h2.66a1.14 1.14 0 0 0 1.06-.72l5.4-13.45 3.16 8.48a1.22 1.22 0 0 1-1.15 1.65h-2.38a.55.55 0 0 0-.51.35l-1.35 3.69h9.12a2.33 2.33 0 0 0 2-1m-49.22-17.58h-3.17a.71.71 0 0 0-.71.71v11a.72.72 0 0 0 0 .11 8.16 8.16 0 0 0 1.14 3.36c1.42 2.26 3.85 3.41 7.22 3.41s5.77-1.15 7.2-3.41a7.8 7.8 0 0 0 1.15-3.37v-11.11a.71.71 0 0 0-.71-.71h-3.31a.62.62 0 0 0-.61.62v10.05a5.26 5.26 0 0 1-.33 1.85 3.59 3.59 0 0 1-3.35 2.18 3.51 3.51 0 0 1-3.34-2.17 5.36 5.36 0 0 1-.43-2v-9.85a.71.71 0 0 0-.7-.71m48.02-.23h3.97v.87h-1.5v3.86h-.98v-3.86h-1.49v-.87zm4.69 4.73v-4.73h.97l1.37 1.96 1.37-1.96h.97v4.73h-.97v-3.24l-1.08 1.52h-.54l-1.11-1.52v3.24h-.98z"/><path class="cls-17" d="M723 387.4l-23.6-13.75a6.44 6.44 0 0 1-3.2-5.52l-.2-27.49a6.44 6.44 0 0 1 .86-3.26l-14.6-8.38a6.43 6.43 0 0 0-.84 3.16v44.31a6.44 6.44 0 0 0 3.22 5.58l38.36 22.2a6.45 6.45 0 0 0 3.18.86l.1-16.83a6.44 6.44 0 0 1-3.31-.87"/><path class="cls-20" d="M726.51 354.34l-.1 17.48a6.43 6.43 0 0 0 3.06-.86l9.45-5.49a6.45 6.45 0 0 0 3.2-5.57V349c0-3 .81-4.17 3.3-5.63z"/><path class="cls-20" d="M770.25 329l-20 11.62 6.27-3.5V368a6.45 6.45 0 0 1-3.2 5.57l-23.83 13.83a6.42 6.42 0 0 1-3.18.87l-.1 16.83a6.43 6.43 0 0 0 3.26-.86l38.38-22.16a6.45 6.45 0 0 0 3.22-5.58v-44.34a6.43 6.43 0 0 0-.8-3.11"/><path class="cls-17" d="M711.24 345.61a6.44 6.44 0 0 0-.9 3.28v11a6.45 6.45 0 0 0 3.22 5.58L723 371a6.43 6.43 0 0 0 3.4.85l.1-17.48z"/><path class="cls-6" d="M767.9 326.6l-9.41-5.55a6.45 6.45 0 0 0-6.51 0l-38.43 22.25a6.45 6.45 0 0 0-2.31 2.3l15.27 8.73 18.91-11 4.81-2.68 20-11.63a6.44 6.44 0 0 0-2.35-2.42m-68.63 8.4l41.7-23.93-11.48-6.62a6.44 6.44 0 0 0-6.44 0l-38.38 22.16a6.43 6.43 0 0 0-2.39 2.42l14.61 8.36a6.45 6.45 0 0 1 2.38-2.38"/><path d="M773.76 210.77l-2.35-8.61-2.35 8.61h-1.44l-3-10.68H766l2.37 8.9 2.45-8.9H772l2.45 8.9 2.35-8.9h1.47l-3 10.68zm5.87-9.63a.81.81 0 1 1 1.62 0 .81.81 0 0 1-1.62 0zm.21 9.64V203H781v7.73zm3.76-.01V200.1h1.2v10.68zm3.76 0V200.1h1.2v10.68zm8.05 0V200.1h1.2v4.11a3.21 3.21 0 0 1 2.61-1.36c2 0 3.44 1.6 3.44 4.07s-1.42 4-3.44 4a3.25 3.25 0 0 1-2.61-1.34v1.15zm3.51-.88c1.57 0 2.5-1.26 2.5-3s-.93-3-2.5-3a2.87 2.87 0 0 0-2.3 1.25v3.51a2.85 2.85 0 0 0 2.3 1.24zm5.41-2.99a3.87 3.87 0 0 1 3.81-4c2.34 0 3.71 1.82 3.71 4.15v.3h-6.26a2.72 2.72 0 0 0 2.79 2.67 3.38 3.38 0 0 0 2.38-1l.58.78a4.2 4.2 0 0 1-3.07 1.18 3.83 3.83 0 0 1-3.94-4.08zm3.79-3.06a2.58 2.58 0 0 0-2.53 2.58h5.07a2.51 2.51 0 0 0-2.54-2.58zm10.12 6.93V203h1.2v1.25a3.29 3.29 0 0 1 2.58-1.41v1.23a2.16 2.16 0 0 0-.48 0 2.83 2.83 0 0 0-2.1 1.23v5.47zm4.99-3.87a3.87 3.87 0 0 1 3.81-4c2.34 0 3.71 1.82 3.71 4.15v.3h-6.25a2.72 2.72 0 0 0 2.79 2.67 3.38 3.38 0 0 0 2.38-1l.58.78a4.2 4.2 0 0 1-3.07 1.18 3.83 3.83 0 0 1-3.95-4.08zm3.79-3.06a2.58 2.58 0 0 0-2.53 2.58h5.07a2.51 2.51 0 0 0-2.56-2.58zm10.67 6.93v-.88a3.34 3.34 0 0 1-2.56 1.07 2.57 2.57 0 0 1-2.71-2.56 2.53 2.53 0 0 1 2.71-2.54 3.23 3.23 0 0 1 2.56 1.06v-1.39c0-1-.83-1.63-2-1.63a3.07 3.07 0 0 0-2.37 1.07l-.56-.83a4 4 0 0 1 3.09-1.28c1.63 0 3 .74 3 2.61v5.31zm0-1.63v-1.46a2.59 2.59 0 0 0-2.13-1 1.7 1.7 0 1 0 0 3.38 2.59 2.59 0 0 0 2.13-.92zm9.36 1.63v-1.15a3.26 3.26 0 0 1-2.61 1.34c-2 0-3.44-1.54-3.44-4s1.41-4.07 3.44-4.07a3.23 3.23 0 0 1 2.61 1.36v-4.15h1.2v10.68zm0-2.1v-3.51a2.9 2.9 0 0 0-2.32-1.25c-1.55 0-2.48 1.28-2.48 3s.93 3 2.48 3a2.88 2.88 0 0 0 2.32-1.23zm3.52 4.04a1.85 1.85 0 0 0 .66.13 1.11 1.11 0 0 0 1.15-.82l.51-1.17-3.23-7.85H851l2.58 6.34 2.56-6.34h1.31l-3.87 9.3a2.3 2.3 0 0 1-2.27 1.57 3.92 3.92 0 0 1-.88-.11zm12.33-11.57a.81.81 0 1 1 1.62 0 .81.81 0 0 1-1.62 0zm.21 9.64V203h1.2v7.73zm8.98-.01v-5.06c0-1.36-.69-1.79-1.73-1.79a3 3 0 0 0-2.29 1.2v5.65h-1.2V203h1.2v1.12a3.83 3.83 0 0 1 2.75-1.31 2.2 2.2 0 0 1 2.46 2.5v5.43zm-107.09 19v-2.14c4.63-3.35 5.49-4.08 5.49-5.14 0-.74-.69-1.12-1.47-1.12a4 4 0 0 0-2.85 1.17l-1.52-1.82a5.88 5.88 0 0 1 4.32-1.78c2.51 0 4.32 1.41 4.32 3.55 0 1.63-1.17 3-3.83 4.88h3.91v2.4zm9.64-5.33c0-2.82 1.46-5.51 4.58-5.51s4.58 2.69 4.58 5.51-1.46 5.52-4.58 5.52-4.58-2.7-4.58-5.52zm6.37 0c0-1.89-.51-3.07-1.79-3.07s-1.79 1.18-1.79 3.07.51 3.09 1.79 3.09 1.78-1.2 1.78-3.09zm6.8 5.33v-7.16l-1.81 1.82-1.57-1.65 3.73-3.68h2.38v10.68zm4.29-2.77a3.05 3.05 0 0 1 2.16-2.69 2.64 2.64 0 0 1-2-2.48c0-2.06 2.26-2.85 4.35-2.85s4.35.78 4.35 2.85a2.66 2.66 0 0 1-2 2.48 3.05 3.05 0 0 1 2.16 2.69c0 2.08-2.21 3-4.51 3s-4.51-.95-4.51-3zm6.26-.32c0-.66-1.06-1-1.73-1.12-.69.08-1.73.46-1.73 1.12s.7 1 1.73 1 1.73-.42 1.73-1.04zm-.19-4.45c0-.59-.62-1-1.54-1s-1.55.37-1.55 1 .9.91 1.55 1c.66-.13 1.54-.47 1.54-1.04z"/><circle class="cls-10" cx="1160.99" cy="376.14" r="133.13"/><path class="cls-21" d="M1210.32 252.46l-50 130.76V243h.66a132.74 132.74 0 0 1 49.34 9.46z"/><path class="cls-21" d="M1210.32 252.46l-50 130.76V243h.66a132.74 132.74 0 0 1 49.34 9.46z"/><circle class="cls-18" cx="1160.99" cy="376.14" r="118.86"/><path d="M1208 207.35l-2.35-8.61-2.35 8.61h-1.44l-3-10.68h1.47l2.37 8.9 2.45-8.9h1.1l2.45 8.9 2.35-8.9h1.47l-3 10.68zm5.85-9.64a.81.81 0 1 1 1.62 0 .81.81 0 0 1-1.62 0zm.21 9.64v-7.73h1.2v7.73zm3.76 0v-10.68h1.2v10.68zm3.76 0v-10.68h1.2v10.68zm8.05 0v-10.68h1.2v4.11a3.21 3.21 0 0 1 2.61-1.36c2 0 3.44 1.6 3.44 4.07s-1.42 4-3.44 4a3.25 3.25 0 0 1-2.61-1.34v1.15zm3.51-.88c1.57 0 2.5-1.26 2.5-3s-.93-3-2.5-3a2.87 2.87 0 0 0-2.3 1.25v3.51a2.85 2.85 0 0 0 2.3 1.24zm5.41-3a3.87 3.87 0 0 1 3.81-4c2.34 0 3.71 1.82 3.71 4.15v.3h-6.26a2.72 2.72 0 0 0 2.79 2.67 3.38 3.38 0 0 0 2.38-1l.58.78a4.2 4.2 0 0 1-3.07 1.18 3.83 3.83 0 0 1-3.94-4.08zm3.79-3.06a2.58 2.58 0 0 0-2.53 2.58h5.07a2.51 2.51 0 0 0-2.54-2.57zm10.12 6.94v-7.73h1.2v1.25a3.29 3.29 0 0 1 2.58-1.41v1.23a2.16 2.16 0 0 0-.48 0 2.83 2.83 0 0 0-2.1 1.23v5.47zm4.99-3.88a3.87 3.87 0 0 1 3.81-4c2.34 0 3.71 1.82 3.71 4.15v.3h-6.26a2.72 2.72 0 0 0 2.79 2.67 3.38 3.38 0 0 0 2.38-1l.58.78a4.2 4.2 0 0 1-3.07 1.18 3.83 3.83 0 0 1-3.94-4.08zm3.79-3.06a2.58 2.58 0 0 0-2.53 2.58h5.07a2.51 2.51 0 0 0-2.54-2.57zm10.66 6.94v-.88a3.34 3.34 0 0 1-2.56 1.07 2.57 2.57 0 0 1-2.71-2.56 2.53 2.53 0 0 1 2.71-2.54 3.23 3.23 0 0 1 2.56 1.06v-1.4c0-1-.83-1.63-2-1.63a3.07 3.07 0 0 0-2.37 1.07l-.56-.83a4 4 0 0 1 3.09-1.28c1.63 0 3 .74 3 2.61v5.31zm0-1.63v-1.46a2.59 2.59 0 0 0-2.13-1 1.7 1.7 0 1 0 0 3.38 2.59 2.59 0 0 0 2.13-.93zm9.37 1.63v-1.15a3.26 3.26 0 0 1-2.61 1.34c-2 0-3.44-1.54-3.44-4s1.41-4.07 3.44-4.07a3.23 3.23 0 0 1 2.61 1.36v-4.11h1.2v10.68zm0-2.1v-3.51a2.9 2.9 0 0 0-2.32-1.25c-1.55 0-2.48 1.28-2.48 3s.93 3 2.48 3a2.88 2.88 0 0 0 2.32-1.24zm3.52 4.03a1.85 1.85 0 0 0 .66.13 1.11 1.11 0 0 0 1.15-.82l.51-1.17-3.23-7.81h1.3l2.58 6.34 2.56-6.34h1.31l-3.87 9.3a2.3 2.3 0 0 1-2.27 1.57 3.92 3.92 0 0 1-.88-.11zm12.32-11.57a.81.81 0 1 1 1.62 0 .81.81 0 0 1-1.62 0zm.21 9.64v-7.73h1.2v7.73zm8.98 0v-5.06c0-1.36-.69-1.79-1.73-1.79a3 3 0 0 0-2.29 1.2v5.65h-1.2v-7.73h1.2v1.12a3.83 3.83 0 0 1 2.75-1.31 2.2 2.2 0 0 1 2.46 2.5v5.43zm-107.03 19v-2.15c4.63-3.35 5.49-4.08 5.49-5.14 0-.74-.69-1.12-1.47-1.12a4 4 0 0 0-2.85 1.17l-1.52-1.82a5.88 5.88 0 0 1 4.32-1.78c2.51 0 4.32 1.41 4.32 3.55 0 1.63-1.17 3-3.83 4.88h3.91v2.4zm9.58-5.35c0-2.82 1.46-5.51 4.58-5.51s4.57 2.71 4.57 5.51-1.46 5.52-4.58 5.52-4.57-2.69-4.57-5.52zm6.37 0c0-1.89-.51-3.07-1.79-3.07s-1.79 1.18-1.79 3.07.51 3.09 1.79 3.09 1.8-1.18 1.8-3.09zm6.78 5.35v-7.16l-1.79 1.81-1.57-1.65 3.73-3.68h2.38v10.68zm4.83-.85l1.18-2.11a3 3 0 0 0 2 .7 2.39 2.39 0 0 0 2.5-2.43v-.13a3.34 3.34 0 0 1-2.61 1.23 3.49 3.49 0 0 1-3.71-3.52c0-2.19 1.78-3.75 4.26-3.75 3.38 0 4.85 2.43 4.85 5.51 0 3.39-2 5.52-5.28 5.52a5.26 5.26 0 0 1-3.19-1.02zm5.73-5.81a1.78 1.78 0 0 0-1.9-1.76c-1 0-1.62.62-1.62 1.22 0 .9.91 1.26 1.73 1.26a2.41 2.41 0 0 0 1.79-.72z"/><circle class="cls-22" cx="64.33" cy="376.47" r="55.61"/><circle cx="64.33" cy="376.47" r="55.61"/><path class="cls-18" d="M37.81 362.8l-4-5.12-3.91 5.12h-1.22l4.57-5.8-4.32-5.52h1.24l3.67 4.81 3.69-4.81h1.22L34.46 357l4.54 5.8zm9.93 0l-3.18-4.69h-2.5v4.69h-1v-11.34h4.23a3.21 3.21 0 0 1 3.45 3.31 3.12 3.12 0 0 1-3.11 3.23l3.28 4.76zm0-8a2.36 2.36 0 0 0-2.52-2.43h-3.16v4.88h3.18a2.37 2.37 0 0 0 2.51-2.47zm3.36 2.34c0-3.31 2.18-5.86 5.51-5.86s5.51 2.55 5.51 5.86-2.2 5.86-5.51 5.86-5.51-2.55-5.51-5.86zm10 0c0-2.89-1.77-5-4.49-5s-4.49 2.09-4.49 5 1.73 5 4.49 5 4.49-2.14 4.49-5zM73 362.8l-7.14-9.74v9.74h-1v-11.34h1l7.11 9.6v-9.6h1v11.34zm3.65-5.66c0-3.31 2.18-5.86 5.51-5.86s5.51 2.55 5.51 5.86-2.19 5.86-5.51 5.86-5.51-2.55-5.51-5.86zm10 0c0-2.89-1.77-5-4.49-5s-4.49 2.09-4.49 5 1.73 5 4.49 5 4.49-2.14 4.49-5zm3.13 4.06l.63-.73a4.62 4.62 0 0 0 3.54 1.65c2.33 0 3-1.29 3-2.26 0-3.33-6.8-1.6-6.8-5.56 0-1.85 1.67-3 3.72-3a4.87 4.87 0 0 1 3.84 1.6l-.65.71a4.06 4.06 0 0 0-3.25-1.43c-1.51 0-2.65.87-2.65 2.09 0 2.91 6.8 1.31 6.8 5.54 0 1.46-1 3.21-4 3.21a5.21 5.21 0 0 1-4.18-1.82zM33 383.2v-11.34h6.43c2.24 0 3.31 1.46 3.31 2.89a2.53 2.53 0 0 1-1.94 2.6 2.71 2.71 0 0 1 2.2 2.77 3 3 0 0 1-3.33 3.08zm6.77-7.94a.93.93 0 0 0-1-.94h-2.83v1.89h2.84a.93.93 0 0 0 1-.95zm.22 4.45a1 1 0 0 0-1.12-1h-2.93v2h2.94a1 1 0 0 0 1.12-1zm4.92 3.49v-11.34h2.92v8.79h4.56v2.55zm8.76-5.66a6.06 6.06 0 1 1 6.07 5.86 5.77 5.77 0 0 1-6.07-5.86zm9.14 0a3.09 3.09 0 1 0-3.08 3.28 3.06 3.06 0 0 0 3.08-3.28zm4.19 0a5.79 5.79 0 0 1 6.14-5.86 5.23 5.23 0 0 1 4.95 3l-2.52 1.19a2.72 2.72 0 0 0-2.43-1.65 3.28 3.28 0 0 0 0 6.56 2.72 2.72 0 0 0 2.43-1.65l2.52 1.19a5.26 5.26 0 0 1-4.95 3 5.8 5.8 0 0 1-6.14-5.78zm19.38 5.66l-3-4.27-.77 1v3.31h-2.9v-11.38h2.92v4.66l3.49-4.66h3.6l-4.4 5.3 4.64 6zm4.28-3.03V378h4.08v2.19zm-54.15 17.77a5.79 5.79 0 0 1 6.14-5.86 5.23 5.23 0 0 1 4.95 3l-2.52 1.19a2.72 2.72 0 0 0-2.43-1.65 3.28 3.28 0 0 0 0 6.56 2.72 2.72 0 0 0 2.43-1.65l2.52 1.19a5.26 5.26 0 0 1-4.95 3 5.8 5.8 0 0 1-6.14-5.78zm20.31 5.66V399h-4.71v4.56h-2.92v-11.3h2.92v4.23h4.71v-4.23h2.92v11.34zm13.01 0l-.56-1.6H64.8l-.56 1.63h-3.32l4.27-11.34h3.67l4.28 11.34zM67 395.15l-1.44 4.27h2.89zm7.31 8.45v-11.34h2.92v11.34zm13.03 0l-4.8-6.6v6.56h-2.92v-11.3h3l4.59 6.24v-6.24h2.94v11.34z"/><path class="cls-7" d="M335.73 617.01h261.05"/><path class="cls-8" d="M595.32 606.08v21.86l10.93-10.93-10.93-10.93z"/><path class="cls-7" d="M764.35 617.01h272.09"/><path class="cls-8" d="M1034.98 606.08v21.86l10.93-10.93-10.93-10.93z"/><rect class="cls-23" x="640.53" y="568.76" width="166.33" height="93" rx="46.04" ry="46.04"/><rect class="cls-24" x="640.53" y="568.76" width="166.33" height="93" rx="46.04" ry="46.04"/><path class="cls-18" d="M685.83 602.17l1.82-2.58a6 6 0 0 0 4.26 1.76c1.18 0 1.9-.46 1.9-1.1 0-1.82-7.56-.36-7.56-5.5 0-2.24 1.9-4.24 5.32-4.24a8.14 8.14 0 0 1 5.42 1.86l-1.88 2.46a6.29 6.29 0 0 0-3.9-1.38c-1 0-1.44.4-1.44 1 0 1.7 7.54.46 7.54 5.42 0 2.68-2 4.46-5.56 4.46a8.16 8.16 0 0 1-5.92-2.16zm16.46 1.83v-10.29h-3.74v-3h10.9v3h-3.72V604zm18.26 0l-.66-1.92h-5.26L714 604h-3.9l5-13.34h4.32l5 13.34zm-3.3-9.94l-1.7 5H719zm8.58 9.94v-13.29h7.56c2.64 0 3.9 1.72 3.9 3.4a3 3 0 0 1-2.28 3.06 3.19 3.19 0 0 1 2.54 3.26c0 1.94-1.3 3.62-3.92 3.62zm8-9.34a1.09 1.09 0 0 0-1.18-1.1h-3.34v2.22h3.34a1.1 1.1 0 0 0 1.14-1.07zm.26 5.24a1.2 1.2 0 0 0-1.32-1.2h-3.46v2.4h3.46a1.18 1.18 0 0 0 1.28-1.15zm5.74 4.1v-13.29h3.44V601h5.36v3zm10.98 0v-13.29h9.78v3h-6.34v2.08h6.2v3h-6.2V601h6.34v3zm-52.3 15.39c0-4.12 3.12-6.9 7.22-6.9a6.16 6.16 0 0 1 5.82 3.58l-3 1.4a3.21 3.21 0 0 0-2.86-1.94 3.86 3.86 0 0 0 0 7.72 3.2 3.2 0 0 0 2.86-1.94l3 1.4a6.2 6.2 0 0 1-5.82 3.58c-4.1 0-7.22-2.8-7.22-6.9zm14.24 0a7.14 7.14 0 1 1 7.14 6.9 6.79 6.79 0 0 1-7.14-6.9zm10.76 0a3.64 3.64 0 1 0-3.62 3.86 3.6 3.6 0 0 0 3.62-3.86zm5.64 6.61v-13.29h3.44V626zm15.32 0l-5.64-7.72V626h-3.44v-13.29h3.54l5.4 7.34v-7.34h3.46V626zm-43.08 26a15.27 15.27 0 0 1 0-17.68l.9.68a17 17 0 0 0 0 16.3zm12.44-4l-4.26-5.68-4.26 5.68h-2l5.2-6.84-4.9-6.5h2l4 5.34 3.94-5.34h2l-4.88 6.48 5.18 6.86zm4.22 0v-13.29h5.36a4 4 0 1 1 0 8h-3.7V648zm7.82-9.32a2.48 2.48 0 0 0-2.66-2.54h-3.5v5.08h3.5a2.48 2.48 0 0 0 2.66-2.49zm3.78 2.71c0-3.94 2.66-6.9 6.62-6.9s6.62 3 6.62 6.9-2.68 6.9-6.62 6.9-6.62-2.96-6.62-6.9zm11.52 0c0-3.12-1.92-5.42-4.9-5.42s-4.9 2.3-4.9 5.42 1.9 5.42 4.9 5.42 4.91-2.32 4.91-5.42zm3.5 9.94a16.87 16.87 0 0 0 0-16.3l.9-.68a15.18 15.18 0 0 1 0 17.68z"/><rect class="cls-23" x="1081.55" y="568.76" width="166.33" height="93" rx="46.04" ry="46.04"/><rect class="cls-24" x="1081.55" y="568.76" width="166.33" height="93" rx="46.04" ry="46.04"/><path class="cls-18" d="M1126.86 602.17l1.82-2.58a6 6 0 0 0 4.26 1.76c1.18 0 1.9-.46 1.9-1.1 0-1.82-7.56-.36-7.56-5.5 0-2.24 1.9-4.24 5.32-4.24a8.14 8.14 0 0 1 5.42 1.86l-1.88 2.46a6.29 6.29 0 0 0-3.9-1.38c-1 0-1.44.4-1.44 1 0 1.7 7.54.46 7.54 5.42 0 2.68-2 4.46-5.56 4.46a8.16 8.16 0 0 1-5.92-2.16zm16.46 1.83v-10.29h-3.74v-3h10.9v3h-3.72V604zm18.26 0l-.66-1.92h-5.26L1155 604h-3.9l5-13.34h4.32l5 13.34zm-3.3-9.94l-1.7 5h3.4zm8.58 9.94v-13.29h7.56c2.64 0 3.9 1.72 3.9 3.4a3 3 0 0 1-2.28 3.06 3.19 3.19 0 0 1 2.54 3.26c0 1.94-1.3 3.62-3.92 3.62zm8-9.34a1.09 1.09 0 0 0-1.18-1.1h-3.34v2.22h3.34a1.1 1.1 0 0 0 1.14-1.07zm.26 5.24a1.2 1.2 0 0 0-1.32-1.2h-3.46v2.4h3.46a1.18 1.18 0 0 0 1.28-1.15zm5.74 4.1v-13.29h3.44V601h5.36v3zm10.98 0v-13.29h9.78v3h-6.34v2.08h6.2v3h-6.2V601h6.34v3zm-52.3 15.39c0-4.12 3.12-6.9 7.22-6.9a6.16 6.16 0 0 1 5.82 3.58l-3 1.4a3.21 3.21 0 0 0-2.86-1.94 3.86 3.86 0 0 0 0 7.72 3.2 3.2 0 0 0 2.86-1.94l3 1.4a6.2 6.2 0 0 1-5.82 3.58c-4.1 0-7.22-2.8-7.22-6.9zm14.24 0a7.14 7.14 0 1 1 7.14 6.9 6.79 6.79 0 0 1-7.14-6.9zm10.76 0a3.64 3.64 0 1 0-3.62 3.86 3.6 3.6 0 0 0 3.62-3.86zm5.64 6.61v-13.29h3.44V626zm15.32 0l-5.64-7.72V626h-3.44v-13.29h3.58l5.4 7.34v-7.34h3.46V626zm-43.08 26a15.27 15.27 0 0 1 0-17.68l.9.68a17 17 0 0 0 0 16.3zm12.44-4l-4.26-5.68-4.26 5.68h-2l5.2-6.84-4.9-6.5h2l4 5.34 3.94-5.34h2l-4.88 6.48 5.18 6.86zm4.22 0v-13.29h5.36a4 4 0 1 1 0 8h-3.7V648zm7.82-9.32a2.48 2.48 0 0 0-2.66-2.54h-3.5v5.08h3.5a2.48 2.48 0 0 0 2.66-2.49zm3.78 2.71c0-3.94 2.66-6.9 6.62-6.9s6.62 3 6.62 6.9-2.68 6.9-6.62 6.9-6.62-2.96-6.62-6.9zm11.52 0c0-3.12-1.92-5.42-4.9-5.42s-4.9 2.3-4.9 5.42 1.9 5.42 4.9 5.42 4.9-2.32 4.9-5.42zm3.5 9.94a16.87 16.87 0 0 0 0-16.3l.9-.68a15.18 15.18 0 0 1 0 17.68z"/><rect class="cls-23" x="205.4" y="568.76" width="166.33" height="93" rx="46.04" ry="46.04"/><rect class="cls-24" x="205.4" y="568.76" width="166.33" height="93" rx="46.04" ry="46.04"/><path class="cls-18" d="M250.71 602.17l1.82-2.58a6 6 0 0 0 4.26 1.76c1.18 0 1.9-.46 1.9-1.1 0-1.82-7.56-.36-7.56-5.5 0-2.24 1.9-4.24 5.32-4.24a8.14 8.14 0 0 1 5.42 1.86l-1.87 2.46a6.29 6.29 0 0 0-3.9-1.38c-1 0-1.44.4-1.44 1 0 1.7 7.54.46 7.54 5.42 0 2.68-2 4.46-5.56 4.46a8.16 8.16 0 0 1-5.93-2.16zm16.46 1.83v-10.29h-3.74v-3h10.9v3h-3.72V604zm18.26 0l-.66-1.92h-5.26l-.66 1.92H275l5-13.34h4.32l5 13.34zm-3.3-9.94l-1.7 5h3.4zm8.58 9.94v-13.29h7.56c2.64 0 3.9 1.72 3.9 3.4a3 3 0 0 1-2.28 3.06 3.19 3.19 0 0 1 2.54 3.26c0 1.94-1.3 3.62-3.92 3.62zm8-9.34a1.09 1.09 0 0 0-1.18-1.1h-3.34v2.22h3.34a1.1 1.1 0 0 0 1.14-1.07zm.26 5.24a1.2 1.2 0 0 0-1.32-1.2h-3.46v2.4h3.46a1.18 1.18 0 0 0 1.28-1.15zm5.74 4.1v-13.29h3.44V601h5.36v3zm10.98 0v-13.29h9.78v3h-6.34v2.08h6.2v3h-6.2V601h6.34v3zm-52.3 15.39c0-4.12 3.12-6.9 7.22-6.9a6.16 6.16 0 0 1 5.82 3.58l-3 1.4a3.21 3.21 0 0 0-2.86-1.94 3.86 3.86 0 0 0 0 7.72 3.2 3.2 0 0 0 2.86-1.94l3 1.4a6.2 6.2 0 0 1-5.82 3.58c-4.1 0-7.22-2.8-7.22-6.9zm14.24 0a7.14 7.14 0 1 1 7.14 6.9 6.79 6.79 0 0 1-7.14-6.9zm10.76 0a3.64 3.64 0 1 0-3.62 3.86 3.6 3.6 0 0 0 3.62-3.86zM294 626v-13.29h3.44V626zm15.35 0l-5.64-7.72V626h-3.44v-13.29h3.54l5.4 7.34v-7.34h3.46V626zm-43.08 26a15.27 15.27 0 0 1 0-17.68l.9.68a17 17 0 0 0 0 16.3zm12.44-4l-4.26-5.68-4.26 5.68h-2l5.2-6.84-4.9-6.5h2l4 5.34 3.94-5.34h2l-4.88 6.48 5.18 6.86zm4.22 0v-13.29h5.36a4 4 0 1 1 0 8h-3.7V648zm7.82-9.32a2.48 2.48 0 0 0-2.66-2.54h-3.5v5.08h3.5a2.48 2.48 0 0 0 2.66-2.49zm3.78 2.71c0-3.94 2.66-6.9 6.62-6.9s6.62 3 6.62 6.9-2.68 6.9-6.62 6.9-6.62-2.96-6.62-6.9zm11.52 0c0-3.12-1.92-5.42-4.9-5.42s-4.9 2.3-4.9 5.42 1.9 5.42 4.9 5.42 4.9-2.32 4.9-5.42zm3.5 9.94a16.87 16.87 0 0 0 0-16.3l.9-.68a15.18 15.18 0 0 1 0 17.68z"/><circle class="cls-22" cx="63.61" cy="238.43" r="55.61"/><circle cx="63.61" cy="238.43" r="55.61"/><path class="cls-18" d="M49.87 216.43l-2.43-3.76-2.44 3.76h-3.42l3.91-5.74-3.66-5.45h3.4l2.2 3.5 2.16-3.5H53l-3.64 5.43 3.89 5.75zm10.81 0l-1.88-3.76h-1.47v3.76h-2.88v-11.18H60a3.6 3.6 0 0 1 3.94 3.75 3.39 3.39 0 0 1-2.23 3.35l2.29 4.08zM61 209a1.25 1.25 0 0 0-1.39-1.19h-2.28v2.4h2.28A1.24 1.24 0 0 0 61 209zm4.06 5.86l1.53-2.16a5.05 5.05 0 0 0 3.57 1.48c1 0 1.59-.39 1.59-.92 0-1.53-6.34-.3-6.34-4.61 0-1.88 1.59-3.56 4.46-3.56a6.82 6.82 0 0 1 4.54 1.56l-1.58 2.06a5.27 5.27 0 0 0-3.27-1.16c-.84 0-1.21.34-1.21.8 0 1.43 6.32.39 6.32 4.54 0 2.25-1.66 3.74-4.66 3.74a6.84 6.84 0 0 1-4.95-1.77zm10.5 0l1.53-2.16a5.05 5.05 0 0 0 3.57 1.48c1 0 1.59-.39 1.59-.92 0-1.53-6.34-.3-6.34-4.61 0-1.88 1.59-3.56 4.46-3.56a6.82 6.82 0 0 1 4.54 1.56l-1.58 2.06a5.27 5.27 0 0 0-3.27-1.16c-.84 0-1.21.34-1.21.8 0 1.43 6.32.39 6.32 4.54 0 2.25-1.66 3.74-4.66 3.74a6.84 6.84 0 0 1-4.95-1.77zm-22.38 18.52l-2.64-3.9h-2.07v3.9h-.8V224h3.51a2.67 2.67 0 0 1 2.82 2.71 2.59 2.59 0 0 1-2.61 2.71l2.72 4zm0-6.66a2 2 0 0 0-2.09-2h-2.62v4.05h2.64a2 2 0 0 0 2.09-2.06zm9.97 6.66l-.93-2.31h-5l-.93 2.31h-.93l3.87-9.38h1l3.85 9.41zm-3.43-8.55l-2.22 5.5H62zm8.43 8.55v-8.68h-3.07v-.7h7v.73H69v8.68zm5.85 0V224h6v.73h-5.2v3.49h5.07v.73H74.8v3.73H80v.73zM14.35 249l.52-.61a3.84 3.84 0 0 0 2.94 1.37c1.93 0 2.48-1.07 2.48-1.88 0-2.77-5.65-1.33-5.65-4.62 0-1.54 1.38-2.51 3.09-2.51a4 4 0 0 1 3.19 1.33l-.54.59a3.37 3.37 0 0 0-2.7-1.19c-1.26 0-2.2.72-2.2 1.74 0 2.41 5.65 1.09 5.65 4.6 0 1.21-.8 2.67-3.35 2.67a4.33 4.33 0 0 1-3.43-1.49zm11.41 1.32v-8.68h-3.08v-.73h7v.73h-3.1v8.68zm12.66 0l-.93-2.32h-5l-.93 2.31h-.93l3.85-9.41h1l3.85 9.41zM35 241.77l-2.22 5.5h4.45zm6 8.55v-9.41h3.87a2.33 2.33 0 0 1 2.6 2.4 2.14 2.14 0 0 1-1.65 2.16 2.36 2.36 0 0 1 1.83 2.31 2.42 2.42 0 0 1-2.7 2.54zm5.62-6.93a1.69 1.69 0 0 0-1.85-1.75h-3v3.49h3a1.68 1.68 0 0 0 1.87-1.74zm.18 4.33a1.83 1.83 0 0 0-2-1.86h-3v3.73h3a1.77 1.77 0 0 0 2.02-1.87zm3.2 2.6v-9.41h.8v9.41zm3.41 0v-9.41h.8v8.68h4.56v.73zm7.39 0v-9.41h.8v9.41zm2.97 0v-.71l5.67-8h-5.67v-.73h6.69v.69l-5.67 8h5.77v.73zm15.77 0l-.93-2.32h-5l-.93 2.31h-.93l3.85-9.41h1l3.85 9.41zm-3.43-8.55l-2.22 5.5h4.45zm8.43 8.55v-8.68h-3.08v-.73h7v.73h-3.1v8.68zm5.85 0v-9.41h.8v9.41zm3.07-4.7a4.58 4.58 0 1 1 4.54 4.87 4.54 4.54 0 0 1-4.54-4.87zm8.3 0c0-2.4-1.47-4.14-3.73-4.14s-3.73 1.74-3.73 4.14 1.44 4.14 3.73 4.14 3.73-1.76 3.73-4.14zm9.86 4.7l-5.93-8.09v8.09h-.8v-9.41h.82l5.9 8v-8h.8v9.41zm-74.14 15.62l.52-.61a3.84 3.84 0 0 0 2.94 1.37c1.93 0 2.48-1.07 2.48-1.88 0-2.77-5.65-1.33-5.65-4.62 0-1.54 1.38-2.51 3.09-2.51a4 4 0 0 1 3.19 1.31l-.54.59a3.37 3.37 0 0 0-2.7-1.19c-1.26 0-2.2.72-2.2 1.74 0 2.41 5.65 1.09 5.65 4.6 0 1.21-.8 2.67-3.35 2.67a4.33 4.33 0 0 1-3.43-1.47zm11.79 1.33v-4l-3.74-5.39h1l3.18 4.63 3.18-4.63h1l-3.74 5.39v4zm5.73-1.33l.52-.61a3.84 3.84 0 0 0 2.94 1.37c1.93 0 2.48-1.07 2.48-1.88 0-2.77-5.65-1.33-5.65-4.62 0-1.54 1.38-2.51 3.09-2.51a4 4 0 0 1 3.17 1.31l-.54.59a3.37 3.37 0 0 0-2.7-1.19c-1.26 0-2.2.72-2.2 1.74 0 2.41 5.65 1.09 5.65 4.6 0 1.21-.8 2.67-3.34 2.67a4.33 4.33 0 0 1-3.42-1.47zm11.38 1.33v-8.68H63.3v-.73h7v.73h-3.1v8.68zm5.85 0v-9.41h6v.73H73v3.49h5.1v.73H73v3.73h5.2v.73zm16.23 0V259L85 267.27h-.31L81.28 259v8.31h-.8v-9.41h1.2l3.2 7.76 3.19-7.76h1.21v9.41z"/><circle class="cls-22" cx="64.36" cy="515.56" r="55.61"/><circle cx="64.36" cy="515.56" r="55.61"/><path class="cls-18" d="M34 509.79l-4.66-6-4.64 6h-1.47l5.38-6.84-5.08-6.5H25l4.32 5.66 4.34-5.66h1.44l-5.1 6.48 5.36 6.86zm11.66 0l-3.74-5.52H39v5.52h-1.17v-13.34h5a3.78 3.78 0 0 1 4.06 3.9 3.68 3.68 0 0 1-3.7 3.84l3.86 5.6zm0-9.44a2.78 2.78 0 0 0-3-2.86H39v5.74h3.74a2.79 2.79 0 0 0 2.94-2.88zm3.95 2.78c0-3.9 2.56-6.9 6.48-6.9s6.48 3 6.48 6.9S60 510 56.09 510s-6.48-3-6.48-6.87zm11.76 0c0-3.4-2.08-5.86-5.28-5.86s-5.28 2.46-5.28 5.86 2 5.86 5.28 5.86 5.29-2.5 5.29-5.86zm13.97 6.66l-8.4-11.46v11.46h-1.15v-13.34H67l8.36 11.3v-11.3h1.14v13.34zm4.33-6.66c0-3.9 2.56-6.9 6.48-6.9s6.48 3 6.48 6.9-2.58 6.9-6.48 6.9-6.48-3.03-6.48-6.9zm11.76 0c0-3.4-2.08-5.86-5.28-5.86s-5.28 2.46-5.28 5.86 2 5.86 5.28 5.86 5.29-2.5 5.29-5.86zm3.68 4.78l.74-.86A5.44 5.44 0 0 0 100 509c2.74 0 3.52-1.52 3.52-2.66 0-3.92-8-1.88-8-6.54 0-2.18 2-3.56 4.38-3.56a5.73 5.73 0 0 1 4.52 1.88l-.76.84a4.78 4.78 0 0 0-3.82-1.68c-1.78 0-3.12 1-3.12 2.46 0 3.42 8 1.54 8 6.52 0 1.72-1.14 3.78-4.74 3.78a6.14 6.14 0 0 1-4.87-2.13zM36 533.79l-2-8.36-2 8.36h-3.65l-3.82-13.34h3.86l2 8.9 2.28-8.9h2.64l2.28 8.9 2-8.9h3.91l-3.82 13.34zm18 0l-.66-1.92h-5.22l-.66 1.92h-3.9l5-13.34h4.34l5 13.34zm-3.3-9.94l-1.7 5h3.4zm8.61 9.94v-13.34h3.44v10.34h5.36v3zm10.98 0v-13.34h3.44v10.34h5.37v3zm10.98 0v-13.34h9.78v3h-6.34v2.08h6.2v3h-6.2v2.26h6.34v3zm15.16 0v-10.34h-3.74v-3h10.9v3h-3.72v10.34z"/><path d="M1097.63 445.42l-2.95-11.54-2.92 11.54H1088l-4.81-16.8h4l2.95 12.14 3.2-12.14h2.8l3.17 12.14 2.92-12.14h4l-4.79 16.8zm9.32-8.42a8.78 8.78 0 1 1 8.77 8.69 8.44 8.44 0 0 1-8.77-8.69zm13.88 0c0-3.15-2-5.52-5.11-5.52s-5.09 2.37-5.09 5.52 2 5.52 5.09 5.52 5.11-2.37 5.11-5.52zm15.54 8.42l-3.3-6h-2.62v6h-3.58v-16.8h7.86c3.5 0 5.64 2.29 5.64 5.42a4.82 4.82 0 0 1-3.68 5l3.78 6.4zm.35-11.39a2.28 2.28 0 0 0-2.52-2.27h-3.75v4.53h3.75a2.28 2.28 0 0 0 2.52-2.29zm16.17 11.39l-5.09-6.73-1.31 1.56v5.16h-3.58v-16.8h3.58v7.51l5.95-7.51h4.41l-6.68 7.89 7.13 8.92zm5.42-1.76a2 2 0 1 1 2 2 2.06 2.06 0 0 1-2-2zm5.64-.61l1.94-2.72a7.37 7.37 0 0 0 5.34 2.27c2 0 2.92-.91 2.92-1.86 0-3-9.67-.93-9.67-7.26 0-2.8 2.42-5.11 6.37-5.11a9.35 9.35 0 0 1 6.55 2.34l-2 2.62a7.22 7.22 0 0 0-4.89-1.84c-1.54 0-2.39.68-2.39 1.69 0 2.67 9.65.88 9.65 7.15 0 3.07-2.19 5.39-6.73 5.39a9.58 9.58 0 0 1-7.09-2.67zm16.05 2.37v-16.8h7.86a5.42 5.42 0 1 1 0 10.83h-4.28v6zm9.85-11.39a2.25 2.25 0 0 0-2.47-2.27h-3.8v4.53h3.8a2.27 2.27 0 0 0 2.51-2.29zm17.35 11.39l-1-2.85h-7.2l-1.06 2.85h-4.08l6.5-16.8h4.48l6.47 16.8zm-4.64-13.23l-2.62 7.23h5.24zm9.32 4.81c0-5.16 3.9-8.69 8.94-8.69a7.69 7.69 0 0 1 7 4.11l-3.07 1.51a4.55 4.55 0 0 0-4-2.44 5.52 5.52 0 0 0 0 11 4.5 4.5 0 0 0 4-2.44l3.07 1.49a7.74 7.74 0 0 1-7 4.13c-5.03.05-8.94-3.47-8.94-8.67zm17.96 8.42v-16.8h11.89v3.15h-8.31v3.55h8.14v3.15h-8.14v3.8h8.31v3.15z"/><path class="cls-25" d="M1125.24 399.66a6.92 6.92 0 0 1-4.5-1.67 6.81 6.81 0 0 1-2.39-6.07l.32-1.59 6.82-33.24.27-1.35c.06-.28.11-.56.16-.82a8 8 0 0 1 1-3 7.07 7.07 0 0 1 5.95-3.21h.16a6.9 6.9 0 0 1 3.88 1.19 6.6 6.6 0 0 1 3 6.51 3.21 3.21 0 0 0 3.14 3.84h10.19l-2.78 13.69h-9.06a6.26 6.26 0 0 0-6.11 5l-2.21 10.77s-.69 3.42-1.05 5.12c-.55 2.6-3.64 4.88-6.61 4.88z"/><rect class="cls-25" x="1129.1" y="329.12" width="15.45" height="15.45" rx="7.65" ry="7.65"/><rect class="cls-25" x="1155.32" y="305.33" width="15.75" height="15.75" rx="7.79" ry="7.79"/><rect class="cls-25" x="1174.09" y="320.41" width="15.75" height="15.75" rx="7.79" ry="7.79"/><rect class="cls-25" x="1192.57" y="337.18" width="15.75" height="15.75" rx="7.79" ry="7.79"/><path class="cls-25" d="M1148.73 391.61a6.92 6.92 0 0 1-4.5-1.67 6.81 6.81 0 0 1-2.39-6.07l.32-1.59 10.08-50.64c.06-.28.11-.56.16-.82a8 8 0 0 1 1-3 7.07 7.07 0 0 1 5.95-3.21h.16a6.9 6.9 0 0 1 3.88 1.19 6.6 6.6 0 0 1 3 6.51l-.43 2.15-2 10.2a5 5 0 0 0 4.93 6h8.06l-1.41 13.69h-10.38a6.25 6.25 0 0 0-6.12 5l-2.44 12.27s-.69 3.41-1.05 5.12c-.55 2.6-3.64 4.88-6.61 4.88z"/><path class="cls-25" d="M1167.39 406.61a6.92 6.92 0 0 1-4.5-1.67 6.81 6.81 0 0 1-2.39-6.07l.32-1.59 10-50.41c.06-.28.11-.56.16-.82a8 8 0 0 1 1-3 7.07 7.07 0 0 1 5.95-3.21h.16a6.89 6.89 0 0 1 3.88 1.18 6.6 6.6 0 0 1 3 6.51l-.43 2.15-2 10.26a4.76 4.76 0 0 0 4.67 5.69h8.17l-1.41 13.69h-11.25a4.93 4.93 0 0 0-4.82 4l-2.66 13.36s-.69 3.41-1.05 5.12c-.55 2.6-3.64 4.88-6.61 4.88z"/><path class="cls-25" d="M1191 397.66a6.92 6.92 0 0 1-4.5-1.67 6.82 6.82 0 0 1-2.4-6.07l.32-1.59 4.64-23.35.27-1.35c.1-.45.18-.86.25-1.23a6.1 6.1 0 0 1 .84-2.59 7.49 7.49 0 0 1 6-3.25h.16a6.9 6.9 0 0 1 3.88 1.18 6.6 6.6 0 0 1 3 6.51l-.43 2.15-4.22 21.24s-.69 3.41-1.05 5.12c-.55 2.6-3.64 4.88-6.61 4.88z"/><path d="M336.36 209.55l-2.72-4.24h-2.13v4.24h-1.33v-10.68h4.29a3.11 3.11 0 0 1 3.35 3.22 3 3 0 0 1-2.82 3.11l2.88 4.35zm.08-7.46a2 2 0 0 0-2.13-2h-2.8v4.08h2.8a2 2 0 0 0 2.13-2.08zm3.14 3.59a3.87 3.87 0 0 1 3.81-4c2.34 0 3.71 1.82 3.71 4.15v.3h-6.26a2.72 2.72 0 0 0 2.79 2.67 3.38 3.38 0 0 0 2.38-1l.58.78a4.2 4.2 0 0 1-3.07 1.18 3.83 3.83 0 0 1-3.94-4.08zm3.79-3.06a2.58 2.58 0 0 0-2.53 2.58h5.07a2.51 2.51 0 0 0-2.54-2.58zm10.63 6.93v-.88a3.34 3.34 0 0 1-2.56 1.07 2.57 2.57 0 0 1-2.71-2.56 2.53 2.53 0 0 1 2.71-2.54 3.23 3.23 0 0 1 2.56 1.06v-1.4c0-1-.83-1.63-2-1.63a3.07 3.07 0 0 0-2.37 1.07l-.56-.83a4 4 0 0 1 3.09-1.28c1.63 0 3 .74 3 2.61v5.31zm0-1.63v-1.46a2.59 2.59 0 0 0-2.13-1 1.7 1.7 0 1 0 0 3.38 2.59 2.59 0 0 0 2.13-.92zm9.4 1.63v-1.15a3.26 3.26 0 0 1-2.61 1.34c-2 0-3.44-1.54-3.44-4s1.41-4.07 3.44-4.07a3.23 3.23 0 0 1 2.61 1.33v-4.11h1.2v10.68zm0-2.1v-3.51a2.9 2.9 0 0 0-2.32-1.25c-1.55 0-2.48 1.28-2.48 3s.93 3 2.48 3a2.88 2.88 0 0 0 2.32-1.24zm3.52 4.04a1.85 1.85 0 0 0 .66.13 1.11 1.11 0 0 0 1.15-.82l.51-1.17-3.24-7.81h1.3l2.58 6.34 2.56-6.34h1.31l-3.87 9.3a2.3 2.3 0 0 1-2.27 1.57 3.92 3.92 0 0 1-.88-.11zm12.32-11.58a.81.81 0 1 1 1.62 0 .81.81 0 0 1-1.62 0zm.21 9.64v-7.73h1.2v7.73zm8.98 0v-5.06c0-1.36-.69-1.79-1.73-1.79a3 3 0 0 0-2.29 1.2v5.65h-1.2v-7.73h1.2v1.12a3.83 3.83 0 0 1 2.75-1.31 2.2 2.2 0 0 1 2.46 2.5v5.43zm-58.79 19v-2.14c4.63-3.35 5.49-4.08 5.49-5.14 0-.74-.69-1.12-1.47-1.12a4 4 0 0 0-2.85 1.17l-1.52-1.82a5.88 5.88 0 0 1 4.32-1.78c2.51 0 4.32 1.41 4.32 3.55 0 1.63-1.17 3-3.83 4.88h3.9v2.4zm9.59-5.33c0-2.82 1.46-5.51 4.58-5.51s4.58 2.69 4.58 5.51-1.46 5.52-4.58 5.52-4.58-2.74-4.58-5.52zm6.37 0c0-1.89-.51-3.07-1.79-3.07s-1.79 1.18-1.79 3.07.51 3.09 1.79 3.09 1.79-1.2 1.79-3.09zm6.8 5.33v-7.15l-1.79 1.81-1.61-1.65 3.73-3.68h2.38v10.68zm5.8 0l3.62-8.28h-5.2v-2.4H365v1.91l-3.76 8.77z"/><circle class="cls-21" cx="1163.21" cy="251.1" r="30.25"/><path class="cls-18" d="M1152.61 250.63v-2.15c4.63-3.35 5.49-4.08 5.49-5.14 0-.74-.69-1.12-1.47-1.12a4 4 0 0 0-2.85 1.17l-1.52-1.82a5.88 5.88 0 0 1 4.32-1.78c2.51 0 4.32 1.41 4.32 3.55 0 1.63-1.17 3-3.83 4.88h3.93v2.4zm9.54-8.14a2.8 2.8 0 1 1 2.77 2.66 2.63 2.63 0 0 1-2.77-2.66zm3.87 0a1.08 1.08 0 0 0-1.1-1.22 1.07 1.07 0 0 0-1.07 1.22 1.06 1.06 0 0 0 1.07 1.18 1.07 1.07 0 0 0 1.08-1.18zm-2.16 8.15l6.82-10.68h1.39l-6.83 10.68zm4.32-2.46a2.79 2.79 0 1 1 2.77 2.66 2.63 2.63 0 0 1-2.76-2.67zm3.87 0A1.08 1.08 0 0 0 1171 247c-.62 0-1.07.42-1.07 1.22a1 1 0 0 0 1.07 1.18 1.07 1.07 0 0 0 1.06-1.23zM1147.18 264v-6.44h1v1a2.74 2.74 0 0 1 2.15-1.17v1a1.76 1.76 0 0 0-.4 0 2.36 2.36 0 0 0-1.75 1V264zm4.16-3.26a3.22 3.22 0 0 1 3.17-3.37c1.95 0 3.09 1.52 3.09 3.45v.25h-5.21a2.27 2.27 0 0 0 2.32 2.23 2.82 2.82 0 0 0 2-.81l.48.65a3.5 3.5 0 0 1-2.56 1 3.19 3.19 0 0 1-3.29-3.4zm3.16-2.55a2.15 2.15 0 0 0-2.11 2.15h4.23a2.09 2.09 0 0 0-2.12-2.14zm8.88 5.81v-.73a2.78 2.78 0 0 1-2.13.89A2.15 2.15 0 0 1 1159 262a2.11 2.11 0 0 1 2.25-2.12 2.69 2.69 0 0 1 2.13.88v-1.16c0-.87-.69-1.36-1.63-1.36a2.56 2.56 0 0 0-2 .89l-.47-.69a3.37 3.37 0 0 1 2.57-1.07c1.36 0 2.49.61 2.49 2.17V264zm0-1.36v-1.24a2.16 2.16 0 0 0-1.77-.8 1.42 1.42 0 1 0 0 2.81 2.16 2.16 0 0 0 1.77-.8zm7.81 1.36v-1a2.71 2.71 0 0 1-2.17 1.12c-1.68 0-2.87-1.28-2.87-3.37s1.17-3.39 2.87-3.39a2.69 2.69 0 0 1 2.17 1.13v-3.43h1V264zm0-1.75v-2.95a2.42 2.42 0 0 0-1.93-1c-1.29 0-2.07 1.07-2.07 2.49s.77 2.48 2.07 2.48a2.4 2.4 0 0 0 1.93-1.05zm2.93 3.34a1.54 1.54 0 0 0 .55.11.93.93 0 0 0 1-.68l.43-1-2.69-6.51h1.08l2.15 5.28 2.13-5.28h1.09l-3.23 7.75a1.91 1.91 0 0 1-1.89 1.31 3.25 3.25 0 0 1-.73-.09z"/><path class="cls-18" d="M1152.61 250.63v-2.15c4.63-3.35 5.49-4.08 5.49-5.14 0-.74-.69-1.12-1.47-1.12a4 4 0 0 0-2.85 1.17l-1.52-1.82a5.88 5.88 0 0 1 4.32-1.78c2.51 0 4.32 1.41 4.32 3.55 0 1.63-1.17 3-3.83 4.88h3.93v2.4zm9.54-8.14a2.8 2.8 0 1 1 2.77 2.66 2.63 2.63 0 0 1-2.77-2.66zm3.87 0a1.08 1.08 0 0 0-1.1-1.22 1.07 1.07 0 0 0-1.07 1.22 1.06 1.06 0 0 0 1.07 1.18 1.07 1.07 0 0 0 1.08-1.18zm-2.16 8.15l6.82-10.68h1.39l-6.83 10.68zm4.32-2.46a2.79 2.79 0 1 1 2.77 2.66 2.63 2.63 0 0 1-2.76-2.67zm3.87 0A1.08 1.08 0 0 0 1171 247c-.62 0-1.07.42-1.07 1.22a1 1 0 0 0 1.07 1.18 1.07 1.07 0 0 0 1.06-1.23zM1147.18 264v-6.44h1v1a2.74 2.74 0 0 1 2.15-1.17v1a1.76 1.76 0 0 0-.4 0 2.36 2.36 0 0 0-1.75 1V264zm4.16-3.26a3.22 3.22 0 0 1 3.17-3.37c1.95 0 3.09 1.52 3.09 3.45v.25h-5.21a2.27 2.27 0 0 0 2.32 2.23 2.82 2.82 0 0 0 2-.81l.48.65a3.5 3.5 0 0 1-2.56 1 3.19 3.19 0 0 1-3.29-3.4zm3.16-2.55a2.15 2.15 0 0 0-2.11 2.15h4.23a2.09 2.09 0 0 0-2.12-2.14zm8.88 5.81v-.73a2.78 2.78 0 0 1-2.13.89A2.15 2.15 0 0 1 1159 262a2.11 2.11 0 0 1 2.25-2.12 2.69 2.69 0 0 1 2.13.88v-1.16c0-.87-.69-1.36-1.63-1.36a2.56 2.56 0 0 0-2 .89l-.47-.69a3.37 3.37 0 0 1 2.57-1.07c1.36 0 2.49.61 2.49 2.17V264zm0-1.36v-1.24a2.16 2.16 0 0 0-1.77-.8 1.42 1.42 0 1 0 0 2.81 2.16 2.16 0 0 0 1.77-.8zm7.81 1.36v-1a2.71 2.71 0 0 1-2.17 1.12c-1.68 0-2.87-1.28-2.87-3.37s1.17-3.39 2.87-3.39a2.69 2.69 0 0 1 2.17 1.13v-3.43h1V264zm0-1.75v-2.95a2.42 2.42 0 0 0-1.93-1c-1.29 0-2.07 1.07-2.07 2.49s.77 2.48 2.07 2.48a2.4 2.4 0 0 0 1.93-1.05zm2.93 3.34a1.54 1.54 0 0 0 .55.11.93.93 0 0 0 1-.68l.43-1-2.69-6.51h1.08l2.15 5.28 2.13-5.28h1.09l-3.23 7.75a1.91 1.91 0 0 1-1.89 1.31 3.25 3.25 0 0 1-.73-.09z"/><path class="cls-27" d="M182.86 743.32l-6.68-9.13v9.13h-3v-14h3.07l6.49 8.8v-8.8h3v14zm6.07 0v-14h9.91v2.62h-6.93v3h6.78v2.62h-6.78v3.17h6.93v2.62zm23.37 0l-2.46-9.62-2.44 9.62h-3.17l-4-14h3.34l2.43 10.11 2.67-10.12H211l2.65 10.12 2.44-10.12h3.36l-4 14zm14.12-6.99a7.12 7.12 0 0 1 7.45-7.24 6.41 6.41 0 0 1 5.86 3.42l-2.56 1.26a3.8 3.8 0 0 0-3.3-2 4.6 4.6 0 0 0 0 9.2 3.76 3.76 0 0 0 3.3-2l2.56 1.24a6.45 6.45 0 0 1-5.86 3.44 7.12 7.12 0 0 1-7.45-7.32zm23.43 6.99l-2.75-5h-2.18v5h-3v-14h6.55a4.36 4.36 0 0 1 4.7 4.51 4 4 0 0 1-3.07 4.16l3.15 5.33zm.29-9.49a1.9 1.9 0 0 0-2.1-1.89h-3.13v3.78H248a1.9 1.9 0 0 0 2.15-1.89zm9.62 9.49v-5.73l-5.4-8.27h3.4l3.48 5.63 3.44-5.63h3.4l-5.35 8.27v5.73zm10.06 0v-14h6.55a4.52 4.52 0 1 1 0 9h-3.57v5zm8.21-9.49a1.88 1.88 0 0 0-2.06-1.89h-3.17v3.78h3.2a1.89 1.89 0 0 0 2-1.89zm8.55 9.49v-11.38h-4.09v-2.62h11.17v2.62h-4.07v11.38zm8.74-6.99a7.32 7.32 0 1 1 7.31 7.24 7 7 0 0 1-7.31-7.24zm11.57 0c0-2.62-1.68-4.6-4.26-4.6s-4.24 2-4.24 4.6 1.66 4.6 4.24 4.6 4.26-2 4.26-4.6zm17.76 6.99v-9.81l-3.95 9.81h-1.3l-3.95-9.81v9.81h-3v-14h4.18l3.4 8.46 3.4-8.46h4.2v14zm15.86 0l-.86-2.37h-6l-.88 2.37h-3.4l5.42-14h3.74l5.4 14zm-3.86-11l-2.18 6h4.37zm16.9 11l-2.75-5h-2.18v5h-3v-14h6.55a4.36 4.36 0 0 1 4.7 4.51 4 4 0 0 1-3.07 4.16l3.15 5.33zm.29-9.49a1.9 1.9 0 0 0-2.1-1.89h-3.13v3.78h3.13a1.9 1.9 0 0 0 2.1-1.89zm14.03 9.49l-4.24-5.61-1.09 1.3v4.3h-3v-14h3v6.26l5-6.26h3.67l-5.56 6.57 5.94 7.43zm5.46 0v-14h9.91v2.62h-6.93v3h6.78v2.62h-6.78v3.17h6.93v2.62zm15.9 0v-11.38h-4.09v-2.62h11.16v2.62h-4.07v11.38zm-128.51 20.03l.78-.9a5.71 5.71 0 0 0 4.37 2c2.88 0 3.7-1.6 3.7-2.79 0-4.12-8.4-2-8.4-6.87 0-2.29 2.06-3.74 4.6-3.74a6 6 0 0 1 4.75 2l-.8.88a5 5 0 0 0-4-1.76c-1.87 0-3.28 1.07-3.28 2.58 0 3.59 8.4 1.62 8.4 6.84 0 1.81-1.2 4-5 4a6.44 6.44 0 0 1-5.12-2.24zm16.97 1.97v-12.91h-4.58v-1.09h10.37v1.09h-4.58v12.91zm8.69 0v-14h8.88v1.09h-7.68v5.19h7.54v1.09h-7.54v5.54h7.68v1.09zm12.27 0v-14h5.25a4.1 4.1 0 1 1 0 8.19h-4.05v5.82zm8.21-9.91a2.9 2.9 0 0 0-3.09-3h-3.93v6h3.93a2.9 2.9 0 0 0 3.09-3zm327.38-12.09l-6.68-9.13v9.13h-3v-14h3.07l6.49 8.8v-8.8h3v14zm6.07 0v-14h9.91v2.62h-6.93v3h6.78v2.62h-6.78v3.17h6.93v2.62zm23.37 0l-2.46-9.62-2.44 9.62h-3.17l-4-14h3.34l2.46 10.12 2.67-10.12h2.33l2.59 10.11 2.44-10.12h3.36l-4 14zm14.12-6.99a7.1 7.1 0 0 1 7.45-7.24 6.55 6.55 0 0 1 5.79 3.13l-2.48 1.34a4 4 0 0 0-3.32-1.83 4.6 4.6 0 0 0 0 9.2 4.72 4.72 0 0 0 3-1.07v-1.68h-3.7v-2.6h6.68v5.38a7.77 7.77 0 0 1-6 2.65 7.13 7.13 0 0 1-7.42-7.28zm25.87 6.99l-.86-2.37h-6l-.88 2.37h-3.4l5.42-14h3.74l5.4 14zm-3.86-11l-2.18 6H702zm21.19 11v-9.81l-4 9.81h-1.3l-3.95-9.81v9.81h-3v-14H713l3.4 8.46 3.4-8.46h4.2v14zm6.17 0v-14h9.91v2.62h-6.93v3h6.78v2.62h-6.78v3.17h6.93v2.62zm24.83 0v-9.81l-3.95 9.81h-1.3l-3.95-9.81v9.81h-3v-14h4.2l3.4 8.46 3.4-8.46h4.2v14zm15.87 0l-.86-2.37h-6l-.88 2.37h-3.4l5.42-14h3.74l5.4 14zm-3.86-11l-2.18 6h4.37zm16.9 11l-2.75-5H776v5h-3v-14h6.55a4.36 4.36 0 0 1 4.7 4.51 4 4 0 0 1-3.07 4.16l3.15 5.33zm.29-9.49a1.9 1.9 0 0 0-2.1-1.89H776v3.78h3.13a1.9 1.9 0 0 0 2.07-1.89zm14.03 9.49l-4.23-5.61-1.1 1.29v4.3h-3v-14h3v6.26l5-6.26h3.67l-5.57 6.59 5.94 7.43zm5.46 0v-14h9.91v2.62h-6.93v3h6.78v2.62h-6.78v3.17h6.93v2.62zm15.9 0v-11.38h-4.09v-2.62h11.17v2.62h-4.07v11.38zm-116.5 20.03l.78-.9a5.71 5.71 0 0 0 4.37 2c2.88 0 3.7-1.6 3.7-2.79 0-4.12-8.4-2-8.4-6.87 0-2.29 2.06-3.74 4.6-3.74a6 6 0 0 1 4.75 2l-.8.88a5 5 0 0 0-4-1.76c-1.87 0-3.28 1.07-3.28 2.58 0 3.59 8.4 1.62 8.4 6.84 0 1.81-1.2 4-5 4a6.44 6.44 0 0 1-5.12-2.24zm16.97 1.97v-12.91h-4.58v-1.09h10.37v1.09h-4.58v12.91zm8.69 0v-14h8.88v1.09h-7.68v5.19h7.54v1.09h-7.54v5.54h7.68v1.09zm12.25 0v-14h5.25a4.1 4.1 0 1 1 0 8.19h-4.05v5.82zm8.21-9.91a2.9 2.9 0 0 0-3.09-3h-3.93v6h3.93a2.9 2.9 0 0 0 3.1-3zm357.84-12.09l-6.68-9.13v9.13h-3v-14h3.07l6.49 8.8v-8.8h3v14zm6.07 0v-14h9.88v2.62h-6.93v3h6.78v2.62h-6.78v3.17h6.93v2.62zm23.37 0l-2.49-9.62-2.44 9.62h-3.17l-4-14h3.34l2.46 10.12 2.67-10.12h2.33l2.64 10.12 2.44-10.12h3.36l-4 14zm13.84-1.97l1.62-2.27a6.14 6.14 0 0 0 4.45 1.89c1.64 0 2.44-.76 2.44-1.55 0-2.48-8.06-.78-8.06-6 0-2.33 2-4.26 5.31-4.26a7.79 7.79 0 0 1 5.46 2l-1.66 2.18a6 6 0 0 0-4.07-1.53c-1.28 0-2 .57-2 1.41 0 2.23 8 .73 8 6 0 2.56-1.83 4.49-5.61 4.49a8 8 0 0 1-5.88-2.36zm13.3-5.02a7.32 7.32 0 1 1 7.31 7.24 7 7 0 0 1-7.31-7.24zm11.57 0c0-2.62-1.68-4.6-4.26-4.6s-4.24 2-4.24 4.6 1.66 4.6 4.24 4.6 4.25-2 4.25-4.6zm4.91 0a7.12 7.12 0 0 1 7.45-7.24 6.41 6.41 0 0 1 5.86 3.42l-2.56 1.26a3.8 3.8 0 0 0-3.3-2 4.6 4.6 0 0 0 0 9.2 3.75 3.75 0 0 0 3.3-2l2.56 1.24a6.45 6.45 0 0 1-5.86 3.44 7.12 7.12 0 0 1-7.45-7.32zm15.52 6.99v-14h3v14zm15.83 0l-.86-2.37h-6l-.88 2.37h-3.4l5.42-14h3.74l5.4 14zm-3.86-11l-2.18 6h4.37zm8.99 11v-14h3v11.38h5.92v2.62zm-76.2 20.03l.78-.9a5.71 5.71 0 0 0 4.37 2c2.88 0 3.7-1.6 3.7-2.79 0-4.12-8.4-2-8.4-6.87 0-2.29 2.06-3.74 4.6-3.74a6 6 0 0 1 4.75 2l-.8.88a5 5 0 0 0-4-1.76c-1.87 0-3.28 1.07-3.28 2.58 0 3.59 8.4 1.62 8.4 6.84 0 1.81-1.2 4-5 4a6.44 6.44 0 0 1-5.12-2.24zm16.97 1.97v-12.91h-4.58v-1.09h10.37v1.09h-4.58v12.91zm8.69 0v-14h8.88v1.09h-7.68v5.19h7.54v1.09h-7.54v5.54h7.68v1.09zm12.27 0v-14h5.25a4.1 4.1 0 1 1 0 8.19h-4.05v5.82zm8.21-9.91a2.9 2.9 0 0 0-3.09-3h-3.93v6h3.93a2.9 2.9 0 0 0 3.09-3z"/><path class="cls-28" d="M261.47 381.07H308v8.14h-46.53zm41.59-48.86l4.94-8.14v-8.13h-46.53v8.17l12.32 20.33-12.32 20.32v8.17H308l-.02-8.14-4.94-8.14h-10.92l4.94 8.14h-24.69l12.34-20.35-12.34-20.36h24.73l-4.96 8.13h10.92z"/><path class="cls-18" d="M246.2 402.6h-3.84l-3.35 5.5-3.33-5.5h-3.84l4.64 7.45-4.69 7.49h3.84l3.38-5.54 3.4 5.54h3.83l-4.68-7.49 4.64-7.45zm30.42-.34a7.81 7.81 0 1 0 8 7.84 7.82 7.82 0 0 0-8-7.84zm0 12.7a4.89 4.89 0 1 1 4.73-4.87 4.69 4.69 0 0 1-4.73 4.91zm39.92-12.7a7.81 7.81 0 1 0 8 7.84 7.82 7.82 0 0 0-8-7.84zm0 12.7a4.89 4.89 0 1 1 4.73-4.87 4.69 4.69 0 0 1-4.73 4.91zm-16.12-2.59l-8.27-9.76h-2.74v14.93h3.26v-9.46l8 9.46h3.01v-14.93h-3.26v9.76zm-36.3-4.99c0-2.85-2.13-4.78-5.29-4.78h-7.56v14.93h3.25v-5.32h2l4.53 5.32h4.11l-4.7-5.55a4.74 4.74 0 0 0 3.66-4.6zm-5.71 2.21h-3.89v-4.29h3.89c1.51 0 2.53.86 2.53 2.14a2.24 2.24 0 0 1-2.53 2.15zm76.32 8.29c-3.47 0-6-1.66-6.46-4.24l3.46-.66a3 3 0 0 0 3.21 2.24c1.54 0 2.53-.72 2.53-1.84 0-.89-.49-1.37-1.63-1.61l-3.22-.69c-2.66-.61-3.95-2-3.95-4.22 0-2.8 2.3-4.61 5.85-4.61 3.19 0 5.45 1.51 6.08 4l-3.25.65a2.86 2.86 0 0 0-2.87-2.13c-1.37 0-2.33.75-2.33 1.82 0 .84.46 1.33 1.44 1.54l3.2.71c2.68.6 4 2 4 4.25.04 3.33-3.02 4.79-6.06 4.79z"/><path class="cls-29" d="M238.25 444.69l-.94-2.37H232l-.94 2.37h-1.52l4.28-10.69h1.65l4.31 10.68zm-3.6-9.3l-2.27 5.75h4.53zm6.88 3.97a5.34 5.34 0 0 1 5.49-5.52 5.09 5.09 0 0 1 4.15 2l-1.06.66A3.94 3.94 0 0 0 247 435a4.35 4.35 0 0 0 0 8.69 4.21 4.21 0 0 0 2.87-1.15v-2.18h-3.67v-1.16h5v3.86a5.56 5.56 0 0 1-4.2 1.84 5.35 5.35 0 0 1-5.47-5.54zm12.21 0a5.34 5.34 0 0 1 5.49-5.52 5.09 5.09 0 0 1 4.15 2l-1.06.66a3.94 3.94 0 0 0-3.09-1.47 4.35 4.35 0 0 0 0 8.69 4.21 4.21 0 0 0 2.87-1.15v-2.18h-3.67v-1.19h5v3.86a5.56 5.56 0 0 1-4.19 1.84 5.35 5.35 0 0 1-5.5-5.54zm18.82 5.33l-2.72-4.24h-2.13v4.24h-1.33V434h4.29a3.11 3.11 0 0 1 3.35 3.22 3 3 0 0 1-2.77 3.11l2.88 4.35zm.08-7.46a2 2 0 0 0-2.13-2h-2.8v4.08h2.8a2 2 0 0 0 2.13-2.08zm4.27 7.46V434h7v1.18h-5.67v3.44h5.55v1.18h-5.55v3.68h5.67v1.18zm9.47-5.33a5.34 5.34 0 0 1 5.49-5.52 5.09 5.09 0 0 1 4.15 2l-1.06.66a3.94 3.94 0 0 0-3.09-1.47 4.35 4.35 0 0 0 0 8.69 4.21 4.21 0 0 0 2.87-1.15v-2.18h-3.67v-1.19h5v3.86a5.56 5.56 0 0 1-4.19 1.84 5.35 5.35 0 0 1-5.5-5.54zm20.26 5.33l-.94-2.37h-5.31l-.94 2.37h-1.52L302.2 434h1.65l4.31 10.68zm-3.6-9.3l-2.27 5.75h4.53zm9.96 9.3v-9.49h-3.38V434h8.1v1.18h-3.39v9.49zm6.83-5.33a5.3 5.3 0 1 1 5.3 5.52 5.21 5.21 0 0 1-5.3-5.52zm9.22 0c0-2.5-1.54-4.34-3.92-4.34s-3.92 1.84-3.92 4.34 1.52 4.34 3.92 4.34 3.92-1.86 3.92-4.34zm10.43 5.33l-2.72-4.24h-2.13v4.24h-1.33V434h4.29a3.11 3.11 0 0 1 3.35 3.22 3 3 0 0 1-2.77 3.11l2.88 4.35zm.08-7.46a2 2 0 0 0-2.13-2h-2.8v4.08h2.8a2 2 0 0 0 2.13-2.08z"/><rect class="cls-16" x="608.62" y="79.42" width="6.03" height="22.55" rx="1.81" ry="1.81"/><rect class="cls-16" x="837.6" y="79.42" width="6.03" height="22.55" rx="1.81" ry="1.81"/><rect class="cls-16" x="714.65" y="154.52" width="22.55" height="6.03" rx="1.81" ry="1.81"/></g></g></svg>