<svg xmlns="http://www.w3.org/2000/svg" viewBox="0 0 1893.26 1337.79"><defs><style>.cls-1{opacity:.15}.cls-2,.cls-3{fill:none;stroke:#d8c387;stroke-miterlimit:10;stroke-width:1.7px}.cls-3{fill-rule:evenodd}</style></defs><title>bg-body</title><g id="Слой_2" data-name="Слой 2"><g class="cls-1" id="Layer_1" data-name="Layer 1"><path class="cls-2" d="M437.16.46v1337.33M146.32.67v1337.12"/><path class="cls-3" d="M.85 231.23c0 22.53 6.19 38.54 18.05 48.13s22.72 14.4 40.2 14.4h87.22"/><path class="cls-2" d="M437.23 225L291.81 448.89"/><path class="cls-3" d="M582.65 1107.94l-145.5 190.48v1.44l145.5.01"/><path class="cls-2" d="M437.15 1106.6l145.5-.37"/><path class="cls-3" d="M729.52 488.8L874.65 56.52V40.8"/><path class="cls-2" d="M437.16 1023.71L582.88 902.6m-436.59-52.02l143.69 120.88M146.29 84.73l143.69 120.88m147.18 506.15L291.82 591.07"/><path class="cls-3" d="M729.52 749.97l73.41 62.84V507.52l71.25 71.29"/><path class="cls-2" d="M291.81.46v1337.33M582.65.46v1337.33M874.65.46v1337.33M729.53.46v1337.33M1165.48.46v1337.33M1020.14.46v1337.33M1310.98.46v1337.33M1456.11.46v1337.33M146.29 471.22H.85"/><path class="cls-3" d="M146.32 545.93l-98.21 345A48.69 48.69 0 0 1 1.27 926.3H.85"/><path class="cls-2" d="M1017.97 1023.71H874.65"/><path class="cls-3" d="M1020.38 1024s-97.34 179.34-108 199.25c-8.32 15.51-20.46 28-37.72 28m436.88 63.88l144.53-114.7v-4.11l-145.52-120.04"/><path class="cls-2" d="M.85 1125.97l145.47 119.96m0-235.84L.85 1125.52m605.49-949l123.19 101.13"/><path class="cls-3" d="M291.81 1113.17l-121.6 93.41 121.24 99.56"/><path class="cls-2" d="M146.32 1010.09l145.49 102.23"/><path class="cls-3" d="M1165.27 675.65l97.85-344a49.43 49.43 0 0 1 47.54-35.91h.38"/><path class="cls-2" d="M1311.04 687.67h-145.77m145.77-194.35h-145.77"/><path class="cls-3" d="M1165.48 839.96L1052.3 960.83h-32.32m.16-360.83c0-11.83 1.81-21.65 5.76-30.13a58.84 58.84 0 0 1 16-21 68.66 68.66 0 0 1 23.07-12.42 95.38 95.38 0 0 1 55.6 0 68.83 68.83 0 0 1 23.07 12.42 59.06 59.06 0 0 1 16 21q5.9 12.73 5.91 30.46m-.07 180.95h-75.77c-11.61 0-18.21-1.35-26.73-4.07a64.07 64.07 0 0 1-22.37-12.2 56.39 56.39 0 0 1-15.11-20.63c-3.69-8.33-5.36-17.8-5.36-29"/><path class="cls-2" d="M437.16 1023.71l-52.85-74.22"/><path class="cls-3" d="M291.81 865.76c0-11.76 2.29-21.93 6.21-30.36a58.57 58.57 0 0 1 15.88-20.88 68.15 68.15 0 0 1 22.94-12.35 94.86 94.86 0 0 1 55.29 0 68 68 0 0 1 22.94 12.35 58.35 58.35 0 0 1 15.88 20.88c3.92 8.43 6.21 18.53 6.21 30.29M291.81 127.86c0-11.76 2.29-21.93 6.21-30.36a58.57 58.57 0 0 1 15.88-20.88 68.15 68.15 0 0 1 22.94-12.35 94.86 94.86 0 0 1 55.29 0 68 68 0 0 1 22.94 12.35 58.35 58.35 0 0 1 15.88 20.88c3.92 8.43 6.21 18.53 6.21 30.29"/><path class="cls-2" d="M1165.4 1187.29l-145.34-120.7"/><path class="cls-3" d="M1020.38 1315.14q0-17.65 5.88-30.29a58.57 58.57 0 0 1 15.88-20.88 68.15 68.15 0 0 1 22.94-12.35 94.86 94.86 0 0 1 55.29 0 68 68 0 0 1 22.94 12.35 58.35 58.35 0 0 1 15.88 20.88q5.89 12.64 5.88 30.29M437.15 1151a69.77 69.77 0 0 1-6.2 29.7 58.52 58.52 0 0 1-15.88 20.88 68.29 68.29 0 0 1-22.94 12.35 94.86 94.86 0 0 1-55.29 0 68.45 68.45 0 0 1-22.94-12.35 58.74 58.74 0 0 1-15.9-20.88 69.55 69.55 0 0 1-6.21-29.62m290.86-755.43h146.87l-62.85 62.86m62.86 220.61q0-34-17.91-48.52c-11.95-9.67-22.88-14.5-40.48-14.5h-88.49m0 186.33q0 32.83 13.89 52.35c9.25 13.05 36.59 19.57 58.91 19.57 18.51 0 45.12-5.06 56.7-15.19s17.38-26.88 17.38-50.08m435.95-409.73l-57.73 39h-15V130.52"/><path class="cls-2" d="M1020.14 130.52h145.34"/><path class="cls-3" d="M729.53 1252.65L670 1292.76h-15V984.91"/><path class="cls-2" d="M582.35 984.91h145.34"/><path class="cls-3" d="M1456 427.22q0 17.7-5.91 30.39a58.88 58.88 0 0 1-16 20.94 68.78 68.78 0 0 1-23.07 12.38 95.51 95.51 0 0 1-55.6 0 68.35 68.35 0 0 1-23.07-12.42 58.69 58.69 0 0 1-16-21q-5.92-12.71-5.92-30.46m.07-115.49c0-10.65.58-20 2.37-27.8 2.59-11.41 12.13-23.64 20-31.52 8.94-8.94 20.94-16.79 27.9-18.94 8.56-2.65 16.36-5.15 24.25-5.15a89.41 89.41 0 0 1 27.21 4.13 65.55 65.55 0 0 1 22.78 12.4 57.46 57.46 0 0 1 15.38 20.94q5.61 12.68 5.62 29.79"/><path class="cls-2" d="M1310.94 227.48L1456.11.46"/><path class="cls-3" d="M729.53 1214.61c0-10.65-.12-19.77 1.66-27.62 2.59-11.41 12.13-23.64 20-31.52 8.94-8.94 20.94-16.79 27.9-18.94 8.56-2.65 16.36-5.15 24.25-5.15a89.41 89.41 0 0 1 27.21 4.13 65.55 65.55 0 0 1 22.78 12.4 57.46 57.46 0 0 1 15.38 20.94 72.91 72.91 0 0 1 5.93 29.77"/><path class="cls-2" d="M729.53 1130.3l144.9-226.61"/><path class="cls-3" d="M1020.14 107.59q0-17.19-5.92-29.92a59.12 59.12 0 0 0-16-21 68.75 68.75 0 0 0-23.08-12.44 95.19 95.19 0 0 0-55.62 0 68.58 68.58 0 0 0-23.08 12.44 58.9 58.9 0 0 0-16 21q-5.92 12.73-5.92 29.92m.13 201.2c0-15.37 3.38-28.07 10.28-38.12s18.11-17.64 26.92-20 22.39-2.12 35.5-2.12 26.24.25 35.21-2.41c7.83-2.32 20.31-10.23 27.21-20.1s10.35-19.16 10.35-35.36m.02 202.42q0 17.74-5.92 30.44a58.91 58.91 0 0 1-16 21 68.65 68.65 0 0 1-23.08 12.42 95.62 95.62 0 0 1-55.62 0 68.48 68.48 0 0 1-23.08-12.42 58.69 58.69 0 0 1-16-21c-3.95-8.47-5.85-18.61-5.85-30.44"/><path class="cls-2" d="M947.36 461.06V389.1m0-277.1V40.04"/><path class="cls-3" d="M291.81 387.21a81.4 81.4 0 0 0-11.48-28.92 58.84 58.84 0 0 0-22.58-19.91q-14.44-7.5-37.39-7.51a86.34 86.34 0 0 0-26.29 4.13 64 64 0 0 0-23.7 13.9q-10.74 9.77-17.39 25.91c-4.44 10.77-6.66 64.48-6.66 80.5m145.49 244.27H146.32s145.5-188 145.5-201.69M1310.9 938.58a81.4 81.4 0 0 0-11.48-28.92 58.84 58.84 0 0 0-22.58-19.91q-14.44-7.5-37.39-7.51a86.34 86.34 0 0 0-26.29 4.13 64 64 0 0 0-23.7 13.9q-10.74 9.77-17.39 25.91c-4.44 10.77-6.66 64.48-6.66 80.5m145.49 244.27h-145.5s145.5-188 145.5-201.69M437.15 651.64h75.01v-71.09h70.3"/><path class="cls-2" d="M582.65 198.52L437.16 635.96m437.49 143.58l145.49 120.44m0-238.49L874.65 776.33m436.17-603.98l-145.34-120.7m145.08 939.16l145.5-376.86m-145.5 0l145.5 376.86M1601.58.67v1337.12"/><path class="cls-3" d="M1456.11 231.23c0 22.53 6.19 38.54 18.05 48.13s22.72 14.4 40.2 14.4h87.22m0-191.1c0-21.64-4.57-39-13.73-51.9s-36.19-19.36-58.25-19.36c-18.31 0-44.61 5-56.06 15s-17.43 26.6-17.43 49.54"/><path class="cls-2" d="M1892.49 225l-145.42 223.89"/><path class="cls-3" d="M1892.41 32.01l-145.34 190.22v1.43l145.42.05"/><path class="cls-2" d="M1747.07 30.07h145.34m-290.86 820.51l143.69 120.88m147.17-259.7l-145.33-120.69M1747.07.46v1337.33m-145.52-866.57h-145.44"/><path class="cls-3" d="M1601.58 545.93l-98.21 345a48.69 48.69 0 0 1-46.84 35.37h-.42m145.47-686.01l145.49-115.46v-4.11L1601.58.67"/><path class="cls-2" d="M1456.11 1125.97l145.47 119.96m0-235.84l-145.47 115.43"/><path class="cls-3" d="M1747.07 1113.17l-121.6 93.41 121.24 99.56"/><path class="cls-2" d="M1601.58 1010.09l145.49 102.23m145.34-88.61l-52.84-74.22"/><path class="cls-3" d="M1747.07 865.76c0-11.76 2.29-21.93 6.21-30.36a58.57 58.57 0 0 1 15.88-20.88 68.15 68.15 0 0 1 22.94-12.35 94.86 94.86 0 0 1 55.29 0 68 68 0 0 1 22.94 12.35 58.35 58.35 0 0 1 15.88 20.88c3.92 8.43 6.21 18.53 6.21 30.29m-.01 285.31a69.77 69.77 0 0 1-6.2 29.7 58.52 58.52 0 0 1-15.88 20.88 68.29 68.29 0 0 1-22.94 12.35 94.86 94.86 0 0 1-55.29 0 68.45 68.45 0 0 1-22.94-12.35 58.74 58.74 0 0 1-15.88-20.88 69.55 69.55 0 0 1-6.21-29.62m0-763.87a81.4 81.4 0 0 0-11.48-28.92 58.84 58.84 0 0 0-22.59-19.9q-14.44-7.5-37.39-7.51a86.34 86.34 0 0 0-26.29 4.13 64 64 0 0 0-23.7 13.9q-10.74 9.77-17.39 25.91c-4.44 10.77-6.66 64.48-6.66 80.5m145.5 244.26h-145.5s145.5-188 145.5-201.69"/></g></g></svg>