<svg xmlns="http://www.w3.org/2000/svg" viewBox="0 0 33 21.96"><defs><style>.cls-1{fill:#1d1d1b}.cls-2{fill:#c9313d}.cls-11,.cls-12,.cls-13,.cls-15,.cls-3,.cls-4,.cls-5,.cls-8{fill:#fff}.cls-10,.cls-11,.cls-12,.cls-15,.cls-16,.cls-17,.cls-18,.cls-4,.cls-5,.cls-7,.cls-8,.cls-9{stroke:#cba21e}.cls-10,.cls-11,.cls-4,.cls-5,.cls-8,.cls-9{stroke-linecap:round;stroke-linejoin:round}.cls-4{stroke-width:.09px}.cls-11,.cls-12,.cls-13,.cls-15,.cls-17,.cls-4,.cls-5,.cls-6,.cls-7,.cls-8{fill-rule:evenodd}.cls-16,.cls-5,.cls-9{stroke-width:.05px}.cls-14,.cls-17,.cls-6,.cls-7{fill:#cba21e}.cls-7{stroke-linecap:square;stroke-width:.04px}.cls-12,.cls-15,.cls-16,.cls-17,.cls-18,.cls-7{stroke-miterlimit:282}.cls-8{stroke-width:.04px}.cls-10,.cls-16,.cls-18,.cls-9{fill:none}.cls-10,.cls-11,.cls-18{stroke-width:.03px}.cls-12,.cls-15{stroke-width:.04px}.cls-17{stroke-width:.01px}</style></defs><title>flag-team-02</title><g id="Слой_2" data-name="Слой 2"><g id="Layer_1" data-name="Layer 1"><path class="cls-1" d="M0 10.98h33v10.98H0z"/><path class="cls-2" d="M0 0h33v10.98H0z"/><path class="cls-3" d="M0 7.32h33v7.32H0z"/><path class="cls-4" d="M16.5 14.42a7.76 7.76 0 0 0 1.84-.17c.17 0 .17-.12.17-.24.17-.06.08-.26.21-.26-.12 0-.15-.2-.29-.17 0-.2-.21-.23-.38-.17a5.78 5.78 0 0 1-1.55.14 7.14 7.14 0 0 1-1.5-.15c-.17-.06-.38 0-.38.17-.15 0-.17.2-.29.17.12 0 0 .21.21.26 0 .12 0 .2.18.24a7.68 7.68 0 0 0 1.84.17z"/><path class="cls-5" d="M16.53 11.07L19 13.4l-.18-4.23c0-.64-.58-.49-1-.26A1.51 1.51 0 0 1 16.5 9a1.51 1.51 0 0 1-1.37-.09c-.4-.23-1-.38-1 .26L14 13.4l2.57-2.33z"/><path class="cls-6" d="M17.23 9.73l.08 2 .24.23-.09-2.24a.61.61 0 0 1-.23 0z"/><path class="cls-7" d="M16.62 11.53l.35 1.6-.12.12-.12-.09-.2-1.43.09 1.43-.12.15-.12-.15.09-1.43-.2 1.43-.12.09-.12-.12.35-1.6h.24z"/><path class="cls-6" d="M14.43 9l-.17 4.11-.26.29.18-4.23a.87.87 0 0 1 .25-.17zm.35.32l-.15 3.44-.29.3.18-4 .26.23zm.32.26l-.1 2.87-.24.23.15-3.27.21.17zm.35.15l-.12 2.45-.23.19.12-2.72a.87.87 0 0 0 .23.09zm.32 0l-.08 2-.24.23.09-2.24a.61.61 0 0 0 .23 0zm2.8-.73l.17 4.11.29.26-.18-4.23a.87.87 0 0 0-.28-.14zm-.35.32l.15 3.44.29.3-.18-4-.26.23zm-.32.26l.1 2.87.24.23-.14-3.27-.21.17zm-.35.15l.12 2.45.23.19-.12-2.72a.87.87 0 0 1-.23.09z"/><path class="cls-8" d="M15.71 10.83l-.7 2.48.96.15.41-1.87-.67-.76zm1.58 0l.7 2.48-.96.15-.41-1.87.67-.76z"/><path class="cls-9" d="M17.52 11.68l-.08.2-.46-.43m-.27.72l.32.48m-.1.48l.1-.48.09-.49.21.29.09-.33.3.31-.15.56-.21-.35-.12.35-.24-.34m-1.52-.97l.08.2.46-.43"/><path class="cls-9" d="M15.79 11.16l.1.89.29-.37m-.12.14l.16.55m.06-.2l-.32.48m.1.48l-.1-.48-.09-.49-.21.29-.09-.33-.3.31.15.56.21-.35.12.35.22-.34"/><path class="cls-9" d="M15.22 13.25l.19-.27.13.42.17-.3.12.36m1.96-.21l-.19-.27-.13.42-.17-.3-.12.36"/><path class="cls-5" d="M15.51 13.31a3 3 0 0 0 .7 0c.12 0 .2.2 0 .23a2.8 2.8 0 0 1-.7 0c-.15 0-.47-.08-.67-.14s-.06-.26.06-.24a3.91 3.91 0 0 0 .64.15zm1.98 0a3 3 0 0 1-.7 0c-.12 0-.21.2 0 .23a2.81 2.81 0 0 0 .7 0c.15 0 .47-.08.67-.14s.06-.26-.06-.24a3.88 3.88 0 0 1-.64.15zm-2.71-.12a.2.2 0 0 0-.21.29c0-.06.15-.06.17-.12s0-.09 0-.17z"/><path class="cls-5" d="M15.48 13.73c0-.12.12-.1.12-.22s0-.15-.09-.15a.12.12 0 0 0-.12.12c0 .12.09.13.09.25zm.83-.33c.17 0 .16.23.07.35 0-.08-.15-.12-.15-.17s.13-.09.08-.17zm1.91-.21a.2.2 0 0 1 .21.29c0-.06-.15-.06-.17-.12s0-.09 0-.17zm-.7.54c0-.12-.12-.1-.12-.22s0-.15.09-.15a.12.12 0 0 1 .12.12c0 .12-.09.13-.09.25zm-.83-.33c-.17 0-.16.23-.07.35 0-.08.15-.12.15-.17s-.13-.09-.08-.17z"/><path class="cls-10" d="M14.84 13.25a.29.29 0 0 1 .17.06l-.17-.06zm.29.09a.64.64 0 0 1 .21.06l-.21-.06zm1.05.11a.49.49 0 0 0-.21 0h.21zm-.32 0a.24.24 0 0 0-.21 0z"/><path class="cls-11" d="M18.16 13.25a.3.3 0 0 0-.17.06l.17-.06zm-.29.09a.64.64 0 0 0-.21.06l.21-.06zm-1.05.11a.49.49 0 0 1 .21 0h-.21zm.32 0a.24.24 0 0 1 .21 0z"/><path class="cls-9" d="M17.21 11.16l-.09.89-.29-.37"/><path class="cls-12" d="M16.5 12a2.78 2.78 0 0 0 1.1-2.27h-.1a1.79 1.79 0 0 1-1-.33 2 2 0 0 1-1 .33h-.09A2.78 2.78 0 0 0 16.5 12z"/><path class="cls-13" d="M17.5 9.81a2 2 0 0 1-1-.29 2.23 2.23 0 0 1-1 .29 1.45 1.45 0 0 0 0 .15 2.63 2.63 0 0 0 .09.53 2.6 2.6 0 0 0 .9 1.36 2.61 2.61 0 0 0 .9-1.36 2.73 2.73 0 0 0 .09-.53v-.15z"/><path class="cls-14" d="M15.25 9.2h.86v2.98h-.86zm1.62 0h.91v2.98h-.91z"/><path class="cls-9" d="M16.92 11.82l-.15.55"/><path class="cls-6" d="M14.79 13.71zm2 .14zm0 .09zm-2-.11zm.31.16L15 14h-.21.07v-.06a.18.18 0 0 1 0-.05H15v.24h.06H15v.12h.11V14h-.05zm-.35 0v-.05zm.11 0zm3.27 0h-.06zm-3.12 0zm.8 0V14a.24.24 0 0 0 0-.05v-.1a.4.4 0 0 0 0 .08zm1.07 0zm-.08.06v-.15l.06-.05v.2h-.32zm-1.24-.22zm.09.26h-.23a.11.11 0 0 1-.05 0h-.17.11V14h.07a.09.09 0 0 1 .07-.05h-.05v-.08a.25.25 0 0 0 0 .06.19.19 0 0 1 0 .05v.13h-.08zM18 14zm-.22 0zm-.1 0zm-.22 0zm.35 0zm-.43.13h.05-.1v-.18a.22.22 0 0 1 0 .05h.13v-.3a.07.07 0 0 0 0-.05h.7a.48.48 0 0 1 0 .08v.1h.05-.38v.06h-.25zm-.22 0v.06a.15.15 0 0 1 0 .08h-.09zm-.25 0h.05c.05 0 0 0 0 0zm-.23-.14zm-.21.08v-.05h-.27c-.01 0 0 0 0 0h.23zm0 .08H16v.06h.38-.21z"/><path class="cls-15" d="M17 9.27v-.13l.31.08s-.29-.55-.28-.94-.06-.54-.11-.6a.92.92 0 0 0-.46-.15c-.09 0-.07.06-.07.06a.59.59 0 0 0-.4 0c-.07 0-.08.27 0 .23s.23 0 .3.1a1 1 0 0 1 0 .67 2.23 2.23 0 0 1-.37.65.86.86 0 0 0 .35-.13v.2a1.27 1.27 0 0 0 .28-.19l.15.15a1.35 1.35 0 0 1 .15-.15.54.54 0 0 0 .31.15z"/><path class="cls-16" d="M16.36 8.33a2.18 2.18 0 0 1-.24.77m.37-.79a3 3 0 0 1-.14.8m.25-.77a5.85 5.85 0 0 0 0 .78m.15-.75a2.17 2.17 0 0 0 .17.76"/><path class="cls-17" d="M16.21 8a.29.29 0 0 0 0-.12c-.07-.11-.18-.2-.3-.1s0-.13.13-.13.23.05.36.29h-.13c-.03 0 0 .07 0 .07z"/><path class="cls-17" d="M15.86 7.66a.14.14 0 0 1 0-.08.59.59 0 0 1 .4 0s0-.07.07-.06a.92.92 0 0 1 .46.15.31.31 0 0 1 .05.09c0-.05-.14 0-.16 0h-.2s0 .06-.05.06-.1 0-.19-.09A.25.25 0 0 0 16 7.6a.17.17 0 0 0-.14.07z"/><path class="cls-13" d="M16.46 7.75v-.09.09z"/><path class="cls-18" d="M17.5 9.81a2 2 0 0 1-1-.29 2.23 2.23 0 0 1-1 .29 1.45 1.45 0 0 0 0 .15 2.63 2.63 0 0 0 .09.53 2.6 2.6 0 0 0 .9 1.36 2.61 2.61 0 0 0 .9-1.36 2.73 2.73 0 0 0 .09-.53v-.15z"/></g></g></svg>