<svg id="Слой_1" xmlns="http://www.w3.org/2000/svg" viewBox="0 0 1678.8 611.6"><style>.st0{fill:url(#SVGID_1_)}.st1{fill:url(#SVGID_2_)}.st2{stroke:#e94e1b;stroke-miterlimit:22.93}.st2,.st3,.st4{fill:none;stroke-width:1.87}.st3{stroke-miterlimit:22.93;stroke-dasharray:9.23,9.23;stroke:#e94e1b}.st4{stroke:#e30613;stroke-linejoin:round}.st5{stroke:#d1d1d1;stroke-width:.52;stroke-miterlimit:22.93}.st5,.st6{fill:none}.st7{stroke:#edd4a6;stroke-width:.93}.st10,.st11,.st12,.st7,.st8,.st9{fill:none;stroke-linecap:square;stroke-miterlimit:22.93}.st8{stroke-dasharray:9.04,9.04;stroke:#edd4a6;stroke-width:.93}.st10,.st11,.st12,.st9{stroke:#28dd8e;stroke-width:1.87}.st10{stroke-dasharray:9.4,9.4}.st11{stroke-dasharray:9.16,9.16}.st12{stroke-dasharray:8.95,8.95}.st13{fill:url(#SVGID_3_)}.st14{fill:#eed7aa}.st15{stroke:#e9c98d;stroke-width:6.54}.st15,.st16,.st17,.st18,.st19,.st20{fill:none;stroke-miterlimit:22.93}.st16{stroke:#eee8dd;stroke-width:.93}.st17{stroke:#fff;stroke-width:.52}.st18{stroke:#e9c98d;stroke-width:.93}.st19,.st20{stroke:#fff;stroke-width:2.06}.st20{stroke-width:2.8}.st21{fill:#171717}.st22{enable-background:new}.st23{fill:#fff}.st24{fill:#edd4a6}.st25{fill:none;stroke:#fff;stroke-width:.93;stroke-miterlimit:22.93}.st26{fill:#a58242}.st27{fill:#0d0d0d}.st28{fill:#d9ba7f}.st29{fill:#d7b77c}.st30{fill:#ffebc4}.st31,.st32,.st33,.st34,.st35,.st36,.st37,.st38,.st39{fill:none;stroke:#e94e1b;stroke-width:1.87;stroke-linecap:square;stroke-miterlimit:22.93}.st32{stroke-dasharray:7.16,7.16}.st33{stroke-dasharray:7.68,7.68}.st34{stroke-dasharray:7.04,7.04}.st35{stroke-dasharray:10.64,10.64}.st36{stroke-dasharray:9.37,9.37}.st37{stroke-dasharray:9.2,9.2}.st38{stroke-dasharray:9.8,9.8}.st39{stroke-dasharray:9.23,9.23}.st40{fill:red}.st41{fill:#282828}.st42{fill:url(#SVGID_4_)}.st43{fill:url(#SVGID_5_)}.st44{fill:#e9c98d}</style><title>graph-02</title><g id="Слой_2"><g id="Layer_1"><linearGradient id="SVGID_1_" gradientUnits="userSpaceOnUse" x1="850.315" y1="482.92" x2="850.315" y2="-11.64" gradientTransform="matrix(1 0 0 -1 0 670)"><stop offset="0" stop-color="#e7ca94"/><stop offset="1" stop-color="#b38d46"/></linearGradient><path class="st0" d="M141.5 495.8l1417.1-.3.5-385.9h-21.6l-51-29.2h-21.9l-20.2 21.5-36.7 7.7-34.9 18.9-35.1-48.1-19.8 35.3-30.9 22.1-19.9-33.1-37.5-24.3-39.3 40.2-74.2 5.4-42.7-45.6-28.4 24.9-96.6-24.9-44.2 69-20-22.8-21 44.2-54.9 12-38.8 38.3-13-19.1-27.5 45.3-11.3-11.4-9.3 19.2-16.7-31.5-27.4 26.5-22 34.9-34.8 25.4-9 40.1-12-8-6.2 31.1-26-12.6-25 64.1H349.9v23.1H141.7z"/><linearGradient id="SVGID_2_" gradientUnits="userSpaceOnUse" x1="958.195" y1="507.84" x2="958.195" y2="369.54" gradientTransform="matrix(1 0 0 -1 0 670)"><stop offset="0" stop-color="#404040"/><stop offset="1"/></linearGradient><path class="st1" d="M357.5 472.3l257.9-17.7 334-119.8-1-152 103.4-16.6 106.3 16.6 53.6-23.9 59.7-.7 56 14.5 80.6-34.8h151.1l-.5 357.6-1201.3-.2z"/><path class="st2" d="M948.4 182.8l4.6-.8"/><path class="st3" d="M962.2 180.6l89.6-14.4 106.3 16.6 53.6-23.9 59.7-.7 56 14.5 78.2-34.5 144.2-.3"/><path class="st2" d="M1554.4 137.9h4.7"/><path class="st4" d="M357.3 495.3l.2-23 257.9-17.7"/><path class="st5" d="M141.6 182.8h1417"/><path class="st6" d="M274.4 80.4h1284.3"/><path class="st7" d="M274.4 80.4h4.5"/><path class="st8" d="M288 80.4h1261.6"/><path class="st7" d="M1554.1 80.4h4.6"/><path class="st6" d="M274.4 140.9l1284.1-3"/><path class="st7" d="M274.4 140.9h4.5"/><path class="st8" d="M288 140.9l1261.5-3"/><path class="st7" d="M1554 137.9h4.5"/><path class="st6" d="M129.8 109.6h1428.6"/><path class="st9" d="M129.8 109.6h4.7"/><path class="st10" d="M143.9 109.6h1405.2"/><path class="st9" d="M1553.8 109.6h4.6M129.8 448.2h4.7"/><path class="st11" d="M143.7 448.2h197"/><path class="st9" d="M345.3 448.2h4.6v-4.7m0-13.7v-4.7h4.7"/><path class="st12" d="M363.6 425.1h156.6"/><path class="st9" d="M524.7 425.1h4.6"/><linearGradient id="SVGID_3_" gradientUnits="userSpaceOnUse" x1="850.18" y1="386.82" x2="850.18" y2="151.12" gradientTransform="matrix(1 0 0 -1 0 670)"><stop offset="0" stop-color="#4a4a4a"/><stop offset="1"/></linearGradient><path class="st13" d="M351.4 444.4h176.2l11.6-12.5 64.4-16.5 55.4-60.5 75.3 10.6 81.5-45.5 66.6 7.8 71.1-30.5 98.2-18.3 106.6 11.9 54.6-22.9 58.8.3 57.2 13.2 81.2-31.5 30.3-25.5 41.1 3.6 19.3 23.6 27-39.3 17.4 8.7 13-28 .4 302.4-1207.1-.2-209.7.2v-34h209.6z"/><path class="st5" d="M141.8 327.8h1416.6M141.8 255.1h1417"/><circle class="st14" cx="616.5" cy="495.5" r="8.8"/><circle class="st14" cx="1088.9" cy="495.5" r="8.8"/><path class="st15" d="M142.2 495.8l1415.8-.3"/><path class="st16" d="M948.4 80.4v219.1"/><path class="st17" d="M141.9 400.1h1416.5"/><path class="st18" d="M141.5 79.3v416.2m474-416.2v419.2m473.1-419.2v419.2"/><path class="st19" d="M176.5 447.9V296.8M364.1 425V230.7"/><path class="st20" d="M1566.2 80.4h3.8c4.1 0 7.4 3.3 7.4 7.4v13.6c0 3.2 1.6 6.3 4.3 8.1l1.3.9-1.5 1.1c-2.6 1.8-4.1 4.8-4.1 7.9v11.2c0 4.1-3.3 7.4-7.4 7.4h-3.9"/><path class="st21" d="M175.5 296.7h100.1v69.9H175.5zM363 230.3h108.5v69.9H363z"/><g class="st22"><path class="st23" d="M44.3 78c0-3.1 2.3-5.2 5.1-5.2 1.8 0 3 .8 3.9 1.9l-1 .6c-.6-.8-1.7-1.4-2.9-1.4-2.2 0-3.8 1.7-3.8 4.1 0 2.4 1.7 4.1 3.8 4.1 1.2 0 2.2-.6 2.7-1.1v-2h-3.4v-1.1h4.7v3.6c-.9 1-2.3 1.7-3.9 1.7-2.9 0-5.2-2.1-5.2-5.2zm18.8 5l-.9-2.2h-5l-.8 2.2H55l4-10h1.5l4 10h-1.4zm-3.3-8.7l-2.1 5.4h4.2l-2.1-5.4zM74.1 83l-2.2-8-2.2 8h-1.3l-2.8-10H67l2.2 8.3 2.3-8.3h1l2.3 8.3L77 73h1.4l-2.8 10h-1.5zm18.1-4.7v3.2h-.9v-3.2h-2.9v-.8h2.9v-3.1h.9v3.1H95v.8h-2.8zm6.5 4.7v-8.3l-1.6 1.7-.7-.8 2.5-2.6h1.1v10h-1.3zm3.5-7.7c0-1.4 1-2.5 2.4-2.5s2.4 1.1 2.4 2.5-1 2.4-2.4 2.4c-1.4.1-2.4-1-2.4-2.4zm3.9 0c0-1-.6-1.7-1.5-1.7s-1.5.7-1.5 1.7c0 .9.6 1.7 1.5 1.7s1.5-.7 1.5-1.7zm-2.5 7.7l6.4-10h.8l-6.4 10h-.8zm3.8-2.3c0-1.4 1-2.5 2.4-2.5s2.4 1.1 2.4 2.5-1 2.4-2.4 2.4-2.4-1-2.4-2.4zm3.9 0c0-1-.6-1.7-1.5-1.7s-1.5.7-1.5 1.7c0 .9.6 1.7 1.5 1.7s1.5-.7 1.5-1.7z"/></g><g class="st22"><path class="st24" d="M172.7 79.4c0-2.1 1.5-3.8 3.7-3.8s3.6 1.6 3.6 4v.4h-5.4c.1.9.9 1.7 2.1 1.7.6 0 1.5-.3 1.9-.7l.8 1.2c-.7.7-1.9 1-3 1-2-.1-3.7-1.5-3.7-3.8zm3.7-2.3c-1.2 0-1.7.9-1.8 1.6h3.6c0-.7-.5-1.6-1.8-1.6zm14 5.9v-4.6c0-.7-.3-1.2-1.1-1.2-.7 0-1.2.4-1.5.8v5h-1.9v-4.6c0-.7-.3-1.2-1.1-1.2-.7 0-1.2.4-1.5.9V83h-1.9v-7.2h1.9v.9c.3-.4 1.3-1.1 2.4-1.1 1.1 0 1.7.5 2 1.3.4-.7 1.4-1.3 2.5-1.3 1.3 0 2.1.7 2.1 2.2V83h-1.9zm3.6-9.2c0-.6.5-1.1 1.1-1.1.6 0 1.1.5 1.1 1.1s-.5 1.1-1.1 1.1c-.6.1-1.1-.4-1.1-1.1zm.2 9.2v-7.2h1.9V83h-1.9zm3.1-1l.8-1.3c.5.5 1.6 1 2.5 1 .8 0 1.2-.3 1.2-.8 0-1.2-4.3-.2-4.3-3.1 0-1.2 1.1-2.3 3-2.3 1.2 0 2.2.4 2.9 1l-.8 1.3c-.4-.5-1.3-.8-2.1-.8-.7 0-1.1.3-1.1.7 0 1.1 4.3.2 4.3 3.1 0 1.3-1.1 2.3-3.1 2.3-1.3 0-2.5-.4-3.3-1.1zm7.2 0l.8-1.3c.5.5 1.6 1 2.5 1 .8 0 1.2-.3 1.2-.8 0-1.2-4.3-.2-4.3-3.1 0-1.2 1.1-2.3 3-2.3 1.2 0 2.2.4 2.9 1l-.8 1.3c-.4-.5-1.3-.8-2.1-.8-.7 0-1.1.3-1.1.7 0 1.1 4.3.2 4.3 3.1 0 1.3-1.1 2.3-3.1 2.3-1.4 0-2.6-.4-3.3-1.1zm7.5-8.2c0-.6.5-1.1 1.1-1.1.6 0 1.1.5 1.1 1.1s-.5 1.1-1.1 1.1c-.5.1-1.1-.4-1.1-1.1zm.2 9.2v-7.2h1.9V83h-1.9zm3.4-3.6c0-2 1.4-3.8 3.8-3.8s3.8 1.7 3.8 3.8c0 2.1-1.4 3.8-3.8 3.8-2.4-.1-3.8-1.8-3.8-3.8zm5.6 0c0-1.1-.7-2.1-1.9-2.1s-1.8 1-1.8 2.1.7 2.1 1.8 2.1c1.3 0 1.9-1 1.9-2.1zm8.3 3.6v-4.4c0-1-.5-1.3-1.3-1.3-.7 0-1.3.4-1.6.9V83h-1.9v-7.2h1.9v.9c.5-.6 1.3-1.1 2.5-1.1 1.6 0 2.3.9 2.3 2.3V83h-1.9zm7.6 0V73h1.9v10h-1.9zm3.6-9.2c0-.6.5-1.1 1.1-1.1.6 0 1.1.5 1.1 1.1s-.5 1.1-1.1 1.1c-.6.1-1.1-.4-1.1-1.1zm.2 9.2v-7.2h1.9V83h-1.9zm8.6 0v-4.4c0-1-.5-1.3-1.3-1.3-.7 0-1.3.4-1.6.9V83h-1.9v-7.2h1.9v.9c.5-.6 1.3-1.1 2.5-1.1 1.6 0 2.3.9 2.3 2.3V83h-1.9zm3.4-3.6c0-2.1 1.5-3.8 3.7-3.8s3.6 1.6 3.6 4v.4h-5.4c.1.9.9 1.7 2.1 1.7.6 0 1.5-.3 1.9-.7l.8 1.2c-.7.7-1.9 1-3 1-2.1-.1-3.7-1.5-3.7-3.8zm3.7-2.3c-1.2 0-1.7.9-1.8 1.6h3.6c-.1-.7-.5-1.6-1.8-1.6z"/></g><g class="st22"><path class="st24" d="M169.3 143.3v-.9c-.6.7-1.4 1.1-2.2 1.1-1.8 0-3.2-1.4-3.2-3.8s1.4-3.8 3.2-3.8c.9 0 1.7.4 2.2 1.1v-3.7h1.9v10h-1.9zm0-2.3v-2.6c-.3-.5-1-.8-1.6-.8-1.1 0-1.8.9-1.8 2.1 0 1.2.7 2.1 1.8 2.1.6 0 1.3-.3 1.6-.8zm3.3-1.3c0-2.1 1.5-3.8 3.7-3.8s3.6 1.6 3.6 4v.4h-5.4c.1.9.9 1.7 2.1 1.7.6 0 1.5-.3 1.9-.7l.8 1.2c-.7.7-1.9 1-3 1-2 0-3.7-1.5-3.7-3.8zm3.7-2.3c-1.2 0-1.7.9-1.8 1.6h3.6c0-.7-.5-1.6-1.8-1.6zm14 5.9v-4.6c0-.7-.3-1.2-1.1-1.2-.7 0-1.2.4-1.5.8v4.9h-1.9v-4.6c0-.7-.3-1.2-1.1-1.2-.7 0-1.2.4-1.5.9v4.9h-1.9V136h1.9v.9c.3-.4 1.3-1.1 2.4-1.1 1.1 0 1.7.5 2 1.3.4-.7 1.4-1.3 2.5-1.3 1.3 0 2.1.7 2.1 2.2v5.2h-1.9zm3.6-9.1c0-.6.5-1.1 1.1-1.1.6 0 1.1.5 1.1 1.1s-.5 1.1-1.1 1.1c-.6 0-1.1-.5-1.1-1.1zm.2 9.1v-7.2h1.9v7.2h-1.9zm3.1-.9l.8-1.3c.5.5 1.6 1 2.5 1 .8 0 1.2-.3 1.2-.8 0-1.2-4.3-.2-4.3-3.1 0-1.2 1.1-2.3 3-2.3 1.2 0 2.2.4 2.9 1l-.8 1.3c-.4-.5-1.3-.8-2.1-.8-.7 0-1.1.3-1.1.7 0 1.1 4.3.2 4.3 3.1 0 1.3-1.1 2.3-3.1 2.3-1.3 0-2.5-.4-3.3-1.1zm7.2 0l.8-1.3c.5.5 1.6 1 2.5 1 .8 0 1.2-.3 1.2-.8 0-1.2-4.3-.2-4.3-3.1 0-1.2 1.1-2.3 3-2.3 1.2 0 2.2.4 2.9 1l-.8 1.3c-.4-.5-1.3-.8-2.1-.8-.7 0-1.1.3-1.1.7 0 1.1 4.3.2 4.3 3.1 0 1.3-1.1 2.3-3.1 2.3-1.3 0-2.6-.4-3.3-1.1zm7.5-8.2c0-.6.5-1.1 1.1-1.1.6 0 1.1.5 1.1 1.1s-.5 1.1-1.1 1.1c-.5 0-1.1-.5-1.1-1.1zm.2 9.1v-7.2h1.9v7.2h-1.9zm3.4-3.6c0-2 1.4-3.8 3.8-3.8s3.8 1.7 3.8 3.8c0 2.1-1.4 3.8-3.8 3.8s-3.8-1.7-3.8-3.8zm5.6 0c0-1.1-.7-2.1-1.9-2.1s-1.8 1-1.8 2.1.7 2.1 1.8 2.1c1.3 0 1.9-1 1.9-2.1zm8.3 3.6V139c0-1-.5-1.3-1.3-1.3-.7 0-1.3.4-1.6.9v4.9h-1.9v-7.2h1.9v.9c.5-.6 1.3-1.1 2.5-1.1 1.6 0 2.3.9 2.3 2.3v5.1h-1.9zm7.6 0v-10h1.9v10H237zm3.6-9.1c0-.6.5-1.1 1.1-1.1.6 0 1.1.5 1.1 1.1s-.5 1.1-1.1 1.1c-.6 0-1.1-.5-1.1-1.1zm.2 9.1v-7.2h1.9v7.2h-1.9zm8.7 0V139c0-1-.5-1.3-1.3-1.3-.7 0-1.3.4-1.6.9v4.9h-1.9v-7.2h1.9v.9c.5-.6 1.3-1.1 2.5-1.1 1.6 0 2.3.9 2.3 2.3v5.1h-1.9zm3.3-3.6c0-2.1 1.5-3.8 3.7-3.8s3.6 1.6 3.6 4v.4h-5.4c.1.9.9 1.7 2.1 1.7.6 0 1.5-.3 1.9-.7l.8 1.2c-.7.7-1.9 1-3 1-2.1 0-3.7-1.5-3.7-3.8zm3.7-2.3c-1.2 0-1.7.9-1.8 1.6h3.6c-.1-.7-.5-1.6-1.8-1.6z"/></g><g class="st22"><path class="st23" d="M47.3 139.3c0-3.1 2.3-5.2 5.1-5.2 1.8 0 3 .8 3.9 1.9l-1 .6c-.6-.8-1.7-1.4-2.9-1.4-2.2 0-3.8 1.7-3.8 4.1 0 2.4 1.7 4.1 3.8 4.1 1.2 0 2.2-.6 2.7-1.1v-2h-3.4v-1.1h4.7v3.6c-.9 1-2.3 1.7-3.9 1.7-2.9 0-5.2-2.1-5.2-5.2zm18.8 5l-.9-2.2h-5l-.9 2.2h-1.4l4-10h1.5l4 10h-1.3zm-3.4-8.7l-2.1 5.4h4.2l-2.1-5.4zm14.3 8.7l-2.2-8-2.2 8h-1.3l-2.8-10h1.4l2.2 8.3 2.3-8.3h1l2.3 8.3 2.2-8.3h1.4l-2.8 10H77zm14.4-3.1v-1H95v1h-3.6zm7.3 3.1V136l-1.6 1.7-.7-.8 2.5-2.6h1.1v10h-1.3zm3.5-7.6c0-1.4 1-2.5 2.4-2.5s2.4 1.1 2.4 2.5-1 2.4-2.4 2.4-2.4-1-2.4-2.4zm3.9 0c0-1-.6-1.7-1.5-1.7s-1.5.7-1.5 1.7c0 .9.6 1.7 1.5 1.7s1.5-.8 1.5-1.7zm-2.4 7.6l6.4-10h.8l-6.4 10h-.8zm3.7-2.2c0-1.4 1-2.5 2.4-2.5s2.4 1.1 2.4 2.5-1 2.4-2.4 2.4-2.4-1.1-2.4-2.4zm3.9 0c0-1-.6-1.7-1.5-1.7s-1.5.7-1.5 1.7c0 .9.6 1.7 1.5 1.7.9-.1 1.5-.8 1.5-1.7z"/></g><g class="st22"><path class="st23" d="M71.1 186.5c-1.5-.1-2.7-.7-3.4-1.6l.7-.9c.6.7 1.5 1.3 2.7 1.4v-3.6c-1.5-.4-3.1-.9-3.1-2.8 0-1.6 1.3-2.6 3.1-2.8v-1.4h.9v1.4c1.2.1 2.2.6 2.9 1.4l-.7.9c-.6-.6-1.4-1-2.2-1.1v3.2c1.5.4 3.2 1 3.2 3 0 1.4-.9 2.7-3.2 2.9v1.3h-.9v-1.3zm0-6.2v-3.1c-1.1.1-1.8.7-1.8 1.6-.1.9.7 1.2 1.8 1.5zm.9 1.7v3.4c1.4-.1 1.9-1 1.9-1.7-.1-1-.9-1.4-1.9-1.7zm7.1 4.3V178l-1.6 1.7-.7-.8 2.5-2.6h1.1v10h-1.3zm4.8 0l4-8.9h-5.4v-1.1h6.8v.9l-4.1 9.1h-1.3zm7.9 1.9l-.6-.5c.5-.3.9-.9 1-1.4H92c-.4 0-.7-.3-.7-.8 0-.4.3-.8.8-.8s.9.4.9 1.1c.1 1-.5 1.9-1.2 2.4zm3.5-1.9v-1c3.6-2.8 5.5-4.5 5.5-6.2 0-1.3-1-1.8-2.1-1.8-1.2 0-2.1.5-2.7 1.3l-.8-.8c.8-1 2.1-1.6 3.5-1.6 1.7 0 3.3.9 3.3 2.9s-2.1 3.9-4.8 6.1h4.9v1.1h-6.8zm9.4 0v-1c3.6-2.8 5.5-4.5 5.5-6.2 0-1.3-1-1.8-2.1-1.8-1.2 0-2.1.5-2.7 1.3l-.8-.8c.8-1 2.1-1.6 3.5-1.6 1.7 0 3.3.9 3.3 2.9s-2.1 3.9-4.8 6.1h4.9v1.1h-6.8z"/></g><g class="st22"><path class="st23" d="M69.9 258.8c-1.5-.1-2.7-.7-3.4-1.6l.7-.9c.6.7 1.5 1.3 2.7 1.4V254c-1.5-.4-3.1-.9-3.1-2.8 0-1.6 1.3-2.6 3.1-2.8V247h.9v1.4c1.2.1 2.2.6 2.9 1.4l-.7.9c-.6-.6-1.4-1-2.2-1.1v3.2c1.5.4 3.2 1 3.2 3 0 1.4-.9 2.7-3.2 2.9v1.3h-.9v-1.2zm0-6.2v-3.1c-1.1.1-1.8.7-1.8 1.6 0 .9.8 1.2 1.8 1.5zm.9 1.7v3.4c1.4-.1 1.9-1 1.9-1.7 0-1-.8-1.4-1.9-1.7zm7.2 4.3v-8.3l-1.6 1.7-.7-.8 2.5-2.6h1.1v10H78zm3.8 0v-1c3.6-2.8 5.5-4.5 5.5-6.2 0-1.3-1-1.8-2.1-1.8-1.2 0-2.1.5-2.7 1.3l-.8-.8c.8-1 2.1-1.6 3.5-1.6 1.7 0 3.3.9 3.3 2.9s-2.1 3.9-4.8 6.1h4.9v1.1h-6.8zm10 1.9l-.6-.5c.5-.3.9-.9 1-1.4H92c-.4 0-.7-.3-.7-.8 0-.4.3-.8.8-.8s.9.4.9 1.1c0 1-.5 1.9-1.2 2.4zm3.9-2.9l.6-.9c.5.6 1.1 1 2.1 1 2 0 2.8-2 2.8-3.9v-.4c-.4.7-1.5 1.6-2.8 1.6-1.8 0-3.3-1.1-3.3-3.2 0-1.7 1.3-3.3 3.5-3.3 2.8 0 3.9 2.4 3.9 5.2 0 2.7-1.3 5.1-4.1 5.1-1.2 0-2.1-.5-2.7-1.2zm5.5-5.3c-.1-1.2-.8-2.8-2.5-2.8-1.5 0-2.3 1.2-2.3 2.1 0 1.5 1 2.2 2.3 2.2 1 0 2-.6 2.5-1.5zm3.5 6.3v-1c3.6-2.8 5.5-4.5 5.5-6.2 0-1.3-1-1.8-2.1-1.8-1.2 0-2.1.5-2.7 1.3l-.8-.8c.8-1 2.1-1.6 3.5-1.6 1.7 0 3.3.9 3.3 2.9s-2.1 3.9-4.8 6.1h4.9v1.1h-6.8z"/></g><g class="st22"><path class="st23" d="M79.4 331.8c-1.5-.1-2.7-.7-3.4-1.6l.7-.9c.6.7 1.5 1.3 2.7 1.4V327c-1.5-.4-3.1-.9-3.1-2.8 0-1.6 1.3-2.6 3.1-2.8V320h.9v1.4c1.2.1 2.2.6 2.9 1.4l-.7.9c-.6-.6-1.4-1-2.2-1.1v3.2c1.5.4 3.2 1 3.2 3 0 1.4-.9 2.7-3.2 2.9v1.3h-.9v-1.2zm0-6.1v-3.1c-1.1.1-1.8.7-1.8 1.6 0 .8.8 1.2 1.8 1.5zm.9 1.6v3.4c1.4-.1 1.9-1 1.9-1.7 0-1-.8-1.4-1.9-1.7zm5.3 1.8c0-1.3 1.1-2.2 2.4-2.6-1.2-.3-2.2-1.1-2.2-2.4 0-1.8 1.8-2.6 3.4-2.6 1.6 0 3.4.8 3.4 2.6 0 1.3-1.1 2.1-2.2 2.4 1.2.4 2.4 1.3 2.4 2.6 0 1.7-1.6 2.7-3.6 2.7s-3.6-1-3.6-2.7zm5.9-.1c0-1.3-1.7-1.9-2.3-1.9-.6.1-2.3.6-2.3 1.9 0 1.1 1.1 1.7 2.3 1.7 1.2 0 2.3-.6 2.3-1.7zm-.2-4.7c0-1-1-1.6-2.2-1.6-1.2 0-2.2.6-2.2 1.6 0 1.2 1.6 1.6 2.2 1.7.7-.1 2.2-.5 2.2-1.7zm4.2 9.2l-.6-.5c.5-.3.9-.9 1-1.4h-.2c-.4 0-.7-.3-.7-.8 0-.4.3-.8.8-.8s.9.4.9 1.1c.1 1.1-.5 1.9-1.2 2.4zm3.4-6.8c0-2.7 1.3-5.2 4.1-5.2 1.3 0 2.2.5 2.8 1.2l-.6.9c-.5-.6-1.1-1-2.1-1-1.9 0-2.8 2-2.8 3.9v.4c.4-.7 1.5-1.6 2.8-1.6 1.8 0 3.3 1.1 3.3 3.2 0 1.7-1.3 3.3-3.5 3.3-2.9 0-4-2.4-4-5.1zm6.1 1.9c0-1.5-1-2.2-2.3-2.2-1 0-1.9.6-2.5 1.5.1 1.2.8 2.8 2.5 2.8 1.6 0 2.3-1.1 2.3-2.1zm5.3 3v-8.3l-1.6 1.7-.7-.8 2.5-2.6h1.1v10h-1.3z"/></g><g class="st22"><path class="st23" d="M76.2 402.6c-1.5-.1-2.7-.7-3.4-1.6l.7-.9c.6.7 1.5 1.3 2.7 1.4v-3.6c-1.5-.4-3.1-.9-3.1-2.8 0-1.6 1.3-2.6 3.1-2.8V391h.9v1.4c1.2.1 2.2.6 2.9 1.4l-.7.9c-.6-.6-1.4-1-2.2-1.1v3.2c1.5.4 3.2 1 3.2 3 0 1.4-.9 2.7-3.2 2.9v1.3h-.9v-1.4zm0-6.1v-3.1c-1.1.1-1.8.7-1.8 1.6 0 .9.8 1.2 1.8 1.5zm.9 1.6v3.4c1.4-.1 1.9-1 1.9-1.7 0-1-.9-1.4-1.9-1.7zm9.7 4.4V400h-4.7v-1l4.3-6.4h1.7v6.4h1.4v1.1h-1.4v2.5h-1.3zm0-8.9l-3.5 5.2h3.5v-5.2zm5.2 10.7l-.6-.5c.5-.3.9-.9 1-1.4h-.2c-.4 0-.7-.3-.7-.8 0-.4.3-.8.8-.8s.9.4.9 1.1c0 1.1-.6 2-1.2 2.4zm3-3.3l.7-.8c.6.8 1.6 1.3 2.8 1.3 1.5 0 2.3-.7 2.3-1.9s-1-1.8-2.5-1.8h-1v-1.1h1c1.3 0 2.3-.5 2.3-1.6s-1-1.7-2.2-1.7c-1.1 0-1.9.4-2.6 1.2l-.7-.8c.7-.9 1.9-1.5 3.4-1.5 1.9 0 3.4 1 3.4 2.7 0 1.4-1.2 2.2-2.2 2.3.9.1 2.3.9 2.3 2.5 0 1.7-1.3 2.9-3.5 2.9-1.6-.1-2.9-.8-3.5-1.7zm9.3-3.5c0-2.4 1.1-5.1 3.8-5.1 2.7 0 3.8 2.7 3.8 5.1 0 2.4-1.1 5.2-3.8 5.2-2.7-.1-3.8-2.8-3.8-5.2zm6.3 0c0-2-.6-4-2.5-4s-2.5 2-2.5 4 .6 4.1 2.5 4.1c1.9-.1 2.5-2.1 2.5-4.1z"/></g><g class="st22"><path class="st23" d="M25.6 442c0-3.2 2.4-5.2 5.3-5.2 2.1 0 3.4 1 4.1 2.2l-1.8 1c-.4-.7-1.3-1.3-2.4-1.3-1.8 0-3.1 1.4-3.1 3.3s1.3 3.3 3.1 3.3c.9 0 1.7-.4 2.1-.8v-1.2h-2.6v-1.9h4.8v3.8c-1 1.1-2.4 1.9-4.2 1.9-2.9.1-5.3-2-5.3-5.1zm18.7 5l-.6-1.7h-4.3l-.6 1.7h-2.4l3.9-10H43l3.8 10h-2.5zm-2.7-7.9l-1.6 4.3h3.1l-1.5-4.3zm14.3 7.9l-1.7-6.8-1.7 6.8h-2.3l-2.9-10h2.4l1.7 7.2 1.9-7.2H55l1.9 7.2 1.7-7.2H61l-2.8 10h-2.3z"/></g><g class="st22"><path class="st23" d="M69 450c-1.5-1.6-2.4-4.2-2.4-6.6s.9-5 2.4-6.6l1.2.9c-1 1.8-1.5 3.5-1.5 5.7s.5 3.9 1.5 5.7l-1.2.9zm5.5-2.9c-1.6-.1-2.7-.7-3.5-1.6l1.2-1.6c.6.6 1.4 1.1 2.4 1.3v-2.4c-1.5-.4-3.2-1-3.2-3 0-1.5 1.2-2.8 3.2-3v-1.4H76v1.4c1.2.1 2.2.6 3 1.3l-1.2 1.6c-.5-.5-1.2-.8-1.9-1v2.1c1.5.4 3.3 1 3.3 3 0 1.7-1.1 2.9-3.3 3.2v1.4h-1.4v-1.3zm0-6.5v-1.8c-.7.1-1 .5-1 1-.1.3.3.6 1 .8zm1.4 2.6v2c.7-.1 1.1-.6 1.1-1 0-.5-.5-.7-1.1-1zm4.5 3.8v-1.7c4.1-3 5.3-4.1 5.3-5.3 0-.9-.8-1.3-1.6-1.3-1.1 0-2 .4-2.7 1.2l-1.2-1.4c1-1.1 2.5-1.6 3.8-1.6 2.1 0 3.8 1.2 3.8 3.2 0 1.7-1.4 3.2-4 5.1h4.1v1.9h-7.5zm8.9-1.1c0-.7.6-1.2 1.2-1.2s1.2.6 1.2 1.2-.6 1.2-1.2 1.2-1.2-.5-1.2-1.2zm6.2 1.1v-7.2l-1.7 1.7-1.2-1.3 3.1-3.2h1.9v10h-2.1zm3.8-1.3l1.2-1.5c.7.7 1.6 1.1 2.6 1.1 1.2 0 1.9-.7 1.9-1.5 0-.9-.7-1.5-1.8-1.5-.8 0-1.5.2-2.1.8l-1.5-.4V437h6.8v1.9h-4.7v2.4c.5-.5 1.3-.8 2.2-.8 1.7 0 3.2 1.2 3.2 3.2 0 2.1-1.6 3.5-4 3.5-1.6 0-2.9-.6-3.8-1.5zm8.7 3.3c1-1.8 1.5-3.4 1.5-5.7s-.5-3.9-1.5-5.7l1.2-.9c1.5 1.6 2.4 4.2 2.4 6.6s-.9 5-2.4 6.6l-1.2-.9z"/></g><g class="st22"><path class="st23" d="M12.9 109.2c0-3.2 2.4-5.2 5.3-5.2 2.1 0 3.4 1 4.1 2.2l-1.8 1c-.4-.7-1.3-1.3-2.4-1.3-1.8 0-3.1 1.4-3.1 3.3s1.3 3.3 3.1 3.3c.9 0 1.7-.4 2.1-.8v-1.2h-2.6v-1.9h4.8v3.8c-1 1.1-2.4 1.9-4.2 1.9-2.9.1-5.3-1.9-5.3-5.1zm18.7 5l-.6-1.7h-4.3l-.6 1.7h-2.4l3.9-10h2.7l3.8 10h-2.5zm-2.7-7.9l-1.6 4.3h3.1l-1.5-4.3zm14.3 7.9l-1.7-6.8-1.7 6.8h-2.3l-2.9-10H37l1.7 7.2 1.9-7.2h1.7l1.9 7.2 1.7-7.2h2.4l-2.8 10h-2.3z"/></g><g class="st22"><path class="st23" d="M60.7 117.2c-1.5-1.6-2.4-4.2-2.4-6.6s.9-5 2.4-6.6l1.2.9c-1 1.8-1.5 3.5-1.5 5.7s.5 3.9 1.5 5.7l-1.2.9zm5.5-2.9c-1.6-.1-2.7-.7-3.5-1.6l1.2-1.6c.6.6 1.4 1.1 2.4 1.3V110c-1.5-.4-3.2-1-3.2-3 0-1.5 1.2-2.8 3.2-3v-1.4h1.4v1.4c1.2.1 2.2.6 3 1.3l-1.2 1.6c-.5-.5-1.2-.8-1.9-1v2.1c1.5.4 3.3 1 3.3 3 0 1.7-1.1 2.9-3.3 3.2v1.4h-1.4v-1.3zm0-6.5V106c-.7.1-1 .5-1 1-.1.4.4.6 1 .8zm1.4 2.7v2c.7-.1 1.1-.6 1.1-1 0-.6-.4-.8-1.1-1zm4.5 3.7v-1.7c4.1-3 5.3-4.1 5.3-5.3 0-.9-.8-1.3-1.6-1.3-1.1 0-2 .4-2.7 1.2l-1.2-1.4c1-1.1 2.5-1.6 3.8-1.6 2.1 0 3.8 1.2 3.8 3.2 0 1.7-1.4 3.2-4 5.1h4.1v1.9h-7.5zm11.3 0V107l-1.7 1.7-1.2-1.3 3.1-3.2h1.9v10h-2.1zm3.8-1c0-.7.6-1.2 1.2-1.2s1.2.6 1.2 1.2-.6 1.2-1.2 1.2-1.2-.6-1.2-1.2zm3.9-.3l1.2-1.5c.7.7 1.6 1.1 2.6 1.1 1.2 0 1.9-.7 1.9-1.5 0-.9-.7-1.5-1.8-1.5-.8 0-1.5.2-2.1.8l-1.5-.4v-5.7h6.8v1.9h-4.7v2.4c.5-.5 1.3-.8 2.2-.8 1.7 0 3.2 1.2 3.2 3.2 0 2.1-1.6 3.5-4 3.5-1.7 0-3-.6-3.8-1.5zm8.6-.1l1.1-1.4c.7.7 1.8 1.1 2.8 1.1 1.2 0 1.9-.5 1.9-1.3s-.6-1.2-2-1.2h-1.2v-1.9h1.2c1.1 0 1.8-.3 1.8-1.1s-.8-1.2-1.9-1.2c-1 0-1.8.4-2.5 1l-1.1-1.3c.8-.9 2.1-1.6 3.8-1.6 2.3 0 3.8 1 3.8 2.7 0 1.3-1.1 2.1-2.2 2.3 1 .1 2.3.9 2.3 2.4 0 1.7-1.5 2.9-3.9 2.9-1.8.2-3.1-.5-3.9-1.4zm8.8 3.4c1-1.8 1.5-3.4 1.5-5.7s-.5-3.9-1.5-5.7l1.2-.9c1.5 1.6 2.4 4.2 2.4 6.6s-.9 5-2.4 6.6l-1.2-.9z"/></g><g class="st22"><path class="st23" d="M8.2 438.7v-8.3L6.7 432l-.5-.5 2.1-2.2H9v9.4h-.8z"/></g><g class="st22"><path class="st23" d="M3 455.2V447l-1.5 1.6-.5-.5 2.1-2.2h.7v9.4H3zm3.3-4.6c0-2.2.9-4.8 3.5-4.8 2.5 0 3.4 2.6 3.4 4.8 0 2.2-1 4.8-3.4 4.8-2.6 0-3.5-2.6-3.5-4.8zm6 0c0-1.9-.6-4.1-2.6-4.1s-2.6 2.2-2.6 4.1c0 1.9.6 4.1 2.6 4.1s2.6-2.2 2.6-4.1z"/></g><path class="st25" d="M0 442h14.4"/><g class="st22"><path class="st26" d="M189.1 318.9v-10h4.7c2.2 0 3.3 1.5 3.3 3.2 0 1.7-1.2 3.2-3.3 3.2h-2.5v3.5h-2.2zm5.8-6.8c0-.8-.6-1.3-1.5-1.3h-2.3v2.7h2.3c.9-.1 1.5-.6 1.5-1.4zm4.1 6.8v-7.2h1.9v1c.5-.6 1.4-1.2 2.3-1.2v1.9h-.5c-.6 0-1.5.4-1.8.8v4.8H199zm5.5-3.7c0-2.1 1.5-3.8 3.7-3.8s3.6 1.6 3.6 4v.4h-5.4c.1.9.9 1.7 2.1 1.7.6 0 1.5-.3 1.9-.7l.8 1.2c-.7.7-1.9 1-3 1-2.1 0-3.7-1.5-3.7-3.8zm3.7-2.2c-1.2 0-1.7.9-1.8 1.6h3.6c-.1-.7-.5-1.6-1.8-1.6zm5 4.9l.8-1.3c.5.5 1.6 1 2.5 1 .8 0 1.2-.3 1.2-.8 0-1.2-4.3-.2-4.3-3.1 0-1.2 1.1-2.3 3-2.3 1.2 0 2.2.4 2.9 1l-.8 1.3c-.4-.5-1.3-.8-2.1-.8-.7 0-1.1.3-1.1.7 0 1.1 4.3.2 4.3 3.1 0 1.3-1.1 2.3-3.1 2.3-1.3 0-2.6-.4-3.3-1.1zm12.7 1v-.7c-.5.6-1.3.9-2.3.9-1.2 0-2.5-.8-2.5-2.4 0-1.7 1.4-2.3 2.5-2.3 1 0 1.8.3 2.3.9v-1c0-.7-.6-1.2-1.6-1.2-.8 0-1.5.3-2.1.9l-.7-1.3c.9-.8 2-1.1 3.2-1.1 1.6 0 3.2.7 3.2 2.7v4.7h-2zm0-1.8v-.9c-.3-.4-.9-.6-1.5-.6-.7 0-1.4.4-1.4 1.1 0 .7.6 1.1 1.4 1.1.6-.1 1.2-.3 1.5-.7zm4.4 1.8v-10h1.9v10h-1.9zm3.9-3.7c0-2.1 1.5-3.8 3.7-3.8s3.6 1.6 3.6 4v.4h-5.4c.1.9.9 1.7 2.1 1.7.6 0 1.5-.3 1.9-.7l.8 1.2c-.7.7-1.9 1-3 1-2.1 0-3.7-1.5-3.7-3.8zm3.7-2.2c-1.2 0-1.7.9-1.8 1.6h3.6c0-.7-.5-1.6-1.8-1.6z"/></g><g class="st22"><path class="st26" d="M195.6 335.7l-2.5-3.6-2.5 3.6H188l3.6-5.1-3.4-4.9h2.5l2.3 3.4 2.3-3.4h2.6l-3.4 4.8 3.6 5.1h-2.5zm4.1 0v-10h4.7c2.2 0 3.3 1.5 3.3 3.2 0 1.7-1.2 3.2-3.3 3.2h-2.5v3.5h-2.2zm5.8-6.8c0-.8-.6-1.3-1.5-1.3h-2.3v2.7h2.3c.9 0 1.5-.6 1.5-1.4zm3.6 1.8c0-3 2.2-5.2 5.2-5.2s5.2 2.2 5.2 5.2-2.2 5.2-5.2 5.2-5.2-2.2-5.2-5.2zm8.3 0c0-1.9-1.2-3.3-3-3.3s-3 1.4-3 3.3 1.2 3.3 3 3.3 3-1.4 3-3.3zm10.5 4.1v3.7H226v-10h1.9v.9c.6-.7 1.3-1.1 2.2-1.1 1.9 0 3.2 1.4 3.2 3.8s-1.3 3.8-3.2 3.8c-.8 0-1.6-.4-2.2-1.1zm3.5-2.7c0-1.2-.7-2.1-1.8-2.1-.6 0-1.3.4-1.6.8v2.6c.3.4 1 .8 1.6.8 1 0 1.8-.9 1.8-2.1zm3.9 3.6v-7.2h1.9v1c.5-.6 1.4-1.2 2.3-1.2v1.9h-.5c-.6 0-1.5.4-1.8.8v4.8h-1.9zm5.8-9.2c0-.6.5-1.1 1.1-1.1.6 0 1.1.5 1.1 1.1s-.5 1.1-1.1 1.1c-.5.1-1.1-.4-1.1-1.1zm.2 9.2v-7.2h1.9v7.2h-1.9zm3.9-3.6c0-2.2 1.6-3.8 3.8-3.8 1.5 0 2.4.6 2.9 1.3l-1.2 1.2c-.3-.5-.9-.8-1.5-.8-1.2 0-2 .8-2 2.1s.8 2.1 2 2.1c.7 0 1.2-.3 1.5-.8l1.2 1.2c-.5.7-1.4 1.3-2.9 1.3-2.2 0-3.8-1.6-3.8-3.8zm8.1 0c0-2.1 1.5-3.8 3.7-3.8s3.6 1.6 3.6 4v.4h-5.4c.1.9.9 1.7 2.1 1.7.6 0 1.5-.3 1.9-.7l.8 1.2c-.7.7-1.9 1-3 1-2 0-3.7-1.5-3.7-3.8zm3.7-2.3c-1.2 0-1.7.9-1.8 1.6h3.6c0-.7-.5-1.6-1.8-1.6z"/></g><g class="st22"><path class="st23" d="M192.1 352.7c-1.6-.1-2.7-.7-3.5-1.6l1.2-1.6c.6.6 1.4 1.1 2.4 1.3v-2.4c-1.5-.4-3.2-1-3.2-3 0-1.5 1.2-2.8 3.2-3V341h1.4v1.4c1.2.1 2.2.6 3 1.3l-1.2 1.6c-.5-.5-1.2-.8-1.9-1v2.1c1.5.4 3.3 1 3.3 3 0 1.7-1.1 2.9-3.3 3.2v1.4h-1.4v-1.3zm0-6.6v-1.8c-.7.1-1 .5-1 1-.1.4.3.6 1 .8zm1.4 2.7v2c.7-.1 1.1-.6 1.1-1 0-.6-.5-.8-1.1-1zm5.1 3.7v-1.7c4.1-3 5.3-4.1 5.3-5.3 0-.9-.8-1.3-1.6-1.3-1.1 0-2 .4-2.7 1.2l-1.2-1.4c1-1.1 2.5-1.6 3.8-1.6 2.1 0 3.8 1.2 3.8 3.2 0 1.7-1.4 3.2-4 5.1h4.1v1.9h-7.5zm10.5 2.1l-.8-.7c.5-.3 1-.9 1.2-1.4h-.3c-.6 0-1-.4-1-1.1 0-.7.5-1.2 1.2-1.2s1.3.6 1.3 1.5c0 1.2-.7 2.2-1.6 2.9zm5.8-2.1v-7.2l-1.7 1.7-1.2-1.3 3.1-3.2h1.9v10h-2.1zm4.4-1.3l1.2-1.5c.7.7 1.6 1.1 2.6 1.1 1.2 0 1.9-.7 1.9-1.5 0-.9-.7-1.5-1.8-1.5-.8 0-1.5.2-2.1.8l-1.5-.4v-5.7h6.8v1.9h-4.7v2.4c.5-.5 1.3-.8 2.2-.8 1.7 0 3.2 1.2 3.2 3.2 0 2.1-1.6 3.5-4 3.5-1.6 0-2.9-.6-3.8-1.5z"/></g><g class="st22"><path class="st26" d="M378.5 253.5v-10h2.1v10h-2.1zm4.3-5c0-3.1 2.3-5.2 5.3-5.2 2.2 0 3.5 1.2 4.2 2.4l-1.8.9c-.4-.8-1.3-1.5-2.3-1.5-1.8 0-3.1 1.4-3.1 3.3s1.3 3.3 3.1 3.3c1 0 1.9-.6 2.3-1.5l1.8.9c-.7 1.2-2 2.5-4.2 2.5-3 0-5.3-2.1-5.3-5.1zm10.8 0c0-3 2.2-5.2 5.2-5.2s5.2 2.2 5.2 5.2-2.2 5.2-5.2 5.2c-3-.1-5.2-2.2-5.2-5.2zm8.3 0c0-1.9-1.2-3.3-3-3.3s-3 1.4-3 3.3 1.2 3.3 3 3.3 3-1.5 3-3.3z"/></g><g class="st22"><path class="st26" d="M385 270.3l-2.5-3.6-2.5 3.6h-2.5l3.6-5.1-3.4-4.9h2.5l2.3 3.4 2.3-3.4h2.6l-3.4 4.8 3.6 5.1H385zm4.1 0v-10h4.7c2.2 0 3.3 1.5 3.3 3.2 0 1.7-1.2 3.2-3.3 3.2h-2.5v3.5h-2.2zm5.9-6.8c0-.8-.6-1.3-1.5-1.3h-2.3v2.7h2.3c.8 0 1.5-.5 1.5-1.4zm3.6 1.8c0-3 2.2-5.2 5.2-5.2s5.2 2.2 5.2 5.2-2.2 5.2-5.2 5.2-5.2-2.2-5.2-5.2zm8.2 0c0-1.9-1.2-3.3-3-3.3s-3 1.4-3 3.3 1.2 3.3 3 3.3 3-1.4 3-3.3zm8.7 5v-10h4.7c2.2 0 3.3 1.5 3.3 3.2 0 1.7-1.2 3.2-3.3 3.2h-2.5v3.5h-2.2zm5.9-6.8c0-.8-.6-1.3-1.5-1.3h-2.3v2.7h2.3c.9 0 1.5-.5 1.5-1.4zm9.7 6.8l-2-3.5h-1.6v3.5h-2.1v-10h4.7c2.1 0 3.3 1.4 3.3 3.2 0 1.8-1.1 2.7-2.2 3l2.2 3.8h-2.3zm.2-6.8c0-.8-.6-1.3-1.5-1.3h-2.2v2.7h2.2c.9 0 1.5-.5 1.5-1.4zm4.4 6.8v-10h2.1v10h-2.1zm4.2-5c0-3.1 2.3-5.2 5.3-5.2 2.2 0 3.5 1.2 4.2 2.4l-1.8.9c-.4-.8-1.3-1.5-2.3-1.5-1.8 0-3.1 1.4-3.1 3.3s1.3 3.3 3.1 3.3c1 0 1.9-.6 2.3-1.5l1.8.9c-.7 1.2-2 2.5-4.2 2.5-3 .1-5.3-2-5.3-5.1zm11.4 5v-10h7.1v1.9h-4.9v2.1h4.8v1.9h-4.8v2.3h4.9v1.9h-7.1z"/></g><g class="st22"><path class="st23" d="M381.5 287.3c-1.6-.1-2.7-.7-3.5-1.6l1.2-1.6c.6.6 1.4 1.1 2.4 1.3V283c-1.5-.4-3.2-1-3.2-3 0-1.5 1.2-2.8 3.2-3v-1.4h1.4v1.4c1.2.1 2.2.6 3 1.3l-1.2 1.6c-.5-.5-1.2-.8-1.9-1v2.1c1.5.4 3.3 1 3.3 3 0 1.7-1.1 2.9-3.3 3.2v1.4h-1.4v-1.3zm0-6.6v-1.8c-.7.1-1 .5-1 1 0 .4.4.6 1 .8zm1.4 2.7v2c.7-.1 1.1-.6 1.1-1 .1-.6-.4-.8-1.1-1zm4.7 2.3l1.1-1.4c.7.7 1.8 1.1 2.8 1.1 1.2 0 1.9-.5 1.9-1.3s-.6-1.2-2-1.2h-1.2V281h1.2c1.1 0 1.8-.3 1.8-1.1s-.8-1.2-1.9-1.2c-1 0-1.8.4-2.5 1l-1.1-1.3c.8-.9 2.1-1.6 3.8-1.6 2.3 0 3.8 1 3.8 2.7 0 1.3-1.1 2.1-2.2 2.3 1 .1 2.3.9 2.3 2.4 0 1.7-1.5 2.9-3.9 2.9-1.8.2-3.1-.5-3.9-1.4zm10.8 3.5l-.8-.7c.5-.3 1-.9 1.2-1.4h-.3c-.6 0-1-.4-1-1.1 0-.7.5-1.2 1.2-1.2s1.3.6 1.3 1.5c-.1 1.2-.7 2.2-1.6 2.9zm3.5-3.4l1.2-1.5c.7.7 1.6 1.1 2.6 1.1 1.2 0 1.9-.7 1.9-1.5 0-.9-.7-1.5-1.8-1.5-.8 0-1.5.2-2.1.8l-1.5-.4v-5.7h6.8v1.9h-4.7v2.4c.5-.5 1.3-.8 2.2-.8 1.7 0 3.2 1.2 3.2 3.2 0 2.1-1.6 3.5-4 3.5-1.7 0-3-.6-3.8-1.5zm9.4-3.7c0-2.6 1.3-5.1 4.1-5.1s4.1 2.6 4.1 5.1-1.3 5.2-4.1 5.2-4.1-2.6-4.1-5.2zm6.1 0c0-1.8-.5-3.3-2-3.3-1.4 0-2 1.4-2 3.3s.5 3.3 2 3.3 2-1.4 2-3.3z"/></g><path class="st19" d="M1559.5 111V1.5"/><path class="st21" d="M1558.4 1h108.5v55.2h-108.5z"/><g class="st22"><path class="st26" d="M1580.5 24.2l-2.5-3.6-2.5 3.6h-2.5l3.6-5.1-3.4-4.9h2.5l2.3 3.4 2.3-3.4h2.6l-3.4 4.8 3.6 5.1h-2.6zm4 0v-10h4.7c2.2 0 3.3 1.5 3.3 3.2 0 1.7-1.2 3.2-3.3 3.2h-2.5v3.5h-2.2zm5.9-6.7c0-.8-.6-1.3-1.5-1.3h-2.3v2.7h2.3c.9-.1 1.5-.6 1.5-1.4zm3.6 1.7c0-3 2.2-5.2 5.2-5.2s5.2 2.2 5.2 5.2-2.2 5.2-5.2 5.2-5.2-2.2-5.2-5.2zm8.2 0c0-1.9-1.2-3.3-3-3.3s-3 1.4-3 3.3 1.2 3.3 3 3.3 3-1.4 3-3.3zm8.7 5v-10h4.7c2.2 0 3.3 1.5 3.3 3.2 0 1.7-1.2 3.2-3.3 3.2h-2.5v3.5h-2.2zm5.9-6.7c0-.8-.6-1.3-1.5-1.3h-2.3v2.7h2.3c.9-.1 1.5-.6 1.5-1.4zm9.7 6.7l-2-3.5h-1.6v3.5h-2.1v-10h4.7c2.1 0 3.3 1.4 3.3 3.2 0 1.8-1.1 2.7-2.2 3l2.2 3.8h-2.3zm.2-6.7c0-.8-.6-1.3-1.5-1.3h-2.2v2.7h2.2c.9-.1 1.5-.6 1.5-1.4zm4.4 6.7v-10h2.1v10h-2.1zm4.2-5c0-3.1 2.3-5.2 5.3-5.2 2.2 0 3.5 1.2 4.2 2.4l-1.8.9c-.4-.8-1.3-1.5-2.3-1.5-1.8 0-3.1 1.4-3.1 3.3s1.3 3.3 3.1 3.3c1 0 1.9-.6 2.3-1.5l1.8.9c-.7 1.2-2 2.5-4.2 2.5-3 .1-5.3-2-5.3-5.1zm11.4 5v-10h7.1v1.9h-4.9v2.1h4.8v1.9h-4.8v2.3h4.9v1.9h-7.1z"/></g><g class="st22"><path class="st23" d="M1576.9 41.2c-1.6-.1-2.7-.7-3.5-1.6l1.2-1.6c.6.6 1.4 1.1 2.4 1.3v-2.4c-1.5-.4-3.2-1-3.2-3 0-1.5 1.2-2.8 3.2-3v-1.4h1.4V31c1.2.1 2.2.6 3 1.3l-1.2 1.6c-.5-.5-1.2-.8-1.9-1V35c1.5.4 3.3 1 3.3 3 0 1.7-1.1 2.9-3.3 3.2v1.4h-1.4v-1.4zm0-6.6v-1.8c-.7.1-1 .5-1 1 0 .4.4.6 1 .8zm1.5 2.7v2c.7-.1 1.1-.6 1.1-1 0-.5-.5-.8-1.1-1zm5 3.7v-1.7c4.1-3 5.3-4.1 5.3-5.3 0-.9-.8-1.3-1.6-1.3-1.1 0-2 .4-2.7 1.2l-1.2-1.4c1-1.1 2.5-1.6 3.8-1.6 2.1 0 3.8 1.2 3.8 3.2 0 1.7-1.4 3.2-4 5.1h4.1V41h-7.5zm12 0v-7.2l-1.7 1.7-1.2-1.3 3.1-3.2h1.9v10h-2.1zm5.3 2.1l-.8-.7c.5-.3 1-.9 1.2-1.4h-.3c-.6 0-1-.4-1-1.1 0-.7.5-1.2 1.2-1.2s1.3.6 1.3 1.5c0 1.2-.6 2.2-1.6 2.9zm3.5-3.4l1.2-1.5c.7.7 1.6 1.1 2.6 1.1 1.2 0 1.9-.7 1.9-1.5 0-.9-.7-1.5-1.8-1.5-.8 0-1.5.2-2.1.8l-1.5-.4V31h6.8v1.9h-4.7v2.4c.5-.5 1.3-.8 2.2-.8 1.7 0 3.2 1.2 3.2 3.2 0 2.1-1.6 3.5-4 3.5-1.7 0-2.9-.5-3.8-1.5zm9.3-.1l1.1-1.4c.7.7 1.8 1.1 2.8 1.1 1.2 0 1.9-.5 1.9-1.3s-.6-1.2-2-1.2h-1.2V35h1.2c1.1 0 1.8-.3 1.8-1.1s-.8-1.2-1.9-1.2c-1 0-1.8.4-2.5 1l-1.1-1.3c.8-.9 2.1-1.6 3.8-1.6 2.3 0 3.8 1 3.8 2.7 0 1.3-1.1 2.1-2.2 2.3 1 .1 2.3.9 2.3 2.4 0 1.7-1.5 2.9-3.9 2.9-1.8.1-3.2-.6-3.9-1.5z"/></g><g class="st22"><path class="st27" d="M640 314.6l1.2-1.7c.7.8 1.9 1.4 3.4 1.4 1.2 0 1.8-.6 1.8-1.2 0-1.9-6.1-.6-6.1-4.6 0-1.8 1.5-3.2 4-3.2 1.7 0 3.1.5 4.1 1.5l-1.3 1.7c-.9-.8-2-1.2-3.1-1.2-1 0-1.5.4-1.5 1.1 0 1.7 6.1.6 6.1 4.5 0 1.9-1.4 3.4-4.2 3.4-2 0-3.4-.7-4.4-1.7zm12.8.5v3.9h-2v-10.6h2v1c.6-.7 1.4-1.2 2.4-1.2 2 0 3.4 1.5 3.4 4 0 2.6-1.4 4-3.4 4-.9.1-1.7-.3-2.4-1.1zm3.7-2.8c0-1.3-.8-2.2-1.9-2.2-.7 0-1.4.4-1.7.9v2.7c.3.5 1.1.9 1.7.9 1.1-.1 1.9-1 1.9-2.3zm3.7 0c0-2.2 1.6-4 4-4 2.3 0 3.8 1.7 3.8 4.2v.4h-5.7c.1 1 .9 1.8 2.2 1.8.7 0 1.6-.3 2-.8l.9 1.3c-.8.7-2 1.1-3.2 1.1-2.2 0-4-1.6-4-4zm4-2.4c-1.3 0-1.8.9-1.9 1.7h3.8c-.1-.8-.6-1.7-1.9-1.7zm5.4 2.4c0-2.4 1.7-4 4.1-4 1.6 0 2.5.7 3 1.4l-1.3 1.2c-.4-.5-.9-.8-1.6-.8-1.2 0-2.1.9-2.1 2.2 0 1.3.9 2.2 2.1 2.2.7 0 1.3-.3 1.6-.8l1.3 1.2c-.5.7-1.5 1.4-3 1.4-2.4 0-4.1-1.7-4.1-4zm14.2 3.8v-1c-.5.6-1.4 1.2-2.7 1.2-1.7 0-2.5-.9-2.5-2.4v-5.4h2v4.7c0 1.1.6 1.4 1.4 1.4.8 0 1.4-.4 1.7-.9v-5.2h2v7.7h-1.9zm4.7 0v-10.6h2v10.6h-2zm9.2 0v-.8c-.5.6-1.4 1-2.4 1-1.2 0-2.7-.8-2.7-2.5 0-1.8 1.4-2.5 2.7-2.5 1 0 1.9.3 2.4.9v-1c0-.8-.7-1.3-1.7-1.3-.8 0-1.6.3-2.2.9l-.8-1.3c.9-.8 2.1-1.2 3.4-1.2 1.7 0 3.4.7 3.4 2.9v5h-2.1zm0-1.8v-1c-.3-.4-1-.7-1.6-.7-.8 0-1.4.4-1.4 1.2 0 .7.7 1.1 1.4 1.1s1.3-.2 1.6-.6zm5.1-.1v-4h-1.3v-1.8h1.3v-2.1h2v2.1h1.6v1.8h-1.6v3.5c0 .5.3.8.7.8.3 0 .6-.1.7-.2l.4 1.5c-.3.3-.8.5-1.7.5-1.4 0-2.1-.7-2.1-2.1zm5.4-7.8c0-.7.6-1.2 1.2-1.2.7 0 1.2.5 1.2 1.2s-.5 1.2-1.2 1.2-1.2-.5-1.2-1.2zm.2 9.7v-7.7h2v7.7h-2zm4.1-3.8c0-2.2 1.5-4 4.1-4 2.5 0 4.1 1.8 4.1 4s-1.5 4-4.1 4c-2.6 0-4.1-1.8-4.1-4zm6 0c0-1.2-.7-2.2-2-2.2s-2 1-2 2.2c0 1.2.7 2.2 2 2.2s2-1 2-2.2zm9.4 3.8v-4.6c0-1.1-.6-1.4-1.4-1.4-.8 0-1.4.4-1.7.9v5.2h-2v-7.7h2v1c.5-.6 1.4-1.2 2.7-1.2 1.7 0 2.5 1 2.5 2.4v5.4h-2.1z"/></g><g class="st22"><path class="st27" d="M761.3 288.9l-2.7-3.9-2.7 3.9h-2.7l3.8-5.4-3.6-5.2h2.7l2.4 3.6 2.4-3.6h2.7l-3.6 5.1 3.8 5.4h-2.5zm4.4 0v-10.6h5c2.3 0 3.6 1.6 3.6 3.4 0 1.8-1.3 3.4-3.6 3.4H768v3.8h-2.3zm6.2-7.1c0-.9-.7-1.4-1.6-1.4h-2.4v2.9h2.4c.9-.1 1.6-.7 1.6-1.5zm3.8 1.8c0-3.2 2.3-5.5 5.5-5.5s5.5 2.3 5.5 5.5-2.3 5.5-5.5 5.5-5.5-2.3-5.5-5.5zm8.7 0c0-2-1.3-3.5-3.2-3.5s-3.2 1.5-3.2 3.5 1.3 3.5 3.2 3.5 3.2-1.5 3.2-3.5zm8.7 1.5c0-2.4 1.7-4 4.1-4 1.6 0 2.5.7 3 1.4l-1.3 1.2c-.4-.5-.9-.8-1.6-.8-1.2 0-2.1.9-2.1 2.2 0 1.3.9 2.2 2.1 2.2.7 0 1.3-.3 1.6-.8l1.3 1.2c-.5.7-1.5 1.4-3 1.4-2.4 0-4.1-1.6-4.1-4zm8.6 0c0-2.2 1.5-4 4.1-4 2.5 0 4.1 1.8 4.1 4s-1.5 4-4.1 4c-2.6 0-4.1-1.8-4.1-4zm6 0c0-1.2-.7-2.2-2-2.2s-2 1-2 2.2c0 1.2.7 2.2 2 2.2s2-1 2-2.2zm9.4 3.8v-4.6c0-1.1-.6-1.4-1.4-1.4-.8 0-1.4.4-1.7.9v5.2h-2v-7.7h2v1c.5-.6 1.4-1.2 2.7-1.2 1.7 0 2.5 1 2.5 2.4v5.4h-2.1zm3.9-1l.9-1.4c.6.5 1.7 1 2.7 1 .9 0 1.3-.3 1.3-.8 0-1.3-4.6-.2-4.6-3.3 0-1.3 1.1-2.4 3.1-2.4 1.3 0 2.3.4 3.1 1l-.8 1.4c-.5-.5-1.3-.9-2.3-.9-.7 0-1.2.3-1.2.8 0 1.1 4.5.2 4.5 3.3 0 1.4-1.2 2.5-3.3 2.5-1.3 0-2.5-.4-3.4-1.2zm14.1 1v-1c-.5.6-1.4 1.2-2.7 1.2-1.7 0-2.5-.9-2.5-2.4v-5.4h2v4.7c0 1.1.6 1.4 1.4 1.4.8 0 1.4-.4 1.7-.9v-5.2h2v7.7h-1.9zm14.1 0v-4.8c0-.7-.3-1.2-1.1-1.2-.7 0-1.3.5-1.6.9v5.2h-2v-4.8c0-.7-.3-1.2-1.1-1.2-.7 0-1.3.5-1.6.9v5.2h-2v-7.7h2v1c.3-.5 1.3-1.2 2.5-1.2 1.1 0 1.8.5 2.1 1.4.4-.7 1.5-1.4 2.6-1.4 1.4 0 2.3.7 2.3 2.3v5.5h-2.1zm6.7-1v3.9h-2v-10.6h2v1c.6-.7 1.4-1.2 2.4-1.2 2 0 3.4 1.5 3.4 4 0 2.6-1.4 4-3.4 4-.9.1-1.8-.3-2.4-1.1zm3.7-2.8c0-1.3-.8-2.2-1.9-2.2-.7 0-1.4.4-1.7.9v2.7c.3.5 1.1.9 1.7.9 1.1-.1 1.9-1 1.9-2.3zm4.6 1.9v-4h-1.3v-1.8h1.3v-2.1h2v2.1h1.6v1.8h-1.6v3.5c0 .5.3.8.7.8.3 0 .6-.1.7-.2l.4 1.5c-.3.3-.8.5-1.7.5-1.4 0-2.1-.7-2.1-2.1zm5.4-7.8c0-.7.6-1.2 1.2-1.2.7 0 1.2.5 1.2 1.2s-.5 1.2-1.2 1.2-1.2-.5-1.2-1.2zm.2 9.7v-7.7h2v7.7h-2zm4.1-3.8c0-2.2 1.5-4 4-4s4.1 1.8 4.1 4-1.5 4-4.1 4c-2.5 0-4-1.8-4-4zm6 0c0-1.2-.7-2.2-2-2.2s-2 1-2 2.2c0 1.2.7 2.2 2 2.2s2-1 2-2.2zm9.4 3.8v-4.6c0-1.1-.6-1.4-1.4-1.4-.8 0-1.4.4-1.7.9v5.2h-2v-7.7h2v1c.5-.6 1.4-1.2 2.7-1.2 1.7 0 2.5 1 2.5 2.4v5.4h-2.1z"/></g><g class="st22"><path class="st27" d="M992.6 158.2l-2.7-3.9-2.7 3.9h-2.7l3.8-5.4-3.6-5.2h2.7l2.4 3.6 2.4-3.6h2.7l-3.6 5.1 3.8 5.4h-2.5zm4.3 0v-10.6h5c2.3 0 3.6 1.6 3.6 3.4 0 1.8-1.3 3.4-3.6 3.4h-2.7v3.8h-2.3zm6.2-7.2c0-.9-.7-1.4-1.6-1.4h-2.4v2.9h2.4c1-.1 1.6-.6 1.6-1.5zm3.8 1.9c0-3.2 2.3-5.5 5.5-5.5s5.5 2.3 5.5 5.5-2.3 5.5-5.5 5.5c-3.1 0-5.5-2.3-5.5-5.5zm8.8 0c0-2-1.3-3.5-3.2-3.5-2 0-3.2 1.5-3.2 3.5s1.3 3.5 3.2 3.5c1.9 0 3.2-1.5 3.2-3.5zm8.7 1.4c0-2.4 1.7-4 4.1-4 1.6 0 2.5.7 3 1.4l-1.3 1.2c-.4-.5-.9-.8-1.6-.8-1.2 0-2.1.9-2.1 2.2 0 1.3.9 2.2 2.1 2.2.7 0 1.3-.3 1.6-.8l1.3 1.2c-.5.7-1.5 1.4-3 1.4-2.4.1-4.1-1.6-4.1-4zm8.5 0c0-2.2 1.5-4 4.1-4 2.5 0 4.1 1.8 4.1 4s-1.5 4-4.1 4c-2.5.1-4.1-1.8-4.1-4zm6 0c0-1.2-.7-2.2-2-2.2s-2 1-2 2.2c0 1.2.7 2.2 2 2.2s2-1 2-2.2zm9.4 3.9v-4.6c0-1.1-.6-1.4-1.4-1.4-.8 0-1.4.4-1.7.9v5.2h-2v-7.7h2v1c.5-.6 1.4-1.2 2.7-1.2 1.7 0 2.5 1 2.5 2.4v5.4h-2.1zm4-1l.9-1.4c.6.5 1.7 1 2.7 1 .9 0 1.3-.3 1.3-.8 0-1.3-4.6-.2-4.6-3.3 0-1.3 1.1-2.4 3.1-2.4 1.3 0 2.3.4 3.1 1l-.8 1.4c-.5-.5-1.3-.9-2.3-.9-.7 0-1.2.3-1.2.8 0 1.1 4.5.2 4.5 3.3 0 1.4-1.2 2.5-3.3 2.5-1.3 0-2.6-.5-3.4-1.2zm14.1 1v-1c-.5.6-1.4 1.2-2.7 1.2-1.7 0-2.5-.9-2.5-2.4v-5.4h2v4.7c0 1.1.6 1.4 1.4 1.4.8 0 1.4-.4 1.7-.9v-5.2h2v7.7h-1.9zm14.1 0v-4.8c0-.7-.3-1.2-1.1-1.2-.7 0-1.3.5-1.6.9v5.2h-2v-4.8c0-.7-.3-1.2-1.1-1.2-.7 0-1.3.5-1.6.9v5.2h-2v-7.7h2v1c.3-.5 1.3-1.2 2.5-1.2 1.1 0 1.8.5 2.1 1.4.4-.7 1.5-1.4 2.6-1.4 1.4 0 2.3.7 2.3 2.3v5.5h-2.1zm6.7-1v3.9h-2v-10.6h2v1c.6-.7 1.4-1.2 2.4-1.2 2 0 3.4 1.5 3.4 4 0 2.6-1.4 4-3.4 4-1 .1-1.8-.3-2.4-1.1zm3.6-2.9c0-1.3-.8-2.2-1.9-2.2-.7 0-1.4.4-1.7.9v2.7c.3.5 1.1.9 1.7.9 1.2 0 1.9-.9 1.9-2.3zm4.6 2v-4h-1.3v-1.8h1.3v-2.1h2v2.1h1.6v1.8h-1.6v3.5c0 .5.3.8.7.8.3 0 .6-.1.7-.2l.4 1.5c-.3.3-.8.5-1.7.5-1.3 0-2.1-.8-2.1-2.1zm5.4-7.8c0-.7.6-1.2 1.2-1.2.7 0 1.2.5 1.2 1.2s-.5 1.2-1.2 1.2c-.6 0-1.2-.6-1.2-1.2zm.2 9.7v-7.7h2v7.7h-2zm4.2-3.9c0-2.2 1.5-4 4.1-4 2.5 0 4.1 1.8 4.1 4s-1.5 4-4.1 4c-2.6.1-4.1-1.8-4.1-4zm6 0c0-1.2-.7-2.2-2-2.2s-2 1-2 2.2c0 1.2.7 2.2 2 2.2s2-1 2-2.2zm9.4 3.9v-4.6c0-1.1-.6-1.4-1.4-1.4-.8 0-1.4.4-1.7.9v5.2h-2v-7.7h2v1c.5-.6 1.4-1.2 2.7-1.2 1.7 0 2.5 1 2.5 2.4v5.4h-2.1z"/></g><g class="st22"><path class="st28" d="M1115.7 209c0-3.3 2.4-5.5 5.4-5.5 1.9 0 3.2.9 4 2.1l-1.1.6c-.6-.9-1.7-1.5-2.9-1.5-2.3 0-4.1 1.8-4.1 4.3s1.8 4.3 4.1 4.3c1.2 0 2.3-.6 2.9-1.5l1.1.6c-.9 1.2-2.2 2.1-4 2.1-3 0-5.4-2.2-5.4-5.5zm11.3 0c0-3.3 2.4-5.5 5.4-5.5 1.9 0 3.2.9 4 2.1l-1.1.6c-.6-.9-1.7-1.5-2.9-1.5-2.3 0-4.1 1.8-4.1 4.3s1.8 4.3 4.1 4.3c1.2 0 2.3-.6 2.9-1.5l1.1.6c-.9 1.2-2.2 2.1-4 2.1-3 0-5.4-2.2-5.4-5.5zm11.8 5.3v-10.6h4.7c1.8 0 3 1.1 3 2.7 0 1.3-.9 2.2-1.9 2.4 1.1.2 2.1 1.3 2.1 2.6 0 1.7-1.1 2.9-3.1 2.9h-4.8zm6.3-7.7c0-1-.6-1.7-1.8-1.7h-3.2v3.4h3.2c1.2 0 1.8-.7 1.8-1.7zm.3 4.7c0-1-.7-1.8-2-1.8h-3.2v3.7h3.2c1.2-.1 2-.8 2-1.9zm8.3-.8c0-2.3 1.5-4 3.8-4 1.4 0 2.2.6 2.8 1.3l-.8.7c-.5-.7-1.2-1-2-1-1.6 0-2.7 1.3-2.7 3s1 3 2.7 3c.8 0 1.4-.3 2-1l.8.7c-.6.8-1.4 1.3-2.8 1.3-2.3 0-3.8-1.7-3.8-4zm13.7 3.8v-.9c-.6.7-1.5 1.1-2.5 1.1-1.3 0-2.7-.9-2.7-2.5 0-1.7 1.4-2.5 2.7-2.5 1 0 1.9.3 2.5 1v-1.4c0-1-.8-1.6-1.9-1.6-.9 0-1.7.3-2.4 1.1l-.6-.8c.8-.9 1.8-1.3 3.1-1.3 1.6 0 3 .7 3 2.6v5.3h-1.2zm0-1.6v-1.4c-.5-.6-1.3-1-2.1-1-1.1 0-1.9.7-1.9 1.7s.8 1.7 1.9 1.7c.8 0 1.6-.4 2.1-1zm5.4.5v4.1h-1.2v-10.6h1.2v1.1c.6-.8 1.5-1.3 2.6-1.3 2 0 3.4 1.5 3.4 4s-1.4 4-3.4 4c-1.1 0-2-.5-2.6-1.3zm4.7-2.7c0-1.7-.9-3-2.5-3-.9 0-1.9.6-2.3 1.2v3.5c.4.7 1.3 1.2 2.3 1.2 1.6 0 2.5-1.2 2.5-2.9zm3.6-5.7c0-.4.4-.8.8-.8s.8.4.8.8-.4.8-.8.8-.8-.4-.8-.8zm.2 9.5v-7.7h1.2v7.7h-1.2zm4.4-1.6v-5h-1.3v-1h1.3v-2.1h1.2v2.1h1.6v1h-1.6v4.8c0 .6.3 1 .8 1 .3 0 .7-.1.8-.3l.3.9c-.3.3-.7.5-1.4.5-1.1-.1-1.7-.7-1.7-1.9zm9.9 1.6v-.9c-.6.7-1.5 1.1-2.5 1.1-1.3 0-2.7-.9-2.7-2.5 0-1.7 1.4-2.5 2.7-2.5 1 0 1.9.3 2.5 1v-1.4c0-1-.8-1.6-1.9-1.6-.9 0-1.7.3-2.4 1.1l-.6-.8c.8-.9 1.8-1.3 3.1-1.3 1.6 0 3 .7 3 2.6v5.3h-1.2zm0-1.6v-1.4c-.5-.6-1.3-1-2.1-1-1.1 0-1.9.7-1.9 1.7s.8 1.7 1.9 1.7c.8 0 1.6-.4 2.1-1zm4.2 1.6v-10.6h1.2v10.6h-1.2zm4-9.5c0-.4.4-.8.8-.8s.8.4.8.8-.4.8-.8.8c-.5 0-.8-.4-.8-.8zm.2 9.5v-7.7h1.2v7.7h-1.2zm3.8 0v-.9l4.2-5.7h-4.2v-1h5.8v.9l-4.3 5.7h4.3v1h-5.8zm13.3 0v-.9c-.6.7-1.5 1.1-2.5 1.1-1.3 0-2.7-.9-2.7-2.5 0-1.7 1.4-2.5 2.7-2.5 1 0 1.9.3 2.5 1v-1.4c0-1-.8-1.6-1.9-1.6-.9 0-1.7.3-2.4 1.1l-.6-.8c.8-.9 1.8-1.3 3.1-1.3 1.6 0 3 .7 3 2.6v5.3h-1.2zm0-1.6v-1.4c-.5-.6-1.3-1-2.1-1-1.1 0-1.9.7-1.9 1.7s.8 1.7 1.9 1.7c.8 0 1.6-.4 2.1-1zm4.4 0v-5h-1.3v-1h1.3v-2.1h1.2v2.1h1.6v1h-1.6v4.8c0 .6.3 1 .8 1 .3 0 .7-.1.8-.3l.3.9c-.3.3-.7.5-1.4.5-1.1-.1-1.7-.7-1.7-1.9zm4.9-7.9c0-.4.4-.8.8-.8s.8.4.8.8-.4.8-.8.8c-.5 0-.8-.4-.8-.8zm.2 9.5v-7.7h1.2v7.7h-1.2zm3.7-3.8c0-2.2 1.5-4 3.8-4s3.8 1.8 3.8 4-1.5 4-3.8 4-3.8-1.8-3.8-4zm6.4 0c0-1.6-.9-3-2.5-3s-2.6 1.4-2.6 3 .9 3 2.6 3c1.6-.1 2.5-1.5 2.5-3zm9 3.8v-5c0-1.4-.7-1.8-1.7-1.8-.9 0-1.8.6-2.3 1.2v5.6h-1.2v-7.7h1.2v1.1c.5-.6 1.6-1.3 2.7-1.3 1.6 0 2.4.8 2.4 2.5v5.4h-1.1zm13.7 0v-.9c-.6.7-1.5 1.1-2.5 1.1-1.3 0-2.7-.9-2.7-2.5 0-1.7 1.4-2.5 2.7-2.5 1 0 1.9.3 2.5 1v-1.4c0-1-.8-1.6-1.9-1.6-.9 0-1.7.3-2.4 1.1l-.6-.8c.8-.9 1.8-1.3 3.1-1.3 1.6 0 3 .7 3 2.6v5.3h-1.2zm0-1.6v-1.4c-.5-.6-1.3-1-2.1-1-1.1 0-1.9.7-1.9 1.7s.8 1.7 1.9 1.7c.8 0 1.6-.4 2.1-1zm4.5 1.6v-6.6h-1.3v-1h1.3v-.6c0-1.6.9-2.5 2.2-2.5.6 0 1.1.1 1.6.6l-.5.8c-.3-.2-.6-.4-1-.4-.8 0-1.2.5-1.2 1.5v.6h1.6v1h-1.6v6.6h-1.1zm5-1.6v-5h-1.3v-1h1.3v-2.1h1.2v2.1h1.6v1h-1.6v4.8c0 .6.3 1 .8 1 .3 0 .7-.1.8-.3l.3.9c-.3.3-.7.5-1.4.5-1.1-.1-1.7-.7-1.7-1.9zm4.6-2.2c0-2.2 1.6-4 3.8-4 2.3 0 3.7 1.8 3.7 4.1v.3h-6.2c.1 1.4 1.1 2.7 2.8 2.7.9 0 1.8-.3 2.4-1l.6.8c-.8.8-1.8 1.2-3 1.2-2.4-.1-4.1-1.7-4.1-4.1zm3.8-3.1c-1.6 0-2.4 1.4-2.5 2.6h5c0-1.1-.8-2.6-2.5-2.6zm6.2 6.9v-7.7h1.2v1.2c.6-.8 1.5-1.4 2.6-1.4v1.2h-.5c-.7 0-1.7.6-2.1 1.2v5.4h-1.2zm10.9 0v-6.6h-1.3v-1h1.3v-.6c0-1.6.9-2.5 2.2-2.5.6 0 1.1.1 1.6.6l-.5.8c-.3-.2-.6-.4-1-.4-.8 0-1.2.5-1.2 1.5v.6h1.6v1h-1.6v6.6h-1.1zm4.6-9.5c0-.4.4-.8.8-.8s.8.4.8.8-.4.8-.8.8-.8-.4-.8-.8zm.2 9.5v-7.7h1.2v7.7h-1.2zm4.2 0v-7.7h1.2v1.2c.6-.8 1.5-1.4 2.6-1.4v1.2h-.5c-.7 0-1.7.6-2.1 1.2v5.4h-1.2zm5.2-1l.6-.9c.5.6 1.5 1.1 2.5 1.1 1.2 0 1.8-.6 1.8-1.3 0-1.9-4.8-.7-4.8-3.6 0-1.2 1-2.2 2.9-2.2 1.3 0 2.2.5 2.8 1.1l-.6.8c-.5-.6-1.3-1-2.3-1-1 0-1.7.5-1.7 1.2 0 1.7 4.7.6 4.7 3.6 0 1.3-1 2.3-3 2.3-1 .1-2.1-.3-2.9-1.1zm8.9-.6v-5h-1.3v-1h1.3v-2.1h1.2v2.1h1.6v1h-1.6v4.8c0 .6.3 1 .8 1 .3 0 .7-.1.8-.3l.3.9c-.3.3-.7.5-1.4.5-1.1-.1-1.7-.7-1.7-1.9zm9.4-3.7c0-3.3 2.4-5.5 5.4-5.5 1.9 0 3.2.8 4.1 2l-1 .7c-.7-.9-1.8-1.5-3.1-1.5-2.3 0-4.1 1.8-4.1 4.3s1.8 4.3 4.1 4.3c1.3 0 2.3-.6 2.8-1.1V210h-3.6v-1.2h5v3.8c-1 1.1-2.4 1.8-4.2 1.8-2.9.1-5.4-2.1-5.4-5.4zm12.4 5.3v-10.6h1.2v10.6h-1.2zm3.7-3.8c0-2.2 1.5-4 3.8-4s3.8 1.8 3.8 4-1.5 4-3.8 4-3.8-1.8-3.8-4zm6.3 0c0-1.6-.9-3-2.5-3s-2.6 1.4-2.6 3 .9 3 2.6 3c1.6-.1 2.5-1.5 2.5-3zm3.9 3.8v-10.6h1.2v4.1c.6-.8 1.5-1.3 2.6-1.3 2 0 3.4 1.6 3.4 4 0 2.5-1.4 4-3.4 4-1.1 0-2-.6-2.6-1.3v1.1h-1.2zm3.4-.9c1.6 0 2.5-1.3 2.5-3s-.9-3-2.5-3c-.9 0-1.9.6-2.3 1.2v3.5c.5.8 1.4 1.3 2.3 1.3zm11.5.9v-1.1c-.6.7-1.6 1.3-2.7 1.3-1.6 0-2.4-.8-2.4-2.4v-5.4h1.2v5.1c0 1.4.7 1.7 1.7 1.7.9 0 1.8-.5 2.3-1.2v-5.6h1.2v7.7h-1.3zm4.2 0v-10.6h1.2v10.6h-1.2zm9 0v-.9c-.6.7-1.5 1.1-2.5 1.1-1.3 0-2.7-.9-2.7-2.5 0-1.7 1.4-2.5 2.7-2.5 1 0 1.9.3 2.5 1v-1.4c0-1-.8-1.6-1.9-1.6-.9 0-1.7.3-2.4 1.1l-.6-.8c.8-.9 1.8-1.3 3.1-1.3 1.6 0 3 .7 3 2.6v5.3h-1.2zm0-1.6v-1.4c-.5-.6-1.3-1-2.1-1-1.1 0-1.9.7-1.9 1.7s.8 1.7 1.9 1.7c.8 0 1.6-.4 2.1-1zm8.2.6l.6-.9c.5.6 1.5 1.1 2.5 1.1 1.2 0 1.8-.6 1.8-1.3 0-1.9-4.7-.7-4.7-3.6 0-1.2 1-2.2 2.9-2.2 1.3 0 2.2.5 2.8 1.1l-.6.8c-.5-.6-1.3-1-2.3-1-1 0-1.7.5-1.7 1.2 0 1.7 4.8.6 4.8 3.6 0 1.3-1 2.3-3 2.3-1.2.1-2.3-.3-3.1-1.1zm13.5 1v-.9c-.6.7-1.5 1.1-2.5 1.1-1.3 0-2.7-.9-2.7-2.5 0-1.7 1.4-2.5 2.7-2.5 1 0 1.9.3 2.5 1v-1.4c0-1-.8-1.6-1.9-1.6-.9 0-1.7.3-2.4 1.1l-.6-.8c.8-.9 1.8-1.3 3.1-1.3 1.6 0 3 .7 3 2.6v5.3h-1.2zm0-1.6v-1.4c-.5-.6-1.3-1-2.1-1-1.1 0-1.9.7-1.9 1.7s.8 1.7 1.9 1.7c.8 0 1.6-.4 2.1-1zm4.2 1.6v-10.6h1.2v10.6h-1.2zm3.8-3.8c0-2.2 1.6-4 3.8-4 2.3 0 3.7 1.8 3.7 4.1v.3h-6.2c.1 1.4 1.1 2.7 2.8 2.7.9 0 1.8-.3 2.4-1l.6.8c-.8.8-1.8 1.2-3 1.2-2.5-.1-4.1-1.7-4.1-4.1zm3.7-3.1c-1.6 0-2.4 1.4-2.5 2.6h5c0-1.1-.7-2.6-2.5-2.6z"/></g><g class="st22"><path class="st28" d="M1117.8 234.3c-1.4-2-2.2-4.5-2.2-7 0-2.6.8-5.1 2.2-7l.7.5c-1 2-1.7 3.8-1.7 6.5 0 2.6.6 4.5 1.7 6.5l-.7.5zm2.1-4.2l.6-.9c.5.6 1.5 1.1 2.5 1.1 1.2 0 1.8-.6 1.8-1.3 0-1.9-4.8-.7-4.8-3.6 0-1.2 1-2.2 2.9-2.2 1.3 0 2.2.5 2.8 1.1l-.6.8c-.5-.6-1.3-1-2.3-1-1 0-1.7.5-1.7 1.2 0 1.7 4.7.6 4.7 3.6 0 1.3-1 2.3-3 2.3-1 .1-2.1-.2-2.9-1.1zm8.3-2.8c0-2.2 1.6-4 3.8-4 2.3 0 3.7 1.8 3.7 4.1v.3h-6.2c.1 1.4 1.1 2.7 2.8 2.7.9 0 1.8-.3 2.4-1l.6.8c-.8.8-1.8 1.2-3 1.2-2.5-.1-4.1-1.7-4.1-4.1zm3.7-3c-1.6 0-2.4 1.4-2.5 2.6h5c.1-1.2-.7-2.6-2.5-2.6zm5.8 3c0-2.3 1.5-4 3.8-4 1.4 0 2.2.6 2.8 1.3l-.8.7c-.5-.7-1.2-1-2-1-1.6 0-2.7 1.3-2.7 3s1 3 2.7 3c.8 0 1.4-.3 2-1l.8.7c-.6.8-1.4 1.3-2.8 1.3-2.2 0-3.8-1.7-3.8-4zm8.5 0c0-2.2 1.5-4 3.8-4s3.8 1.8 3.8 4-1.5 4-3.8 4-3.8-1.8-3.8-4zm6.4 0c0-1.6-.9-3-2.5-3s-2.6 1.4-2.6 3 .9 3 2.6 3c1.6 0 2.5-1.4 2.5-3zm9 3.8v-5c0-1.4-.7-1.8-1.7-1.8-.9 0-1.8.6-2.3 1.2v5.6h-1.2v-7.7h1.2v1.1c.5-.6 1.6-1.3 2.7-1.3 1.6 0 2.4.8 2.4 2.5v5.4h-1.1zm9.7 0V230c-.6.8-1.5 1.3-2.6 1.3-2 0-3.4-1.5-3.4-4 0-2.4 1.4-4 3.4-4 1 0 2 .5 2.6 1.3v-4.1h1.2v10.6h-1.2zm0-2v-3.5c-.4-.7-1.4-1.2-2.3-1.2-1.5 0-2.5 1.3-2.5 3s.9 3 2.5 3c1-.1 1.9-.7 2.3-1.3zm9 2v-.9c-.6.7-1.5 1.1-2.5 1.1-1.3 0-2.7-.9-2.7-2.5 0-1.7 1.4-2.5 2.7-2.5 1 0 1.9.3 2.5 1v-1.4c0-1-.8-1.6-1.9-1.6-.9 0-1.7.3-2.4 1.1l-.6-.8c.8-.9 1.8-1.3 3.1-1.3 1.6 0 3 .7 3 2.6v5.3h-1.2zm0-1.6v-1.4c-.5-.6-1.3-1-2.1-1-1.1 0-1.9.7-1.9 1.7s.8 1.7 1.9 1.7c.8 0 1.6-.3 2.1-1zm4.2 1.6v-7.7h1.2v1.2c.6-.8 1.5-1.4 2.6-1.4v1.2h-.5c-.7 0-1.7.6-2.1 1.2v5.4h-1.2zm5.6 2c.2.1.5.1.7.1.5 0 .9-.2 1.1-.8l.5-1.2-3.2-7.8h1.3l2.6 6.3 2.5-6.3h1.3l-3.8 9.2c-.5 1.1-1.2 1.5-2.3 1.6-.3 0-.7 0-.9-.1l.2-1zm20.8-2l-3.4-4.5-3.4 4.5h-1.6l4.1-5.4-3.9-5.2h1.6l3.1 4.2 3.1-4.2h1.6l-3.9 5.1 4.1 5.4h-1.4zm3.6 0v-10.6h4.3c2.1 0 3.3 1.5 3.3 3.2s-1.2 3.2-3.3 3.2h-2.9v4.2h-1.4zm6.2-7.4c0-1.2-.9-2-2.1-2h-2.8v4h2.8c1.3.1 2.1-.8 2.1-2zm3.3 2.2c0-3.1 2.1-5.5 5.3-5.5 3.1 0 5.3 2.4 5.3 5.5s-2.1 5.5-5.3 5.5c-3.1-.1-5.3-2.4-5.3-5.5zm9.2 0c0-2.5-1.5-4.3-3.9-4.3s-3.9 1.8-3.9 4.3 1.5 4.3 3.9 4.3 3.9-1.9 3.9-4.3zm8.3 1.4c0-2.2 1.6-4 3.8-4 2.3 0 3.7 1.8 3.7 4.1v.3h-6.2c.1 1.4 1.1 2.7 2.8 2.7.9 0 1.8-.3 2.4-1l.6.8c-.8.8-1.8 1.2-3 1.2-2.5-.1-4.1-1.7-4.1-4.1zm3.7-3c-1.6 0-2.4 1.4-2.5 2.6h5c0-1.2-.7-2.6-2.5-2.6zm15.5 6.8v-5.2c0-1-.4-1.6-1.4-1.6-.8 0-1.6.6-2 1.2v5.6h-1.2v-5.2c0-1-.4-1.6-1.4-1.6-.8 0-1.6.6-2 1.2v5.6h-1.2v-7.7h1.2v1.1c.3-.5 1.4-1.3 2.5-1.3 1.2 0 1.8.6 2.1 1.4.4-.7 1.5-1.4 2.6-1.4 1.4 0 2.1.8 2.1 2.3v5.5h-1.3zm4-9.5c0-.4.4-.8.8-.8s.8.4.8.8-.4.8-.8.8-.8-.4-.8-.8zm.2 9.5v-7.7h1.2v7.7h-1.2zm3.6-1l.6-.9c.5.6 1.5 1.1 2.5 1.1 1.2 0 1.8-.6 1.8-1.3 0-1.9-4.7-.7-4.7-3.6 0-1.2 1-2.2 2.9-2.2 1.3 0 2.2.5 2.8 1.1l-.6.8c-.5-.6-1.3-1-2.3-1-1 0-1.7.5-1.7 1.2 0 1.7 4.8.6 4.8 3.6 0 1.3-1 2.3-3 2.3-1.3.1-2.4-.2-3.1-1.1zm8 0l.6-.9c.5.6 1.5 1.1 2.5 1.1 1.2 0 1.8-.6 1.8-1.3 0-1.9-4.8-.7-4.8-3.6 0-1.2 1-2.2 2.9-2.2 1.3 0 2.2.5 2.8 1.1l-.6.8c-.5-.6-1.3-1-2.3-1-1 0-1.7.5-1.7 1.2 0 1.7 4.7.6 4.7 3.6 0 1.3-1 2.3-3 2.3-1.1.1-2.1-.2-2.9-1.1zm8.4-8.5c0-.4.4-.8.8-.8s.8.4.8.8-.4.8-.8.8-.8-.4-.8-.8zm.3 9.5v-7.7h1.2v7.7h-1.2zm3.7-3.8c0-2.2 1.5-4 3.8-4s3.8 1.8 3.8 4-1.5 4-3.8 4-3.8-1.8-3.8-4zm6.3 0c0-1.6-.9-3-2.5-3s-2.6 1.4-2.6 3 .9 3 2.6 3c1.6 0 2.5-1.4 2.5-3zm9 3.8v-5c0-1.4-.7-1.8-1.7-1.8-.9 0-1.8.6-2.3 1.2v5.6h-1.2v-7.7h1.2v1.1c.5-.6 1.6-1.3 2.7-1.3 1.6 0 2.4.8 2.4 2.5v5.4h-1.1zm3.3 2.7c1-2 1.7-3.8 1.7-6.5s-.6-4.5-1.7-6.5l.7-.5c1.4 2 2.3 4.5 2.3 7 0 2.6-.8 5.1-2.3 7l-.7-.5z"/></g><g class="st22"><path class="st29" d="M1115.9 362.8c0-4.2 3.1-7.1 7-7.1 2.4 0 4.1 1.2 5.2 2.7l-1.4.8c-.8-1.1-2.2-2-3.7-2-3 0-5.3 2.3-5.3 5.5s2.3 5.5 5.3 5.5c1.6 0 3-.8 3.7-2l1.5.8c-1.1 1.6-2.8 2.7-5.2 2.7-4 .1-7.1-2.7-7.1-6.9zm14.6 0c0-4.2 3.1-7.1 7-7.1 2.4 0 4.1 1.2 5.2 2.7l-1.4.8c-.8-1.1-2.2-2-3.7-2-3 0-5.3 2.3-5.3 5.5s2.3 5.5 5.3 5.5c1.6 0 3-.8 3.7-2l1.5.8c-1.1 1.6-2.8 2.7-5.2 2.7-4 .1-7.1-2.7-7.1-6.9zm15.2 6.8V356h6.1c2.4 0 3.8 1.4 3.8 3.5 0 1.7-1.1 2.9-2.4 3.1 1.5.2 2.7 1.7 2.7 3.4 0 2.2-1.5 3.7-3.9 3.7h-6.3zm8.2-9.9c0-1.2-.8-2.2-2.4-2.2h-4.1v4.4h4.1c1.6 0 2.4-1 2.4-2.2zm.2 6c0-1.2-.9-2.4-2.5-2.4h-4.2v4.7h4.2c1.6.1 2.5-.8 2.5-2.3zm10.8-1.1c0-2.9 2-5.2 4.9-5.2 1.8 0 2.9.7 3.6 1.7l-1 .9c-.7-.9-1.5-1.3-2.5-1.3-2.1 0-3.4 1.6-3.4 3.8s1.3 3.8 3.4 3.8c1 0 1.9-.4 2.5-1.3l1 .9c-.8 1-1.8 1.7-3.6 1.7-2.9.2-4.9-2-4.9-5zm17.7 5v-1.1c-.8.9-1.9 1.4-3.3 1.4-1.7 0-3.5-1.1-3.5-3.3 0-2.2 1.8-3.3 3.5-3.3 1.3 0 2.5.4 3.3 1.3v-1.8c0-1.3-1.1-2.1-2.5-2.1-1.2 0-2.1.4-3 1.4l-.7-1.1c1.1-1.1 2.3-1.6 3.9-1.6 2.1 0 3.8.9 3.8 3.3v6.8h-1.5zm0-2.1v-1.9c-.6-.8-1.6-1.2-2.7-1.2-1.4 0-2.4.9-2.4 2.2 0 1.2 1 2.1 2.4 2.1 1 0 2.1-.4 2.7-1.2zm6.9.6v5.3h-1.5v-13.6h1.5v1.5c.7-1 1.9-1.7 3.3-1.7 2.6 0 4.4 2 4.4 5.2s-1.8 5.2-4.4 5.2c-1.3-.2-2.5-.8-3.3-1.9zm6.1-3.5c0-2.2-1.2-3.8-3.2-3.8-1.2 0-2.4.7-2.9 1.6v4.5c.5.9 1.7 1.6 2.9 1.6 2 0 3.2-1.7 3.2-3.9zm4.6-7.3c0-.6.5-1 1-1 .6 0 1 .5 1 1 0 .6-.5 1-1 1s-1-.5-1-1zm.3 12.3v-9.9h1.5v9.9h-1.5zm5.7-2.1V361h-1.6v-1.3h1.6V357h1.5v2.7h2v1.3h-2v6.1c0 .7.3 1.3 1 1.3.4 0 .8-.2 1-.4l.4 1.1c-.4.4-.9.6-1.8.6-1.3.1-2.1-.7-2.1-2.2zm12.7 2.1v-1.1c-.8.9-1.9 1.4-3.3 1.4-1.7 0-3.5-1.1-3.5-3.3 0-2.2 1.8-3.3 3.5-3.3 1.3 0 2.5.4 3.3 1.3v-1.8c0-1.3-1.1-2.1-2.5-2.1-1.2 0-2.1.4-3 1.4l-.7-1.1c1.1-1.1 2.3-1.6 3.9-1.6 2.1 0 3.8.9 3.8 3.3v6.8h-1.5zm0-2.1v-1.9c-.6-.8-1.6-1.2-2.7-1.2-1.4 0-2.4.9-2.4 2.2 0 1.2 1 2.1 2.4 2.1 1.1 0 2.1-.4 2.7-1.2zm5.4 2.1V356h1.5v13.6h-1.5zm5.2-12.3c0-.6.5-1 1-1 .6 0 1 .5 1 1 0 .6-.5 1-1 1s-1-.5-1-1zm.3 12.3v-9.9h1.5v9.9h-1.5zm4.9 0v-1.2l5.4-7.3h-5.4v-1.3h7.4v1.2l-5.5 7.4h5.6v1.3h-7.5zm17.1 0v-1.1c-.8.9-1.9 1.4-3.3 1.4-1.7 0-3.5-1.1-3.5-3.3 0-2.2 1.8-3.3 3.5-3.3 1.3 0 2.5.4 3.3 1.3v-1.8c0-1.3-1.1-2.1-2.5-2.1-1.2 0-2.1.4-3 1.4l-.7-1.1c1.1-1.1 2.3-1.6 3.9-1.6 2.1 0 3.8.9 3.8 3.3v6.8h-1.5zm0-2.1v-1.9c-.6-.8-1.6-1.2-2.7-1.2-1.4 0-2.4.9-2.4 2.2 0 1.2 1 2.1 2.4 2.1 1.1 0 2.1-.4 2.7-1.2zm5.8 0V361h-1.6v-1.3h1.6V357h1.5v2.7h2v1.3h-2v6.1c0 .7.3 1.3 1 1.3.4 0 .8-.2 1-.4l.5 1.1c-.4.4-.9.6-1.8.6-1.5.1-2.2-.7-2.2-2.2zm6.2-10.2c0-.6.5-1 1-1 .6 0 1 .5 1 1 0 .6-.5 1-1 1s-1-.5-1-1zm.3 12.3v-9.9h1.5v9.9h-1.5zm4.8-5c0-2.9 1.9-5.2 4.9-5.2s4.9 2.3 4.9 5.2-1.9 5.2-4.9 5.2-4.9-2.3-4.9-5.2zm8.2 0c0-2-1.2-3.8-3.3-3.8-2.1 0-3.3 1.8-3.3 3.8 0 2 1.2 3.8 3.3 3.8 2.1.1 3.3-1.7 3.3-3.8zm11.6 5v-6.5c0-1.7-.9-2.3-2.2-2.3-1.2 0-2.4.7-2.9 1.5v7.2h-1.5v-9.9h1.5v1.4c.7-.8 2-1.7 3.5-1.7 2.1 0 3.1 1 3.1 3.2v6.9h-1.5z"/></g><g class="st22"><path class="st23" d="M1597.4 104.8l1.3-1.8c.8.8 2 1.5 3.6 1.5 1.3 0 2-.6 2-1.2 0-2-6.5-.6-6.5-4.9 0-1.9 1.6-3.4 4.3-3.4 1.8 0 3.3.5 4.4 1.6l-1.3 1.8c-.9-.8-2.1-1.2-3.3-1.2-1 0-1.6.5-1.6 1.1 0 1.8 6.5.6 6.5 4.8 0 2.1-1.5 3.6-4.5 3.6-2.3-.2-3.8-.9-4.9-1.9zm12-.5V100h-1.3v-1.9h1.3V96h2.2v2.2h1.7v1.9h-1.7v3.7c0 .5.3.9.7.9.3 0 .6-.1.7-.2l.5 1.6c-.3.3-.9.5-1.8.5-1.5-.1-2.3-.8-2.3-2.3zm10.8 2v-.8c-.6.7-1.5 1-2.6 1-1.3 0-2.8-.9-2.8-2.7 0-1.9 1.5-2.6 2.8-2.6 1.1 0 2 .4 2.6 1v-1.1c0-.8-.7-1.4-1.8-1.4-.9 0-1.7.3-2.4 1l-.8-1.4c1-.9 2.3-1.3 3.6-1.3 1.9 0 3.6.7 3.6 3.1v5.3h-2.2zm0-1.9v-1c-.4-.5-1-.7-1.7-.7-.8 0-1.5.4-1.5 1.2 0 .8.7 1.2 1.5 1.2.7 0 1.4-.2 1.7-.7zm5 1.9V95.1h2.1v4.2c.6-.8 1.6-1.2 2.5-1.2 2.1 0 3.6 1.6 3.6 4.3 0 2.7-1.6 4.3-3.6 4.3-1 0-1.9-.4-2.5-1.2v1h-2.1zm4-1.7c1.2 0 2.1-.9 2.1-2.4 0-1.4-.8-2.4-2.1-2.4-.7 0-1.5.4-1.8.9v2.9c.3.6 1.1 1 1.8 1zm6.3-8.6c0-.7.6-1.3 1.3-1.3.7 0 1.3.6 1.3 1.3s-.6 1.3-1.3 1.3c-.7 0-1.3-.6-1.3-1.3zm.2 10.3v-8.2h2.1v8.2h-2.1zm5 0V95.1h2.1v11.3h-2.1zm4.7-10.3c0-.7.6-1.3 1.3-1.3.7 0 1.3.6 1.3 1.3s-.6 1.3-1.3 1.3c-.7 0-1.3-.6-1.3-1.3zm.2 10.3v-8.2h2.1v8.2h-2.1zm4.6 0v-1.6l3.7-4.7h-3.7v-1.9h6.6v1.6l-3.7 4.7h3.8v1.9h-6.7zm8.6-4c0-2.4 1.7-4.3 4.2-4.3 2.4 0 4.1 1.8 4.1 4.5v.5h-6.1c.1 1 1 1.9 2.3 1.9.7 0 1.7-.3 2.2-.8l.9 1.4c-.8.7-2.1 1.1-3.4 1.1-2.3-.1-4.2-1.7-4.2-4.3zm4.2-2.6c-1.3 0-1.9 1-2 1.8h4c0-.8-.5-1.8-2-1.8zm12 6.6v-1c-.6.8-1.5 1.2-2.5 1.2-2.1 0-3.6-1.6-3.6-4.3 0-2.7 1.5-4.3 3.6-4.3 1 0 1.9.4 2.5 1.2v-4.2h2.2v11.3h-2.2zm0-2.6v-2.9c-.4-.5-1.1-.9-1.9-.9-1.2 0-2.1 1-2.1 2.4s.8 2.4 2.1 2.4c.7-.1 1.5-.5 1.9-1z"/></g><g class="st22"><path class="st23" d="M1605.5 126.6l-2.8-4.1-2.8 4.1h-2.9l4.1-5.8-3.8-5.5h2.9l2.6 3.8 2.5-3.8h2.9l-3.8 5.5 4.1 5.8h-3zm4.7 0v-11.3h5.3c2.4 0 3.8 1.7 3.8 3.6 0 2-1.4 3.6-3.8 3.6h-2.9v4h-2.4zm6.6-7.6c0-.9-.7-1.5-1.7-1.5h-2.5v3h2.5c.9 0 1.7-.6 1.7-1.5zm4 2c0-3.4 2.5-5.8 5.9-5.8 3.4 0 5.9 2.4 5.9 5.8s-2.5 5.8-5.9 5.8c-3.4 0-5.9-2.4-5.9-5.8zm9.3 0c0-2.1-1.4-3.7-3.4-3.7-2.1 0-3.4 1.6-3.4 3.7s1.3 3.7 3.4 3.7c2.1 0 3.4-1.6 3.4-3.7z"/></g><path d="M173.6 17.1V3.4h6.4c3 0 4.6 2 4.6 4.4 0 2.4-1.6 4.4-4.6 4.4h-3.5v4.9h-2.9zm8-9.3c0-1.2-.9-1.9-2-1.9h-3.1v3.7h3.1c1.2.1 2-.6 2-1.8zm13.4 9.3l-2.7-4.9h-2.1v4.9h-2.9V3.4h6.4c2.9 0 4.6 1.9 4.6 4.4 0 2.4-1.5 3.7-3 4.1l3.1 5.2H195zm.3-9.3c0-1.2-.9-1.9-2.1-1.9h-3.1v3.7h3.1c1.2.1 2.1-.6 2.1-1.8zm6 9.3V3.4h9.7V6h-6.8v2.9h6.6v2.6h-6.6v3.1h6.8v2.6h-9.7zm11.9-1.9l1.6-2.2c1 1 2.5 1.9 4.4 1.9 1.6 0 2.4-.7 2.4-1.5 0-2.4-7.9-.8-7.9-5.9 0-2.3 2-4.2 5.2-4.2 2.2 0 4 .7 5.3 1.9l-1.6 2.1c-1.1-1-2.6-1.5-4-1.5-1.3 0-2 .6-2 1.4 0 2.2 7.9.7 7.9 5.8 0 2.5-1.8 4.4-5.5 4.4-2.7 0-4.6-.9-5.8-2.2zm23.5 1.9l-.8-2.3H230l-.9 2.3h-3.3l5.3-13.7h3.7l5.3 13.7h-3.4zm-3.8-10.8l-2.1 5.9h4.3l-2.2-5.9zm9.3 10.8V3.4h2.9v11.1h5.8v2.6h-8.7zm11.5 0V3.4h9.7V6h-6.8v2.9h6.6v2.6h-6.6v3.1h6.8v2.6h-9.7zm17.6.5L276.2 3h1.9l-4.9 14.5h-1.9zm15-.5V3.4h2.9v13.7h-2.9zm5.8-6.8c0-4.2 3.2-7.1 7.3-7.1 3 0 4.8 1.6 5.7 3.4l-2.5 1.2c-.6-1.1-1.8-2-3.2-2-2.5 0-4.3 1.9-4.3 4.5s1.8 4.5 4.3 4.5c1.4 0 2.7-.9 3.2-2l2.5 1.2c-1 1.7-2.7 3.4-5.7 3.4-4.1 0-7.3-2.9-7.3-7.1zm15 0c0-4.1 3-7.1 7.2-7.1s7.2 3 7.2 7.1-3 7.1-7.2 7.1-7.2-3-7.2-7.1zm11.3 0c0-2.6-1.6-4.5-4.2-4.5-2.5 0-4.2 1.9-4.2 4.5s1.6 4.5 4.2 4.5 4.2-2 4.2-4.5zm20.9 6.8l-3.4-5-3.5 5H329l5-7-4.7-6.7h3.5l3.1 4.7 3.1-4.7h3.5l-4.7 6.7 5 7.1h-3.5zm13.4 0l-2.7-4.9h-2.1v4.9H345V3.4h6.4c2.9 0 4.6 1.9 4.6 4.4 0 2.4-1.5 3.7-3 4.1l3.1 5.2h-3.4zm.3-9.3c0-1.2-.9-1.9-2.1-1.9h-3.1v3.7h3.1c1.2.1 2.1-.6 2.1-1.8zm5.3 2.5c0-4.1 3-7.1 7.2-7.1s7.2 3 7.2 7.1-3 7.1-7.2 7.1c-4.1 0-7.2-3-7.2-7.1zm11.4 0c0-2.6-1.6-4.5-4.2-4.5-2.5 0-4.2 1.9-4.2 4.5s1.6 4.5 4.2 4.5c2.5 0 4.2-2 4.2-4.5zm15.3 6.8l-6.5-8.9v8.9h-2.9V3.4h3L385 12V3.4h2.9v13.7H385zm5.7-6.8c0-4.1 3-7.1 7.2-7.1s7.2 3 7.2 7.1-3 7.1-7.2 7.1-7.2-3-7.2-7.1zm11.3 0c0-2.6-1.6-4.5-4.2-4.5-2.5 0-4.2 1.9-4.2 4.5s1.6 4.5 4.2 4.5 4.2-2 4.2-4.5zm5 4.9l1.6-2.2c1 1 2.5 1.9 4.4 1.9 1.6 0 2.4-.7 2.4-1.5 0-2.4-7.9-.8-7.9-5.9 0-2.3 2-4.2 5.2-4.2 2.2 0 4 .7 5.3 1.9l-1.6 2.1c-1.1-1-2.6-1.5-4-1.5-1.3 0-2 .6-2 1.4 0 2.2 7.9.7 7.9 5.8 0 2.5-1.8 4.4-5.5 4.4-2.6 0-4.5-.9-5.8-2.2z" class="st22"/><g class="st22"><path class="st24" d="M173.5 37.8V26.5h4.5c2.3 0 3.5 1.5 3.5 3.4 0 1.8-1.3 3.4-3.5 3.4h-3.1v4.5h-1.4zm6.6-7.9c0-1.3-.9-2.1-2.2-2.1H175v4.3h2.9c1.3 0 2.2-.9 2.2-2.2zm3.3 7.9v-8.1h1.3V31c.7-.9 1.6-1.5 2.7-1.5v1.3h-.5c-.8 0-1.8.6-2.2 1.3v5.8h-1.3zm5.3-10.2c0-.5.4-.9.8-.9.5 0 .9.4.9.9s-.4.8-.9.8c-.4.1-.8-.3-.8-.8zm.2 10.2v-8.1h1.3v8.1h-1.3zm13.6 0v-5.5c0-1-.5-1.7-1.5-1.7-.8 0-1.7.6-2.2 1.2v6h-1.3v-5.5c0-1-.4-1.7-1.5-1.7-.8 0-1.7.6-2.1 1.3v5.9h-1.3v-8.1h1.3v1.2c.3-.5 1.4-1.4 2.6-1.4 1.2 0 2 .7 2.2 1.5.5-.7 1.5-1.5 2.7-1.5 1.5 0 2.3.8 2.3 2.5v5.9h-1.2zm8.9 0v-.9c-.7.7-1.6 1.1-2.7 1.1-1.4 0-2.8-.9-2.8-2.7 0-1.8 1.5-2.7 2.8-2.7 1.1 0 2 .4 2.7 1.1v-1.5c0-1.1-.9-1.7-2.1-1.7-1 0-1.8.4-2.5 1.1l-.6-.9c.9-.9 1.9-1.3 3.2-1.3 1.7 0 3.1.8 3.1 2.7v5.6h-1.1zm0-1.7v-1.5c-.5-.7-1.3-1-2.2-1-1.2 0-2 .7-2 1.8 0 1 .8 1.8 2 1.8.8-.1 1.7-.5 2.2-1.1zm3.8 1.7v-8.1h1.3V31c.7-.9 1.6-1.5 2.7-1.5v1.3h-.5c-.8 0-1.8.6-2.2 1.3v5.8h-1.3zm5.3 2c.2.1.5.1.7.1.6 0 .9-.2 1.2-.9l.5-1.2-3.4-8.2h1.4l2.7 6.7 2.7-6.7h1.4l-4.1 9.8c-.5 1.2-1.3 1.6-2.4 1.6-.3 0-.7-.1-.9-.1l.2-1.1zm20.6-2l-3.6-4.8-3.6 4.8h-1.7l4.4-5.8-4.1-5.5h1.7l3.3 4.5 3.3-4.5h1.7l-4.1 5.5 4.4 5.8h-1.7zm3.2 0V26.5h4.5c2.3 0 3.5 1.5 3.5 3.4 0 1.8-1.3 3.4-3.5 3.4h-3.1v4.5h-1.4zm6.6-7.9c0-1.3-.9-2.1-2.2-2.1h-2.9v4.3h2.9c1.3 0 2.2-.9 2.2-2.2zm2.9 2.3c0-3.3 2.2-5.8 5.6-5.8 3.3 0 5.6 2.5 5.6 5.8s-2.3 5.8-5.6 5.8c-3.4 0-5.6-2.5-5.6-5.8zm9.7 0c0-2.6-1.6-4.6-4.1-4.6-2.5 0-4.1 1.9-4.1 4.6 0 2.6 1.6 4.6 4.1 4.6 2.4-.1 4.1-2 4.1-4.6zm7.4 1.5c0-2.4 1.7-4.3 4-4.3 2.5 0 3.9 1.9 3.9 4.4v.3h-6.6c.1 1.5 1.2 2.8 2.9 2.8.9 0 1.9-.4 2.5-1l.6.8c-.8.8-1.9 1.2-3.2 1.2-2.4.1-4.1-1.7-4.1-4.2zm4-3.2c-1.7 0-2.6 1.5-2.7 2.7h5.3c.1-1.2-.7-2.7-2.6-2.7zm15.8 7.3v-5.5c0-1-.5-1.7-1.5-1.7-.8 0-1.7.6-2.2 1.2v6h-1.3v-5.5c0-1-.4-1.7-1.5-1.7-.8 0-1.7.6-2.1 1.3v5.9h-1.3v-8.1h1.3v1.2c.3-.5 1.4-1.4 2.6-1.4 1.2 0 2 .7 2.2 1.5.5-.7 1.5-1.5 2.7-1.5 1.5 0 2.3.8 2.3 2.5v5.9h-1.2zm3.5-10.2c0-.5.4-.9.8-.9.5 0 .9.4.9.9s-.4.8-.9.8c-.4.1-.8-.3-.8-.8zm.3 10.2v-8.1h1.3v8.1h-1.3zm3-1.1l.7-.9c.5.6 1.6 1.2 2.7 1.2 1.2 0 1.9-.6 1.9-1.4 0-2-5-.8-5-3.8 0-1.3 1.1-2.3 3-2.3 1.4 0 2.4.5 3 1.2l-.6.9c-.5-.6-1.4-1-2.4-1-1.1 0-1.8.6-1.8 1.3 0 1.8 5 .6 5 3.8 0 1.4-1.1 2.5-3.2 2.5-1.3-.2-2.4-.6-3.3-1.5zm7.9 0l.7-.9c.5.6 1.6 1.2 2.7 1.2 1.2 0 1.9-.6 1.9-1.4 0-2-5-.8-5-3.8 0-1.3 1.1-2.3 3-2.3 1.4 0 2.4.5 3 1.2l-.6.9c-.5-.6-1.4-1-2.4-1-1.1 0-1.8.6-1.8 1.3 0 1.8 5 .6 5 3.8 0 1.4-1.1 2.5-3.2 2.5-1.4-.2-2.5-.6-3.3-1.5zm8.3-9.1c0-.5.4-.9.8-.9.5 0 .9.4.9.9s-.4.8-.9.8c-.4.1-.8-.3-.8-.8zm.2 10.2v-8.1h1.3v8.1h-1.3zm3.3-4.1c0-2.4 1.5-4.3 4-4.3s4 1.9 4 4.3-1.5 4.3-4 4.3-4-1.9-4-4.3zm6.7 0c0-1.6-1-3.1-2.7-3.1s-2.7 1.5-2.7 3.1c0 1.7 1 3.1 2.7 3.1s2.7-1.4 2.7-3.1zm8.9 4.1v-5.3c0-1.4-.7-1.9-1.8-1.9-1 0-1.9.6-2.4 1.3v5.9h-1.3v-8.1h1.3v1.2c.6-.7 1.7-1.4 2.9-1.4 1.7 0 2.6.9 2.6 2.6v5.7h-1.3z"/></g><path d="M641 17.1V3.4h6.4c3 0 4.6 2 4.6 4.4 0 2.4-1.6 4.4-4.6 4.4h-3.5v4.9H641zm8.1-9.3c0-1.2-.9-1.9-2-1.9H644v3.7h3.1c1.1.1 2-.6 2-1.8zm13.3 9.3l-2.7-4.9h-2.1v4.9h-2.9V3.4h6.4c2.9 0 4.6 1.9 4.6 4.4 0 2.4-1.5 3.7-3 4.1l3.1 5.2h-3.4zm.3-9.3c0-1.2-.9-1.9-2.1-1.9h-3.1v3.7h3.1c1.2.1 2.1-.6 2.1-1.8zm6 9.3V3.4h9.7V6h-6.8v2.9h6.6v2.6h-6.6v3.1h6.8v2.6h-9.7zm11.9-1.9l1.6-2.2c1 1 2.5 1.9 4.4 1.9 1.6 0 2.4-.7 2.4-1.5 0-2.4-7.9-.8-7.9-5.9 0-2.3 2-4.2 5.2-4.2 2.2 0 4 .7 5.3 1.9L690 7.3c-1.1-1-2.6-1.5-4-1.5-1.3 0-2 .6-2 1.4 0 2.2 7.9.7 7.9 5.8 0 2.5-1.8 4.4-5.5 4.4-2.6 0-4.5-.9-5.8-2.2zm23.6 1.9l-.8-2.3h-5.9l-.9 2.3h-3.3l5.3-13.7h3.7l5.3 13.7h-3.4zm-3.8-10.8l-2.1 5.9h4.3l-2.2-5.9zm9.2 10.8V3.4h2.9v11.1h5.8v2.6h-8.7zm11.6 0V3.4h9.7V6h-6.8v2.9h6.6v2.6h-6.6v3.1h6.8v2.6h-9.7zm17.5.5L743.6 3h1.9l-4.9 14.5h-1.9zm15.1-.5V3.4h2.9v13.7h-2.9zm5.8-6.8c0-4.2 3.2-7.1 7.3-7.1 3 0 4.8 1.6 5.7 3.4l-2.5 1.2c-.6-1.1-1.8-2-3.2-2-2.5 0-4.3 1.9-4.3 4.5s1.8 4.5 4.3 4.5c1.4 0 2.7-.9 3.2-2l2.5 1.2c-1 1.7-2.7 3.4-5.7 3.4-4.1 0-7.3-2.9-7.3-7.1zm14.9 0c0-4.1 3-7.1 7.2-7.1s7.2 3 7.2 7.1-3 7.1-7.2 7.1-7.2-3-7.2-7.1zm11.4 0c0-2.6-1.6-4.5-4.2-4.5-2.5 0-4.2 1.9-4.2 4.5s1.6 4.5 4.2 4.5c2.5 0 4.2-2 4.2-4.5zm11.3 0c0-4.3 3.3-7.1 7.3-7.1 2.9 0 4.6 1.4 5.7 3.1l-2.4 1.3c-.6-1-1.8-1.8-3.2-1.8-2.5 0-4.3 1.9-4.3 4.5s1.8 4.5 4.3 4.5c1.2 0 2.4-.5 2.9-1v-1.6h-3.6V9.6h6.5v5.3c-1.4 1.6-3.4 2.6-5.8 2.6-4.1-.1-7.4-2.9-7.4-7.2zm16.3 6.8V3.4h2.9v11.1h5.8v2.6h-8.7zm10.9-6.8c0-4.1 3-7.1 7.2-7.1s7.2 3 7.2 7.1-3 7.1-7.2 7.1-7.2-3-7.2-7.1zm11.3 0c0-2.6-1.6-4.5-4.2-4.5-2.5 0-4.2 1.9-4.2 4.5s1.6 4.5 4.2 4.5 4.2-2 4.2-4.5zm5.9 6.8V3.4h7.2c2.6 0 3.9 1.7 3.9 3.5 0 1.7-1.1 2.9-2.4 3.1 1.5.2 2.6 1.6 2.6 3.4 0 2.1-1.4 3.7-4 3.7h-7.3zm8.2-9.7c0-.9-.6-1.5-1.6-1.5h-3.7v3h3.7c1 0 1.6-.6 1.6-1.5zm.3 5.6c0-.9-.6-1.6-1.8-1.6h-3.8v3.2h3.8c1.1 0 1.8-.6 1.8-1.6zm6-1.3V3.4h3v8.1c0 1.9 1.1 3.2 3.2 3.2s3.2-1.3 3.2-3.2V3.4h3v8.2c0 3.4-2 5.7-6.2 5.7-4.2.1-6.2-2.3-6.2-5.6zm15.9 5.4V3.4h2.9v11.1h5.8v2.6H872zm21 0l-.8-2.3h-5.9l-.9 2.3h-3.3l5.3-13.7h3.7l5.3 13.7H893zm-3.8-10.8l-2.1 5.9h4.3l-2.2-5.9zm226.1 8.9l1.6-2.2c1 1 2.5 1.9 4.4 1.9 1.6 0 2.4-.7 2.4-1.5 0-2.4-7.9-.8-7.9-5.9 0-2.3 2-4.2 5.2-4.2 2.2 0 4 .7 5.3 1.9l-1.6 2.1c-1.1-1-2.6-1.5-4-1.5-1.3 0-2 .6-2 1.4 0 2.2 7.9.7 7.9 5.8 0 2.5-1.8 4.4-5.5 4.4-2.6 0-4.5-.9-5.8-2.2zm17.2 1.9V6h-4V3.4h10.9V6h-4v11.1h-2.9zm19.1 0l-.8-2.3h-5.9l-.9 2.3h-3.3l5.3-13.7h3.7l5.3 13.7h-3.4zm-3.7-10.8l-2.1 5.9h4.3l-2.2-5.9zm9.2 10.8V3.4h7.2c2.6 0 3.9 1.7 3.9 3.5 0 1.7-1.1 2.9-2.4 3.1 1.5.2 2.6 1.6 2.6 3.4 0 2.1-1.4 3.7-4 3.7h-7.3zm8.2-9.7c0-.9-.6-1.5-1.6-1.5h-3.7v3h3.7c.9 0 1.6-.6 1.6-1.5zm.2 5.6c0-.9-.6-1.6-1.8-1.6h-3.8v3.2h3.8c1.2 0 1.8-.6 1.8-1.6zm6 4.1V3.4h2.9v11.1h5.8v2.6h-8.7zm11.6 0V3.4h9.7V6h-6.8v2.9h6.6v2.6h-6.6v3.1h6.8v2.6h-9.7zm18.3-6.8c0-4.2 3.2-7.1 7.3-7.1 3 0 4.8 1.6 5.7 3.4l-2.5 1.2c-.6-1.1-1.8-2-3.2-2-2.5 0-4.3 1.9-4.3 4.5s1.8 4.5 4.3 4.5c1.4 0 2.7-.9 3.2-2l2.5 1.2c-1 1.7-2.7 3.4-5.7 3.4-4.2 0-7.3-2.9-7.3-7.1zm14.9 0c0-4.1 3-7.1 7.2-7.1s7.2 3 7.2 7.1-3 7.1-7.2 7.1-7.2-3-7.2-7.1zm11.3 0c0-2.6-1.6-4.5-4.2-4.5s-4.2 1.9-4.2 4.5 1.6 4.5 4.2 4.5 4.2-2 4.2-4.5zm5.9 6.8V3.4h2.9v13.7h-2.9zm15.9 0l-6.5-8.9v8.9h-2.9V3.4h3l6.4 8.6V3.4h2.9v13.7h-2.9zm11.1.5l4.9-14.5h1.9l-4.9 14.5h-1.9zm25.6-.5l-2.4-9.4-2.4 9.4h-3.1l-3.9-13.7h3.3l2.4 9.9 2.6-9.9h2.3l2.6 9.9 2.4-9.9h3.3l-3.9 13.7h-3.2zm8.5-6.8c0-4.1 3-7.1 7.2-7.1s7.2 3 7.2 7.1-3 7.1-7.2 7.1-7.2-3-7.2-7.1zm11.4 0c0-2.6-1.6-4.5-4.2-4.5s-4.2 1.9-4.2 4.5 1.6 4.5 4.2 4.5 4.2-2 4.2-4.5zm13.6 6.8l-2.7-4.9h-2.1v4.9h-2.9V3.4h6.4c2.9 0 4.6 1.9 4.6 4.4 0 2.4-1.5 3.7-3 4.1l3.1 5.2h-3.4zm.3-9.3c0-1.2-.9-1.9-2.1-1.9h-3.1v3.7h3.1c1.2.1 2.1-.6 2.1-1.8zm14.1 9.3l-4.2-5.5-1.1 1.3v4.2h-2.9V3.4h2.9v6.1l4.9-6.1h3.6l-5.5 6.4 5.8 7.3h-3.5zm4.9-1.9l1.6-2.2c1 1 2.5 1.9 4.4 1.9 1.6 0 2.4-.7 2.4-1.5 0-2.4-7.9-.8-7.9-5.9 0-2.3 2-4.2 5.2-4.2 2.2 0 4 .7 5.3 1.9l-1.6 2.1c-1.1-1-2.6-1.5-4-1.5-1.3 0-2 .6-2 1.4 0 2.2 7.9.7 7.9 5.8 0 2.5-1.8 4.4-5.5 4.4-2.7 0-4.6-.9-5.8-2.2zm14.1 1.9V3.4h6.4c3 0 4.6 2 4.6 4.4 0 2.4-1.6 4.4-4.6 4.4h-3.5v4.9h-2.9zm8-9.3c0-1.2-.9-1.9-2-1.9h-3.1v3.7h3.1c1.1.1 2-.6 2-1.8zm15.1 9.3l-.8-2.3h-5.9l-.9 2.3h-3.3l5.3-13.7h3.7l5.3 13.7h-3.4zm-3.8-10.8l-2.1 5.9h4.3l-2.2-5.9zm8.5 4c0-4.2 3.2-7.1 7.3-7.1 3 0 4.8 1.6 5.7 3.4l-2.5 1.2c-.6-1.1-1.8-2-3.2-2-2.5 0-4.3 1.9-4.3 4.5s1.8 4.5 4.3 4.5c1.4 0 2.7-.9 3.2-2l2.5 1.2c-1 1.7-2.7 3.4-5.7 3.4-4.1 0-7.3-2.9-7.3-7.1zm15.7 6.8V3.4h9.7V6h-6.8v2.9h6.6v2.6h-6.6v3.1h6.8v2.6h-9.7zM144.4 542.6v-8.2h3v8.1c0 1.9 1.1 3.2 3.2 3.2s3.2-1.3 3.2-3.2v-8.1h3v8.2c0 3.4-2 5.7-6.2 5.7-4.2.1-6.2-2.3-6.2-5.7zm25.4 5.5l-6.5-8.9v8.9h-2.9v-13.7h3l6.4 8.6v-8.6h2.9v13.7h-2.9zm6.3 0v-13.7h5.4c4.3 0 7.3 2.7 7.3 6.9 0 4.1-3 6.8-7.3 6.8h-5.4zm9.7-6.8c0-2.4-1.5-4.3-4.3-4.3H179v8.6h2.5c2.7-.1 4.3-2 4.3-4.3zm5.9 6.8v-13.7h9.7v2.6h-6.8v2.9h6.6v2.6h-6.6v3.1h6.8v2.6h-9.7zm20.6 0l-2.7-4.9h-2.1v4.9h-2.9v-13.7h6.4c2.9 0 4.6 1.9 4.6 4.4 0 2.4-1.5 3.7-3 4.1l3.1 5.2h-3.4zm.3-9.3c0-1.2-.9-1.9-2.1-1.9h-3.1v3.7h3.1c1.2.1 2.1-.6 2.1-1.8zm12.1 9.3v-13.7h6.4c3 0 4.6 2 4.6 4.4 0 2.4-1.6 4.4-4.6 4.4h-3.5v4.9h-2.9zm8-9.3c0-1.2-.9-1.9-2-1.9h-3.1v3.7h3.1c1.1.1 2-.6 2-1.8zm13.4 9.3l-2.7-4.9h-2.1v4.9h-2.9v-13.7h6.4c2.9 0 4.6 1.9 4.6 4.4 0 2.4-1.5 3.7-3 4.1l3.1 5.2h-3.4zm.3-9.3c0-1.2-.9-1.9-2.1-1.9h-3.1v3.7h3.1c1.2.1 2.1-.6 2.1-1.8zm6 9.3v-13.7h9.7v2.6h-6.8v2.9h6.6v2.6h-6.6v3.1h6.8v2.6h-9.7zm11.9-1.9l1.6-2.2c1 1 2.5 1.9 4.4 1.9 1.6 0 2.4-.7 2.4-1.5 0-2.4-7.9-.8-7.9-5.9 0-2.3 2-4.2 5.2-4.2 2.2 0 4 .7 5.3 1.9l-1.6 2.1c-1.1-1-2.6-1.5-4-1.5-1.3 0-2 .6-2 1.4 0 2.2 7.9.7 7.9 5.8 0 2.5-1.8 4.4-5.5 4.4-2.7 0-4.6-.9-5.8-2.2zm13.1 0l1.6-2.2c1 1 2.5 1.9 4.4 1.9 1.6 0 2.4-.7 2.4-1.5 0-2.4-7.9-.8-7.9-5.9 0-2.3 2-4.2 5.2-4.2 2.2 0 4 .7 5.3 1.9l-1.6 2.1c-1.1-1-2.6-1.5-4-1.5-1.3 0-2 .6-2 1.4 0 2.2 7.9.7 7.9 5.8 0 2.5-1.8 4.4-5.5 4.4-2.6 0-4.5-.9-5.8-2.2zm14.1-3.6v-8.2h3v8.1c0 1.9 1.1 3.2 3.2 3.2s3.2-1.3 3.2-3.2v-8.1h3v8.2c0 3.4-2 5.7-6.2 5.7s-6.2-2.3-6.2-5.7zm23.7 5.5l-2.7-4.9h-2.1v4.9h-2.9v-13.7h6.4c2.9 0 4.6 1.9 4.6 4.4 0 2.4-1.5 3.7-3 4.1l3.1 5.2h-3.4zm.3-9.3c0-1.2-.9-1.9-2.1-1.9h-3.1v3.7h3.1c1.2.1 2.1-.6 2.1-1.8zm6 9.3v-13.7h9.7v2.6h-6.8v2.9h6.6v2.6h-6.6v3.1h6.8v2.6h-9.7zm296.9-1.9l1.6-2.2c1 1 2.5 1.9 4.4 1.9 1.6 0 2.4-.7 2.4-1.5 0-2.4-7.9-.8-7.9-5.9 0-2.3 2-4.2 5.2-4.2 2.2 0 4 .7 5.3 1.9l-1.6 2.1c-1.1-1-2.6-1.5-4-1.5-1.3 0-2 .6-2 1.4 0 2.2 7.9.7 7.9 5.8 0 2.5-1.8 4.4-5.5 4.4-2.6 0-4.5-.9-5.8-2.2zm14.1 1.9v-13.7h6.4c3 0 4.6 2 4.6 4.4 0 2.4-1.6 4.4-4.6 4.4h-3.5v4.9h-2.9zm8-9.3c0-1.2-.9-1.9-2-1.9h-3.1v3.7h3.1c1.2.1 2-.6 2-1.8zm13.4 9.3l-2.7-4.9h-2.1v4.9h-2.9v-13.7h6.4c2.9 0 4.6 1.9 4.6 4.4 0 2.4-1.5 3.7-3 4.1l3.1 5.2h-3.4zm.3-9.3c0-1.2-.9-1.9-2.1-1.9H649v3.7h3.1c1.2.1 2.1-.6 2.1-1.8zm6 9.3v-13.7h9.7v2.6h-6.8v2.9h6.6v2.6h-6.6v3.1h6.8v2.6h-9.7zm22.3 0l-.8-2.3h-5.9l-.9 2.3h-3.3l5.3-13.7h3.7l5.3 13.7h-3.4zm-3.8-10.8l-2.1 5.9h4.3l-2.2-5.9zm9.2 10.8v-13.7h5.4c4.3 0 7.3 2.7 7.3 6.9 0 4.1-3 6.8-7.3 6.8h-5.4zm9.7-6.8c0-2.4-1.5-4.3-4.3-4.3h-2.5v8.6h2.5c2.7-.1 4.3-2 4.3-4.3zm12 6.8v-13.7h5.4c4.3 0 7.3 2.7 7.3 6.9 0 4.1-3 6.8-7.3 6.8h-5.4zm9.7-6.8c0-2.4-1.5-4.3-4.3-4.3h-2.5v8.6h2.5c2.7-.1 4.3-2 4.3-4.3zm5.9 6.8v-13.7h9.7v2.6h-6.8v2.9h6.6v2.6h-6.6v3.1h6.8v2.6h-9.7zm12.1-6.8c0-4.2 3.2-7.1 7.3-7.1 3 0 4.8 1.6 5.7 3.4l-2.5 1.2c-.6-1.1-1.8-2-3.2-2-2.5 0-4.3 1.9-4.3 4.5s1.8 4.5 4.3 4.5c1.4 0 2.7-.9 3.2-2l2.5 1.2c-1 1.7-2.7 3.4-5.7 3.4-4.1 0-7.3-2.9-7.3-7.1zm23.4 6.8l-2.7-4.9h-2.1v4.9H753v-13.7h6.4c2.9 0 4.6 1.9 4.6 4.4 0 2.4-1.5 3.7-3 4.1l3.1 5.2h-3.4zm.3-9.3c0-1.2-.9-1.9-2.1-1.9h-3.1v3.7h3.1c1.2.1 2.1-.6 2.1-1.8zm6 9.3v-13.7h9.7v2.6h-6.8v2.9h6.6v2.6h-6.6v3.1h6.8v2.6H767zm22.3 0l-.8-2.3h-5.9l-.9 2.3h-3.3l5.3-13.7h3.7l5.3 13.7h-3.4zm-3.8-10.8l-2.1 5.9h4.3l-2.2-5.9zm8.3 8.9l1.6-2.2c1 1 2.5 1.9 4.4 1.9 1.6 0 2.4-.7 2.4-1.5 0-2.4-7.9-.8-7.9-5.9 0-2.3 2-4.2 5.2-4.2 2.2 0 4 .7 5.3 1.9l-1.6 2.1c-1.1-1-2.6-1.5-4-1.5-1.3 0-2 .6-2 1.4 0 2.2 7.9.7 7.9 5.8 0 2.5-1.8 4.4-5.5 4.4-2.6 0-4.5-.9-5.8-2.2zm14.1 1.9v-13.7h9.7v2.6h-6.8v2.9h6.6v2.6h-6.6v3.1h6.8v2.6h-9.7zm282.9-1.9l1.6-2.2c1 1 2.5 1.9 4.4 1.9 1.6 0 2.4-.7 2.4-1.5 0-2.4-7.9-.8-7.9-5.9 0-2.3 2-4.2 5.2-4.2 2.2 0 4 .7 5.3 1.9l-1.6 2.1c-1.1-1-2.6-1.5-4-1.5-1.3 0-2 .6-2 1.4 0 2.2 7.9.7 7.9 5.8 0 2.5-1.8 4.4-5.5 4.4-2.6 0-4.5-.9-5.8-2.2zm23.5 1.9v-5.8h-6.5v5.8h-2.9v-13.7h2.9v5.4h6.5v-5.4h2.9v13.7h-2.9zm16 0l-.8-2.3h-5.9l-.9 2.3h-3.3l5.3-13.7h3.7l5.3 13.7h-3.4zm-3.8-10.8l-2.1 5.9h4.3l-2.2-5.9zm9.2 10.8v-13.7h2.9v11.1h5.8v2.6h-8.7zm11.6 0v-13.7h2.9v11.1h5.8v2.6h-8.7zm10.9-6.8c0-4.1 3-7.1 7.2-7.1s7.2 3 7.2 7.1-3 7.1-7.2 7.1-7.2-3-7.2-7.1zm11.3 0c0-2.6-1.6-4.5-4.2-4.5-2.5 0-4.2 1.9-4.2 4.5s1.6 4.5 4.2 4.5 4.2-2 4.2-4.5zm16.4 6.8l-2.4-9.4-2.4 9.4h-3.1l-3.9-13.7h3.3l2.4 9.9 2.6-9.9h2.3l2.6 9.9 2.4-9.9h3.3l-3.9 13.7h-3.2z" class="st22"/><g class="st22"><path class="st30" d="M143.8 574.3v-1.9c4.6-3.4 5.9-4.6 5.9-5.9 0-1-.9-1.5-1.8-1.5-1.3 0-2.3.5-3 1.3l-1.4-1.6c1.1-1.3 2.8-1.8 4.3-1.8 2.4 0 4.3 1.3 4.3 3.6 0 1.9-1.6 3.6-4.5 5.7h4.6v2.1h-8.4zm10.6-5.6c0-2.9 1.4-5.8 4.6-5.8 3.2 0 4.6 2.9 4.6 5.8s-1.4 5.8-4.6 5.8c-3.2 0-4.6-2.9-4.6-5.8zm6.8 0c0-2.1-.6-3.7-2.2-3.7s-2.2 1.6-2.2 3.7.6 3.7 2.2 3.7 2.2-1.6 2.2-3.7zm7.1 5.6v-8.1l-1.9 1.9-1.4-1.4 3.5-3.6h2.1v11.2h-2.3zm6.2 0l4-9.1h-5.7v-2.1h8.4v1.7l-4.2 9.6h-2.5z"/></g><g class="st22"><path class="st30" d="M618.8 574.3v-1.9c4.6-3.4 5.9-4.6 5.9-5.9 0-1-.9-1.5-1.8-1.5-1.3 0-2.3.5-3 1.3l-1.4-1.6c1.1-1.3 2.8-1.8 4.3-1.8 2.4 0 4.3 1.3 4.3 3.6 0 1.9-1.6 3.6-4.5 5.7h4.6v2.1h-8.4zm10.5-5.6c0-2.9 1.4-5.8 4.6-5.8 3.2 0 4.6 2.9 4.6 5.8s-1.4 5.8-4.6 5.8c-3.1 0-4.6-2.9-4.6-5.8zm6.9 0c0-2.1-.6-3.7-2.2-3.7s-2.2 1.6-2.2 3.7.6 3.7 2.2 3.7 2.2-1.6 2.2-3.7zm7.1 5.6v-8.1l-1.9 1.9-1.4-1.4 3.5-3.6h2.1v11.2h-2.3zm4.7-2.9c0-1.4 1.1-2.4 2.4-2.9-1.2-.4-2.2-1.2-2.2-2.6 0-2.1 2.2-3 4.3-3 2.1 0 4.3.9 4.3 3 0 1.4-1 2.2-2.2 2.6 1.3.5 2.4 1.5 2.4 2.9 0 2.1-2.2 3.1-4.5 3.1s-4.5-1-4.5-3.1zm6.6-.3c0-.9-1.4-1.4-2.1-1.5-.7.1-2.1.6-2.1 1.5 0 .8.9 1.4 2.1 1.4 1.2-.1 2.1-.6 2.1-1.4zm-.2-4.9c0-.8-.8-1.3-1.9-1.3-1.1 0-1.9.5-1.9 1.3s1.2 1.2 1.9 1.3c.7 0 1.9-.4 1.9-1.3z"/></g><g class="st22"><path class="st30" d="M1091.2 574.3v-1.9c4.6-3.4 5.9-4.6 5.9-5.9 0-1-.9-1.5-1.8-1.5-1.3 0-2.3.5-3 1.3l-1.4-1.6c1.1-1.3 2.8-1.8 4.3-1.8 2.4 0 4.3 1.3 4.3 3.6 0 1.9-1.6 3.6-4.5 5.7h4.6v2.1h-8.4zm10.6-5.6c0-2.9 1.4-5.8 4.6-5.8 3.2 0 4.6 2.9 4.6 5.8s-1.4 5.8-4.6 5.8c-3.2 0-4.6-2.9-4.6-5.8zm6.8 0c0-2.1-.6-3.7-2.2-3.7s-2.2 1.6-2.2 3.7.6 3.7 2.2 3.7 2.2-1.6 2.2-3.7zm7.1 5.6v-8.1l-1.9 1.9-1.4-1.4 3.5-3.6h2.1v11.2h-2.3zm5.3-1l1.1-1.8c.6.6 1.2.9 2.2.9 1.9 0 2.8-1.5 2.8-3.2v-.3c-.5.8-1.7 1.4-2.9 1.4-2 0-3.8-1.3-3.8-3.7 0-2.2 1.8-3.9 4.3-3.9 3.4 0 4.8 2.6 4.8 5.8 0 3.4-1.9 5.8-5.2 5.8-1.4.2-2.5-.3-3.3-1zm6.1-6c-.1-1.1-.7-2.3-2.3-2.3-1.3 0-2 .9-2 1.6 0 1.2 1 1.7 2.1 1.7.8 0 1.7-.3 2.2-1z"/></g><path class="st31" d="M1558.2 193.1l-2 4.3"/><path class="st32" d="M1553.2 203.8l-4.5 9.8"/><path class="st31" d="M1547.1 216.8l-1.9 4.3-4.2-2.1m-9-4.5l-4.2-2.1-2.7 3.8"/><path class="st33" d="M1520.8 222.6l-15.2 22.1"/><path class="st31" d="M1503.4 247.9l-2.6 3.8-3-3.6"/><path class="st34" d="M1493.4 242.6l-6.7-8.1"/><path class="st31" d="M1484.5 231.7l-3-3.6-4.6-.4"/><path class="st35" d="M1466.3 226.8l-15.9-1.4"/><path class="st31" d="M1445.1 224.9l-4.7-.4-3.6 3"/><path class="st36" d="M1429.7 233.6l-19.6 16.4-81.2 31.5-57.2-13.2-58.8-.3-54.6 22.9-106.6-11.9-98.2 18.3-71.1 30.5-66.6-7.8-81.5 45.5-66-9.3"/><path class="st31" d="M663.6 355.5l-4.6-.6-3.1 3.4"/><path class="st37" d="M649.7 365.1l-46.1 50.3-64.4 16.5-5.4 5.7"/><path class="st31" d="M530.6 441l-3.2 3.4h-4.6"/><path class="st38" d="M513 444.4H361"/><path class="st31" d="M356.1 444.4h-4.7v4.7m0 7.7v4.7h-4.7"/><path class="st39" d="M337.5 461.5l-73.9-.1H139.1"/><path class="st31" d="M134.5 461.4h-4.7"/><g class="st22"><path class="st40" d="M52.5 462.2c0-3.1 2.3-5.2 5.3-5.2 2.2 0 3.5 1.2 4.2 2.4l-1.8.9c-.4-.8-1.3-1.5-2.3-1.5-1.8 0-3.1 1.4-3.1 3.3s1.3 3.3 3.1 3.3c1 0 1.9-.6 2.3-1.5l1.8.9c-.7 1.2-2 2.5-4.2 2.5-3 .1-5.3-2-5.3-5.1zm10.3 0c0-3.1 2.3-5.2 5.3-5.2 2.2 0 3.5 1.2 4.2 2.4l-1.8.9c-.4-.8-1.3-1.5-2.3-1.5-1.8 0-3.1 1.4-3.1 3.3s1.3 3.3 3.1 3.3c1 0 1.9-.6 2.3-1.5l1.8.9c-.7 1.2-2 2.5-4.2 2.5-3 .1-5.3-2-5.3-5.1zm10.7 5v-10h5.2c1.9 0 2.9 1.2 2.9 2.5s-.8 2.1-1.7 2.3c1.1.2 1.9 1.2 1.9 2.5 0 1.5-1 2.7-2.9 2.7h-5.4zm6-7.1c0-.6-.4-1.1-1.2-1.1h-2.7v2.2h2.7c.7 0 1.2-.4 1.2-1.1zm.2 4.1c0-.6-.4-1.2-1.3-1.2h-2.7v2.3h2.7c.8.1 1.3-.4 1.3-1.1zm7.5 3v-10h1.9v3.7c.6-.7 1.4-1.1 2.2-1.1 1.8 0 3.2 1.4 3.2 3.8s-1.4 3.8-3.2 3.8c-.9 0-1.7-.4-2.2-1.1v.9h-1.9zm3.6-1.5c1.1 0 1.8-.8 1.8-2.1s-.7-2.1-1.8-2.1c-.6 0-1.3.4-1.6.8v2.6c.3.4 1 .8 1.6.8zm10.1 1.5v-.9c-.5.6-1.4 1.1-2.5 1.1-1.6 0-2.3-.9-2.3-2.3V460H98v4.4c0 1 .5 1.3 1.3 1.3.7 0 1.3-.4 1.6-.8V460h1.9v7.2h-1.9zm3.8 1.1c.2.1.4.1.6.1.5 0 .8-.1 1-.5l.3-.6-2.9-7.3h2l1.9 5 1.9-5h2l-3.4 8.4c-.5 1.4-1.5 1.7-2.7 1.7-.2 0-.7 0-.9-.1l.2-1.7z"/></g><g class="st22"><path class="st40" d="M40 479.5c0-2 1.4-3.8 3.8-3.8s3.8 1.7 3.8 3.8c0 2.1-1.4 3.8-3.8 3.8-2.3 0-3.8-1.8-3.8-3.8zm5.7 0c0-1.1-.7-2.1-1.9-2.1s-1.8 1-1.8 2.1.7 2.1 1.8 2.1c1.2 0 1.9-1 1.9-2.1zm3.4 3.6v-7.2H51v1c.5-.6 1.4-1.2 2.3-1.2v1.9h-.5c-.6 0-1.5.4-1.8.8v4.8h-1.9zm10.3 0v-.9c-.6.7-1.4 1.1-2.2 1.1-1.8 0-3.2-1.4-3.2-3.8s1.4-3.8 3.2-3.8c.9 0 1.7.4 2.2 1.1v-3.7h1.9v10h-1.9zm0-2.4v-2.6c-.3-.5-1-.8-1.6-.8-1.1 0-1.8.9-1.8 2.1 0 1.2.7 2.1 1.8 2.1.6.1 1.3-.3 1.6-.8zm3.4-1.2c0-2.1 1.5-3.8 3.7-3.8s3.6 1.6 3.6 4v.4h-5.4c.1.9.9 1.7 2.1 1.7.6 0 1.5-.3 1.9-.7l.8 1.2c-.7.7-1.9 1-3 1-2.1 0-3.7-1.5-3.7-3.8zm3.7-2.3c-1.2 0-1.7.9-1.8 1.6h3.6c-.1-.7-.5-1.6-1.8-1.6zm5 5.9v-7.2h1.9v1c.5-.6 1.4-1.2 2.3-1.2v1.9h-.5c-.6 0-1.5.4-1.8.8v4.8h-1.9zm4.8-1l.8-1.3c.5.5 1.6 1 2.5 1 .8 0 1.2-.3 1.2-.8 0-1.2-4.3-.2-4.3-3.1 0-1.2 1.1-2.3 3-2.3 1.2 0 2.2.4 2.9 1l-.8 1.3c-.4-.5-1.3-.8-2.1-.8-.7 0-1.1.3-1.1.7 0 1.1 4.3.2 4.3 3.1 0 1.3-1.1 2.3-3.1 2.3-1.4.1-2.6-.4-3.3-1.1zm11.5 1v-10h1.9v10h-1.9zm3.6-9.2c0-.6.5-1.1 1.1-1.1.6 0 1.1.5 1.1 1.1s-.5 1.1-1.1 1.1c-.5.1-1.1-.4-1.1-1.1zm.2 9.2v-7.2h1.9v7.2h-1.9zm8.7 0v-4.4c0-1-.5-1.3-1.3-1.3-.7 0-1.3.4-1.6.9v4.9h-1.9V476h1.9v.9c.5-.6 1.3-1.1 2.5-1.1 1.6 0 2.3.9 2.3 2.3v5.1h-1.9zm3.3-3.6c0-2.1 1.5-3.8 3.7-3.8s3.6 1.6 3.6 4v.4h-5.4c.1.9.9 1.7 2.1 1.7.6 0 1.5-.3 1.9-.7l.8 1.2c-.7.7-1.9 1-3 1-2 0-3.7-1.5-3.7-3.8zm3.8-2.3c-1.2 0-1.7.9-1.8 1.6h3.6c-.1-.7-.6-1.6-1.8-1.6z"/></g><path class="st18" d="M1558.6 80.4v415.1"/><g class="st22"><path class="st41" d="M1392.4 554.3c0-3.2 2.3-5.3 5.3-5.3 1.8 0 3.1.9 3.9 2l-1.1.6c-.6-.9-1.7-1.5-2.8-1.5-2.3 0-4 1.7-4 4.2 0 2.4 1.7 4.2 4 4.2 1.2 0 2.2-.6 2.8-1.5l1.1.6c-.9 1.2-2.1 2-3.9 2-2.9.1-5.3-2.1-5.3-5.3zm10.5 0c0-3.2 2.3-5.3 5.3-5.3 1.8 0 3.1.9 3.9 2l-1.1.6c-.6-.9-1.7-1.5-2.8-1.5-2.3 0-4 1.7-4 4.2 0 2.4 1.7 4.2 4 4.2 1.2 0 2.2-.6 2.8-1.5l1.1.6c-.9 1.2-2.1 2-3.9 2-3 .1-5.3-2.1-5.3-5.3zm10.9 5.2v-10.3h4.6c1.8 0 2.9 1.1 2.9 2.6 0 1.3-.9 2.2-1.8 2.4 1.1.2 2 1.3 2 2.5 0 1.7-1.1 2.8-3 2.8h-4.7zm6.2-7.5c0-.9-.6-1.7-1.8-1.7h-3.1v3.3h3.1c1.1 0 1.8-.7 1.8-1.6zm.2 4.6c0-.9-.7-1.8-1.9-1.8h-3.2v3.6h3.2c1.1 0 1.9-.7 1.9-1.8zm12 2.9v-.9c-.6.7-1.5 1-2.5 1-1.3 0-2.6-.9-2.6-2.5 0-1.7 1.3-2.5 2.6-2.5 1 0 1.9.3 2.5 1v-1.3c0-1-.8-1.6-1.9-1.6-.9 0-1.6.3-2.3 1l-.5-.8c.8-.8 1.8-1.2 3-1.2 1.6 0 2.9.7 2.9 2.5v5.1h-1.2zm0-1.6v-1.4c-.4-.6-1.2-.9-2.1-.9-1.1 0-1.8.7-1.8 1.6 0 .9.8 1.6 1.8 1.6.8.1 1.6-.3 2.1-.9zm8.5 1.6v-1.1c-.6.7-1.5 1.2-2.7 1.2-1.6 0-2.4-.8-2.4-2.4V552h1.2v4.9c0 1.3.7 1.7 1.7 1.7.9 0 1.8-.5 2.2-1.1V552h1.2v7.5h-1.2zm3.7-1.6V553h-1.2v-1h1.2v-2h1.2v2h1.5v1h-1.5v4.6c0 .6.2 1 .8 1 .3 0 .6-.1.8-.3l.3.9c-.3.3-.7.5-1.4.5-1.1 0-1.7-.6-1.7-1.8zm3.9-2.1c0-2.2 1.4-3.9 3.7-3.9 2.3 0 3.7 1.8 3.7 3.9 0 2.2-1.4 3.9-3.7 3.9-2.3 0-3.7-1.8-3.7-3.9zm6.2 0c0-1.5-.9-2.9-2.5-2.9s-2.5 1.4-2.5 2.9.9 2.9 2.5 2.9 2.5-1.4 2.5-2.9zm3.1 3.7v-10.3h1.2v4c.6-.8 1.5-1.3 2.5-1.3 2 0 3.3 1.5 3.3 3.9s-1.4 3.9-3.3 3.9c-1.1 0-2-.5-2.5-1.3v1.1h-1.2zm3.4-.8c1.5 0 2.4-1.2 2.4-2.9s-.9-2.9-2.4-2.9c-.9 0-1.8.6-2.2 1.2v3.4c.4.6 1.3 1.2 2.2 1.2zm10.6.8v-1.1c-.6.7-1.5 1.2-2.7 1.2-1.6 0-2.4-.8-2.4-2.4V552h1.2v4.9c0 1.3.7 1.7 1.7 1.7.9 0 1.8-.5 2.2-1.1V552h1.2v7.5h-1.2zm3.2 1.9c.2.1.4.1.6.1.5 0 .9-.2 1.1-.8l.5-1.1-3.1-7.6h1.3l2.5 6.1 2.5-6.1h1.3l-3.8 9c-.4 1.1-1.2 1.5-2.2 1.5-.2 0-.6 0-.9-.1l.2-1zm11.4-5.6c0-2.2 1.4-3.9 3.7-3.9 2.3 0 3.7 1.8 3.7 3.9 0 2.2-1.4 3.9-3.7 3.9-2.3 0-3.7-1.8-3.7-3.9zm6.2 0c0-1.5-.9-2.9-2.5-2.9s-2.5 1.4-2.5 2.9.9 2.9 2.5 2.9 2.5-1.4 2.5-2.9zm3.1 3.7V552h1.2v1.2c.6-.8 1.5-1.4 2.5-1.4v1.2h-.5c-.7 0-1.7.6-2 1.2v5.3h-1.2zm10.6 0v-1.1c-.6.8-1.5 1.3-2.5 1.3-2 0-3.3-1.5-3.3-3.9s1.4-3.9 3.3-3.9c1 0 1.9.5 2.5 1.3v-4h1.2v10.3h-1.2zm0-2v-3.4c-.4-.7-1.3-1.2-2.2-1.2-1.5 0-2.4 1.2-2.4 2.9s.9 2.9 2.4 2.9c.8 0 1.7-.6 2.2-1.2zm3-1.7c0-2.2 1.5-3.9 3.7-3.9 2.3 0 3.6 1.8 3.6 4v.3h-6.1c.1 1.4 1.1 2.6 2.7 2.6.9 0 1.7-.3 2.3-.9l.6.8c-.7.7-1.8 1.1-3 1.1-2.2-.1-3.8-1.7-3.8-4zm3.7-3c-1.6 0-2.4 1.3-2.4 2.5h4.9c-.1-1.1-.8-2.5-2.5-2.5zm5.5 6.7V552h1.2v1.2c.6-.8 1.5-1.4 2.5-1.4v1.2h-.5c-.7 0-1.7.6-2 1.2v5.3h-1.2zm4.4-1l.6-.8c.5.6 1.4 1.1 2.5 1.1s1.8-.5 1.8-1.3c0-1.8-4.6-.7-4.6-3.5 0-1.2 1-2.2 2.8-2.2 1.3 0 2.2.5 2.8 1.1l-.5.8c-.4-.5-1.3-.9-2.2-.9-1 0-1.7.5-1.7 1.2 0 1.6 4.6.6 4.6 3.5 0 1.3-1 2.3-2.9 2.3-1.4-.1-2.4-.5-3.2-1.3z"/></g><linearGradient id="SVGID_4_" gradientUnits="userSpaceOnUse" x1="1365.906" y1="121.789" x2="1365.906" y2="100.376" gradientTransform="matrix(1 0 0 -1 0 670)"><stop offset="0" stop-color="#4a4a4a"/><stop offset="1"/></linearGradient><circle class="st42" cx="1365.9" cy="553.8" r="13.7"/><g class="st22"><path class="st41" d="M1393.8 597.1v-7.5h1.2v1.2c.6-.8 1.5-1.4 2.5-1.4v1.2h-.5c-.7 0-1.7.6-2 1.2v5.3h-1.2zm4.7-3.8c0-2.2 1.5-3.9 3.7-3.9 2.3 0 3.6 1.8 3.6 4v.3h-6.1c.1 1.4 1.1 2.6 2.7 2.6.9 0 1.7-.3 2.3-.9l.6.8c-.7.7-1.8 1.1-3 1.1-2.2 0-3.8-1.6-3.8-4zm3.7-2.9c-1.6 0-2.4 1.3-2.4 2.5h4.9c0-1.1-.8-2.5-2.5-2.5zm5.5 8.6l.6-.9c.6.7 1.4 1 2.4 1 1.2 0 2.4-.6 2.4-2.2v-1.1c-.5.8-1.5 1.3-2.5 1.3-2 0-3.3-1.5-3.3-3.9s1.4-3.9 3.3-3.9c1 0 1.9.5 2.5 1.3v-1.1h1.2v7.3c0 2.5-1.7 3.3-3.6 3.3-1.3 0-2.1-.2-3-1.1zm5.4-4.1v-3.3c-.4-.7-1.3-1.2-2.2-1.2-1.5 0-2.4 1.2-2.4 2.9 0 1.6.9 2.9 2.4 2.9.9 0 1.8-.6 2.2-1.3zm8.5 2.2V596c-.6.7-1.5 1.2-2.7 1.2-1.6 0-2.4-.8-2.4-2.4v-5.3h1.2v4.9c0 1.3.7 1.7 1.7 1.7.9 0 1.8-.5 2.2-1.1v-5.5h1.2v7.5h-1.2zm3.5 0v-10.3h1.2v10.3h-1.2zm8.2 0v-.9c-.6.7-1.5 1-2.5 1-1.3 0-2.6-.9-2.6-2.5 0-1.7 1.3-2.5 2.6-2.5 1 0 1.9.3 2.5 1V592c0-1-.8-1.6-1.9-1.6-.9 0-1.6.3-2.3 1l-.5-.8c.8-.8 1.8-1.2 3-1.2 1.6 0 2.9.7 2.9 2.5v5.1h-1.2zm0-1.6v-1.4c-.4-.6-1.2-.9-2.1-.9-1.1 0-1.8.7-1.8 1.6 0 .9.8 1.6 1.8 1.6.9 0 1.6-.3 2.1-.9zm3.5 1.6v-7.5h1.2v1.2c.6-.8 1.5-1.4 2.5-1.4v1.2h-.5c-.7 0-1.7.6-2 1.2v5.3h-1.2zm10.8 3.1c-1.4-1.9-2.2-4.4-2.2-6.8s.8-4.9 2.2-6.9l.7.5c-1 2-1.6 3.7-1.6 6.3 0 2.6.6 4.4 1.6 6.3l-.7.6zm3.3-4.2v4h-1.2v-10.3h1.2v1.1c.5-.8 1.5-1.3 2.5-1.3 2 0 3.3 1.5 3.3 3.9s-1.4 3.9-3.3 3.9c-1 0-1.9-.5-2.5-1.3zm4.6-2.7c0-1.7-.9-2.9-2.4-2.9-.9 0-1.8.5-2.2 1.2v3.4c.4.7 1.3 1.2 2.2 1.2 1.5 0 2.4-1.2 2.4-2.9zm3.1 3.8v-10.3h1.2v10.3h-1.2zm8.2 0v-.9c-.6.7-1.5 1-2.5 1-1.3 0-2.6-.9-2.6-2.5 0-1.7 1.3-2.5 2.6-2.5 1 0 1.9.3 2.5 1V592c0-1-.8-1.6-1.9-1.6-.9 0-1.6.3-2.3 1l-.5-.8c.8-.8 1.8-1.2 3-1.2 1.6 0 2.9.7 2.9 2.5v5.1h-1.2zm0-1.6v-1.4c-.4-.6-1.2-.9-2.1-.9-1.1 0-1.8.7-1.8 1.6 0 .9.8 1.6 1.8 1.6.8 0 1.6-.3 2.1-.9zm3-2.2c0-2.2 1.5-3.9 3.7-3.9 1.4 0 2.2.6 2.7 1.3l-.8.7c-.5-.7-1.1-1-1.9-1-1.6 0-2.6 1.2-2.6 2.9s1 2.9 2.6 2.9c.8 0 1.4-.3 1.9-1l.8.7c-.6.7-1.4 1.3-2.7 1.3-2.2.1-3.7-1.6-3.7-3.9zm7.7 0c0-2.2 1.5-3.9 3.7-3.9 2.3 0 3.6 1.8 3.6 4v.3h-6.1c.1 1.4 1.1 2.6 2.7 2.6.9 0 1.7-.3 2.3-.9l.6.8c-.7.7-1.8 1.1-3 1.1-2.2 0-3.8-1.6-3.8-4zm3.7-2.9c-1.6 0-2.4 1.3-2.4 2.5h4.9c-.1-1.1-.8-2.5-2.5-2.5zm10.9 6.7V596c-.6.8-1.5 1.3-2.5 1.3-2 0-3.3-1.5-3.3-3.9s1.4-3.9 3.3-3.9c1 0 1.9.5 2.5 1.3v-4h1.2v10.3h-1.2zm0-2v-3.4c-.4-.7-1.3-1.2-2.2-1.2-1.5 0-2.4 1.2-2.4 2.9s.9 2.9 2.4 2.9c.9-.1 1.8-.6 2.2-1.2zm7.5 2v-10.3h1.2v4c.6-.8 1.5-1.3 2.5-1.3 2 0 3.3 1.5 3.3 3.9s-1.4 3.9-3.3 3.9c-1.1 0-2-.5-2.5-1.3v1.1h-1.2zm3.4-.9c1.5 0 2.4-1.2 2.4-2.9s-.9-2.9-2.4-2.9c-.9 0-1.8.6-2.2 1.2v3.4c.3.7 1.2 1.2 2.2 1.2zm5.2 2.8c.2.1.4.1.6.1.5 0 .9-.2 1.1-.8l.5-1.1-3.1-7.6h1.3l2.5 6.1 2.5-6.1h1.3l-3.8 9c-.4 1.1-1.2 1.5-2.2 1.5-.2 0-.6 0-.9-.1l.2-1zm16.9-1.9V596c-.6.7-1.5 1.2-2.7 1.2-1.6 0-2.4-.8-2.4-2.4v-5.3h1.2v4.9c0 1.3.7 1.7 1.7 1.7.9 0 1.8-.5 2.2-1.1v-5.5h1.2v7.5h-1.2zm2.9-1l.6-.8c.5.6 1.4 1.1 2.5 1.1s1.8-.5 1.8-1.3c0-1.8-4.6-.7-4.6-3.5 0-1.2 1-2.2 2.8-2.2 1.3 0 2.2.5 2.8 1.1l-.5.8c-.4-.5-1.3-.9-2.2-.9-1 0-1.7.5-1.7 1.2 0 1.6 4.6.6 4.6 3.5 0 1.3-1 2.3-2.9 2.3-1.4-.1-2.5-.5-3.2-1.3zm7.4-2.8c0-2.2 1.5-3.9 3.7-3.9 2.3 0 3.6 1.8 3.6 4v.3h-6.1c.1 1.4 1.1 2.6 2.7 2.6.9 0 1.7-.3 2.3-.9l.6.8c-.7.7-1.8 1.1-3 1.1-2.2 0-3.8-1.6-3.8-4zm3.7-2.9c-1.6 0-2.4 1.3-2.4 2.5h4.9c-.1-1.1-.8-2.5-2.5-2.5zm5.4 6.7v-7.5h1.2v1.2c.6-.8 1.5-1.4 2.5-1.4v1.2h-.5c-.7 0-1.7.6-2 1.2v5.3h-1.2zm4.5-1l.6-.8c.5.6 1.4 1.1 2.5 1.1s1.8-.5 1.8-1.3c0-1.8-4.6-.7-4.6-3.5 0-1.2 1-2.2 2.8-2.2 1.3 0 2.2.5 2.8 1.1l-.5.8c-.4-.5-1.3-.9-2.2-.9-1 0-1.7.5-1.7 1.2 0 1.6 4.6.6 4.6 3.5 0 1.3-1 2.3-2.9 2.3-1.4-.1-2.4-.5-3.2-1.3zm7 3.5c1-2 1.6-3.7 1.6-6.3 0-2.6-.6-4.4-1.6-6.3l.7-.5c1.4 1.9 2.2 4.4 2.2 6.9s-.8 4.9-2.2 6.8l-.7-.6zm8.7-2.5v-10.3h1.2v4c.6-.8 1.5-1.3 2.5-1.3 2 0 3.3 1.5 3.3 3.9s-1.4 3.9-3.3 3.9c-1.1 0-2-.5-2.5-1.3v1.1h-1.2zm3.4-.9c1.5 0 2.4-1.2 2.4-2.9s-.9-2.9-2.4-2.9c-.9 0-1.8.6-2.2 1.2v3.4c.4.7 1.3 1.2 2.2 1.2zm10.6.9V596c-.6.7-1.5 1.2-2.7 1.2-1.6 0-2.4-.8-2.4-2.4v-5.3h1.2v4.9c0 1.3.7 1.7 1.7 1.7.9 0 1.8-.5 2.2-1.1v-5.5h1.2v7.5h-1.2zm3.2 1.9c.2.1.4.1.6.1.5 0 .9-.2 1.1-.8l.5-1.1-3.1-7.6h1.3l2.5 6.1 2.5-6.1h1.3l-3.8 9c-.4 1.1-1.2 1.5-2.2 1.5-.2 0-.6 0-.9-.1l.2-1zm11.4-5.7c0-2.2 1.4-3.9 3.7-3.9 2.3 0 3.7 1.8 3.7 3.9 0 2.2-1.4 3.9-3.7 3.9-2.3.1-3.7-1.7-3.7-3.9zm6.2 0c0-1.5-.9-2.9-2.5-2.9s-2.5 1.4-2.5 2.9.9 2.9 2.5 2.9 2.5-1.3 2.5-2.9zm3.1 3.8v-7.5h1.2v1.2c.6-.8 1.5-1.4 2.5-1.4v1.2h-.5c-.7 0-1.7.6-2 1.2v5.3h-1.2zm10.5 0V596c-.6.8-1.5 1.3-2.5 1.3-2 0-3.3-1.5-3.3-3.9s1.4-3.9 3.3-3.9c1 0 1.9.5 2.5 1.3v-4h1.2v10.3h-1.2zm0-2v-3.4c-.4-.7-1.3-1.2-2.2-1.2-1.5 0-2.4 1.2-2.4 2.9s.9 2.9 2.4 2.9c.9-.1 1.8-.6 2.2-1.2zm3.1-1.8c0-2.2 1.5-3.9 3.7-3.9 2.3 0 3.6 1.8 3.6 4v.3h-6.1c.1 1.4 1.1 2.6 2.7 2.6.9 0 1.7-.3 2.3-.9l.6.8c-.7.7-1.8 1.1-3 1.1-2.2 0-3.8-1.6-3.8-4zm3.7-2.9c-1.6 0-2.4 1.3-2.4 2.5h4.9c-.1-1.1-.8-2.5-2.5-2.5zm5.5 6.7v-7.5h1.2v1.2c.6-.8 1.5-1.4 2.5-1.4v1.2h-.5c-.7 0-1.7.6-2 1.2v5.3h-1.2zm4.4-1l.6-.8c.5.6 1.4 1.1 2.5 1.1s1.8-.5 1.8-1.3c0-1.8-4.6-.7-4.6-3.5 0-1.2 1-2.2 2.8-2.2 1.3 0 2.2.5 2.8 1.1l-.5.8c-.4-.5-1.3-.9-2.2-.9-1 0-1.7.5-1.7 1.2 0 1.6 4.6.6 4.6 3.5 0 1.3-1 2.3-2.9 2.3-1.4-.1-2.4-.5-3.2-1.3z"/></g><linearGradient id="SVGID_5_" gradientUnits="userSpaceOnUse" x1="1353.236" y1="591.345" x2="1380.707" y2="591.345"><stop offset="0" stop-color="#e7ca94"/><stop offset="1" stop-color="#b38d46"/></linearGradient><circle class="st43" cx="1367" cy="591.3" r="13.7"/><circle class="st44" cx="1558.6" cy="495.5" r="8.8"/><circle class="st44" cx="141.5" cy="495.8" r="8.8"/></g></g></svg>