<svg id="Слой_1" xmlns="http://www.w3.org/2000/svg" viewBox="0 0 418 398"><style>.st0{opacity:.2;enable-background:new}.st0,.st1{fill:#ffe9bf}.st2{fill:#a58242}.st3{fill:#dbc08d}.st4{fill:none}.st5{enable-background:new}.st6{fill:#fff}.st7{fill:#171717}.st8{fill:none;stroke:#a58242;stroke-width:2;stroke-miterlimit:10}</style><title>graph-03</title><g id="Слой_2"><g id="Layer_1"><circle class="st0" cx="179.7" cy="218.3" r="179.7"/><path class="st1" d="M180.1 218l-.4.3.5-.3z"/><path class="st1" d="M180.2 218l-.5.3.6-.3zm-.5.3l.8-.3h-.1zm.3-.3l-.3.3.4-.3zm.1 0l-.4.3.4-.3z"/><path class="st1" d="M179.9 218l-.2.3.3-.3z"/><path class="st1" d="M179.8 218l-.1.3.2-.3zm.5 0l-.6.3.7-.3z"/><path class="st2" d="M179.7 217.9V52.3c-91.7 0-166 74.4-165.9 166.1 0 91.7 74.4 166 166.1 165.9s166-74.4 165.9-166.1c0-28.4-7.3-56.3-21.2-81.1l-144.9 80.8z"/><path class="st1" d="M324.6 137.1c-14.2-25.2-34.7-46.3-59.4-61.2l-85.5 142 144.9-80.8z"/><path class="st3" d="M265.1 75.7c-25.8-15.6-55.3-23.8-85.4-23.8v166l85.4-142.2z"/><path class="st4" d="M179.7 217.9h195"/><g class="st5"><path class="st6" d="M255 15V3h4.7c3.8 0 6.4 2.4 6.4 6s-2.6 6-6.4 6H255zm8.5-6c0-2.1-1.3-3.8-3.8-3.8h-2.2v7.5h2.2c2.4 0 3.8-1.7 3.8-3.7zm5.2 6V3h8.5v2.3h-5.9v2.5h5.8V10h-5.8v2.7h5.9V15h-8.5zm14.5 0l-4.6-12h2.9l3.3 9.2 3.3-9.2h2.9l-4.6 12h-3.2zm9.7 0V3h8.5v2.3h-5.9v2.5h5.8V10h-5.8v2.7h5.9V15h-8.5zm11.2 0V3h2.6v9.8h5.1V15h-7.7zm9.5-6c0-3.6 2.6-6.2 6.3-6.2 3.6 0 6.3 2.6 6.3 6.2s-2.6 6.2-6.3 6.2-6.3-2.6-6.3-6.2zm9.9 0c0-2.3-1.4-3.9-3.7-3.9-2.2 0-3.6 1.7-3.6 3.9s1.4 3.9 3.6 3.9c2.3 0 3.7-1.7 3.7-3.9zm5.1 6V3h5.6c2.6 0 4 1.8 4 3.9s-1.4 3.9-4 3.9h-3.1V15h-2.5zm7.1-8.1c0-1-.8-1.6-1.8-1.6h-2.7v3.2h2.7c1 0 1.8-.6 1.8-1.6zM351 15V6.6l-3.4 8.4h-1.1l-3.4-8.4V15h-2.6V3h3.6l2.9 7.3 3-7.3h3.6v12H351zm5.7 0V3h8.5v2.3h-5.9v2.5h5.8V10h-5.8v2.7h5.9V15h-8.5zm19.5 0l-5.7-7.8V15h-2.6V3h2.6l5.6 7.5V3h2.6v12h-2.5zm8.3 0V5.2H381V3h9.6v2.3H387V15h-2.5z"/></g><g class="st5"><path class="st6" d="M101.3 290l1.3-1.6c1.1 1.3 3 2.5 5.5 2.5 3.1 0 4.1-1.7 4.1-3 0-4.5-10.3-2-10.3-8.2 0-2.9 2.5-4.8 6-4.8 2.7 0 4.7.9 6.2 2.4l-1.3 1.6c-1.3-1.4-3.1-2.1-5-2.1-2.1 0-3.6 1.1-3.6 2.8 0 3.9 10.3 1.7 10.3 8.1 0 2.5-1.7 5.1-6.4 5.1-3.1-.1-5.3-1.2-6.8-2.8zm21.1 2.4V277h-5.5v-1.9h13.2v1.9h-5.5v15.4h-2.2zm23.5 0l-1.5-3.8h-8.6l-1.5 3.8h-2.5l7-17.3h2.7l7 17.3h-2.6zm-5.9-15.1l-3.7 9.3h7.4l-3.7-9.3zm16.1 15.1v-7.3l-6.8-10h2.5l5.4 8.1 5.4-8.1h2.5l-6.8 10v7.3h-2.2zm19 0v-17.3h2.2v17.3h-2.2zm19 0L184 278.6v13.8h-2.2v-17.3h2.2l10 13.5v-13.5h2.2v17.3h-2.1z"/></g><g class="st5"><path class="st6" d="M206.9 283.8c0-5.3 4-9 9.2-9 3.8 0 6 2.1 7.3 4.2l-3.2 1.6c-.7-1.4-2.3-2.5-4.1-2.5-3.1 0-5.4 2.4-5.4 5.7s2.3 5.7 5.4 5.7c1.8 0 3.4-1.1 4.1-2.5l3.2 1.5c-1.2 2.2-3.4 4.3-7.3 4.3-5.2-.1-9.2-3.7-9.2-9zm18.4 0c0-5.3 4-9 9.2-9 3.8 0 6 2.1 7.3 4.2l-3.2 1.6c-.7-1.4-2.3-2.5-4.1-2.5-3.1 0-5.4 2.4-5.4 5.7s2.3 5.7 5.4 5.7c1.8 0 3.4-1.1 4.1-2.5l3.2 1.5c-1.2 2.2-3.4 4.3-7.3 4.3-5.2-.1-9.2-3.7-9.2-9zm19.2 8.6v-17.3h9.1c3.3 0 5 2.1 5 4.4 0 2.2-1.4 3.6-3 4 1.8.3 3.3 2.1 3.3 4.3 0 2.6-1.7 4.7-5 4.7h-9.4v-.1zm10.3-12.3c0-1.1-.8-1.9-2-1.9h-4.6v3.8h4.6c1.2 0 2-.8 2-1.9zm.4 7.1c0-1.1-.8-2-2.2-2h-4.8v4h4.8c1.3 0 2.2-.7 2.2-2z"/></g><path class="st7" d="M109.7 307.9h140v28h-140z"/><g class="st5"><path class="st3" d="M122.6 321.9c0-3.9 2.9-6.6 6.5-6.6 2.2 0 3.8 1 4.9 2.4l-1.3.8c-.8-1-2.1-1.7-3.7-1.7-2.8 0-4.9 2.1-4.9 5.1s2.1 5.2 4.9 5.2c1.5 0 2.8-.7 3.4-1.4v-2.6H128v-1.4h5.9v4.6c-1.2 1.3-2.9 2.2-5 2.2-3.4-.1-6.3-2.7-6.3-6.6zm14.8 1.4v-7.8h1.6v7.7c0 2.3 1.3 3.8 3.6 3.8s3.6-1.5 3.6-3.8v-7.7h1.6v7.7c0 3.2-1.7 5.2-5.2 5.2s-5.2-2-5.2-5.1zm23.1 4.9l-1.1-2.8h-6.3l-1.1 2.8h-1.8l5.1-12.7h2l5.1 12.7h-1.9zm-4.3-11l-2.7 6.8h5.4l-2.7-6.8zm15.9 11l-3.2-5h-2.5v5h-1.6v-12.7h5.1c2.3 0 4 1.5 4 3.8s-1.6 3.5-3.3 3.7l3.4 5.2h-1.9zm.1-8.9c0-1.4-1-2.4-2.5-2.4h-3.3v4.8h3.3c1.4.1 2.5-.9 2.5-2.4zm13.9 8.9l-1.1-2.8h-6.3l-1.1 2.8h-1.8l5.1-12.7h2l5.1 12.7h-1.9zm-4.3-11l-2.7 6.8h5.4l-2.7-6.8zm17.5 11l-7.4-10.1v10.1h-1.6v-12.7h1.6l7.3 9.9v-9.9h1.6v12.7h-1.5zm8.4 0v-11.3h-4v-1.4h9.6v1.4h-4v11.3h-1.6zm8.4 0v-12.7h8.3v1.4h-6.7v4.1h6.6v1.4h-6.6v4.4h6.7v1.4h-8.3zm11.6 0v-12.7h8.3v1.4h-6.7v4.1h6.6v1.4h-6.6v4.4h6.7v1.4h-8.3z"/></g><g class="st5"><path class="st6" d="M155.5 261.2c0-2.8 2.2-4.9 4.9-5.9-2.6-.9-4.6-2.6-4.6-5.4 0-4.3 4.6-6.1 8.9-6.1 4.3 0 8.9 1.8 8.9 6.1 0 2.9-2 4.5-4.6 5.4 2.8 1 5 3.1 5 5.9 0 4.3-4.4 6.4-9.3 6.4-4.8 0-9.2-2.1-9.2-6.4zm13.5-.7c0-1.9-2.9-2.9-4.3-3.1-1.5.2-4.3 1.1-4.3 3.1 0 1.7 1.9 2.8 4.3 2.8 2.4.1 4.3-1.1 4.3-2.8zm-.4-9.9c0-1.7-1.6-2.6-3.9-2.6s-3.9 1-3.9 2.6c0 1.7 2.5 2.5 3.9 2.7 1.5-.2 3.9-1 3.9-2.7zm9.2 5c0-6 2.9-11.9 9.6-11.9 6.6 0 9.6 6 9.6 11.9 0 6-3 11.9-9.6 11.9-6.7.1-9.6-5.9-9.6-11.9zm14.1 0c0-4.3-1.2-7.5-4.5-7.5s-4.6 3.3-4.6 7.5 1.2 7.6 4.6 7.6c3.2 0 4.5-3.3 4.5-7.6zm8.5-6.1c0-3.3 2.3-5.8 5.8-5.8 3.6 0 5.9 2.6 5.9 5.8s-2.3 5.7-5.9 5.7c-3.5 0-5.8-2.4-5.8-5.7zm8.5 0c0-1.9-1.1-3.1-2.7-3.1s-2.7 1.1-2.7 3.1c0 1.8 1.2 3 2.7 3 1.6 0 2.7-1.2 2.7-3zm-4.9 17.7l14.7-23.1h2.6l-14.8 23.1H204zm9.1-5.3c0-3.3 2.3-5.8 5.8-5.8s5.9 2.6 5.9 5.8c0 3.2-2.4 5.7-5.9 5.7-3.5 0-5.8-2.5-5.8-5.7zm8.6 0c0-1.9-1.2-3.1-2.8-3.1s-2.7 1.2-2.7 3.1 1.1 3 2.7 3 2.8-1.2 2.8-3z"/></g><circle class="st2" cx="216.2" cy="94.3" r="21.5"/><path class="st8" d="M215.9 94.3l36.2-70.4h137.6"/><g class="st5"><path class="st6" d="M203 101v-9.2l-2.1 2.1-1.5-1.6 4-4h2.4V101H203zm5.3-6.4c0-3.3 1.6-6.5 5.2-6.5s5.2 3.3 5.2 6.5-1.6 6.6-5.2 6.6-5.2-3.3-5.2-6.6zm7.7 0c0-2.3-.7-4.1-2.5-4.1s-2.5 1.8-2.5 4.1.7 4.2 2.5 4.2c1.9 0 2.5-1.8 2.5-4.2zm4.7-3.3c0-1.8 1.3-3.2 3.2-3.2 2 0 3.2 1.4 3.2 3.2 0 1.8-1.3 3.1-3.2 3.1s-3.2-1.4-3.2-3.1zm4.7 0c0-1.1-.6-1.7-1.5-1.7s-1.5.6-1.5 1.7c0 1 .6 1.6 1.5 1.6s1.5-.6 1.5-1.6zm-2.7 9.7l8.1-12.7h1.4l-8.1 12.7h-1.4zm5-3c0-1.8 1.3-3.2 3.2-3.2s3.2 1.4 3.2 3.2c0 1.8-1.3 3.1-3.2 3.1-2 .1-3.2-1.3-3.2-3.1zm4.7 0c0-1-.6-1.7-1.5-1.7s-1.5.6-1.5 1.7c0 1 .6 1.7 1.5 1.7s1.5-.6 1.5-1.7z"/></g><g class="st5"><path class="st6" d="M320.5 55v-8.4l-3.4 8.4H316l-3.4-8.4V55H310V43h3.6l2.9 7.3 2.9-7.3h3.6v12h-2.5zm13.9 0l-.7-2h-5.1l-.8 2h-2.9l4.6-12h3.2l4.6 12h-2.9zm-3.3-9.5l-1.9 5.2h3.7l-1.8-5.2zm14.8 9.5l-2.4-4.3h-1.9V55H339V43h5.6c2.5 0 4 1.6 4 3.9 0 2.1-1.3 3.3-2.6 3.6l2.7 4.6-2.8-.1zm.3-8.1c0-1-.8-1.6-1.8-1.6h-2.7v3.2h2.7c1 0 1.8-.6 1.8-1.6zm12.3 8.1l-3.6-4.8-.9 1.1V55h-2.6V43h2.6v5.4l4.2-5.4h3.2l-4.8 5.6 5.1 6.4h-3.2zm5.1 0V43h8.5v2.3h-5.9v2.5h5.8V50h-5.8v2.7h5.9V55h-8.5zm13.9 0v-9.8H374V43h9.6v2.3h-3.5V55h-2.6zm8.4 0V43h2.6v12h-2.6zm13.9 0l-5.7-7.8V55h-2.6V43h2.6l5.6 7.5V43h2.6v12h-2.5zm5-6c0-3.8 2.9-6.2 6.4-6.2 2.5 0 4.1 1.3 5 2.7l-2.1 1.2c-.5-.8-1.6-1.6-2.8-1.6-2.2 0-3.8 1.7-3.8 3.9s1.6 3.9 3.8 3.9c1.1 0 2.1-.5 2.6-.9v-1.4h-3.2v-2.2h5.7V53c-1.2 1.4-2.9 2.3-5.1 2.3-3.6-.1-6.5-2.5-6.5-6.3z"/></g><path class="st8" d="M271 134.4l36.1-70.6h109.6"/><circle class="st2" cx="271.2" cy="130.4" r="21.5"/><g class="st5"><path class="st6" d="M257.7 137.1v-9.2l-2.1 2.1-1.5-1.6 4-4h2.4v12.7h-2.8zm5.4-6.3c0-3.3 1.6-6.5 5.2-6.5s5.2 3.3 5.2 6.5-1.6 6.6-5.2 6.6c-3.6-.1-5.2-3.4-5.2-6.6zm7.7 0c0-2.3-.7-4.1-2.5-4.1s-2.5 1.8-2.5 4.1.7 4.2 2.5 4.2c1.8-.1 2.5-1.9 2.5-4.2zm4.6-3.4c0-1.8 1.3-3.2 3.2-3.2 2 0 3.2 1.4 3.2 3.2s-1.3 3.1-3.2 3.1c-1.9 0-3.2-1.3-3.2-3.1zm4.8 0c0-1.1-.6-1.7-1.5-1.7s-1.5.6-1.5 1.7c0 1 .6 1.6 1.5 1.6.8.1 1.5-.6 1.5-1.6zm-2.8 9.7l8.1-12.7h1.4l-8.1 12.7h-1.4zm5-2.9c0-1.8 1.3-3.2 3.2-3.2 1.9 0 3.2 1.4 3.2 3.2s-1.3 3.1-3.2 3.1c-1.9 0-3.2-1.3-3.2-3.1zm4.7 0c0-1-.6-1.7-1.5-1.7s-1.5.6-1.5 1.7c0 1 .6 1.7 1.5 1.7.9-.1 1.5-.7 1.5-1.7z"/></g></g></g></svg>