<svg xmlns="http://www.w3.org/2000/svg" viewBox="0 0 128.81 99.31"><defs><style>.cls-1{fill:none;stroke:#fff;stroke-linecap:round;stroke-linejoin:round;stroke-width:2.81px}</style></defs><title>Ресурс 10</title><g id="Слой_2" data-name="Слой 2"><g id="Слой_1-2" data-name="Слой 1"><path class="cls-1" d="M103.38 19.86l-12.55 1.67 1.67 12.55M40.83 69.42l4.32 7.48h8.64l4.32-7.48-4.32-7.49h-8.64l-4.32 7.49zm32.07 0l4.32 7.48h8.64l4.32-7.48-4.32-7.49h-8.64l-4.32 7.49zm32.07 0l4.32 7.48h8.65l4.32-7.48-4.32-7.49h-8.65l-4.32 7.49zm-96.22 0l4.32 7.48h8.65l4.32-7.48-4.32-7.49h-8.65l-4.32 7.49zm16 21l4.32 7.48h8.65l4.32-7.48-4.32-7.49h-8.65l-4.32 7.49zm31 0l4.32 7.48h8.65l4.32-7.48-4.32-7.49h-8.65l-4.32 7.49zm33 0l4.32 7.48h8.65l4.32-7.48-4.32-7.49h-8.65l-4.32 7.49z"/><path class="cls-1" d="M90.89 12.54L67 53.89 71.11 61l-9 15.6L56 73.08l6-10.33-4.34-7.51H49l-6 10.33-6-3.5 9-15.61h8.18L78 5.12a7.42 7.42 0 0 1 12.86 7.42zm-21.6 56.87h-2.68m-29.33 0H25.77m-20.62 0H1.41m99.96 0H90.18m-5.81 21H73.18m-20.81 0H41.18m86.23-21h-5.33m-8.46-7.48a51.37 51.37 0 0 0-22.79-40.4"/></g></g></svg>