<svg xmlns="http://www.w3.org/2000/svg" viewBox="0 0 132.81 100.3"><defs><style>.cls-1{fill:none;stroke:#fff;stroke-linecap:round;stroke-linejoin:round;stroke-width:2.81px}</style></defs><title>Ресурс 2</title><g id="Слой_2" data-name="Слой 2"><g id="Слой_1-2" data-name="Слой 1"><path class="cls-1" d="M42.06 36.16h48.68v48.69H42.06zm6.07-4.58V20.51a18.28 18.28 0 0 1 36.55 0v11.07"/><path class="cls-1" d="M77.8 31.58v-11a11.39 11.39 0 0 0-22.78 0v11M71.95 54a5.77 5.77 0 1 0-8.14 5.26L62.48 73h7.38l-1.32-13.71A5.77 5.77 0 0 0 71.95 54zm-20.11-7.27H34.05L19 31.68H7.91m43.93 29.74H26.7L12.8 47.53H7.91m72.02 13.89h25.95l13.9 13.9h5.12m-73.06.07H36.11L20.93 90.57H7.91m72.02-43.84h20.88l15.15-15.15h8.94M79.93 75.39h18.84l17 17h9.13M66.17 78.11v14.28"/><path class="cls-1" d="M73.81 22.24H71.1v21.27m53.8-38.85h-16.11L91.21 22.24h-2.52m-29.88 0h2.44v21.27M7.91 4.66h15.88l17.58 17.58h2.81"/><circle class="cls-1" cx="4.66" cy="4.66" r="3.25"/><circle class="cls-1" cx="4.66" cy="31.58" r="3.25"/><circle class="cls-1" cx="4.66" cy="47.53" r="3.25"/><circle class="cls-1" cx="4.66" cy="90.57" r="3.25"/><circle class="cls-1" cx="66.17" cy="95.65" r="3.25"/><circle class="cls-1" cx="128.15" cy="4.66" r="3.25"/><circle class="cls-1" cx="128.15" cy="31.58" r="3.25"/><circle class="cls-1" cx="128.15" cy="75.32" r="3.25"/><circle class="cls-1" cx="128.15" cy="92.39" r="3.25"/></g></g></svg>