<svg xmlns="http://www.w3.org/2000/svg" viewBox="0 0 108.81 108.82"><defs><style>.cls-1{fill:none;stroke:#fff;stroke-linecap:round;stroke-linejoin:round;stroke-width:2.81px}</style></defs><title>Ресурс 4</title><g id="Слой_2" data-name="Слой 2"><g id="Слой_1-2" data-name="Слой 1"><path class="cls-1" d="M95.23 45.24a23.51 23.51 0 0 1-.9 7.2c-.22.85-.44 1.69-.66 2.53-1-.3-1.9-.6-2.88-.8-1.43-.3-2.9-.43-4.35-.63a9 9 0 0 0-1-.13 11 11 0 0 0-4.19.56 3.09 3.09 0 0 0-2 3.34c.19 1.4.63 2.76.94 4.14a22.94 22.94 0 0 1 .5 2.56 3.37 3.37 0 0 1-2 3.63 10 10 0 0 1-4.79 1.16 8.87 8.87 0 0 1-5.9-2.08 3 3 0 0 1-.91-2.6A16.17 16.17 0 0 1 68.17 60a10.61 10.61 0 0 0 .64-3.76 2.72 2.72 0 0 0-1.18-2 4.77 4.77 0 0 0-2.3-.92 11.23 11.23 0 0 0-2.6-.21c-1.59.1-3.17.3-4.74.53-1.16.17-2.3.45-3.57.71h-.11C54 53 53.69 51.51 53.45 50c-.17-1-.13-2.11-.29-3.15a10 10 0 0 1 .4-4.42A3.19 3.19 0 0 1 57.34 40a22 22 0 0 1 4.05 1.13 18.77 18.77 0 0 0 2.66.59 3 3 0 0 0 3.17-1.58 9.51 9.51 0 0 0 1.23-7.75 12.33 12.33 0 0 0-1.06-2.5A3 3 0 0 0 64 28.2c-1.66.24-3.29.74-4.93 1.1a14.1 14.1 0 0 1-1.94.33 3.21 3.21 0 0 1-3.29-2.4A21.23 21.23 0 0 1 53.5 25a18.41 18.41 0 0 1 .5-6 38.64 38.64 0 0 1 1-3.88c1.27.33 2.55.66 3.83 1a20.35 20.35 0 0 0 6.05.59 5.85 5.85 0 0 0 4-1.59 1.84 1.84 0 0 0 .43-.78 6.51 6.51 0 0 0-.13-3.45c-.35-1.24-.81-2.46-1.06-3.72a6.32 6.32 0 0 1 0-2.47 3.76 3.76 0 0 1 2.31-2.39 8.38 8.38 0 0 1 3.52-.83 9.91 9.91 0 0 1 5.74 1.2 3.43 3.43 0 0 1 1.83 3.6 29.14 29.14 0 0 1-1.15 4.53 12.54 12.54 0 0 0-.51 2.3 2.87 2.87 0 0 0 .5 2.12 4.9 4.9 0 0 0 3.18 1.68 19.25 19.25 0 0 0 6.86-.31c1.29-.27 2.58-.55 3.86-.85v.12c.15.59.34 1.17.45 1.77.23 1.15.45 2.3.62 3.46a13.09 13.09 0 0 1-.46 7.09 3 3 0 0 1-3.42 2A37.35 37.35 0 0 1 87 28.94a14.62 14.62 0 0 0-3.08-.46 3.22 3.22 0 0 0-2.77 1.86 9.35 9.35 0 0 0-1.12 3.33 9.83 9.83 0 0 0 .78 5.88 3.69 3.69 0 0 0 2.38 2.31 5.48 5.48 0 0 0 2.35 0c1.4-.29 2.76-.75 4.15-1.12a5.61 5.61 0 0 1 3.1-.09 2.42 2.42 0 0 1 1.32 1 6.52 6.52 0 0 1 1.12 3.59z"/><path class="cls-1" d="M107.37 73.62a13.4 13.4 0 0 1-.24 3.7 6.8 6.8 0 0 1-1.76 3.36 3.11 3.11 0 0 1-3 .79c-1.59-.33-3.14-.85-4.72-1.25a10.22 10.22 0 0 0-2.36-.39 3.11 3.11 0 0 0-3 2.36 11.23 11.23 0 0 0-.51 4.36 29.66 29.66 0 0 0 .68 5q.28 1.34.58 2.67l-3.27.78a23.94 23.94 0 0 1-5.53.57 8.16 8.16 0 0 1-4.12-1 2.82 2.82 0 0 1-1.43-3.06c.22-1.39.71-2.74 1.05-4.12a25.51 25.51 0 0 0 .58-2.9 3.18 3.18 0 0 0-1.88-3.3 10.07 10.07 0 0 0-7.63-.91 6.51 6.51 0 0 0-3 1.53 3.2 3.2 0 0 0-.93 3.27c.34 1.56.77 3.09 1.2 4.63a7 7 0 0 1 .18 2.85 2.57 2.57 0 0 1-1.46 1.8 7.12 7.12 0 0 1-3.35.86 24.31 24.31 0 0 1-7.32-1l-2.3-.6c.34-1.24.67-2.48.94-3.73a34.35 34.35 0 0 0 .62-4.72 10.36 10.36 0 0 0-.39-3.53 3.26 3.26 0 0 0-2.76-2.42 6.73 6.73 0 0 0-2.55.29c-1.63.35-3.24.82-4.87 1.11a3.19 3.19 0 0 1-2.53-.56 5.39 5.39 0 0 1-1.63-2.58 9.8 9.8 0 0 1 .17-7.48 6.21 6.21 0 0 1 1.56-2.27 3.71 3.71 0 0 1 3.69-.44c1.39.4 2.76.91 4.17 1.24a6.77 6.77 0 0 0 2.59.2 3 3 0 0 0 2.34-2.35 10.22 10.22 0 0 0 .46-4.38c-.2-1.41-.24-2.84-.45-4.25-.17-1.14-.5-2.25-.73-3.29v-.13c1.27-.26 2.41-.54 3.57-.71 1.57-.23 3.15-.43 4.74-.53a11.23 11.23 0 0 1 2.6.21 4.77 4.77 0 0 1 2.3.92 2.72 2.72 0 0 1 1.18 2 10.61 10.61 0 0 1-.68 3.78 16.17 16.17 0 0 0-1.07 4.1 3 3 0 0 0 .91 2.6 8.87 8.87 0 0 0 5.9 2.09 10 10 0 0 0 4.76-1.17 3.37 3.37 0 0 0 2-3.63 22.94 22.94 0 0 0-.5-2.56c-.31-1.38-.75-2.75-.94-4.14a3.09 3.09 0 0 1 2-3.34 11 11 0 0 1 4.19-.56 9 9 0 0 1 1 .13c1.45.2 2.92.33 4.35.63 1 .2 1.93.5 2.88.8-.34 1.27-.68 2.54-1 3.82a14.21 14.21 0 0 0-.4 2.54c-.08 1.37-.11 2.75-.06 4.12a5.17 5.17 0 0 0 1.45 3.36 2.21 2.21 0 0 0 1.51.63 10.91 10.91 0 0 0 4.38-.73 15.28 15.28 0 0 1 3.37-.69 3 3 0 0 1 2.48.83 7.1 7.1 0 0 1 1.99 4.79z"/><path class="cls-1" d="M55 81.64a10.36 10.36 0 0 1 .41 3.58 34.35 34.35 0 0 1-.62 4.72c-.27 1.25-.61 2.49-.94 3.73-1.24-.33-2.49-.65-3.75-.92s-2.38-.29-3.56-.51a11.77 11.77 0 0 0-3.82.07 5.67 5.67 0 0 0-2.31 1 2.74 2.74 0 0 0-1.1 2.69 18.52 18.52 0 0 0 1 4.32 7.51 7.51 0 0 1 .49 3.46 2.69 2.69 0 0 1-.51 1.31 6.47 6.47 0 0 1-3 1.94 12.63 12.63 0 0 1-4.8.31 7.59 7.59 0 0 1-3.86-1.5 3.26 3.26 0 0 1-1.26-3.41c.31-1.57.75-3.12 1.21-4.65a6.3 6.3 0 0 0 .37-3 3.36 3.36 0 0 0-2.73-2.53 14.43 14.43 0 0 0-6.61-.1c-1.65.3-3.28.64-4.93 1h-.15c0-.21-.09-.42-.13-.63-.36-1.82-.65-3.65-1-5.47a12 12 0 0 1 .21-5.45c.73-2.49 2.19-3.21 4.45-2.71 1.73.38 3.41 1 5.14 1.38 2 .47 3.23 0 4.25-1.44a9.1 9.1 0 0 0 1.28-3.55 11 11 0 0 0-.31-4.79 5.19 5.19 0 0 0-2.19-3.18 3 3 0 0 0-1.08-.38 7.72 7.72 0 0 0-3.46.49 14 14 0 0 1-4.93 1 2.58 2.58 0 0 1-2-1 7.45 7.45 0 0 1-1.22-5.06 24 24 0 0 1 .53-3.93c.28-1.48.67-2.94 1-4.42v-.05c1 .3 1.91.6 2.89.81 1.45.3 2.94.43 4.41.63a7.55 7.55 0 0 0 1.21.13 11.82 11.82 0 0 0 3.94-.55 3.16 3.16 0 0 0 2-3.35c-.19-1.4-.65-2.76-.93-4.14a22.12 22.12 0 0 1-.49-3.1 3 3 0 0 1 1.83-3A9.63 9.63 0 0 1 34.72 40a9.29 9.29 0 0 1 5.56 1.69c1.65 1.17 1.65 2.72 1.19 4.39-.38 1.38-.9 2.72-1.24 4.12a8.45 8.45 0 0 0-.23 2.6 2.71 2.71 0 0 0 1.52 2 5.23 5.23 0 0 0 2.17.69 13.23 13.23 0 0 0 2.36.2c1.58-.11 3.17-.3 4.74-.53 1.19-.17 2.37-.46 3.64-.72.24 1 .56 2.15.73 3.29.21 1.41.25 2.84.45 4.25a10.22 10.22 0 0 1-.45 4.42 3 3 0 0 1-2.34 2.35 6.77 6.77 0 0 1-2.59-.2c-1.41-.34-2.78-.85-4.17-1.24a3.71 3.71 0 0 0-3.69.44A6.21 6.21 0 0 0 40.83 70a9.8 9.8 0 0 0-.19 7.45 5.39 5.39 0 0 0 1.63 2.58 3.19 3.19 0 0 0 2.53.56c1.64-.29 3.25-.75 4.87-1.11a6.73 6.73 0 0 1 2.55-.29A3.26 3.26 0 0 1 55 81.64z"/><path class="cls-1" d="M68.45 32.35a9.51 9.51 0 0 1-1.23 7.75A3 3 0 0 1 64 41.68a18.77 18.77 0 0 1-2.66-.59 22 22 0 0 0-4-1.09 3.19 3.19 0 0 0-3.77 2.49 10 10 0 0 0-.4 4.42c.16 1 .12 2.11.29 3.15.24 1.48.58 2.94.87 4.33h.11v.13c-1.28.26-2.45.55-3.64.72-1.57.23-3.15.42-4.74.53a13.23 13.23 0 0 1-2.36-.2 5.23 5.23 0 0 1-2.17-.69 2.71 2.71 0 0 1-1.52-2 8.45 8.45 0 0 1 .21-2.6c.34-1.39.86-2.73 1.24-4.12.46-1.67.46-3.22-1.19-4.39A9.29 9.29 0 0 0 34.72 40 9.63 9.63 0 0 0 30 41.29a3 3 0 0 0-1.83 3 22.12 22.12 0 0 0 .49 3.1c.29 1.39.74 2.75.93 4.14a3.16 3.16 0 0 1-2 3.35 11.82 11.82 0 0 1-3.94.55 7.55 7.55 0 0 1-1.21-.13c-1.47-.2-3-.33-4.41-.63-1-.2-1.93-.51-2.89-.81v-.06c.45-1.7.92-3.39 1.2-5.13a20.56 20.56 0 0 0 .28-5.4 5.66 5.66 0 0 0-1.36-3.16 2.42 2.42 0 0 0-1-.56 5.11 5.11 0 0 0-3.09 0c-1.36.31-2.68.78-4 1.13a4.45 4.45 0 0 1-2.54.08A4.38 4.38 0 0 1 2 37.87a9.6 9.6 0 0 1-.6-3.1 9.82 9.82 0 0 1 1.1-5.37 3.65 3.65 0 0 1 2.08-1.92 7.12 7.12 0 0 1 3.88.31c1.3.33 2.56.77 3.87 1.07 2.39.55 3.6-.53 4.25-2.48a15.3 15.3 0 0 0 .07-7.44c-.25-1.47-.57-2.93-.93-4.38 1.13-.25 2.25-.5 3.38-.74a22.45 22.45 0 0 1 6.25-.53 7.32 7.32 0 0 1 3 .75c1.61.88 2.08 2 1.63 4.06-.38 1.77-1 3.5-1.38 5.26s-.13 3.13 1.63 4.25a9.09 9.09 0 0 0 4.46 1.27 12.78 12.78 0 0 0 2.55-.19 6.09 6.09 0 0 0 4.4-2.47 2.09 2.09 0 0 0 .19-.42 5.37 5.37 0 0 0-.14-3.21c-.37-1.71-1.14-3.31-1.21-5.11a2.88 2.88 0 0 1 1.57-3 7.71 7.71 0 0 1 4.08-.88 26.22 26.22 0 0 1 6.11.86l2.7.69A38.64 38.64 0 0 0 54 19a18.41 18.41 0 0 0-.48 6 21.23 21.23 0 0 0 .34 2.25 3.21 3.21 0 0 0 3.29 2.4 14.1 14.1 0 0 0 1.94-.33c1.65-.37 3.27-.87 4.93-1.1a3 3 0 0 1 3.38 1.65 12.33 12.33 0 0 1 1.05 2.48z"/></g></g></svg>