<svg xmlns="http://www.w3.org/2000/svg" viewBox="0 0 125.81 107.74"><defs><style>.cls-1{fill:none;stroke:#fff;stroke-linecap:round;stroke-linejoin:round;stroke-width:2.81px}</style></defs><title>Ресурс 5</title><g id="Слой_2" data-name="Слой 2"><g id="Слой_1-2" data-name="Слой 1"><path class="cls-1" d="M105.61 54.73H76.09l14.27 12.58-14.08 12.42h29.33m-29.33 11.1h29.33M57.3 72.77A33.55 33.55 0 1 0 71 45.72"/><path class="cls-1" d="M77.4 67.23c-17-14.67-9.63-22.55-4.28-33.82 5-10.54-1-20.35-12.63-20.35H17.05s-1 11 9.83 11h17.95"/><path class="cls-1" d="M82.33 36.52C83 31.64 86 27.08 88.5 21.75c5-10.54-1-20.35-12.63-20.35H32.44S32 6 34.64 9.28m-6.55 18.63A7.17 7.17 0 0 0 35.16 35h13.2m-11.11 3.65a7.17 7.17 0 0 0 7.07 7.07h7.23m-6.3 3.57a7.17 7.17 0 0 0 7.07 7.07h2.43m-1.51 3.86a13.81 13.81 0 0 0 12.63 10.06m-16.12 9.45H1.41m49.12-10.4H19.21m34.03 21.5h-30.1"/></g></g></svg>