<svg xmlns="http://www.w3.org/2000/svg" viewBox="0 0 116.81 104.02"><defs><style>.cls-1{fill:none;stroke:#fff;stroke-linecap:round;stroke-linejoin:round;stroke-width:2.81px}</style></defs><title>Ресурс 7</title><g id="Слой_2" data-name="Слой 2"><g id="Слой_1-2" data-name="Слой 1"><path class="cls-1" d="M84.18 47.27a27.51 27.51 0 0 0 1.65-5.35l7.33-1 .27-5.56-7.2-1.74a27.75 27.75 0 0 0-1.33-6.1l5.83-4.58L88.18 18l-7.12 2a28.36 28.36 0 0 0-4.19-4.61l2.76-6.88-4.68-3-5.12 5.39A27.76 27.76 0 0 0 63.89 9l-1.05-7.33-5.56-.26-1.74 7.2a27.62 27.62 0 0 0-6.09 1.32l-4.58-5.82-4.94 2.55L42 13.78A28.25 28.25 0 0 0 37.41 18l-6.89-2.76-3 4.68L32.89 25A27.73 27.73 0 0 0 31 30.94l-7.33 1-.26 5.56 7.2 1.74a27.84 27.84 0 0 0 1.33 6.1l-3.57 2.8M48.06 41a11.33 11.33 0 1 1 18.71 3.05M94.06 78.8l2.18-1.95 3.32-1.43M16.79 78.8l8.39 5.97m34.33 15.35l1.5 1.23a5.5 5.5 0 0 0 6.29-6.1"/><path class="cls-1" d="M62.21 91l7.4 6.19a5.54 5.54 0 0 0 4.66-1.57 5.1 5.1 0 0 0 1.65-4.4"/><path class="cls-1" d="M67.3 84.25l10.17 8.23a5.56 5.56 0 0 0 4.66-1.55 5.05 5.05 0 0 0 1.37-4.47m-48.64 4.38a3.78 3.78 0 0 1-7.41-.68 3.56 3.56 0 0 1 2.1-3.16 3.72 3.72 0 0 1 3.82.35 3.57 3.57 0 0 1 1.49 3.49z"/><path class="cls-1" d="M41.67 93.84a3.78 3.78 0 0 1-7.41-.67A3.58 3.58 0 0 1 36.37 90a3.72 3.72 0 0 1 3.82.35 3.56 3.56 0 0 1 1.48 3.49z"/><path class="cls-1" d="M48.49 96.84a3.78 3.78 0 0 1-7.41-.68 3.56 3.56 0 0 1 2.1-3.16 3.71 3.71 0 0 1 3.82.35 3.56 3.56 0 0 1 1.49 3.49zM56 99.67a4 4 0 0 1-7.89-.72 3.8 3.8 0 0 1 2.24-3.42 4 4 0 0 1 4.07.37A3.79 3.79 0 0 1 56 99.67zm2.52-43.56l-6.75-1.35-2.59 2.4a6.53 6.53 0 0 1-11.28-2.4l10.54-9.63 37.73 6.1 2.3-.8M73.13 77.5L85.7 88.36a5.57 5.57 0 0 0 6.3-6.15L63.77 58.64"/><path class="cls-1" transform="rotate(-25.13 103.277 58.646)" d="M97.02 43.34h12.48v30.61H97.02z"/><path class="cls-1" transform="rotate(-64.88 13.555 61.63)" d="M-1.75 55.39h30.6v12.48h-30.6z"/><path class="cls-1" d="M28.55 53.19l4.62.54 2.34-.79"/></g></g></svg>