<svg xmlns="http://www.w3.org/2000/svg" viewBox="0 0 110.81 104.58"><defs><style>.cls-1{fill:none;stroke:#fff;stroke-linecap:round;stroke-linejoin:round;stroke-width:2.81px}</style></defs><title>Ресурс 8</title><g id="Слой_2" data-name="Слой 2"><g id="Слой_1-2" data-name="Слой 1"><path class="cls-1" d="M21.49 66.14l-10.04-5.8-10.04 5.8 10.04 5.8 10.04-5.8z"/><path class="cls-1" d="M11.45 83.53V71.94l-10.04-5.8v11.59l10.04 5.8zm0 0V71.94l10.04-5.8v11.59l-10.04 5.8zm4.69-8.79l16.49 9.52M11.29 47.01v19.13m75.39 11.12l-8.34-4.32m-5.67 2.85L58 84.26m21.34-37.25v17.84M55.35 85.78l-10.04-5.79-10.04 5.79 10.04 5.8 10.04-5.8z"/><path class="cls-1" d="M45.31 103.17V91.58l-10.04-5.8v11.6l10.04 5.79zm0 0V91.58l10.04-5.8v11.6l-10.04 5.79zM55.35 7.2L45.31 1.41 35.27 7.2 45.31 13l10.04-5.8z"/><path class="cls-1" d="M45.31 24.59V13L35.27 7.2v11.6l10.04 5.79zm0 0V13l10.04-5.8v11.6l-10.04 5.79zm21.14.61l-16.12-9.3m39.05 10.95l-10.04-5.8-10.04 5.8 10.04 5.8 10.04-5.8z"/><path class="cls-1" d="M79.34 44.24V32.65l-10.04-5.8v11.59l10.04 5.8zm0 0V32.65l10.04-5.8v11.59l-10.04 5.8zM40.29 15.9l-15.91 9.18m-2.89 1.77l-10.04-5.8-10.04 5.8 10.04 5.8 10.04-5.8z"/><path class="cls-1" d="M11.45 44.24V32.65l-10.04-5.8v11.59l10.04 5.8zm0 0V32.65l10.04-5.8v11.59l-10.04 5.8zm97.96 34.54l-10.04-5.79-10.04 5.79 10.04 5.8 10.04-5.8z"/><path class="cls-1" d="M99.37 96.17V84.58l-10.04-5.8v11.6l10.04 5.79zm0 0V84.58l10.04-5.8v11.6l-10.04 5.79zM32.59 44.95l-16.28-9.41m29.01 50.24l-.01-19.3m13.43-21.94l16.18-9.34m3.42 44.92v-7.15m0 0l6.32-3.66M55.35 46.49L45.31 40.7l-10.04 5.79 10.04 5.8 10.04-5.8z"/><path class="cls-1" d="M45.31 63.88V52.29l-10.04-5.8v11.6l10.04 5.79zm0 0V52.29l10.04-5.8v11.6l-10.04 5.79z"/></g></g></svg>