<svg xmlns="http://www.w3.org/2000/svg" viewBox="0 0 109.35 123.81"><defs><style>.cls-1{fill:none;stroke:#fff;stroke-linecap:round;stroke-linejoin:round;stroke-width:2.81px}</style></defs><title>Ресурс 9</title><g id="Слой_2" data-name="Слой 2"><g id="Слой_1-2" data-name="Слой 1"><path class="cls-1" d="M66.9 46.96H42.45l11.82 10.42-11.66 10.29H66.9m-24.29 9.19H66.9"/><circle class="cls-1" cx="54.68" cy="61.91" r="26.52"/><circle class="cls-1" cx="54.68" cy="61.91" r="37.47"/><path class="cls-1" d="M50.9 20.12h7.55M52.93 1.41a16.42 16.42 0 0 0 0 15.86m3.5-15.86a16.42 16.42 0 0 1 0 15.86"/><circle class="cls-1" cx="54.68" cy="29.91" r="2.27"/><path class="cls-1" d="M16.6 44.28l3.78-6.54M1.41 33.17a16.42 16.42 0 0 0 13.73 7.93M3.16 30.14a16.42 16.42 0 0 1 13.73 7.93"/><circle class="cls-1" cx="26.97" cy="45.91" r="2.27" transform="rotate(-60 26.97 45.905)"/><path class="cls-1" d="M20.38 86.07l-3.78-6.54M3.16 93.67a16.42 16.42 0 0 0 13.73-7.93m-15.48 4.9a16.42 16.42 0 0 1 13.73-7.93"/><circle class="cls-1" cx="26.97" cy="77.91" r="2.27" transform="rotate(-30.01 26.963 77.906)"/><path class="cls-1" d="M58.45 103.69H50.9m5.53 18.72a16.42 16.42 0 0 0 0-15.86m-3.5 15.86a16.42 16.42 0 0 1 0-15.86"/><circle class="cls-1" cx="54.68" cy="93.9" r="2.27"/><path class="cls-1" d="M92.75 79.53l-3.78 6.54m18.98 4.57a16.42 16.42 0 0 0-13.73-7.93m11.98 10.96a16.42 16.42 0 0 1-13.73-7.93"/><circle class="cls-1" cx="82.39" cy="77.91" r="2.27" transform="rotate(-60.01 82.386 77.906)"/><path class="cls-1" d="M88.97 37.75l3.78 6.54m13.45-14.15a16.42 16.42 0 0 0-13.73 7.93m15.48-4.9a16.42 16.42 0 0 1-13.74 7.93"/><circle class="cls-1" cx="82.39" cy="45.91" r="2.27" transform="rotate(-30.01 82.384 45.915)"/></g></g></svg>