<svg xmlns="http://www.w3.org/2000/svg" viewBox="0 0 158.47 30.1"><defs><style>.cls-1{fill:#a58242}.cls-2{fill:#fff}</style></defs><title>logo</title><g id="Слой_2" data-name="Слой 2"><g id="Layer_1" data-name="Layer 1"><path class="cls-1" d="M0 26.76h19.11v3.34H0zM17.08 6.68l2.03-3.34V0H0v3.36l5.06 8.35L0 20.06v3.35h19.11v-3.34l-2.03-3.34h-4.49l2.03 3.34H4.48l5.07-8.36-5.07-8.36h10.16L12.6 6.68h4.48z"/><path class="cls-2" d="M46.97 5.72h-4.52l-3.96 6.48-3.92-6.48h-4.52l5.46 8.77L30 23.32h4.52l3.97-6.53 4.01 6.53h4.52l-5.51-8.83 5.46-8.77zm35.85-.4a9.21 9.21 0 1 0 9.4 9.23 9.22 9.22 0 0 0-9.4-9.23zm0 15a5.53 5.53 0 0 1-5.57-5.73 5.58 5.58 0 1 1 11.14 0 5.53 5.53 0 0 1-5.57 5.69zm47.03-15a9.21 9.21 0 1 0 9.4 9.23 9.22 9.22 0 0 0-9.4-9.23zm0 15a5.53 5.53 0 0 1-5.57-5.73 5.58 5.58 0 1 1 11.14 0 5.53 5.53 0 0 1-5.57 5.69zm-18.99-3.08l-9.75-11.51h-3.23v17.59h3.84V12.18l9.43 11.14h3.54V5.73h-3.83v11.51zm-42.78-5.88c0-3.36-2.51-5.63-6.24-5.63h-8.9v17.6h3.82V17h2.38l5.33 6.27h4.84l-5.54-6.54a5.59 5.59 0 0 0 4.31-5.37zM61.36 14h-4.59V8.9h4.59c1.78 0 3 1 3 2.52s-1.22 2.58-3 2.58zm89.92 9.73c-4.08 0-7.05-2-7.62-5l4.08-.78a3.57 3.57 0 0 0 3.78 2.64c1.81 0 3-.85 3-2.17 0-1-.57-1.61-1.92-1.89l-3.8-.81c-3.13-.72-4.65-2.35-4.65-5 0-3.3 2.71-5.43 6.9-5.43 3.76 0 6.42 1.77 7.17 4.76l-3.83.77A3.37 3.37 0 0 0 151 8.33c-1.61 0-2.74.88-2.74 2.14 0 1 .54 1.56 1.7 1.81l3.77.84c3.16.71 4.76 2.39 4.76 5-.02 3.88-3.63 5.61-7.21 5.61z"/></g></g></svg>